<svg id="Capa_1" data-name="Capa 1" xmlns="http://www.w3.org/2000/svg" viewBox="0 0 49.49 60.12"><defs><style>.cls-1{fill:#ffcd00;}.cls-2{fill:#2f292b;}</style></defs><title>request</title><path class="cls-1" d="M43.53,50H9.92V27.28a.88.88,0,0,1,.1-.63.67.67,0,0,1,.17-.19c.24-.22,1.62-1.39,3.51-3,0,2,0,4.05,0,6.08l11.75,8.17L38,29q.06-3.48.11-7l5.09,4.31a1.16,1.16,0,0,1,.19.23,1.23,1.23,0,0,1,.17.67Z"/><path class="cls-2" d="M43.1,25.22A.42.42,0,0,0,43,25s0,0,0,0a.27.27,0,0,0-.07-.08l-4.88-4.13V9.3a.41.41,0,0,0-.42-.41H13.27a.42.42,0,0,0-.42.42V20.79L8,24.93,7.92,25l0,0a.45.45,0,0,0,0,.19v24a.41.41,0,0,0,.41.42l34.44,0a.41.41,0,0,0,.41-.41v-24Zm-16.9,12L42.27,26V48.4Zm-1.45,0L8.68,48.42V26ZM13.68,9.73H37.24V28.51L25.47,36.72l-11.78-8.2Zm11.8,28,15.9,11.05-31.8,0ZM42,25.2l-3.93,2.73V21.87ZM12.86,28,8.93,25.21l3.93-3.33Z"/><path class="cls-2" d="M16.13,16.39H34.8a.42.42,0,1,0,0-.83H16.13a.41.41,0,0,0-.42.41A.42.42,0,0,0,16.13,16.39Z"/><path class="cls-2" d="M16.13,22H34.81a.41.41,0,0,0,.41-.41.42.42,0,0,0-.42-.42H16.13a.41.41,0,0,0-.41.42A.41.41,0,0,0,16.13,22Z"/><path class="cls-2" d="M16.13,27.29H34.81a.41.41,0,0,0,.41-.41.41.41,0,0,0-.41-.42H16.13a.41.41,0,0,0-.41.42A.41.41,0,0,0,16.13,27.29Z"/></svg>