<?xml version="1.0" encoding="utf-8"?>
<!-- Generator: Adobe Illustrator 24.0.1, SVG Export Plug-In . SVG Version: 6.00 Build 0)  -->
<svg version="1.1" id="Capa_1" xmlns="http://www.w3.org/2000/svg" xmlns:xlink="http://www.w3.org/1999/xlink" x="0px" y="0px"
	 width="49.5px" height="60.1px" viewBox="0 0 49.5 60.1" style="enable-background:new 0 0 49.5 60.1;" xml:space="preserve">
<style type="text/css">
	.st0{fill:#FFCD00;}
	.st1{fill:#231F20;}
</style>
<path class="st0" d="M33.5,18.3H14.3C8.4,18.3,3.5,23.5,3.5,30c0,6.1,4.4,11.3,10.1,11.6c0.2,0,0.4,0.2,0.5,0.4l0.8,6.3l7-6.5
	c0.1-0.1,0.2-0.1,0.3-0.1h11.2c0.3,0,0.7,0,1.1-0.1c0.3,0,0.5-0.1,0.7-0.1l0,0l0,0l0,0c-0.1-0.4-0.3-0.9-0.4-1.3
	c2.1-6.1,4.2-12.2,6.3-18.3c-0.6-0.7-1.6-1.6-3-2.4C36.2,18.5,34.4,18.3,33.5,18.3z"/>
<path class="st1" d="M12.2,25.7c-1.9,0-3.4,1.5-3.4,3.4s1.5,3.4,3.4,3.4s3.4-1.5,3.4-3.4S14.1,25.7,12.2,25.7z M12.2,31.6
	c-1.3,0-2.4-1.1-2.4-2.4s1.1-2.4,2.4-2.4s2.4,1.1,2.4,2.4S13.6,31.6,12.2,31.6z"/>
<path class="st1" d="M36,29.1c0-1.9-1.5-3.4-3.4-3.4s-3.4,1.5-3.4,3.4s1.5,3.4,3.4,3.4S36,31,36,29.1z M32.5,26.7
	c1.3,0,2.4,1.1,2.4,2.4s-1.1,2.4-2.4,2.4s-2.4-1.1-2.4-2.4S31.2,26.7,32.5,26.7z"/>
<path class="st1" d="M22.4,25.7c-1.9,0-3.4,1.5-3.4,3.4s1.5,3.4,3.4,3.4s3.4-1.5,3.4-3.4S24.3,25.7,22.4,25.7z M22.4,31.6
	c-1.3,0-2.4-1.1-2.4-2.4s1.1-2.4,2.4-2.4s2.4,1.1,2.4,2.4S23.7,31.6,22.4,31.6z"/>
<path class="st1" d="M49.5,13.6l-5.5-1.8c-0.1,0-0.3,0-0.4,0c-0.1,0.1-0.2,0.2-0.3,0.3l-1.3,3.9c0,0,0,0,0,0s0,0,0,0L40.7,20
	c-2.2-2.6-5.3-4.2-8.8-4.2H12.8C6.3,15.8,1,21.5,1,28.5C1,35,5.7,40.4,11.7,41l0.9,6.9c0,0.2,0.2,0.3,0.3,0.4c0.1,0,0.1,0,0.2,0
	c0.1,0,0.2,0,0.3-0.1l7.5-7.1h11c0.8,0,1.5-0.1,2.2-0.2l0.2,2.3c0,0,0,0,0,0c0,0,0,0,0,0l0.4,3.6c0,0.2,0.2,0.4,0.3,0.4
	c0.1,0,0.1,0,0.2,0c0.1,0,0.3-0.1,0.4-0.2l4.7-5c0.1-0.1,0.1-0.1,0.1-0.2c0,0,0,0,0,0l8-23.8c0,0,0,0,0,0c0,0,0,0,0,0l1.3-3.9
	C50,13.9,49.8,13.6,49.5,13.6z M20.5,40.3l-7,6.5l-0.8-6.3c0-0.2-0.2-0.4-0.5-0.4C6.5,39.7,2,34.6,2,28.5C2,22,6.9,16.8,12.8,16.8
	H32c3.4,0,6.4,1.7,8.4,4.4l-6.3,18.6c0,0,0,0,0,0c0,0,0,0.1,0,0.1c0,0,0,0,0,0.1c-0.7,0.1-1.4,0.2-2.1,0.2H20.8
	C20.7,40.1,20.6,40.2,20.5,40.3z M42.9,16.7l4.5,1.5l-7.6,22.6c-0.6-0.5-1.3-0.9-2-1.1c-0.8-0.3-1.7-0.4-2.5-0.4L42.9,16.7z
	 M35.1,40.3c0.8-0.1,1.6,0.1,2.3,0.3c0.7,0.2,1.3,0.6,1.9,1.1l-1.6,1.7c-0.3-0.2-0.7-0.5-1.2-0.6c-0.4-0.1-0.8-0.2-1.2-0.2
	L35.1,40.3z M36.3,43.7c0.3,0.1,0.6,0.3,0.8,0.4l-1.4,1.5l-0.2-2C35.7,43.6,36,43.7,36.3,43.7z M47.8,17.3l-4.5-1.5l1-2.9l4.5,1.5
	L47.8,17.3z"/>
</svg>
