<?xml version="1.0" encoding="utf-8"?>
<!-- Generator: Adobe Illustrator 24.0.1, SVG Export Plug-In . SVG Version: 6.00 Build 0)  -->
<svg version="1.1" id="Layer_1" xmlns="http://www.w3.org/2000/svg" xmlns:xlink="http://www.w3.org/1999/xlink" x="0px" y="0px"
	 width="793px" height="1224.3px" viewBox="0 0 793 1224.3" style="enable-background:new 0 0 793 1224.3;" xml:space="preserve">
<style type="text/css">
	.st0{opacity:0.3;}
	.st1{fill:#FFCE06;}
</style>
<g class="st0">
	<polygon class="st1" points="147.1,1185.7 147.1,1185.7 97.1,1163.6 96.7,1163.4 45.7,1185.9 45.7,1223.8 47.7,1223.8 47.7,1187.2 
		96.7,1165.6 145.7,1187.2 145.7,1223.8 147.7,1223.8 147.7,1185.9 	"/>
	<polygon class="st1" points="564.3,1173.8 497.1,1144.1 496.7,1143.9 429.1,1173.8 429.1,1223.8 431.1,1223.8 431.1,1175.1 
		496.7,1146.1 562.3,1175.1 562.3,1223.8 564.3,1223.8 	"/>
	<polygon class="st1" points="736.9,1123.2 714.5,1113.4 714.5,1112.4 714.4,1010.9 714.4,1010.3 696.7,1002.5 679,1010.3 
		679,1030.8 679,1113.3 656.4,1123.2 656.5,1123.2 596.7,1149.6 596.7,1149.6 596.7,1149.6 536.9,1123.2 536.9,1123.2 514.5,1113.4 
		514.5,1112.4 514.4,1010.9 514.4,1010.3 496.7,1002.5 479,1010.3 479,1030.8 479,1113.3 456.4,1123.2 456.5,1123.2 396.7,1149.6 
		396.7,1149.6 396.7,1149.6 336.9,1123.2 336.9,1123.2 314.5,1113.4 314.5,1112.4 314.4,1010.9 314.4,1010.3 296.7,1002.5 
		279,1010.3 279,1030.8 279,1113.3 256.4,1123.2 256.5,1123.2 196.7,1149.6 196.7,1149.6 196.7,1149.6 136.9,1123.2 136.9,1123.2 
		114.5,1113.4 114.5,1112.4 114.4,1010.9 114.4,1010.3 96.7,1002.5 79,1010.3 79,1030.8 79,1113.3 56.4,1123.2 56.5,1123.2 
		-0.2,1148.3 -0.2,1150.5 61.4,1123.2 61.3,1123.2 80.4,1114.8 81,1114.5 81,1031.5 81,1011.6 96.7,1004.7 112.4,1011.6 
		112.4,1031.5 112.4,1031.5 112.4,1031.5 112.4,1031.5 112.5,1114 112.5,1114.7 132,1123.2 132,1123.2 195.7,1151.4 195.7,1223.8 
		197.7,1223.8 197.7,1151.4 261.4,1123.2 261.3,1123.2 280.4,1114.8 281,1114.5 281,1031.5 281,1011.6 296.7,1004.7 312.4,1011.6 
		312.4,1031.5 312.4,1031.5 312.4,1031.5 312.4,1031.5 312.5,1114 312.5,1114.7 332,1123.2 332,1123.2 395.7,1151.4 395.7,1223.8 
		397.7,1223.8 397.7,1151.4 461.4,1123.2 461.3,1123.2 480.4,1114.8 481,1114.5 481,1031.5 481,1011.6 496.7,1004.7 512.4,1011.6 
		512.4,1031.5 512.4,1031.5 512.4,1031.5 512.4,1031.5 512.5,1114 512.5,1114.7 532,1123.2 532,1123.2 595.7,1151.4 595.7,1223.8 
		597.7,1223.8 597.7,1151.4 661.4,1123.2 661.3,1123.2 680.4,1114.8 681,1114.5 681,1031.5 681,1011.6 696.7,1004.7 712.4,1011.6 
		712.4,1031.5 712.4,1031.5 712.4,1031.5 712.4,1031.5 712.5,1114 712.5,1114.7 732,1123.2 732,1123.2 791.8,1149.7 791.8,1147.5 	
		"/>
	<polygon class="st1" points="747.8,1089 747.7,1027.9 747.7,985.9 747.1,985.7 747.1,985.7 697.1,963.6 696.7,963.4 645.7,985.9 
		645.7,1048.3 645.7,1088.8 645.7,1088.8 645.7,1089 596.8,1110.6 596.7,1110.6 596.7,1110.6 547.8,1089 547.7,1027.9 547.7,985.9 
		547.1,985.7 547.1,985.7 497.1,963.6 496.7,963.4 445.7,985.9 445.7,1048.3 445.7,1088.8 445.7,1088.8 445.7,1089 396.7,1110.6 
		396.7,1110.6 396.7,1110.6 347.8,1089 347.7,1027.9 347.7,985.9 347.1,985.7 347.1,985.7 297.1,963.6 296.7,963.4 245.7,985.9 
		245.7,1048.3 245.7,1088.8 245.7,1088.8 245.7,1089 196.8,1110.6 196.7,1110.6 196.7,1110.6 147.8,1089 147.7,1027.9 147.7,985.9 
		147.1,985.7 147.1,985.7 97.1,963.6 96.7,963.4 45.7,985.9 45.7,1048.3 45.7,1088.8 45.7,1088.8 45.7,1089 -0.2,1109.3 
		-0.2,1111.5 47.7,1090.3 47.7,1027.9 47.7,1027.9 47.7,987.2 96.7,965.6 145.7,987.2 145.7,1048.3 145.7,1048.3 145.7,1048.3 
		145.7,1048.3 145.8,1089.7 145.8,1089.7 145.8,1090.3 196.7,1112.8 196.7,1112.8 196.8,1112.8 247.7,1090.3 247.7,1027.9 
		247.7,1027.9 247.7,987.2 296.7,965.6 345.7,987.2 345.7,1048.3 345.7,1048.3 345.7,1048.3 345.7,1048.3 345.8,1089.7 
		345.8,1089.7 345.8,1090.3 396.7,1112.8 396.7,1112.8 396.7,1112.8 447.7,1090.3 447.7,1027.9 447.7,1027.9 447.7,987.2 
		496.7,965.6 545.7,987.2 545.7,1048.3 545.7,1048.3 545.7,1048.3 545.7,1048.3 545.8,1089.7 545.8,1089.7 545.8,1090.3 
		596.7,1112.8 596.7,1112.8 596.8,1112.8 647.7,1090.3 647.7,1027.9 647.7,1027.9 647.7,987.2 696.7,965.6 745.7,987.2 
		745.7,1048.3 745.7,1048.3 745.7,1048.3 745.7,1048.3 745.8,1089.7 745.8,1089.7 745.8,1090.3 791.8,1110.6 791.8,1108.5 	"/>
	<polygon class="st1" points="296.7,1182.9 262.4,1198.1 262.4,1223.8 264.4,1223.8 264.4,1219.5 264.4,1219.5 264.4,1199.4 
		296.7,1185.1 329.1,1199.4 329.1,1223.8 331.1,1223.8 331,1198.1 	"/>
	<polygon class="st1" points="364.3,1173.8 297.1,1144.1 296.7,1143.9 229.1,1173.8 229.1,1223.8 231.1,1223.8 231.1,1175.1 
		296.7,1146.1 362.3,1175.1 362.3,1223.8 364.3,1223.8 	"/>
	<polygon class="st1" points="96.7,1182.9 62.4,1198.1 62.4,1223.8 64.4,1223.8 64.4,1219.5 64.4,1219.5 64.4,1199.4 96.7,1185.1 
		129.1,1199.4 129.1,1223.8 131.1,1223.8 131.1,1198.1 	"/>
	<polygon class="st1" points="164.3,1173.8 97.1,1144.1 96.7,1143.9 29.1,1173.8 29.1,1223.8 31.1,1223.8 31.1,1175.1 96.7,1146.1 
		162.3,1175.1 162.3,1223.8 164.3,1223.8 	"/>
	<polygon class="st1" points="781.1,1123.2 779.6,1122.6 779.6,1122.6 731.1,1101.2 731.1,1039.3 730.1,1039.3 731.1,1039.3 
		731.1,998.1 696.7,982.9 662.4,998.1 662.4,1039.9 662.4,1101.1 612.1,1123.2 612.2,1123.2 596.7,1130.1 596.7,1130.1 
		581.2,1123.2 581.1,1123.2 579.6,1122.6 579.6,1122.6 531.1,1101.2 531.1,1039.3 530.1,1039.3 531.1,1039.3 531,998.1 496.7,982.9 
		462.4,998.1 462.4,1039.9 462.4,1101.1 412.1,1123.2 412.2,1123.2 396.7,1130.1 396.7,1130.1 381.2,1123.2 381.1,1123.2 
		379.6,1122.6 379.6,1122.6 331.1,1101.2 331.1,1039.3 330.1,1039.3 331.1,1039.3 331,998.1 296.7,982.9 262.4,998.1 262.4,1039.9 
		262.4,1101.1 212.1,1123.2 212.2,1123.2 196.7,1130.1 196.7,1130.1 181.2,1123.2 181.1,1123.2 179.6,1122.6 179.6,1122.6 
		131.1,1101.2 131.1,1039.3 130.1,1039.3 131.1,1039.3 131.1,998.1 96.7,982.9 62.4,998.1 62.4,1039.9 62.4,1101.1 12.1,1123.2 
		12.2,1123.2 -0.2,1128.7 -0.2,1130.9 17.2,1123.2 17.1,1123.2 63.8,1102.6 64.4,1102.4 64.4,1019.5 64.4,1019.5 64.4,999.4 
		96.7,985.1 129.1,999.4 129.1,1039.3 129.1,1102.5 176.2,1123.2 176.2,1123.2 196.3,1132.1 196.7,1132.3 196.7,1132.3 
		217.2,1123.2 217.1,1123.2 263.8,1102.6 264.4,1102.4 264.4,1019.5 264.4,1019.5 264.4,999.4 296.7,985.1 329.1,999.4 
		329.1,1039.3 329.1,1102.5 376.2,1123.2 376.2,1123.2 396.3,1132.1 396.7,1132.3 396.7,1132.3 417.2,1123.2 417.1,1123.2 
		463.8,1102.6 464.4,1102.4 464.4,1019.5 464.4,1019.5 464.4,999.4 496.7,985.1 529.1,999.4 529.1,1039.3 529.1,1102.5 
		576.2,1123.2 576.2,1123.2 596.3,1132.1 596.7,1132.3 596.7,1132.3 617.2,1123.2 617.1,1123.2 663.8,1102.6 664.4,1102.4 
		664.4,1019.5 664.4,1019.5 664.4,999.4 696.7,985.1 729.1,999.4 729.1,1039.3 729.1,1102.5 776.2,1123.2 776.2,1123.2 
		791.8,1130.1 791.8,1127.9 781.2,1123.2 	"/>
	<polygon class="st1" points="747.8,689 747.7,627.9 747.7,585.9 747.1,585.7 747.1,585.7 697.1,563.6 696.7,563.4 645.7,585.9 
		645.7,648.3 645.7,688.8 645.7,688.8 645.7,689 596.8,710.6 596.7,710.6 596.7,710.6 547.8,689 547.7,627.9 547.7,585.9 
		547.1,585.7 547.1,585.7 497.1,563.6 496.7,563.4 445.7,585.9 445.7,648.3 445.7,688.8 445.7,688.8 445.7,689 396.7,710.6 
		396.7,710.6 396.7,710.6 347.8,689 347.7,627.9 347.7,585.9 347.1,585.7 347.1,585.7 297.1,563.6 296.7,563.4 245.7,585.9 
		245.7,648.3 245.7,688.8 245.7,688.8 245.7,689 196.8,710.6 196.7,710.6 196.7,710.6 147.8,689 147.7,627.9 147.7,585.9 
		147.1,585.7 147.1,585.7 97.1,563.6 96.7,563.4 45.7,585.9 45.7,648.3 45.7,688.8 45.7,688.8 45.7,689 -0.2,709.3 -0.2,711.5 
		47.7,690.3 47.7,627.9 47.7,627.9 47.7,587.2 96.7,565.6 145.7,587.2 145.7,648.3 145.7,648.3 145.7,648.3 145.7,648.3 
		145.8,689.7 145.8,689.7 145.8,690.3 196.7,712.8 196.7,712.8 196.8,712.8 247.7,690.3 247.7,627.9 247.7,627.9 247.7,587.2 
		296.7,565.6 345.7,587.2 345.7,648.3 345.7,648.3 345.7,648.3 345.7,648.3 345.8,689.7 345.8,689.7 345.8,690.3 396.7,712.8 
		396.7,712.8 396.7,712.8 447.7,690.3 447.7,627.9 447.7,627.9 447.7,587.2 496.7,565.6 545.7,587.2 545.7,648.3 545.7,648.3 
		545.7,648.3 545.7,648.3 545.8,689.7 545.8,689.7 545.8,690.3 596.7,712.8 596.7,712.8 596.8,712.8 647.7,690.3 647.7,627.9 
		647.7,627.9 647.7,587.2 696.7,565.6 745.7,587.2 745.7,648.3 745.7,648.3 745.7,648.3 745.7,648.3 745.8,689.7 745.8,689.7 
		745.8,690.3 791.8,710.6 791.8,708.5 	"/>
	<polygon class="st1" points="736.9,723.2 714.5,713.4 714.5,712.4 714.4,610.9 714.4,610.3 696.7,602.5 679,610.3 679,630.8 
		679,713.3 656.4,723.2 656.5,723.2 596.7,749.6 596.7,749.6 596.7,749.6 536.9,723.2 536.9,723.2 514.5,713.4 514.5,712.4 
		514.4,610.9 514.4,610.3 496.7,602.5 479,610.3 479,630.8 479,713.3 456.4,723.2 456.5,723.2 396.7,749.6 396.7,749.6 396.7,749.6 
		336.9,723.2 336.9,723.2 314.5,713.4 314.5,712.4 314.4,610.9 314.4,610.3 296.7,602.5 279,610.3 279,630.8 279,713.3 256.4,723.2 
		256.5,723.2 196.7,749.6 196.7,749.6 196.7,749.6 136.9,723.2 136.9,723.2 114.5,713.4 114.5,712.4 114.4,610.9 114.4,610.3 
		96.7,602.5 79,610.3 79,630.8 79,713.3 56.4,723.2 56.5,723.2 -0.2,748.3 -0.2,750.5 61.4,723.2 61.3,723.2 80.4,714.8 81,714.5 
		81,631.5 81,611.6 96.7,604.7 112.4,611.6 112.4,631.5 112.4,631.5 112.4,631.5 112.4,631.5 112.5,714 112.5,714.7 132,723.2 
		132,723.2 195.7,751.4 195.7,853.5 195.7,853.5 195.7,853.5 196.7,853.5 196.7,853.5 197.7,853.5 197.7,751.4 261.4,723.2 
		261.3,723.2 280.4,714.8 281,714.5 281,631.5 281,611.6 296.7,604.7 312.4,611.6 312.4,631.5 312.4,631.5 312.4,631.5 312.4,631.5 
		312.5,714 312.5,714.7 332,723.2 332,723.2 395.7,751.4 395.7,853.5 395.7,853.5 395.7,853.5 396.7,853.5 396.7,853.5 397.7,853.5 
		397.7,751.4 461.4,723.2 461.3,723.2 480.4,714.8 481,714.5 481,631.5 481,611.6 496.7,604.7 512.4,611.6 512.4,631.5 512.4,631.5 
		512.4,631.5 512.4,631.5 512.5,714 512.5,714.7 532,723.2 532,723.2 595.7,751.4 595.7,853.5 595.7,853.5 595.7,853.5 596.7,853.5 
		596.7,853.5 597.7,853.5 597.7,751.4 661.4,723.2 661.3,723.2 680.4,714.8 681,714.5 681,631.5 681,611.6 696.7,604.7 712.4,611.6 
		712.4,631.5 712.4,631.5 712.4,631.5 712.4,631.5 712.5,714 712.5,714.7 732,723.2 732,723.2 791.8,749.7 791.8,747.5 	"/>
	<polygon class="st1" points="764.4,876.8 764.3,836.6 764.3,836.6 764.3,773.8 697.1,744.1 696.7,743.9 629.1,773.8 629.1,856.7 
		629.1,876.8 596.8,891.1 596.7,891.1 596.7,891.1 564.4,876.8 564.3,836.6 564.3,836.6 564.3,773.8 497.1,744.1 496.7,743.9 
		429.1,773.8 429.1,856.7 429.1,876.8 396.7,891.1 396.7,891.1 396.7,891.1 364.4,876.8 364.3,836.6 364.3,836.6 364.3,773.8 
		297.1,744.1 296.7,743.9 229.1,773.8 229.1,856.7 229.1,876.8 196.8,891.1 196.7,891.1 196.7,891.1 164.4,876.8 164.3,836.6 
		164.3,836.6 164.3,773.8 97.1,744.1 96.7,743.9 29.1,773.8 29.1,856.7 29.1,876.8 -0.2,889.7 -0.2,891.9 31.1,878.1 31.1,837.2 
		31.1,775.1 96.7,746.1 162.3,775.1 162.3,836.2 162.3,836.2 162.4,878.1 196.7,893.2 196.7,893.2 196.8,893.3 231.1,878.1 
		231.1,837.2 231.1,775.1 296.7,746.1 362.3,775.1 362.3,836.2 362.3,836.2 362.4,878.1 396.7,893.2 396.7,893.2 396.7,893.3 
		431.1,878.1 431.1,837.2 431.1,775.1 496.7,746.1 562.3,775.1 562.3,836.2 562.3,836.2 562.4,878.1 596.7,893.2 596.7,893.2 
		596.8,893.3 631.1,878.1 631.1,837.2 631.1,775.1 696.7,746.1 762.3,775.1 762.3,836.2 762.3,836.2 762.4,878.1 791.8,891.1 
		791.8,888.9 	"/>
	<polygon class="st1" points="764.4,1076.8 764.3,1036.6 764.3,1036.6 764.3,973.8 697.1,944.1 696.7,943.9 629.1,973.8 
		629.1,1056.7 629.1,1076.8 596.8,1091.1 596.7,1091.1 596.7,1091.1 564.4,1076.8 564.3,1036.6 564.3,1036.6 564.3,973.8 
		497.1,944.1 496.7,943.9 429.1,973.8 429.1,1056.7 429.1,1076.8 396.7,1091.1 396.7,1091.1 396.7,1091.1 364.4,1076.8 
		364.3,1036.6 364.3,1036.6 364.3,973.8 297.1,944.1 296.7,943.9 229.1,973.8 229.1,1056.7 229.1,1076.8 196.8,1091.1 196.7,1091.1 
		196.7,1091.1 164.4,1076.8 164.3,1036.6 164.3,1036.6 164.3,973.8 97.1,944.1 96.7,943.9 29.1,973.8 29.1,1056.7 29.1,1076.8 
		-0.2,1089.7 -0.2,1091.9 31.1,1078.1 31.1,1037.2 31.1,975.1 96.7,946.1 162.3,975.1 162.3,1036.2 162.3,1036.2 162.4,1078.1 
		196.7,1093.2 196.7,1093.2 196.8,1093.3 231.1,1078.1 231.1,1037.2 231.1,975.1 296.7,946.1 362.3,975.1 362.3,1036.2 
		362.3,1036.2 362.4,1078.1 396.7,1093.2 396.7,1093.2 396.7,1093.3 431.1,1078.1 431.1,1037.2 431.1,975.1 496.7,946.1 
		562.3,975.1 562.3,1036.2 562.3,1036.2 562.4,1078.1 596.7,1093.2 596.7,1093.2 596.8,1093.3 631.1,1078.1 631.1,1037.2 
		631.1,975.1 696.7,946.1 762.3,975.1 762.3,1036.2 762.3,1036.2 762.4,1078.1 791.8,1091.1 791.8,1088.9 	"/>
	<polygon class="st1" points="781.1,723.2 779.6,722.6 779.6,722.6 731.1,701.2 731.1,639.3 730.1,639.3 731.1,639.3 731.1,598.1 
		696.7,582.9 662.4,598.1 662.4,639.9 662.4,701.1 612.1,723.2 612.2,723.2 596.7,730.1 596.7,730.1 581.2,723.2 581.1,723.2 
		579.6,722.6 579.6,722.6 531.1,701.2 531.1,639.3 530.1,639.3 531.1,639.3 531,598.1 496.7,582.9 462.4,598.1 462.4,639.9 
		462.4,701.1 412.1,723.2 412.2,723.2 396.7,730.1 396.7,730.1 381.2,723.2 381.1,723.2 379.6,722.6 379.6,722.6 331.1,701.2 
		331.1,639.3 330.1,639.3 331.1,639.3 331,598.1 296.7,582.9 262.4,598.1 262.4,639.9 262.4,701.1 212.1,723.2 212.2,723.2 
		196.7,730.1 196.7,730.1 181.2,723.2 181.1,723.2 179.6,722.6 179.6,722.6 131.1,701.2 131.1,639.3 130.1,639.3 131.1,639.3 
		131.1,598.1 96.7,582.9 62.4,598.1 62.4,639.9 62.4,701.1 12.1,723.2 12.2,723.2 -0.2,728.7 -0.2,730.9 17.2,723.2 17.1,723.2 
		63.8,702.6 64.4,702.4 64.4,619.5 64.4,619.5 64.4,599.4 96.7,585.1 129.1,599.4 129.1,639.3 129.1,702.5 176.2,723.2 176.2,723.2 
		196.3,732.1 196.7,732.3 196.7,732.3 217.2,723.2 217.1,723.2 263.8,702.6 264.4,702.4 264.4,619.5 264.4,619.5 264.4,599.4 
		296.7,585.1 329.1,599.4 329.1,639.3 329.1,702.5 376.2,723.2 376.2,723.2 396.3,732.1 396.7,732.3 396.7,732.3 417.2,723.2 
		417.1,723.2 463.8,702.6 464.4,702.4 464.4,619.5 464.4,619.5 464.4,599.4 496.7,585.1 529.1,599.4 529.1,639.3 529.1,702.5 
		576.2,723.2 576.2,723.2 596.3,732.1 596.7,732.3 596.7,732.3 617.2,723.2 617.1,723.2 663.8,702.6 664.4,702.4 664.4,619.5 
		664.4,619.5 664.4,599.4 696.7,585.1 729.1,599.4 729.1,639.3 729.1,702.5 776.2,723.2 776.2,723.2 791.8,730.1 791.8,727.9 
		781.2,723.2 	"/>
	<polygon class="st1" points="747.8,889 747.7,827.9 747.7,785.9 747.1,785.7 747.1,785.7 697.1,763.6 696.7,763.4 645.7,785.9 
		645.7,848.3 645.7,888.8 645.7,888.8 645.7,889 596.8,910.6 596.7,910.6 596.7,910.6 547.8,889 547.7,827.9 547.7,785.9 
		547.1,785.7 547.1,785.7 497.1,763.6 496.7,763.4 445.7,785.9 445.7,848.3 445.7,888.8 445.7,888.8 445.7,889 396.7,910.6 
		396.7,910.6 396.7,910.6 347.8,889 347.7,827.9 347.7,785.9 347.1,785.7 347.1,785.7 297.1,763.6 296.7,763.4 245.7,785.9 
		245.7,848.3 245.7,888.8 245.7,888.8 245.7,889 196.8,910.6 196.7,910.6 196.7,910.6 147.8,889 147.7,827.9 147.7,785.9 
		147.1,785.7 147.1,785.7 97.1,763.6 96.7,763.4 45.7,785.9 45.7,848.3 45.7,888.8 45.7,888.8 45.7,889 -0.2,909.3 -0.2,911.5 
		47.7,890.3 47.7,827.9 47.7,827.9 47.7,787.2 96.7,765.6 145.7,787.2 145.7,848.3 145.7,848.3 145.7,848.3 145.7,848.3 
		145.8,889.7 145.8,889.7 145.8,890.3 196.7,912.8 196.7,912.8 196.8,912.8 247.7,890.3 247.7,827.9 247.7,827.9 247.7,787.2 
		296.7,765.6 345.7,787.2 345.7,848.3 345.7,848.3 345.7,848.3 345.7,848.3 345.8,889.7 345.8,889.7 345.8,890.3 396.7,912.8 
		396.7,912.8 396.7,912.8 447.7,890.3 447.7,827.9 447.7,827.9 447.7,787.2 496.7,765.6 545.7,787.2 545.7,848.3 545.7,848.3 
		545.7,848.3 545.7,848.3 545.8,889.7 545.8,889.7 545.8,890.3 596.7,912.8 596.7,912.8 596.8,912.8 647.7,890.3 647.7,827.9 
		647.7,827.9 647.7,787.2 696.7,765.6 745.7,787.2 745.7,848.3 745.7,848.3 745.7,848.3 745.7,848.3 745.8,889.7 745.8,889.7 
		745.8,890.3 791.8,910.6 791.8,908.5 	"/>
	<polygon class="st1" points="781.1,1064.7 781,1045.9 781,1044.7 781,1044.7 781,961.5 697.5,924.6 697.5,923.2 697.5,821.4 
		695.5,821.4 695.5,923.2 695.5,924.6 612,961.5 612.3,1046.6 612.4,1064.7 596.7,1071.6 596.7,1071.5 581.1,1064.7 581,1045.9 
		581,1044.7 581,1044.7 580.9,961.5 497.5,924.6 497.5,923.2 497.5,821.4 495.5,821.4 495.5,923.2 495.5,924.6 412,961.5 
		412.3,1046.6 412.4,1064.7 396.7,1071.6 396.7,1071.5 381.1,1064.7 381,1045.9 381,1044.7 381,1044.7 380.9,961.5 297.5,924.6 
		297.5,923.2 297.5,821.4 295.5,821.4 295.5,923.2 295.5,924.6 212,961.5 212.3,1046.6 212.4,1064.7 196.7,1071.6 196.7,1071.5 
		181.1,1064.7 181.1,1045.9 181.1,1044.7 181.1,1044.7 180.9,961.5 97.5,924.6 97.5,923.2 97.5,821.4 95.5,821.4 95.5,923.2 
		95.5,924.6 12,961.5 12.3,1046.6 12.4,1064.7 -0.2,1070.2 -0.2,1072.4 14.4,1065.9 14.4,1064.9 14.4,1064.9 14.3,1046.8 14.3,1045 
		14,962.8 96.5,926.4 178.9,962.8 179.1,1045.8 179.1,1066 196.7,1073.7 196.7,1073.8 214.4,1065.9 214.4,1064.9 214.4,1064.9 
		214.3,1046.8 214.3,1045 214,962.8 296.5,926.4 379,962.8 379,1045.8 379,1066 396.7,1073.7 396.7,1073.8 414.4,1065.9 
		414.4,1064.9 414.4,1064.9 414.3,1046.8 414.3,1045 414,962.8 496.5,926.4 578.9,962.8 579,1045.8 579,1066 596.7,1073.7 
		596.7,1073.8 614.4,1065.9 614.4,1064.9 614.4,1064.9 614.3,1046.8 614.3,1045 614,962.8 696.5,926.4 779,962.8 779,1045.8 
		779,1066 791.8,1071.6 791.8,1069.4 	"/>
	<polygon class="st1" points="736.9,923.2 714.5,913.4 714.5,912.4 714.4,810.9 714.4,810.3 696.7,802.5 679,810.3 679,830.8 
		679,913.3 656.4,923.2 656.5,923.2 596.7,949.6 596.7,949.6 596.7,949.6 536.9,923.2 536.9,923.2 514.5,913.4 514.5,912.4 
		514.4,810.9 514.4,810.3 496.7,802.5 479,810.3 479,830.8 479,913.3 456.4,923.2 456.5,923.2 396.7,949.6 396.7,949.6 396.7,949.6 
		336.9,923.2 336.9,923.2 314.5,913.4 314.5,912.4 314.4,810.9 314.4,810.3 296.7,802.5 279,810.3 279,830.8 279,913.3 256.4,923.2 
		256.5,923.2 196.7,949.6 196.7,949.6 196.7,949.6 136.9,923.2 136.9,923.2 114.5,913.4 114.5,912.4 114.4,810.9 114.4,810.3 
		96.7,802.5 79,810.3 79,830.8 79,913.3 56.4,923.2 56.5,923.2 -0.2,948.3 -0.2,950.5 61.4,923.2 61.3,923.2 80.4,914.8 81,914.5 
		81,831.5 81,811.6 96.7,804.7 112.4,811.6 112.4,831.5 112.4,831.5 112.4,831.5 112.4,831.5 112.5,914 112.5,914.7 132,923.2 
		132,923.2 195.7,951.4 195.7,1053.5 195.7,1053.5 195.7,1053.5 196.7,1053.5 196.7,1053.5 197.7,1053.5 197.7,951.4 261.4,923.2 
		261.3,923.2 280.4,914.8 281,914.5 281,831.5 281,811.6 296.7,804.7 312.4,811.6 312.4,831.5 312.4,831.5 312.4,831.5 312.4,831.5 
		312.5,914 312.5,914.7 332,923.2 332,923.2 395.7,951.4 395.7,1053.5 395.7,1053.5 395.7,1053.5 396.7,1053.5 396.7,1053.5 
		397.7,1053.5 397.7,951.4 461.4,923.2 461.3,923.2 480.4,914.8 481,914.5 481,831.5 481,811.6 496.7,804.7 512.4,811.6 
		512.4,831.5 512.4,831.5 512.4,831.5 512.4,831.5 512.5,914 512.5,914.7 532,923.2 532,923.2 595.7,951.4 595.7,1053.5 
		595.7,1053.5 595.7,1053.5 596.7,1053.5 596.7,1053.5 597.7,1053.5 597.7,951.4 661.4,923.2 661.3,923.2 680.4,914.8 681,914.5 
		681,831.5 681,811.6 696.7,804.7 712.4,811.6 712.4,831.5 712.4,831.5 712.4,831.5 712.4,831.5 712.5,914 712.5,914.7 732,923.2 
		732,923.2 791.8,949.7 791.8,947.5 	"/>
	<polygon class="st1" points="781.1,923.2 779.6,922.6 779.6,922.6 731.1,901.2 731.1,839.3 730.1,839.3 731.1,839.3 731.1,798.1 
		696.7,782.9 662.4,798.1 662.4,839.9 662.4,901.1 612.1,923.2 612.2,923.2 596.7,930.1 596.7,930.1 581.2,923.2 581.1,923.2 
		579.6,922.6 579.6,922.6 531.1,901.2 531.1,839.3 530.1,839.3 531.1,839.3 531,798.1 496.7,782.9 462.4,798.1 462.4,839.9 
		462.4,901.1 412.1,923.2 412.2,923.2 396.7,930.1 396.7,930.1 381.2,923.2 381.1,923.2 379.6,922.6 379.6,922.6 331.1,901.2 
		331.1,839.3 330.1,839.3 331.1,839.3 331,798.1 296.7,782.9 262.4,798.1 262.4,839.9 262.4,901.1 212.1,923.2 212.2,923.2 
		196.7,930.1 196.7,930.1 181.2,923.2 181.1,923.2 179.6,922.6 179.6,922.6 131.1,901.2 131.1,839.3 130.1,839.3 131.1,839.3 
		131.1,798.1 96.7,782.9 62.4,798.1 62.4,839.9 62.4,901.1 12.1,923.2 12.2,923.2 -0.2,928.7 -0.2,930.9 17.2,923.2 17.1,923.2 
		63.8,902.6 64.4,902.4 64.4,819.5 64.4,819.5 64.4,799.4 96.7,785.1 129.1,799.4 129.1,839.3 129.1,902.5 176.2,923.2 176.2,923.2 
		196.3,932.1 196.7,932.3 196.7,932.3 217.2,923.2 217.1,923.2 263.8,902.6 264.4,902.4 264.4,819.5 264.4,819.5 264.4,799.4 
		296.7,785.1 329.1,799.4 329.1,839.3 329.1,902.5 376.2,923.2 376.2,923.2 396.3,932.1 396.7,932.3 396.7,932.3 417.2,923.2 
		417.1,923.2 463.8,902.6 464.4,902.4 464.4,819.5 464.4,819.5 464.4,799.4 496.7,785.1 529.1,799.4 529.1,839.3 529.1,902.5 
		576.2,923.2 576.2,923.2 596.3,932.1 596.7,932.3 596.7,932.3 617.2,923.2 617.1,923.2 663.8,902.6 664.4,902.4 664.4,819.5 
		664.4,819.5 664.4,799.4 696.7,785.1 729.1,799.4 729.1,839.3 729.1,902.5 776.2,923.2 776.2,923.2 791.8,930.1 791.8,927.9 
		781.2,923.2 	"/>
	<polygon class="st1" points="781.1,864.7 781,845.9 781,844.7 781,844.7 781,761.5 697.5,724.6 697.5,723.2 697.5,621.4 
		695.5,621.4 695.5,723.2 695.5,724.6 612,761.5 612.3,846.6 612.4,864.7 596.7,871.6 596.7,871.5 581.1,864.7 581,845.9 581,844.7 
		581,844.7 580.9,761.5 497.5,724.6 497.5,723.2 497.5,621.4 495.5,621.4 495.5,723.2 495.5,724.6 412,761.5 412.3,846.6 
		412.4,864.7 396.7,871.6 396.7,871.5 381.1,864.7 381,845.9 381,844.7 381,844.7 380.9,761.5 297.5,724.6 297.5,723.2 297.5,621.4 
		295.5,621.4 295.5,723.2 295.5,724.6 212,761.5 212.3,846.6 212.4,864.7 196.7,871.6 196.7,871.5 181.1,864.7 181.1,845.9 
		181.1,844.7 181.1,844.7 180.9,761.5 97.5,724.6 97.5,723.2 97.5,621.4 95.5,621.4 95.5,723.2 95.5,724.6 12,761.5 12.3,846.6 
		12.4,864.7 -0.2,870.2 -0.2,872.4 14.4,865.9 14.4,864.9 14.4,864.9 14.3,846.8 14.3,845 14,762.8 96.5,726.4 178.9,762.8 
		179.1,845.8 179.1,866 196.7,873.7 196.7,873.8 214.4,865.9 214.4,864.9 214.4,864.9 214.3,846.8 214.3,845 214,762.8 296.5,726.4 
		379,762.8 379,845.8 379,866 396.7,873.7 396.7,873.8 414.4,865.9 414.4,864.9 414.4,864.9 414.3,846.8 414.3,845 414,762.8 
		496.5,726.4 578.9,762.8 579,845.8 579,866 596.7,873.7 596.7,873.8 614.4,865.9 614.4,864.9 614.4,864.9 614.3,846.8 614.3,845 
		614,762.8 696.5,726.4 779,762.8 779,845.8 779,866 791.8,871.6 791.8,869.4 	"/>
	<rect x="295.5" y="1221.4" class="st1" width="2" height="2.4"/>
	<polygon class="st1" points="514.4,1210.9 514.4,1210.3 496.7,1202.5 479,1210.3 479,1223.8 481,1223.8 481,1211.6 496.7,1204.7 
		512.4,1211.6 512.4,1223.8 514.4,1223.8 	"/>
	<polygon class="st1" points="314.4,1210.9 314.4,1210.3 296.7,1202.5 279,1210.3 279,1223.8 281,1223.8 281,1211.6 296.7,1204.7 
		312.4,1211.6 312.4,1223.8 314.4,1223.8 	"/>
	<rect x="95.5" y="1221.4" class="st1" width="2" height="2.4"/>
	<polygon class="st1" points="114.4,1210.9 114.4,1210.3 96.7,1202.5 79,1210.3 79,1223.8 81,1223.8 81,1211.6 96.7,1204.7 
		112.4,1211.6 112.4,1223.8 114.4,1223.8 	"/>
	<rect x="495.5" y="1221.4" class="st1" width="2" height="2.4"/>
	<rect x="695.5" y="1221.4" class="st1" width="2" height="2.4"/>
	<polygon class="st1" points="714.4,1210.9 714.4,1210.3 696.7,1202.5 679,1210.3 679,1223.8 681,1223.8 681,1211.6 696.7,1204.7 
		712.4,1211.6 712.4,1223.8 714.4,1223.8 	"/>
	<polygon class="st1" points="347.1,1185.7 347.1,1185.7 297.1,1163.6 296.7,1163.4 245.7,1185.9 245.7,1223.8 247.7,1223.8 
		247.7,1187.2 296.7,1165.6 345.7,1187.2 345.7,1223.8 347.7,1223.8 347.7,1185.9 	"/>
	<polygon class="st1" points="696.7,1182.9 662.4,1198.1 662.4,1223.8 664.4,1223.8 664.4,1219.5 664.4,1219.5 664.4,1199.4 
		696.7,1185.1 729.1,1199.4 729.1,1223.8 731.1,1223.8 731.1,1198.1 	"/>
	<polygon class="st1" points="547.1,1185.7 547.1,1185.7 497.1,1163.6 496.7,1163.4 445.7,1185.9 445.7,1223.8 447.7,1223.8 
		447.7,1187.2 496.7,1165.6 545.7,1187.2 545.7,1223.8 547.7,1223.8 547.7,1185.9 	"/>
	<polygon class="st1" points="496.7,1182.9 462.4,1198.1 462.4,1223.8 464.4,1223.8 464.4,1219.5 464.4,1219.5 464.4,1199.4 
		496.7,1185.1 529.1,1199.4 529.1,1223.8 531.1,1223.8 531,1198.1 	"/>
	<polygon class="st1" points="747.1,1185.7 747.1,1185.7 697.1,1163.6 696.7,1163.4 645.7,1185.9 645.7,1223.8 647.7,1223.8 
		647.7,1187.2 696.7,1165.6 745.7,1187.2 745.7,1223.8 747.7,1223.8 747.7,1185.9 	"/>
	<polygon class="st1" points="214,1162.8 296.5,1126.3 379,1162.8 379,1223.8 381,1223.8 380.9,1161.5 297.5,1124.6 297.5,1123.2 
		297.5,1021.4 295.5,1021.4 295.5,1123.2 295.5,1124.6 212,1161.5 212.2,1223.8 214.2,1223.8 	"/>
	<polygon class="st1" points="14,1162.8 96.5,1126.3 178.9,1162.8 179,1223.8 181,1223.8 180.9,1161.5 97.5,1124.6 97.5,1123.2 
		97.5,1021.4 95.5,1021.4 95.5,1123.2 95.5,1124.6 12,1161.5 12.2,1223.8 14.2,1223.8 	"/>
	<polygon class="st1" points="697.1,1144.1 696.7,1143.9 629.1,1173.8 629.1,1223.8 631.1,1223.8 631.1,1175.1 696.7,1146.1 
		762.3,1175.1 762.3,1223.8 764.3,1223.8 764.3,1173.8 	"/>
	<polygon class="st1" points="614,1162.8 696.5,1126.3 779,1162.8 779,1223.8 781,1223.8 781,1161.5 697.5,1124.6 697.5,1123.2 
		697.5,1021.4 695.5,1021.4 695.5,1123.2 695.5,1124.6 612,1161.5 612.2,1223.8 614.2,1223.8 	"/>
	<polygon class="st1" points="414,1162.8 496.5,1126.3 578.9,1162.8 579,1223.8 581,1223.8 580.9,1161.5 497.5,1124.6 497.5,1123.2 
		497.5,1021.4 495.5,1021.4 495.5,1123.2 495.5,1124.6 412,1161.5 412.2,1223.8 414.2,1223.8 	"/>
	<polygon class="st1" points="262.4,-0.2 262.4,39.9 262.4,101.1 212.1,123.3 212.2,123.3 196.7,130.1 196.7,130.1 181.2,123.3 
		181.1,123.3 179.6,122.6 179.6,122.6 131.1,101.2 131.1,39.3 130.1,39.3 131.1,39.3 131.1,-0.2 129.1,-0.2 129.1,39.3 129.1,102.5 
		176.2,123.3 176.2,123.3 196.3,132.1 196.7,132.3 196.7,132.3 217.2,123.3 217.1,123.3 263.8,102.6 264.4,102.4 264.4,19.5 
		264.4,19.5 264.4,-0.2 	"/>
	<polygon class="st1" points="345.7,-0.2 345.7,48.3 345.7,48.3 345.7,48.3 345.7,48.3 345.8,89.7 345.8,89.7 345.8,90.3 
		396.7,112.8 396.7,112.8 396.7,112.8 447.7,90.3 447.7,27.9 447.7,27.9 447.7,-0.2 445.7,-0.2 445.7,48.3 445.7,88.8 445.7,88.8 
		445.7,89 396.7,110.6 396.7,110.6 396.7,110.6 347.8,89 347.7,27.9 347.7,-0.2 	"/>
	<polygon class="st1" points="629.1,76.8 596.8,91.1 596.7,91.1 596.7,91.1 564.4,76.8 564.3,36.6 564.3,36.6 564.3,-0.2 
		562.3,-0.2 562.3,36.2 562.3,36.2 562.4,78.1 596.7,93.3 596.7,93.2 596.8,93.3 631.1,78.1 631.1,37.3 631.1,-0.2 629.1,-0.2 
		629.1,56.7 	"/>
	<polygon class="st1" points="545.7,-0.2 545.7,48.3 545.7,48.3 545.7,48.3 545.7,48.3 545.8,89.7 545.8,89.7 545.8,90.3 
		596.7,112.8 596.7,112.8 596.8,112.8 647.7,90.3 647.7,27.9 647.7,27.9 647.7,-0.2 645.7,-0.2 645.7,48.3 645.7,88.8 645.7,88.8 
		645.7,89 596.8,110.6 596.7,110.6 596.7,110.6 547.8,89 547.7,27.9 547.7,-0.2 	"/>
	<polygon class="st1" points="145.7,-0.2 145.7,48.3 145.7,48.3 145.7,48.3 145.7,48.3 145.8,89.7 145.8,89.7 145.8,90.3 
		196.7,112.8 196.7,112.8 196.8,112.8 247.7,90.3 247.7,27.9 247.7,27.9 247.7,-0.2 245.7,-0.2 245.7,48.3 245.7,88.8 245.7,88.8 
		245.7,89 196.8,110.6 196.7,110.6 196.7,110.6 147.8,89 147.7,27.9 147.7,-0.2 	"/>
	<polygon class="st1" points="596.7,53.5 596.7,53.5 597.7,53.5 597.7,-0.2 595.7,-0.2 595.7,53.5 595.7,53.5 595.7,53.5 	"/>
	<polygon class="st1" points="579,45.8 579,66 596.7,73.7 596.7,73.8 614.4,65.9 614.4,64.9 614.4,64.9 614.3,46.8 614.3,45 
		614.1,-0.2 612.1,-0.2 612.3,46.6 612.4,64.7 596.7,71.6 596.7,71.5 581.1,64.7 581,45.9 581,44.7 581,44.7 581,-0.2 579,-0.2 	"/>
	<polygon class="st1" points="462.4,-0.2 462.4,39.9 462.4,101.1 412.1,123.3 412.2,123.3 396.7,130.1 396.7,130.1 381.2,123.3 
		381.1,123.3 379.6,122.6 379.6,122.6 331.1,101.2 331.1,39.3 330.1,39.3 331.1,39.3 331.1,-0.2 329.1,-0.2 329.1,39.3 329.1,102.5 
		376.2,123.3 376.2,123.3 396.3,132.1 396.7,132.3 396.7,132.3 417.2,123.3 417.1,123.3 463.8,102.6 464.4,102.4 464.4,19.5 
		464.4,19.5 464.4,-0.2 	"/>
	<polygon class="st1" points="662.4,-0.2 662.4,39.9 662.4,101.1 612.1,123.3 612.2,123.3 596.7,130.1 596.7,130.1 581.2,123.3 
		581.1,123.3 579.6,122.6 579.6,122.6 531.1,101.2 531.1,39.3 530.1,39.3 531.1,39.3 531.1,-0.2 529.1,-0.2 529.1,39.3 529.1,102.5 
		576.2,123.3 576.2,123.3 596.3,132.1 596.7,132.3 596.7,132.3 617.2,123.3 617.1,123.3 663.8,102.6 664.4,102.4 664.4,19.5 
		664.4,19.5 664.4,-0.2 	"/>
	<polygon class="st1" points="229.1,76.8 196.8,91.1 196.7,91.1 196.7,91.1 164.4,76.8 164.3,36.6 164.3,36.6 164.3,-0.2 
		162.3,-0.2 162.3,36.2 162.3,36.2 162.4,78.1 196.7,93.3 196.7,93.2 196.8,93.3 231.1,78.1 231.1,37.3 231.1,-0.2 229.1,-0.2 
		229.1,56.7 	"/>
	<polygon class="st1" points="747.8,89 747.7,27.9 747.7,-0.2 745.7,-0.2 745.7,48.3 745.7,48.3 745.7,48.3 745.7,48.3 745.8,89.7 
		745.8,89.7 745.8,90.3 791.8,110.6 791.8,108.5 	"/>
	<polygon class="st1" points="781.1,123.3 779.6,122.6 779.6,122.6 731.1,101.2 731.1,39.3 730.1,39.3 731.1,39.3 731.1,-0.2 
		729.1,-0.2 729.1,39.3 729.1,102.5 776.2,123.3 776.2,123.3 791.8,130.1 791.8,127.9 781.2,123.3 	"/>
	<polygon class="st1" points="764.4,76.8 764.3,36.6 764.3,36.6 764.3,-0.2 762.3,-0.2 762.3,36.2 762.3,36.2 762.4,78.1 
		791.8,91.1 791.8,88.9 	"/>
	<polygon class="st1" points="764.4,676.8 764.3,636.6 764.3,636.6 764.3,573.8 697.1,544.1 696.7,543.9 629.1,573.8 629.1,656.7 
		629.1,676.8 596.8,691.1 596.7,691.1 596.7,691.1 564.4,676.8 564.3,636.6 564.3,636.6 564.3,573.8 497.1,544.1 496.7,543.9 
		429.1,573.8 429.1,656.7 429.1,676.8 396.7,691.1 396.7,691.1 396.7,691.1 364.4,676.8 364.3,636.6 364.3,636.6 364.3,573.8 
		297.1,544.1 296.7,543.9 229.1,573.8 229.1,656.7 229.1,676.8 196.8,691.1 196.7,691.1 196.7,691.1 164.4,676.8 164.3,636.6 
		164.3,636.6 164.3,573.8 97.1,544.1 96.7,543.9 29.1,573.8 29.1,656.7 29.1,676.8 -0.2,689.7 -0.2,691.9 31.1,678.1 31.1,637.2 
		31.1,575.1 96.7,546.1 162.3,575.1 162.3,636.2 162.3,636.2 162.4,678.1 196.7,693.2 196.7,693.2 196.8,693.3 231.1,678.1 
		231.1,637.2 231.1,575.1 296.7,546.1 362.3,575.1 362.3,636.2 362.3,636.2 362.4,678.1 396.7,693.2 396.7,693.2 396.7,693.3 
		431.1,678.1 431.1,637.2 431.1,575.1 496.7,546.1 562.3,575.1 562.3,636.2 562.3,636.2 562.4,678.1 596.7,693.2 596.7,693.2 
		596.8,693.3 631.1,678.1 631.1,637.2 631.1,575.1 696.7,546.1 762.3,575.1 762.3,636.2 762.3,636.2 762.4,678.1 791.8,691.1 
		791.8,688.9 	"/>
	<polygon class="st1" points="47.7,90.3 47.7,27.9 47.7,27.9 47.7,-0.2 45.7,-0.2 45.7,48.3 45.7,88.8 45.7,88.8 45.7,89 
		-0.2,109.3 -0.2,111.5 	"/>
	<polygon class="st1" points="379,45.8 379,66 396.7,73.7 396.7,73.8 414.4,65.9 414.4,64.9 414.4,64.9 414.3,46.8 414.3,45 
		414.1,-0.2 412.1,-0.2 412.3,46.6 412.4,64.7 396.7,71.6 396.7,71.5 381.1,64.7 381,45.9 381,44.7 381,44.7 381,-0.2 379,-0.2 	"/>
	<polygon class="st1" points="429.1,76.8 396.7,91.1 396.7,91.1 396.7,91.1 364.4,76.8 364.3,36.6 364.3,36.6 364.3,-0.2 
		362.3,-0.2 362.3,36.2 362.3,36.2 362.4,78.1 396.7,93.3 396.7,93.2 396.7,93.3 431.1,78.1 431.1,37.3 431.1,-0.2 429.1,-0.2 
		429.1,56.7 	"/>
	<polygon class="st1" points="-0.2,130.9 17.2,123.3 17.1,123.3 63.8,102.6 64.4,102.4 64.4,19.5 64.4,19.5 64.4,-0.2 62.4,-0.2 
		62.4,39.9 62.4,101.1 12.1,123.3 12.2,123.3 -0.2,128.7 	"/>
	<polygon class="st1" points="781.1,64.7 781,45.9 781,44.7 781,44.7 781,-0.2 779,-0.2 779,45.8 779,66 791.8,71.6 791.8,69.4 	"/>
	<polygon class="st1" points="781.1,323.3 779.6,322.6 779.6,322.6 731.1,301.2 731.1,239.3 730.1,239.3 731.1,239.3 731.1,198.1 
		696.7,182.9 662.4,198.1 662.4,239.9 662.4,301.1 612.1,323.3 612.2,323.3 596.7,330.1 596.7,330.1 581.2,323.3 581.1,323.3 
		579.6,322.6 579.6,322.6 531.1,301.2 531.1,239.3 530.1,239.3 531.1,239.3 531,198.1 496.7,182.9 462.4,198.1 462.4,239.9 
		462.4,301.1 412.1,323.3 412.2,323.3 396.7,330.1 396.7,330.1 381.2,323.3 381.1,323.3 379.6,322.6 379.6,322.6 331.1,301.2 
		331.1,239.3 330.1,239.3 331.1,239.3 331,198.1 296.7,182.9 262.4,198.1 262.4,239.9 262.4,301.1 212.1,323.3 212.2,323.3 
		196.7,330.1 196.7,330.1 181.2,323.3 181.1,323.3 179.6,322.6 179.6,322.6 131.1,301.2 131.1,239.3 130.1,239.3 131.1,239.3 
		131.1,198.1 96.7,182.9 62.4,198.1 62.4,239.9 62.4,301.1 12.1,323.3 12.2,323.3 -0.2,328.7 -0.2,330.9 17.2,323.3 17.1,323.3 
		63.8,302.6 64.4,302.4 64.4,219.5 64.4,219.5 64.4,199.4 96.7,185.1 129.1,199.4 129.1,239.3 129.1,302.5 176.2,323.3 176.2,323.3 
		196.3,332.1 196.7,332.3 196.7,332.3 217.2,323.3 217.1,323.3 263.8,302.6 264.4,302.4 264.4,219.5 264.4,219.5 264.4,199.4 
		296.7,185.1 329.1,199.4 329.1,239.3 329.1,302.5 376.2,323.3 376.2,323.3 396.3,332.1 396.7,332.3 396.7,332.3 417.2,323.3 
		417.1,323.3 463.8,302.6 464.4,302.4 464.4,219.5 464.4,219.5 464.4,199.4 496.7,185.1 529.1,199.4 529.1,239.3 529.1,302.5 
		576.2,323.3 576.2,323.3 596.3,332.1 596.7,332.3 596.7,332.3 617.2,323.3 617.1,323.3 663.8,302.6 664.4,302.4 664.4,219.5 
		664.4,219.5 664.4,199.4 696.7,185.1 729.1,199.4 729.1,239.3 729.1,302.5 776.2,323.3 776.2,323.3 791.8,330.1 791.8,327.9 
		781.2,323.3 	"/>
	<polygon class="st1" points="747.8,489 747.7,427.9 747.7,385.9 747.1,385.7 747.1,385.7 697.1,363.6 696.7,363.4 645.7,385.9 
		645.7,448.3 645.7,488.8 645.7,488.8 645.7,489 596.8,510.6 596.7,510.6 596.7,510.6 547.8,489 547.7,427.9 547.7,385.9 
		547.1,385.7 547.1,385.7 497.1,363.6 496.7,363.4 445.7,385.9 445.7,448.3 445.7,488.8 445.7,488.8 445.7,489 396.7,510.6 
		396.7,510.6 396.7,510.6 347.8,489 347.7,427.9 347.7,385.9 347.1,385.7 347.1,385.7 297.1,363.6 296.7,363.4 245.7,385.9 
		245.7,448.3 245.7,488.8 245.7,488.8 245.7,489 196.8,510.6 196.7,510.6 196.7,510.6 147.8,489 147.7,427.9 147.7,385.9 
		147.1,385.7 147.1,385.7 97.1,363.6 96.7,363.4 45.7,385.9 45.7,448.3 45.7,488.8 45.7,488.8 45.7,489 -0.2,509.3 -0.2,511.5 
		47.7,490.3 47.7,427.9 47.7,427.9 47.7,387.2 96.7,365.6 145.7,387.2 145.7,448.3 145.7,448.3 145.7,448.3 145.7,448.3 
		145.8,489.7 145.8,489.7 145.8,490.3 196.7,512.8 196.7,512.8 196.8,512.8 247.7,490.3 247.7,427.9 247.7,427.9 247.7,387.2 
		296.7,365.6 345.7,387.2 345.7,448.3 345.7,448.3 345.7,448.3 345.7,448.3 345.8,489.7 345.8,489.7 345.8,490.3 396.7,512.8 
		396.7,512.8 396.7,512.8 447.7,490.3 447.7,427.9 447.7,427.9 447.7,387.2 496.7,365.6 545.7,387.2 545.7,448.3 545.7,448.3 
		545.7,448.3 545.7,448.3 545.8,489.7 545.8,489.7 545.8,490.3 596.7,512.8 596.7,512.8 596.8,512.8 647.7,490.3 647.7,427.9 
		647.7,427.9 647.7,387.2 696.7,365.6 745.7,387.2 745.7,448.3 745.7,448.3 745.7,448.3 745.7,448.3 745.8,489.7 745.8,489.7 
		745.8,490.3 791.8,510.6 791.8,508.5 	"/>
	<polygon class="st1" points="764.4,476.8 764.3,436.6 764.3,436.6 764.3,373.8 697.1,344.1 696.7,343.9 629.1,373.8 629.1,456.7 
		629.1,476.8 596.8,491.1 596.7,491.1 596.7,491.1 564.4,476.8 564.3,436.6 564.3,436.6 564.3,373.8 497.1,344.1 496.7,343.9 
		429.1,373.8 429.1,456.7 429.1,476.8 396.7,491.1 396.7,491.1 396.7,491.1 364.4,476.8 364.3,436.6 364.3,436.6 364.3,373.8 
		297.1,344.1 296.7,343.9 229.1,373.8 229.1,456.7 229.1,476.8 196.8,491.1 196.7,491.1 196.7,491.1 164.4,476.8 164.3,436.6 
		164.3,436.6 164.3,373.8 97.1,344.1 96.7,343.9 29.1,373.8 29.1,456.7 29.1,476.8 -0.2,489.7 -0.2,491.9 31.1,478.1 31.1,437.3 
		31.1,375.1 96.7,346.1 162.3,375.1 162.3,436.2 162.3,436.2 162.4,478.1 196.7,493.3 196.7,493.2 196.8,493.3 231.1,478.1 
		231.1,437.3 231.1,375.1 296.7,346.1 362.3,375.1 362.3,436.2 362.3,436.2 362.4,478.1 396.7,493.3 396.7,493.2 396.7,493.3 
		431.1,478.1 431.1,437.3 431.1,375.1 496.7,346.1 562.3,375.1 562.3,436.2 562.3,436.2 562.4,478.1 596.7,493.3 596.7,493.2 
		596.8,493.3 631.1,478.1 631.1,437.3 631.1,375.1 696.7,346.1 762.3,375.1 762.3,436.2 762.3,436.2 762.4,478.1 791.8,491.1 
		791.8,488.9 	"/>
	<polygon class="st1" points="736.9,323.3 714.5,313.4 714.5,312.4 714.4,210.9 714.4,210.3 696.7,202.5 679,210.3 679,230.8 
		679,313.3 656.4,323.3 656.5,323.3 596.7,349.6 596.7,349.6 596.7,349.6 536.9,323.3 536.9,323.3 514.5,313.4 514.5,312.4 
		514.4,210.9 514.4,210.3 496.7,202.5 479,210.3 479,230.8 479,313.3 456.4,323.3 456.5,323.3 396.7,349.6 396.7,349.6 396.7,349.6 
		336.9,323.3 336.9,323.3 314.5,313.4 314.5,312.4 314.4,210.9 314.4,210.3 296.7,202.5 279,210.3 279,230.8 279,313.3 256.4,323.3 
		256.5,323.3 196.7,349.6 196.7,349.6 196.7,349.6 136.9,323.3 136.9,323.3 114.5,313.4 114.5,312.4 114.4,210.9 114.4,210.3 
		96.7,202.5 79,210.3 79,230.8 79,313.3 56.4,323.3 56.5,323.3 -0.2,348.3 -0.2,350.5 61.4,323.3 61.3,323.3 80.4,314.8 81,314.5 
		81,231.5 81,211.6 96.7,204.7 112.4,211.6 112.4,231.5 112.4,231.5 112.4,231.5 112.4,231.5 112.5,314 112.5,314.7 132,323.3 
		132,323.3 195.7,351.4 195.7,453.5 195.7,453.5 195.7,453.5 196.7,453.5 196.7,453.5 197.7,453.5 197.7,351.4 261.4,323.3 
		261.3,323.3 280.4,314.8 281,314.5 281,231.5 281,211.6 296.7,204.7 312.4,211.6 312.4,231.5 312.4,231.5 312.4,231.5 312.4,231.5 
		312.5,314 312.5,314.7 332,323.3 332,323.3 395.7,351.4 395.7,453.5 395.7,453.5 395.7,453.5 396.7,453.5 396.7,453.5 397.7,453.5 
		397.7,351.4 461.4,323.3 461.3,323.3 480.4,314.8 481,314.5 481,231.5 481,211.6 496.7,204.7 512.4,211.6 512.4,231.5 512.4,231.5 
		512.4,231.5 512.4,231.5 512.5,314 512.5,314.7 532,323.3 532,323.3 595.7,351.4 595.7,453.5 595.7,453.5 595.7,453.5 596.7,453.5 
		596.7,453.5 597.7,453.5 597.7,351.4 661.4,323.3 661.3,323.3 680.4,314.8 681,314.5 681,231.5 681,211.6 696.7,204.7 712.4,211.6 
		712.4,231.5 712.4,231.5 712.4,231.5 712.4,231.5 712.5,314 712.5,314.7 732,323.3 732,323.3 791.8,349.7 791.8,347.5 	"/>
	<polygon class="st1" points="781.1,464.7 781,445.9 781,444.7 781,444.7 781,361.5 697.5,324.6 697.5,323.3 697.5,221.4 
		695.5,221.4 695.5,323.3 695.5,324.6 612,361.5 612.3,446.6 612.4,464.7 596.7,471.6 596.7,471.5 581.1,464.7 581,445.9 581,444.7 
		581,444.7 580.9,361.5 497.5,324.6 497.5,323.3 497.5,221.4 495.5,221.4 495.5,323.3 495.5,324.6 412,361.5 412.3,446.6 
		412.4,464.7 396.7,471.6 396.7,471.5 381.1,464.7 381,445.9 381,444.7 381,444.7 380.9,361.5 297.5,324.6 297.5,323.3 297.5,221.4 
		295.5,221.4 295.5,323.3 295.5,324.6 212,361.5 212.3,446.6 212.4,464.7 196.7,471.6 196.7,471.5 181.1,464.7 181.1,445.9 
		181.1,444.7 181.1,444.7 180.9,361.5 97.5,324.6 97.5,323.3 97.5,221.4 95.5,221.4 95.5,323.3 95.5,324.6 12,361.5 12.3,446.6 
		12.4,464.7 -0.2,470.2 -0.2,472.4 14.4,466 14.4,464.9 14.4,464.9 14.3,446.8 14.3,445 14,362.8 96.5,326.4 178.9,362.8 
		179.1,445.8 179.1,466 196.7,473.7 196.7,473.8 214.4,466 214.4,464.9 214.4,464.9 214.3,446.8 214.3,445 214,362.8 296.5,326.4 
		379,362.8 379,445.8 379,466 396.7,473.7 396.7,473.8 414.4,466 414.4,464.9 414.4,464.9 414.3,446.8 414.3,445 414,362.8 
		496.5,326.4 578.9,362.8 579,445.8 579,466 596.7,473.7 596.7,473.8 614.4,466 614.4,464.9 614.4,464.9 614.3,446.8 614.3,445 
		614,362.8 696.5,326.4 779,362.8 779,445.8 779,466 791.8,471.6 791.8,469.4 	"/>
	<polygon class="st1" points="781.1,664.7 781,645.9 781,644.7 781,644.7 781,561.5 697.5,524.6 697.5,523.2 697.5,421.4 
		695.5,421.4 695.5,523.2 695.5,524.6 612,561.5 612.3,646.6 612.4,664.7 596.7,671.6 596.7,671.5 581.1,664.7 581,645.9 581,644.7 
		581,644.7 580.9,561.5 497.5,524.6 497.5,523.2 497.5,421.4 495.5,421.4 495.5,523.2 495.5,524.6 412,561.5 412.3,646.6 
		412.4,664.7 396.7,671.6 396.7,671.5 381.1,664.7 381,645.9 381,644.7 381,644.7 380.9,561.5 297.5,524.6 297.5,523.2 297.5,421.4 
		295.5,421.4 295.5,523.2 295.5,524.6 212,561.5 212.3,646.6 212.4,664.7 196.7,671.6 196.7,671.5 181.1,664.7 181.1,645.9 
		181.1,644.7 181.1,644.7 180.9,561.5 97.5,524.6 97.5,523.2 97.5,421.4 95.5,421.4 95.5,523.2 95.5,524.6 12,561.5 12.3,646.6 
		12.4,664.7 -0.2,670.2 -0.2,672.4 14.4,665.9 14.4,664.9 14.4,664.9 14.3,646.8 14.3,645 14,562.8 96.5,526.4 178.9,562.8 
		179.1,645.8 179.1,666 196.7,673.7 196.7,673.8 214.4,665.9 214.4,664.9 214.4,664.9 214.3,646.8 214.3,645 214,562.8 296.5,526.4 
		379,562.8 379,645.8 379,666 396.7,673.7 396.7,673.8 414.4,665.9 414.4,664.9 414.4,664.9 414.3,646.8 414.3,645 414,562.8 
		496.5,526.4 578.9,562.8 579,645.8 579,666 596.7,673.7 596.7,673.8 614.4,665.9 614.4,664.9 614.4,664.9 614.3,646.8 614.3,645 
		614,562.8 696.5,526.4 779,562.8 779,645.8 779,666 791.8,671.6 791.8,669.4 	"/>
	<polygon class="st1" points="781.1,523.2 779.6,522.6 779.6,522.6 731.1,501.2 731.1,439.3 730.1,439.3 731.1,439.3 731.1,398.1 
		696.7,382.9 662.4,398.1 662.4,439.9 662.4,501.1 612.1,523.2 612.2,523.2 596.7,530.1 596.7,530.1 581.2,523.2 581.1,523.2 
		579.6,522.6 579.6,522.6 531.1,501.2 531.1,439.3 530.1,439.3 531.1,439.3 531,398.1 496.7,382.9 462.4,398.1 462.4,439.9 
		462.4,501.1 412.1,523.2 412.2,523.2 396.7,530.1 396.7,530.1 381.2,523.2 381.1,523.2 379.6,522.6 379.6,522.6 331.1,501.2 
		331.1,439.3 330.1,439.3 331.1,439.3 331,398.1 296.7,382.9 262.4,398.1 262.4,439.9 262.4,501.1 212.1,523.2 212.2,523.2 
		196.7,530.1 196.7,530.1 181.2,523.2 181.1,523.2 179.6,522.6 179.6,522.6 131.1,501.2 131.1,439.3 130.1,439.3 131.1,439.3 
		131.1,398.1 96.7,382.9 62.4,398.1 62.4,439.9 62.4,501.1 12.1,523.2 12.2,523.2 -0.2,528.7 -0.2,530.9 17.2,523.2 17.1,523.2 
		63.8,502.6 64.4,502.4 64.4,419.5 64.4,419.5 64.4,399.4 96.7,385.1 129.1,399.4 129.1,439.3 129.1,502.5 176.2,523.2 176.2,523.2 
		196.3,532.1 196.7,532.3 196.7,532.3 217.2,523.2 217.1,523.2 263.8,502.6 264.4,502.4 264.4,419.5 264.4,419.5 264.4,399.4 
		296.7,385.1 329.1,399.4 329.1,439.3 329.1,502.5 376.2,523.2 376.2,523.2 396.3,532.1 396.7,532.3 396.7,532.3 417.2,523.2 
		417.1,523.2 463.8,502.6 464.4,502.4 464.4,419.5 464.4,419.5 464.4,399.4 496.7,385.1 529.1,399.4 529.1,439.3 529.1,502.5 
		576.2,523.2 576.2,523.2 596.3,532.1 596.7,532.3 596.7,532.3 617.2,523.2 617.1,523.2 663.8,502.6 664.4,502.4 664.4,419.5 
		664.4,419.5 664.4,399.4 696.7,385.1 729.1,399.4 729.1,439.3 729.1,502.5 776.2,523.2 776.2,523.2 791.8,530.1 791.8,527.9 
		781.2,523.2 	"/>
	<polygon class="st1" points="736.9,523.2 714.5,513.4 714.5,512.4 714.4,410.9 714.4,410.3 696.7,402.5 679,410.3 679,430.8 
		679,513.3 656.4,523.2 656.5,523.2 596.7,549.6 596.7,549.6 596.7,549.6 536.9,523.2 536.9,523.2 514.5,513.4 514.5,512.4 
		514.4,410.9 514.4,410.3 496.7,402.5 479,410.3 479,430.8 479,513.3 456.4,523.2 456.5,523.2 396.7,549.6 396.7,549.6 396.7,549.6 
		336.9,523.2 336.9,523.2 314.5,513.4 314.5,512.4 314.4,410.9 314.4,410.3 296.7,402.5 279,410.3 279,430.8 279,513.3 256.4,523.2 
		256.5,523.2 196.7,549.6 196.7,549.6 196.7,549.6 136.9,523.2 136.9,523.2 114.5,513.4 114.5,512.4 114.4,410.9 114.4,410.3 
		96.7,402.5 79,410.3 79,430.8 79,513.3 56.4,523.2 56.5,523.2 -0.2,548.3 -0.2,550.5 61.4,523.2 61.3,523.2 80.4,514.8 81,514.5 
		81,431.5 81,411.6 96.7,404.7 112.4,411.6 112.4,431.5 112.4,431.5 112.4,431.5 112.4,431.5 112.5,514 112.5,514.7 132,523.2 
		132,523.2 195.7,551.4 195.7,653.5 195.7,653.5 195.7,653.5 196.7,653.5 196.7,653.5 197.7,653.5 197.7,551.4 261.4,523.2 
		261.3,523.2 280.4,514.8 281,514.5 281,431.5 281,411.6 296.7,404.7 312.4,411.6 312.4,431.5 312.4,431.5 312.4,431.5 312.4,431.5 
		312.5,514 312.5,514.7 332,523.2 332,523.2 395.7,551.4 395.7,653.5 395.7,653.5 395.7,653.5 396.7,653.5 396.7,653.5 397.7,653.5 
		397.7,551.4 461.4,523.2 461.3,523.2 480.4,514.8 481,514.5 481,431.5 481,411.6 496.7,404.7 512.4,411.6 512.4,431.5 512.4,431.5 
		512.4,431.5 512.4,431.5 512.5,514 512.5,514.7 532,523.2 532,523.2 595.7,551.4 595.7,653.5 595.7,653.5 595.7,653.5 596.7,653.5 
		596.7,653.5 597.7,653.5 597.7,551.4 661.4,523.2 661.3,523.2 680.4,514.8 681,514.5 681,431.5 681,411.6 696.7,404.7 712.4,411.6 
		712.4,431.5 712.4,431.5 712.4,431.5 712.4,431.5 712.5,514 712.5,514.7 732,523.2 732,523.2 791.8,549.7 791.8,547.5 	"/>
	<polygon class="st1" points="764.4,276.8 764.3,236.6 764.3,236.6 764.3,173.8 697.1,144.1 696.7,143.9 629.1,173.8 629.1,256.7 
		629.1,276.8 596.8,291.1 596.7,291.1 596.7,291.1 564.4,276.8 564.3,236.6 564.3,236.6 564.3,173.8 497.1,144.1 496.7,143.9 
		429.1,173.8 429.1,256.7 429.1,276.8 396.7,291.1 396.7,291.1 396.7,291.1 364.4,276.8 364.3,236.6 364.3,236.6 364.3,173.8 
		297.1,144.1 296.7,143.9 229.1,173.8 229.1,256.7 229.1,276.8 196.8,291.1 196.7,291.1 196.7,291.1 164.4,276.8 164.3,236.6 
		164.3,236.6 164.3,173.8 97.1,144.1 96.7,143.9 29.1,173.8 29.1,256.7 29.1,276.8 -0.2,289.7 -0.2,291.9 31.1,278.1 31.1,237.3 
		31.1,175.1 96.7,146.1 162.3,175.1 162.3,236.2 162.3,236.2 162.4,278.1 196.7,293.3 196.7,293.2 196.8,293.3 231.1,278.1 
		231.1,237.3 231.1,175.1 296.7,146.1 362.3,175.1 362.3,236.2 362.3,236.2 362.4,278.1 396.7,293.3 396.7,293.2 396.7,293.3 
		431.1,278.1 431.1,237.3 431.1,175.1 496.7,146.1 562.3,175.1 562.3,236.2 562.3,236.2 562.4,278.1 596.7,293.3 596.7,293.2 
		596.8,293.3 631.1,278.1 631.1,237.3 631.1,175.1 696.7,146.1 762.3,175.1 762.3,236.2 762.3,236.2 762.4,278.1 791.8,291.1 
		791.8,288.9 	"/>
	<polygon class="st1" points="196.7,53.5 196.7,53.5 197.7,53.5 197.7,-0.2 195.7,-0.2 195.7,53.5 195.7,53.5 195.7,53.5 	"/>
	<polygon class="st1" points="14.4,65.9 14.4,64.9 14.4,64.9 14.3,46.8 14.3,45 14.1,-0.2 12.1,-0.2 12.3,46.6 12.4,64.7 -0.2,70.2 
		-0.2,72.4 	"/>
	<polygon class="st1" points="747.8,289 747.7,227.9 747.7,185.9 747.1,185.7 747.1,185.7 697.1,163.6 696.7,163.4 645.7,185.9 
		645.7,248.3 645.7,288.8 645.7,288.8 645.7,289 596.8,310.6 596.7,310.6 596.7,310.6 547.8,289 547.7,227.9 547.7,185.9 
		547.1,185.7 547.1,185.7 497.1,163.6 496.7,163.4 445.7,185.9 445.7,248.3 445.7,288.8 445.7,288.8 445.7,289 396.7,310.6 
		396.7,310.6 396.7,310.6 347.8,289 347.7,227.9 347.7,185.9 347.1,185.7 347.1,185.7 297.1,163.6 296.7,163.4 245.7,185.9 
		245.7,248.3 245.7,288.8 245.7,288.8 245.7,289 196.8,310.6 196.7,310.6 196.7,310.6 147.8,289 147.7,227.9 147.7,185.9 
		147.1,185.7 147.1,185.7 97.1,163.6 96.7,163.4 45.7,185.9 45.7,248.3 45.7,288.8 45.7,288.8 45.7,289 -0.2,309.3 -0.2,311.5 
		47.7,290.3 47.7,227.9 47.7,227.9 47.7,187.2 96.7,165.6 145.7,187.2 145.7,248.3 145.7,248.3 145.7,248.3 145.7,248.3 
		145.8,289.7 145.8,289.7 145.8,290.3 196.7,312.8 196.7,312.8 196.8,312.8 247.7,290.3 247.7,227.9 247.7,227.9 247.7,187.2 
		296.7,165.6 345.7,187.2 345.7,248.3 345.7,248.3 345.7,248.3 345.7,248.3 345.8,289.7 345.8,289.7 345.8,290.3 396.7,312.8 
		396.7,312.8 396.7,312.8 447.7,290.3 447.7,227.9 447.7,227.9 447.7,187.2 496.7,165.6 545.7,187.2 545.7,248.3 545.7,248.3 
		545.7,248.3 545.7,248.3 545.8,289.7 545.8,289.7 545.8,290.3 596.7,312.8 596.7,312.8 596.8,312.8 647.7,290.3 647.7,227.9 
		647.7,227.9 647.7,187.2 696.7,165.6 745.7,187.2 745.7,248.3 745.7,248.3 745.7,248.3 745.7,248.3 745.8,289.7 745.8,289.7 
		745.8,290.3 791.8,310.6 791.8,308.5 	"/>
	<polygon class="st1" points="179.1,45.8 179.1,66 196.7,73.7 196.7,73.8 214.4,65.9 214.4,64.9 214.4,64.9 214.3,46.8 214.3,45 
		214.1,-0.2 212.1,-0.2 212.3,46.6 212.4,64.7 196.7,71.6 196.7,71.5 181.1,64.7 181.1,45.9 181.1,44.7 181.1,44.7 181,-0.2 
		179,-0.2 	"/>
	<polygon class="st1" points="31.1,78.1 31.1,37.3 31.1,-0.2 29.1,-0.2 29.1,56.7 29.1,76.8 -0.2,89.7 -0.2,91.9 	"/>
	<polygon class="st1" points="396.7,53.5 396.7,53.5 397.7,53.5 397.7,-0.2 395.7,-0.2 395.7,53.5 395.7,53.5 395.7,53.5 	"/>
	<polygon class="st1" points="781.1,264.7 781,245.9 781,244.7 781,244.7 781,161.5 697.5,124.6 697.5,123.3 697.5,21.4 695.5,21.4 
		695.5,123.3 695.5,124.6 612,161.5 612.3,246.6 612.4,264.7 596.7,271.6 596.7,271.5 581.1,264.7 581,245.9 581,244.7 581,244.7 
		580.9,161.5 497.5,124.6 497.5,123.3 497.5,21.4 495.5,21.4 495.5,123.3 495.5,124.6 412,161.5 412.3,246.6 412.4,264.7 
		396.7,271.6 396.7,271.5 381.1,264.7 381,245.9 381,244.7 381,244.7 380.9,161.5 297.5,124.6 297.5,123.3 297.5,21.4 295.5,21.4 
		295.5,123.3 295.5,124.6 212,161.5 212.3,246.6 212.4,264.7 196.7,271.6 196.7,271.5 181.1,264.7 181.1,245.9 181.1,244.7 
		181.1,244.7 180.9,161.5 97.5,124.6 97.5,123.3 97.5,21.4 95.5,21.4 95.5,123.3 95.5,124.6 12,161.5 12.3,246.6 12.4,264.7 
		-0.2,270.2 -0.2,272.4 14.4,266 14.4,264.9 14.4,264.9 14.3,246.8 14.3,245 14,162.8 96.5,126.4 178.9,162.8 179.1,245.8 
		179.1,266 196.7,273.7 196.7,273.8 214.4,266 214.4,264.9 214.4,264.9 214.3,246.8 214.3,245 214,162.8 296.5,126.4 379,162.8 
		379,245.8 379,266 396.7,273.7 396.7,273.8 414.4,266 414.4,264.9 414.4,264.9 414.3,246.8 414.3,245 414,162.8 496.5,126.4 
		578.9,162.8 579,245.8 579,266 596.7,273.7 596.7,273.8 614.4,266 614.4,264.9 614.4,264.9 614.3,246.8 614.3,245 614,162.8 
		696.5,126.4 779,162.8 779,245.8 779,266 791.8,271.6 791.8,269.4 	"/>
	<polygon class="st1" points="736.9,123.3 714.5,113.4 714.5,112.4 714.4,10.9 714.4,10.3 696.7,2.5 679,10.3 679,30.8 679,113.3 
		656.4,123.3 656.5,123.3 596.7,149.6 596.7,149.6 596.7,149.6 536.9,123.3 536.9,123.3 514.5,113.4 514.5,112.4 514.4,10.9 
		514.4,10.3 496.7,2.5 479,10.3 479,30.8 479,113.3 456.4,123.3 456.5,123.3 396.7,149.6 396.7,149.6 396.7,149.6 336.9,123.3 
		336.9,123.3 314.5,113.4 314.5,112.4 314.4,10.9 314.4,10.3 296.7,2.5 279,10.3 279,30.8 279,113.3 256.4,123.3 256.5,123.3 
		196.7,149.6 196.7,149.6 196.7,149.6 136.9,123.3 136.9,123.3 114.5,113.4 114.5,112.4 114.4,10.9 114.4,10.3 96.7,2.5 79,10.3 
		79,30.8 79,113.3 56.4,123.3 56.5,123.3 -0.2,148.3 -0.2,150.5 61.4,123.3 61.3,123.3 80.4,114.8 81,114.5 81,31.5 81,11.6 
		96.7,4.7 112.4,11.6 112.4,31.5 112.4,31.5 112.4,31.5 112.4,31.5 112.5,114 112.5,114.7 132,123.3 132,123.3 195.7,151.4 
		195.7,253.5 195.7,253.5 195.7,253.5 196.7,253.5 196.7,253.5 197.7,253.5 197.7,151.4 261.4,123.3 261.3,123.3 280.4,114.8 
		281,114.5 281,31.5 281,11.6 296.7,4.7 312.4,11.6 312.4,31.5 312.4,31.5 312.4,31.5 312.4,31.5 312.5,114 312.5,114.7 332,123.3 
		332,123.3 395.7,151.4 395.7,253.5 395.7,253.5 395.7,253.5 396.7,253.5 396.7,253.5 397.7,253.5 397.7,151.4 461.4,123.3 
		461.3,123.3 480.4,114.8 481,114.5 481,31.5 481,11.6 496.7,4.7 512.4,11.6 512.4,31.5 512.4,31.5 512.4,31.5 512.4,31.5 
		512.5,114 512.5,114.7 532,123.3 532,123.3 595.7,151.4 595.7,253.5 595.7,253.5 595.7,253.5 596.7,253.5 596.7,253.5 597.7,253.5 
		597.7,151.4 661.4,123.3 661.3,123.3 680.4,114.8 681,114.5 681,31.5 681,11.6 696.7,4.7 712.4,11.6 712.4,31.5 712.4,31.5 
		712.4,31.5 712.4,31.5 712.5,114 712.5,114.7 732,123.3 732,123.3 791.8,149.7 791.8,147.5 	"/>
</g>
</svg>
