<svg xmlns="http://www.w3.org/2000/svg" xmlns:xlink="http://www.w3.org/1999/xlink" width="793" height="1224.3" xmlns:v="https://vecta.io/nano"><g opacity=".3" fill="#ffce06"><use xlink:href="#B"/><use xlink:href="#C"/><path d="M736.9 1123.2l-22.4-9.8v-1l-.1-102.1-17.7-7.8-17.7 7.8v103l-22.6 9.9h.1l-59.8 26.4-59.8-26.4-22.4-9.8v-1l-.1-102.1-17.7-7.8-17.7 7.8v103l-22.6 9.9h.1l-59.8 26.4-59.8-26.4-22.4-9.8v-1l-.1-102.1-17.7-7.8-17.7 7.8v103l-22.6 9.9h.1l-59.8 26.4-59.8-26.4-22.4-9.8v-1l-.1-102.1-17.7-7.8-17.7 7.8v103l-22.6 9.9h.1l-56.7 25.1v2.2l61.6-27.3h-.1l19.1-8.4.6-.3v-102.9l15.7-6.9 15.7 6.9v19.9l.1 83.2 19.5 8.5 63.7 28.2v72.4h2v-72.4l83.3-36.9v-102.9l15.7-6.9 15.7 6.9v19.9l.1 83.2 19.5 8.5 63.7 28.2v72.4h2v-72.4l83.3-36.9v-102.9l15.7-6.9 15.7 6.9v19.9l.1 83.2 19.5 8.5 63.7 28.2v72.4h2v-72.4l83.3-36.9v-102.9l15.7-6.9 15.7 6.9v19.9l.1 83.2 19.5 8.5 59.8 26.5v-2.2zm10.9-34.2l-.1-103.1-.6-.2-50.4-22.3-51 22.5V1089l-49 21.6-48.9-21.6-.1-103.1-.6-.2-50.4-22.3-51 22.5V1089l-49 21.6-48.9-21.6-.1-103.1-.6-.2-50.4-22.3-51 22.5V1089l-49 21.6-48.9-21.6-.1-103.1-.6-.2-50.4-22.3-51 22.5V1089l-45.9 20.3v2.2l47.9-21.2V987.2l49-21.6 49 21.6v61.1l.1 42 50.9 22.5h.1l50.9-22.5V987.2l49-21.6 49 21.6v61.1l.1 42 50.9 22.5 51-22.5V987.2l49-21.6 49 21.6v61.1l.1 42 50.9 22.5h.1l50.9-22.5V987.2l49-21.6 49 21.6v61.1l.1 42 46 20.3v-2.1zm-451.1 93.9l-34.3 15.2v25.7h2v-24.4l32.3-14.3 32.4 14.3v24.4h2l-.1-25.7z"/><use xlink:href="#C" x="-200"/><path d="M96.7 1182.9l-34.3 15.2v25.7h2v-24.4l32.3-14.3 32.4 14.3v24.4h2v-25.7z"/><use xlink:href="#C" x="-400"/><use xlink:href="#D"/><path d="M747.8 689l-.1-103.1-.6-.2-50.4-22.3-51 22.5V689l-49 21.6-48.9-21.6-.1-103.1-.6-.2-50.4-22.3-51 22.5V689l-49 21.6-48.9-21.6-.1-103.1-.6-.2-50.4-22.3-51 22.5V689l-49 21.6-48.9-21.6-.1-103.1-.6-.2-50.4-22.3-51 22.5V689L-.2 709.3v2.2l47.9-21.2V587.2l49-21.6 49 21.6v61.1l.1 42 50.9 22.5h.1l50.9-22.5V587.2l49-21.6 49 21.6v61.1l.1 42 50.9 22.5 51-22.5V587.2l49-21.6 49 21.6v61.1l.1 42 50.9 22.5h.1l50.9-22.5V587.2l49-21.6 49 21.6v61.1l.1 42 46 20.3v-2.1zm-10.9 34.2l-22.4-9.8v-1l-.1-102.1-17.7-7.8-17.7 7.8v103l-22.6 9.9h.1l-59.8 26.4-59.8-26.4-22.4-9.8v-1l-.1-102.1-17.7-7.8-17.7 7.8v103l-22.6 9.9h.1l-59.8 26.4-59.8-26.4-22.4-9.8v-1l-.1-102.1-17.7-7.8-17.7 7.8v103l-22.6 9.9h.1l-59.8 26.4-59.8-26.4-22.4-9.8v-1l-.1-102.1-17.7-7.8-17.7 7.8v103l-22.6 9.9h.1L-.2 748.3v2.2l61.6-27.3h-.1l19.1-8.4.6-.3V611.6l15.7-6.9 15.7 6.9v19.9l.1 83.2 19.5 8.5 63.7 28.2v102.1h2V751.4l83.3-36.9V611.6l15.7-6.9 15.7 6.9v19.9l.1 83.2 19.5 8.5 63.7 28.2v102.1h2V751.4l83.3-36.9V611.6l15.7-6.9 15.7 6.9v19.9l.1 83.2 19.5 8.5 63.7 28.2v102.1h2V751.4l83.3-36.9V611.6l15.7-6.9 15.7 6.9v19.9l.1 83.2 19.5 8.5 59.8 26.5v-2.2zm27.5 153.6l-.1-40.2v-62.8l-67.6-29.9-67.6 29.9v103l-32.3 14.3h-.1l-32.3-14.3-.1-40.2v-62.8l-67.6-29.9-67.6 29.9v103l-32.4 14.3-32.3-14.3-.1-40.2v-62.8l-67.6-29.9-67.6 29.9v103l-32.3 14.3h-.1l-32.3-14.3-.1-40.2v-62.8l-67.6-29.9-67.6 29.9v103L-.2 889.7v2.2l31.3-13.8v-103l65.6-29 65.6 29v61.1l.1 41.9 34.3 15.1.1.1 34.3-15.2v-103l65.6-29 65.6 29v61.1l.1 41.9 34.3 15.1v.1l34.4-15.2v-103l65.6-29 65.6 29v61.1l.1 41.9 34.3 15.1.1.1 34.3-15.2v-103l65.6-29 65.6 29v61.1l.1 41.9 29.4 13v-2.2zm0 200l-.1-40.2v-62.8l-67.6-29.9-67.6 29.9v103l-32.3 14.3h-.1l-32.3-14.3-.1-40.2v-62.8l-67.6-29.9-67.6 29.9v103l-32.4 14.3-32.3-14.3-.1-40.2v-62.8l-67.6-29.9-67.6 29.9v103l-32.3 14.3h-.1l-32.3-14.3-.1-40.2v-62.8l-67.6-29.9-67.6 29.9v103l-29.3 12.9v2.2l31.3-13.8v-103l65.6-29 65.6 29v61.1l.1 41.9 34.3 15.1.1.1 34.3-15.2v-103l65.6-29 65.6 29v61.1l.1 41.9 34.3 15.1v.1l34.4-15.2v-103l65.6-29 65.6 29v61.1l.1 41.9 34.3 15.1.1.1 34.3-15.2v-103l65.6-29 65.6 29v61.1l.1 41.9 29.4 13v-2.2z"/><use xlink:href="#D" y="-400"/><path d="M747.8 889l-.1-103.1-.6-.2-50.4-22.3-51 22.5V889l-49 21.6-48.9-21.6-.1-103.1-.6-.2-50.4-22.3-51 22.5V889l-49 21.6-48.9-21.6-.1-103.1-.6-.2-50.4-22.3-51 22.5V889l-49 21.6-48.9-21.6-.1-103.1-.6-.2-50.4-22.3-51 22.5V889L-.2 909.3v2.2l47.9-21.2V787.2l49-21.6 49 21.6v61.1l.1 42 50.9 22.5h.1l50.9-22.5V787.2l49-21.6 49 21.6v61.1l.1 42 50.9 22.5 51-22.5V787.2l49-21.6 49 21.6v61.1l.1 42 50.9 22.5h.1l50.9-22.5V787.2l49-21.6 49 21.6v61.1l.1 42 46 20.3v-2.1zm33.3 175.7l-.1-20v-83.2l-83.5-36.9V821.4h-2v103.2L612 961.5l.4 103.2-15.7 6.9v-.1l-15.6-6.8-.1-20-.1-83.2-83.4-36.9V821.4h-2v103.2L412 961.5l.4 103.2-15.7 6.9v-.1l-15.6-6.8-.1-20-.1-83.2-83.4-36.9V821.4h-2v103.2L212 961.5l.4 103.2-15.7 6.9v-.1l-15.6-6.8v-20l-.2-83.2-83.4-36.9V821.4h-2v103.2L12 961.5l.4 103.2-12.6 5.5v2.2l14.6-6.5v-1l-.1-19.9-.3-82.2 82.5-36.4 82.4 36.4.2 83v20.2l17.6 7.7v.1l17.7-7.9v-1l-.1-19.9-.3-82.2 82.5-36.4 82.5 36.4V1066l17.7 7.7v.1l17.7-7.9v-1l-.1-19.9-.3-82.2 82.5-36.4 82.4 36.4.1 103.2 17.7 7.7v.1l17.7-7.9v-1l-.1-19.9-.3-82.2 82.5-36.4 82.5 36.4V1066l12.8 5.6v-2.2zm-44.2-141.5l-22.4-9.8v-1l-.1-102.1-17.7-7.8-17.7 7.8v103l-22.6 9.9h.1l-59.8 26.4-59.8-26.4-22.4-9.8v-1l-.1-102.1-17.7-7.8-17.7 7.8v103l-22.6 9.9h.1l-59.8 26.4-59.8-26.4-22.4-9.8v-1l-.1-102.1-17.7-7.8-17.7 7.8v103l-22.6 9.9h.1l-59.8 26.4-59.8-26.4-22.4-9.8v-1l-.1-102.1-17.7-7.8-17.7 7.8v103l-22.6 9.9h.1L-.2 948.3v2.2l61.6-27.3h-.1l19.1-8.4.6-.3V811.6l15.7-6.9 15.7 6.9v19.9l.1 83.2 19.5 8.5 63.7 28.2v102.1h2V951.4l83.3-36.9V811.6l15.7-6.9 15.7 6.9v19.9l.1 83.2 19.5 8.5 63.7 28.2v102.1h2V951.4l83.3-36.9V811.6l15.7-6.9 15.7 6.9v19.9l.1 83.2 19.5 8.5 63.7 28.2v102.1h2V951.4l83.3-36.9V811.6l15.7-6.9 15.7 6.9v19.9l.1 83.2 19.5 8.5 59.8 26.5v-2.2z"/><use xlink:href="#D" y="-200"/><path d="M781.1 864.7l-.1-20v-83.2l-83.5-36.9V621.4h-2v103.2L612 761.5l.4 103.2-15.7 6.9v-.1l-15.6-6.8-.1-20-.1-83.2-83.4-36.9V621.4h-2v103.2L412 761.5l.4 103.2-15.7 6.9v-.1l-15.6-6.8-.1-20-.1-83.2-83.4-36.9V621.4h-2v103.2L212 761.5l.4 103.2-15.7 6.9v-.1l-15.6-6.8v-20l-.2-83.2-83.4-36.9V621.4h-2v103.2L12 761.5l.4 103.2-12.6 5.5v2.2l14.6-6.5v-1l-.1-19.9-.3-82.2 82.5-36.4 82.4 36.4.2 83V866l17.6 7.7v.1l17.7-7.9v-1l-.1-19.9-.3-82.2 82.5-36.4 82.5 36.4V866l17.7 7.7v.1l17.7-7.9v-1l-.1-19.9-.3-82.2 82.5-36.4 82.4 36.4.1 103.2 17.7 7.7v.1l17.7-7.9v-1l-.1-19.9-.3-82.2 82.5-36.4 82.5 36.4V866l12.8 5.6v-2.2zm-485.6 356.7h2v2.4h-2z"/><use xlink:href="#E"/><use xlink:href="#E" x="-200"/><path d="M95.5 1221.4h2v2.4h-2z"/><use xlink:href="#E" x="-400"/><path d="M495.5 1221.4h2v2.4h-2zm200 0h2v2.4h-2z"/><use xlink:href="#E" x="200"/><use xlink:href="#B" x="200"/><path d="M696.7 1182.9l-34.3 15.2v25.7h2v-24.4l32.3-14.3 32.4 14.3v24.4h2v-25.7z"/><use xlink:href="#B" x="400"/><path d="M496.7 1182.9l-34.3 15.2v25.7h2v-24.4l32.3-14.3 32.4 14.3v24.4h2l-.1-25.7z"/><use xlink:href="#B" x="600"/><path d="M214 1162.8l82.5-36.5 82.5 36.5v61h2l-.1-62.3-83.4-36.9v-103.2h-2v103.2l-83.5 36.9.2 62.3h2zm-200 0l82.5-36.5 82.4 36.5.1 61h2l-.1-62.3-83.4-36.9v-103.2h-2v103.2L12 1161.5l.2 62.3h2zm683.1-18.7l-.4-.2-67.6 29.9v50h2v-48.7l65.6-29 65.6 29v48.7h2v-50zm-83.1 18.7l82.5-36.5 82.5 36.5v61h2v-62.3l-83.5-36.9v-103.2h-2v103.2l-83.5 36.9.2 62.3h2zm-200 0l82.5-36.5 82.4 36.5.1 61h2l-.1-62.3-83.4-36.9v-103.2h-2v103.2l-83.5 36.9.2 62.3h2z"/><use xlink:href="#F"/><path d="M345.7-.2v48.5l.1 42 50.9 22.5 51-22.5V-.2h-2V89l-49 21.6L347.8 89l-.1-89.2z"/><use xlink:href="#G"/><path d="M545.7-.2v48.5l.1 42 50.9 22.5h.1l50.9-22.5V-.2h-2V89l-49 21.6L547.8 89l-.1-89.2zm-400 0v48.5l.1 42 50.9 22.5h.1l50.9-22.5V-.2h-2V89l-49 21.6L147.8 89l-.1-89.2zm451 53.7h1V-.2h-2v53.7z"/><use xlink:href="#H"/><use xlink:href="#F" x="200"/><use xlink:href="#F" x="400"/><use xlink:href="#G" x="-400"/><path d="M747.8 89l-.1-89.2h-2v48.5l.1 42 46 20.3v-2.1zm33.3 34.3l-1.5-.7-48.5-21.4V39.3h-1 1V-.2h-2v102.7l47.1 20.8 15.6 6.8v-2.2l-10.6-4.6zm-16.7-46.5l-.1-40.2V-.2h-2v36.4l.1 41.9 29.4 13v-2.2zm0 600l-.1-40.2v-62.8l-67.6-29.9-67.6 29.9v103l-32.3 14.3h-.1l-32.3-14.3-.1-40.2v-62.8l-67.6-29.9-67.6 29.9v103l-32.4 14.3-32.3-14.3-.1-40.2v-62.8l-67.6-29.9-67.6 29.9v103l-32.3 14.3h-.1l-32.3-14.3-.1-40.2v-62.8l-67.6-29.9-67.6 29.9v103L-.2 689.7v2.2l31.3-13.8v-103l65.6-29 65.6 29v61.1l.1 41.9 34.3 15.1.1.1 34.3-15.2v-103l65.6-29 65.6 29v61.1l.1 41.9 34.3 15.1v.1l34.4-15.2v-103l65.6-29 65.6 29v61.1l.1 41.9 34.3 15.1.1.1 34.3-15.2v-103l65.6-29 65.6 29v61.1l.1 41.9 29.4 13v-2.2zM47.7 90.3V-.2h-2V89L-.2 109.3v2.2z"/><use xlink:href="#H" x="-200"/><path d="M429.1 76.8l-32.4 14.3-32.3-14.3-.1-40.2V-.2h-2v36.4l.1 41.9 34.3 15.2v-.1.1l34.4-15.2V-.2h-2v56.9zM-.2 130.9l17.4-7.6h-.1l46.7-20.7.6-.2V-.2h-2v101.3l-50.3 22.2h.1l-12.4 5.4zm781.3-66.2l-.1-20V-.2h-2V66l12.8 5.6v-2.2zm0 258.6l-1.5-.7-48.5-21.4v-61.9h-1 1v-41.2l-34.4-15.2-34.3 15.2v103l-50.3 22.2h.1l-15.5 6.8-15.5-6.8h-.1l-1.5-.7-48.5-21.4v-61.9h-1 1l-.1-41.2-34.3-15.2-34.3 15.2v103l-50.3 22.2h.1l-15.5 6.8-15.5-6.8h-.1l-1.5-.7-48.5-21.4v-61.9h-1 1l-.1-41.2-34.3-15.2-34.3 15.2v103l-50.3 22.2h.1l-15.5 6.8-15.5-6.8h-.1l-1.5-.7-48.5-21.4v-61.9h-1 1v-41.2l-34.4-15.2-34.3 15.2v103l-50.3 22.2h.1l-12.4 5.4v2.2l17.4-7.6h-.1l46.7-20.7.6-.2v-103l32.3-14.3 32.4 14.3v103.1l47.1 20.8 20.1 8.8.4.2 20.5-9h-.1l46.7-20.7.6-.2v-103l32.3-14.3 32.4 14.3v103.1l47.1 20.8 20.1 8.8.4.2 20.5-9h-.1l46.7-20.7.6-.2v-103l32.3-14.3 32.4 14.3v103.1l47.1 20.8 20.1 8.8.4.2 20.5-9h-.1l46.7-20.7.6-.2v-103l32.3-14.3 32.4 14.3v103.1l47.1 20.8 15.6 6.8v-2.2l-10.6-4.6zM747.8 489l-.1-103.1-.6-.2-50.4-22.3-51 22.5V489l-49 21.6-48.9-21.6-.1-103.1-.6-.2-50.4-22.3-51 22.5V489l-49 21.6-48.9-21.6-.1-103.1-.6-.2-50.4-22.3-51 22.5V489l-49 21.6-48.9-21.6-.1-103.1-.6-.2-50.4-22.3-51 22.5V489L-.2 509.3v2.2l47.9-21.2V387.2l49-21.6 49 21.6v61.1l.1 42 50.9 22.5h.1l50.9-22.5V387.2l49-21.6 49 21.6v61.1l.1 42 50.9 22.5 51-22.5V387.2l49-21.6 49 21.6v61.1l.1 42 50.9 22.5h.1l50.9-22.5V387.2l49-21.6 49 21.6v61.1l.1 42 46 20.3v-2.1zm16.6-12.2l-.1-40.2v-62.8l-67.6-29.9-67.6 29.9v103l-32.3 14.3h-.1l-32.3-14.3-.1-40.2v-62.8l-67.6-29.9-67.6 29.9v103l-32.4 14.3-32.3-14.3-.1-40.2v-62.8l-67.6-29.9-67.6 29.9v103l-32.3 14.3h-.1l-32.3-14.3-.1-40.2v-62.8l-67.6-29.9-67.6 29.9v103L-.2 489.7v2.2l31.3-13.8v-103l65.6-29 65.6 29v61.1l.1 41.9 34.3 15.2v-.1l.1.1 34.3-15.2v-103l65.6-29 65.6 29v61.1l.1 41.9 34.3 15.2v-.1.1l34.4-15.2v-103l65.6-29 65.6 29v61.1l.1 41.9 34.3 15.2v-.1l.1.1 34.3-15.2v-103l65.6-29 65.6 29v61.1l.1 41.9 29.4 13v-2.2zm-27.5-153.5l-22.4-9.9v-1l-.1-102.1-17.7-7.8-17.7 7.8v103l-22.6 10h.1l-59.8 26.3-82.2-36.2v-1l-.1-102.1-17.7-7.8-17.7 7.8v103l-22.6 10h.1l-59.8 26.3-82.2-36.2v-1l-.1-102.1-17.7-7.8-17.7 7.8v103l-22.6 10h.1l-59.8 26.3-82.2-36.2v-1l-.1-102.1-17.7-7.8-17.7 7.8v103l-22.6 10h.1l-56.7 25v2.2l61.5-27.2 19.1-8.5.6-.3V211.6l15.7-6.9 15.7 6.9v19.9l.1 83.2 83.2 36.7v102.1h2V351.4l63.7-28.1h-.1l19.1-8.5.6-.3V211.6l15.7-6.9 15.7 6.9v19.9l.1 83.2 83.2 36.7v102.1h2V351.4l63.7-28.1h-.1l19.1-8.5.6-.3V211.6l15.7-6.9 15.7 6.9v19.9l.1 83.2 83.2 36.7v102.1h2V351.4l63.7-28.1h-.1l19.1-8.5.6-.3V211.6l15.7-6.9 15.7 6.9v19.9l.1 83.2 19.5 8.6 59.8 26.4v-2.2zm44.2 141.4l-.1-20v-83.2l-83.5-36.9V221.4h-2v103.2L612 361.5l.4 103.2-15.7 6.9v-.1l-15.6-6.8-.1-20-.1-83.2-83.4-36.9V221.4h-2v103.2L412 361.5l.4 103.2-15.7 6.9v-.1l-15.6-6.8-.1-20-.1-83.2-83.4-36.9V221.4h-2v103.2L212 361.5l.4 103.2-15.7 6.9v-.1l-15.6-6.8v-20l-.2-83.2-83.4-36.9V221.4h-2v103.2L12 361.5l.4 103.2-12.6 5.5v2.2l14.6-6.4v-1.1l-.1-19.9-.3-82.2 82.5-36.4 82.4 36.4.2 83V466l17.6 7.7v.1l17.7-7.8v-1.1l-.1-19.9-.3-82.2 82.5-36.4 82.5 36.4V466l17.7 7.7v.1l17.7-7.8v-1.1l-.1-19.9-.3-82.2 82.5-36.4 82.4 36.4.1 103.2 17.7 7.7v.1l17.7-7.8v-1.1l-.1-19.9-.3-82.2 82.5-36.4 82.5 36.4V466l12.8 5.6v-2.2zm0 200l-.1-20v-83.2l-83.5-36.9V421.4h-2v103.2L612 561.5l.4 103.2-15.7 6.9v-.1l-15.6-6.8-.1-20-.1-83.2-83.4-36.9V421.4h-2v103.2L412 561.5l.4 103.2-15.7 6.9v-.1l-15.6-6.8-.1-20-.1-83.2-83.4-36.9V421.4h-2v103.2L212 561.5l.4 103.2-15.7 6.9v-.1l-15.6-6.8v-20l-.2-83.2-83.4-36.9V421.4h-2v103.2L12 561.5l.4 103.2-12.6 5.5v2.2l14.6-6.5v-1l-.1-19.9-.3-82.2 82.5-36.4 82.4 36.4.2 83V666l17.6 7.7v.1l17.7-7.9v-1l-.1-19.9-.3-82.2 82.5-36.4 82.5 36.4V666l17.7 7.7v.1l17.7-7.9v-1l-.1-19.9-.3-82.2 82.5-36.4 82.4 36.4.1 103.2 17.7 7.7v.1l17.7-7.9v-1l-.1-19.9-.3-82.2 82.5-36.4 82.5 36.4V666l12.8 5.6v-2.2z"/><use xlink:href="#D" y="-600"/><path d="M736.9 523.2l-22.4-9.8v-1l-.1-102.1-17.7-7.8-17.7 7.8v103l-22.6 9.9h.1l-59.8 26.4-59.8-26.4-22.4-9.8v-1l-.1-102.1-17.7-7.8-17.7 7.8v103l-22.6 9.9h.1l-59.8 26.4-59.8-26.4-22.4-9.8v-1l-.1-102.1-17.7-7.8-17.7 7.8v103l-22.6 9.9h.1l-59.8 26.4-59.8-26.4-22.4-9.8v-1l-.1-102.1-17.7-7.8-17.7 7.8v103l-22.6 9.9h.1L-.2 548.3v2.2l61.6-27.3h-.1l19.1-8.4.6-.3V411.6l15.7-6.9 15.7 6.9v19.9l.1 83.2 19.5 8.5 63.7 28.2v102.1h2V551.4l83.3-36.9V411.6l15.7-6.9 15.7 6.9v19.9l.1 83.2 19.5 8.5 63.7 28.2v102.1h2V551.4l83.3-36.9V411.6l15.7-6.9 15.7 6.9v19.9l.1 83.2 19.5 8.5 63.7 28.2v102.1h2V551.4l83.3-36.9V411.6l15.7-6.9 15.7 6.9v19.9l.1 83.2 19.5 8.5 59.8 26.5v-2.2zm27.5-246.4l-.1-40.2v-62.8l-67.6-29.9-67.6 29.9v103l-32.3 14.3h-.1l-32.3-14.3-.1-40.2v-62.8l-67.6-29.9-67.6 29.9v103l-32.4 14.3-32.3-14.3-.1-40.2v-62.8l-67.6-29.9-67.6 29.9v103l-32.3 14.3h-.1l-32.3-14.3-.1-40.2v-62.8l-67.6-29.9-67.6 29.9v103L-.2 289.7v2.2l31.3-13.8v-103l65.6-29 65.6 29v61.1l.1 41.9 34.3 15.2v-.1l.1.1 34.3-15.2v-103l65.6-29 65.6 29v61.1l.1 41.9 34.3 15.2v-.1.1l34.4-15.2v-103l65.6-29 65.6 29v61.1l.1 41.9 34.3 15.2v-.1l.1.1 34.3-15.2v-103l65.6-29 65.6 29v61.1l.1 41.9 29.4 13v-2.2zM196.7 53.5h1V-.2h-2v53.7zM14.4 65.9v-1L14.3 45 14.1-.2h-2l.2 46.8.1 18.1-12.6 5.5v2.2zM747.8 289l-.1-103.1-.6-.2-50.4-22.3-51 22.5V289l-49 21.6-48.9-21.6-.1-103.1-.6-.2-50.4-22.3-51 22.5V289l-49 21.6-48.9-21.6-.1-103.1-.6-.2-50.4-22.3-51 22.5V289l-49 21.6-48.9-21.6-.1-103.1-.6-.2-50.4-22.3-51 22.5V289L-.2 309.3v2.2l47.9-21.2V187.2l49-21.6 49 21.6v61.1l.1 42 50.9 22.5h.1l50.9-22.5V187.2l49-21.6 49 21.6v61.1l.1 42 50.9 22.5 51-22.5V187.2l49-21.6 49 21.6v61.1l.1 42 50.9 22.5h.1l50.9-22.5V187.2l49-21.6 49 21.6v61.1l.1 42 46 20.3v-2.1zM179.1 45.8V66l17.6 7.7v.1l17.7-7.9v-1l-.1-19.9-.2-45.2h-2l.2 46.8.1 18.1-15.7 6.9v-.1l-15.6-6.8v-20L181-.2h-2zm-148 32.3V-.2h-2v77L-.2 89.7v2.2zm365.6-24.6h1V-.2h-2v53.7zm384.4 211.2l-.1-20v-83.2l-83.5-36.9V21.4h-2v103.2L612 161.5l.4 103.2-15.7 6.9v-.1l-15.6-6.8-.1-20-.1-83.2-83.4-36.9V21.4h-2v103.2L412 161.5l.4 103.2-15.7 6.9v-.1l-15.6-6.8-.1-20-.1-83.2-83.4-36.9V21.4h-2v103.2L212 161.5l.4 103.2-15.7 6.9v-.1l-15.6-6.8v-20l-.2-83.2-83.4-36.9V21.4h-2v103.2L12 161.5l.4 103.2-12.6 5.5v2.2l14.6-6.4v-1.1l-.1-19.9-.3-82.2 82.5-36.4 82.4 36.4.2 83V266l17.6 7.7v.1l17.7-7.8v-1.1l-.1-19.9-.3-82.2 82.5-36.4 82.5 36.4V266l17.7 7.7v.1l17.7-7.8v-1.1l-.1-19.9-.3-82.2 82.5-36.4 82.4 36.4.1 103.2 17.7 7.7v.1l17.7-7.8v-1.1l-.1-19.9-.3-82.2 82.5-36.4 82.5 36.4V266l12.8 5.6v-2.2zm-44.2-141.4l-22.4-9.9v-1l-.1-102.1-17.7-7.8-17.7 7.8v103l-22.6 10h.1l-59.8 26.3-82.2-36.2v-1l-.1-102.1-17.7-7.8-17.7 7.8v103l-22.6 10h.1l-59.8 26.3-82.2-36.2v-1l-.1-102.1-17.7-7.8-17.7 7.8v103l-22.6 10h.1l-59.8 26.3-82.2-36.2v-1l-.1-102.1-17.7-7.8L79 10.3v103l-22.6 10h.1l-56.7 25v2.2l61.5-27.2 19.1-8.5.6-.3V11.6l15.7-6.9 15.7 6.9v19.9l.1 83.2 83.2 36.7v102.1h2V151.4l63.7-28.1h-.1l19.1-8.5.6-.3V11.6l15.7-6.9 15.7 6.9v19.9l.1 83.2 83.2 36.7v102.1h2V151.4l63.7-28.1h-.1l19.1-8.5.6-.3V11.6l15.7-6.9 15.7 6.9v19.9l.1 83.2 83.2 36.7v102.1h2V151.4l63.7-28.1h-.1l19.1-8.5.6-.3V11.6l15.7-6.9 15.7 6.9v19.9l.1 83.2 19.5 8.6 59.8 26.4v-2.2z"/></g><defs ><path id="B" d="M147.1 1185.7h0l-50.4-22.3-51 22.5v37.9h2v-36.6l49-21.6 49 21.6v36.6h2v-37.9z"/><path id="C" d="M564.3 1173.8l-67.6-29.9-67.6 29.9v50h2v-48.7l65.6-29 65.6 29v48.7h2z"/><path id="D" d="M781.1 1123.2l-1.5-.6-48.5-21.4v-61.9h-1 1v-41.2l-34.4-15.2-34.3 15.2v103l-50.3 22.1h.1l-15.5 6.9-15.5-6.9h-.1l-1.5-.6-48.5-21.4v-61.9h-1 1l-.1-41.2-34.3-15.2-34.3 15.2v103l-50.3 22.1h.1l-15.5 6.9-15.5-6.9h-.1l-1.5-.6-48.5-21.4v-61.9h-1 1l-.1-41.2-34.3-15.2-34.3 15.2v103l-50.3 22.1h.1l-15.5 6.9-15.5-6.9h-.1l-1.5-.6-48.5-21.4v-61.9h-1 1v-41.2l-34.4-15.2-34.3 15.2v103l-50.3 22.1h.1l-12.4 5.5v2.2l17.4-7.7h-.1l46.7-20.6.6-.2v-103l32.3-14.3 32.4 14.3v103.1l47.1 20.7 20.1 8.9.4.2 20.5-9.1h-.1l46.7-20.6.6-.2v-103l32.3-14.3 32.4 14.3v103.1l47.1 20.7 20.1 8.9.4.2 20.5-9.1h-.1l46.7-20.6.6-.2v-103l32.3-14.3 32.4 14.3v103.1l47.1 20.7 20.1 8.9.4.2 20.5-9.1h-.1l46.7-20.6.6-.2v-103l32.3-14.3 32.4 14.3v103.1l47.1 20.7 15.6 6.9v-2.2l-10.6-4.7z"/><path id="E" d="M514.4 1210.9v-.6l-17.7-7.8-17.7 7.8v13.5h2v-12.2l15.7-6.9 15.7 6.9v12.2h2z"/><path id="F" d="M262.4-.2v101.3l-50.3 22.2h.1l-15.5 6.8-15.5-6.8h-.1l-1.5-.7-48.5-21.4V39.3h-1 1V-.2h-2v102.7l47.1 20.8 20.1 8.8.4.2 20.5-9h-.1l46.7-20.7.6-.2V-.2z"/><path id="G" d="M629.1 76.8l-32.3 14.3h-.1l-32.3-14.3-.1-40.2V-.2h-2v36.4l.1 41.9 34.3 15.2v-.1l.1.1 34.3-15.2V-.2h-2v56.9z"/><path id="H" d="M579 45.8V66l17.7 7.7v.1l17.7-7.9v-1l-.1-19.9-.2-45.2h-2l.2 46.8.1 18.1-15.7 6.9v-.1l-15.6-6.8-.1-20V-.2h-2z"/></defs></svg>