<?xml version="1.0" encoding="utf-8"?>
<!-- Generator: Adobe Illustrator 23.0.3, SVG Export Plug-In . SVG Version: 6.00 Build 0)  -->
<svg version="1.1" id="Layer_1" xmlns="http://www.w3.org/2000/svg" xmlns:xlink="http://www.w3.org/1999/xlink" x="0px" y="0px"
	 viewBox="0 0 612 583" style="enable-background:new 0 0 612 583;" xml:space="preserve">
<style type="text/css">
	.st0{fill:#FDFDFD;}
	.st1{fill:#F0C518;}
	.st2{fill:#030201;}
	.st3{clip-path:url(#SVGID_2_);fill:#FDFDFD;}
	.st4{clip-path:url(#SVGID_2_);fill:#030201;}
	.st5{clip-path:url(#SVGID_2_);fill:#F0C518;}
</style>
<path class="st0" d="M399.72,478.26c9.81-1.15,18.89-2.1,27.93-3.35c1.78-0.25,3.7-1.29,5.04-2.52
	c17.01-15.58,31.77-32.99,43.82-52.76c6.37-10.44,13.72-20.28,20.92-30.82c-10.44-3.73-18.38-10.08-24.36-19.18
	c-2.82-4.29-3.2-7.53,0.69-11c0.96-0.86,1.78-1.9,3.02-3.24c5.58,11.13,13.89,18.98,25.33,23.13c1.82,0.66,4.21,0.16,6.24-0.28
	c3.75-0.82,7.43-2,11.14-3.03c0.17,0.4,0.34,0.8,0.51,1.2c-8.73,12.68-17.47,25.35-26.19,38.03c-5.18,7.53-10.63,14.9-15.4,22.68
	c-9.34,15.26-22.99,26.65-34.82,39.67c-1.25,1.38-2.11,3.54-2.23,5.4c-0.16,2.48,1.75,5.78,0.7,7.36c-2.38,3.6-5.63,7-9.27,9.28
	c-3.7,2.32-8.2,3.67-12.54,4.58c-4.35,0.91-8.93,0.75-14.04,1.1C404.1,495.98,401.97,487.36,399.72,478.26z"/>
<path class="st0" d="M427.91,364.71c7.37,6.78,14.69,13.51,22,20.24c3.79,3.49,7.91,4.42,12.45,1.52c2.89-1.85,4.9-1.19,7.11,1.42
	c2.12,2.51,4.93,4.42,7.71,6.83c-3,3.34-6.42,6.48-9.04,10.18c-5.56,7.85-11.15,15.75-15.92,24.09
	c-6.75,11.79-16.27,20.97-26.19,29.87c-1.04,0.94-2.57,1.58-3.97,1.82c-6.36,1.08-12.75,1.97-18.96,2.91
	C411.41,430.45,419.73,397.3,427.91,364.71z M460.17,398.1c-6.48,3.65-9.9-1.81-14.03-4.32c-4.49-2.74-8.5-6.26-12.87-9.56
	c-5.56,22.33-11.07,44.42-16.57,66.51c0.42,0.33,0.83,0.66,1.25,0.99c1.93-1.27,4.04-2.33,5.75-3.84
	C439.32,434.12,447.8,415.06,460.17,398.1z"/>
<path class="st0" d="M137.52,393.85c1.92-1.69,4.62-4.4,7.69-6.6c1.15-0.83,3.44-1.11,4.72-0.54c5.67,2.54,10.45,1.68,14.9-2.58
	c6.94-6.64,14.01-13.16,20.83-19.55c8.15,32.44,16.49,65.62,24.88,99.01c-6.48-0.99-13.31-1.98-20.11-3.12
	c-1.07-0.18-2.17-0.89-2.99-1.65c-9.61-8.97-18.99-18-25.92-29.5C154.17,417.16,145.62,405.73,137.52,393.85z M152.75,396.94
	c6.9,10.98,12.49,20.99,19.19,30.2c5.63,7.74,12.44,14.63,18.96,21.67c1.31,1.41,3.68,1.84,6.4,3.11
	c-5.86-23.29-11.38-45.2-16.99-67.49c-4.99,3.65-9.35,6.95-13.83,10.07C162.63,397.21,159.07,401.23,152.75,396.94z"/>
<path class="st0" d="M207.5,504.1c-9.02,0.81-16.87-0.57-23.35-6.29c-1.41-1.25-2.77-3.4-2.83-5.18c-0.16-4.92,0.26-9.88,0.7-14.8
	c0.2-2.25,1.48-3.3,4.1-2.93c7.71,1.09,15.45,1.95,23.19,2.8c3.38,0.37,4.09,2.44,3.44,5.21
	C211.08,489.95,209.27,496.97,207.5,504.1z"/>
<path class="st0" d="M346.66,48.21c-5.03-0.55-9.03-1-13.03-1.41c-23.11-2.39-45.48,0.12-66.62,10.3
	c-3.58,1.72-7.46,3.42-10.19,6.14c-3.73,3.71-6.85,2.79-10.47,0.54c-1.39-0.86-2.83-1.62-4.29-2.44
	C257.67,42.01,322.75,33.49,346.66,48.21z"/>
<path class="st0" d="M48.83,390.1c-1.69-3.4-3.2-6.47-4.46-9.02c8.23-5.6,16.17-11,24.65-16.78c2.67,1.12,6.15,2.58,9.63,4.04
	C74.47,374.76,63.68,382.69,48.83,390.1z"/>
<path class="st0" d="M380.16,130.7c-5.15-1.26-9.11-2.23-13.08-3.2c2.59-9.38,2.39-11.06-2.06-17.92c0.21-0.23,0.38-0.54,0.63-0.66
	c9.48-4.27,12.31-3.05,14.36,7.34C380.88,120.63,380.16,125.31,380.16,130.7z"/>
<path class="st1" d="M384.71,104.43c8.78-1.23,10.49-0.36,11.07,7.48c0.56,7.65,0.12,15.38,0.12,23.89
	c-3.54-1.27-5.65-2.02-8.03-2.87C390.99,122.82,389.76,113.41,384.71,104.43z"/>
<path class="st2" d="M347.06,452.64c-27.1,0-53.72,0-80.66,0c0-8.77,0-17.33,0-26.39c4.19,0,8.27,0,12.65,0
	c0-34.05,0-67.59,0-101.67c-4.3,0-8.39,0-12.73,0c0-9.09,0-17.65,0-26.48c26.91,0,53.65,0,80.7,0c0,8.72,0,17.29,0,26.34
	c-4.22,0-8.33,0-12.71,0c0,34.05,0,67.63,0,101.68c4.21,0,8.3,0,12.74,0C347.06,435.15,347.06,443.71,347.06,452.64z"/>
<path class="st2" d="M281.41,151.71c-7.32-1.43-14.12-2.76-20.92-4.09c-0.03-0.33-0.07-0.65-0.1-0.98
	c7.68-1.18,15.36-2.36,23.84-3.66C283.23,146.08,282.42,148.6,281.41,151.71z"/>
<path class="st2" d="M332.33,151.73c-1-2.9-1.85-5.37-2.97-8.64c8.38,1.21,16.11,2.32,23.84,3.44c0.03,0.34,0.06,0.67,0.09,1.01
	C346.48,148.9,339.68,150.26,332.33,151.73z"/>
<path class="st0" d="M276.89,184.12c-0.47,0.26-0.62,0.42-0.76,0.41c-11.04-0.67-11.04-0.67-14.33-11.6
	c-0.65-2.17-1.33-4.33-2.02-6.59C271.71,166.66,273.03,168.05,276.89,184.12z"/>
<path class="st0" d="M336.39,184.54c1.63-5.15,2.92-9.92,4.74-14.47c0.44-1.1,2.55-1.74,4.02-2.19c2.67-0.82,5.43-1.33,8.93-2.15
	c-1.74,5.7-3.17,10.84-4.96,15.85c-0.37,1.02-2.03,2.01-3.23,2.21C342.97,184.28,339.99,184.29,336.39,184.54z"/>
<path class="st0" d="M264.75,206.14c-12.75-0.59-13.19-1.05-17.49-17.62c3.62,0.53,7.19,0.85,10.64,1.66
	c1.09,0.26,2.32,1.65,2.73,2.79C262.14,197.16,263.32,201.47,264.75,206.14z"/>
<path class="st0" d="M348.96,205.92c1.36-4.44,2.54-8.89,4.16-13.17c0.45-1.18,2.07-2.33,3.37-2.69c3-0.82,6.14-1.14,9.22-1.67
	C365.75,201.16,360.94,206.27,348.96,205.92z"/>
<path class="st0" d="M329.95,205.6c3.57-14.57,3.75-14.72,16.22-14.12c-1.52,5.06-3.03,10.07-4.71,15.62
	C337.7,206.61,334.01,206.13,329.95,205.6z"/>
<path class="st0" d="M372.84,166.07c-0.7,9.91-4.53,16.44-16.03,15.29c1.5-4.74,2.98-9.81,4.8-14.76c0.28-0.77,2.14-1.36,3.25-1.33
	C367.61,165.32,370.36,165.79,372.84,166.07z"/>
<path class="st0" d="M257.05,181.75c-12.52-1.23-13.16-1.84-16.55-15.28c0.27-0.16,0.53-0.41,0.82-0.46
	c10.06-1.9,10.06-1.9,13.21,7.83C255.34,176.34,256.13,178.86,257.05,181.75z"/>
<path class="st0" d="M267.38,191.11c4.32,0.33,8.09,0.61,12.31,0.93c1.29,4.02,2.64,8.2,4.31,13.4c-3.81,0.58-7.43,1.14-11.68,1.79
	C270.69,201.9,269.09,196.71,267.38,191.11z"/>
<path class="st0" d="M370.91,198.92c1.16-4.1,1.42-8.86,3.76-12.12c2.16-3.01,6.56-4.42,10.17-6.66c0.85,8.34-3.59,14.6-13.35,19.51
	C371.33,199.37,371.14,199.13,370.91,198.92z"/>
<path class="st0" d="M326.51,192.22c-1.09,3.65-2.03,6.77-3.3,11c-3.69-2.46-7.03-4.59-10.23-6.91c-0.52-0.38-0.83-1.93-0.49-2.43
	c0.54-0.78,1.69-1.53,2.62-1.58C318.72,192.11,322.33,192.22,326.51,192.22z"/>
<path class="st0" d="M290.48,203.21c-1.24-4-2.25-7.28-3.47-11.23c5.23,0.66,10.48-1.39,16.1,2.8
	C298.31,197.98,294.67,200.41,290.48,203.21z"/>
<path class="st0" d="M332.22,173.73c-1.14,3.73-2.28,7.47-3.48,11.37c-3.47,0-6.73,0-11.64,0c5.33-4.66,9.67-8.46,14.01-12.26
	C331.48,173.13,331.85,173.43,332.22,173.73z"/>
<path class="st0" d="M294.68,185.62c-3.38-0.56-7.64-0.08-9.88-1.97c-2.19-1.85-2.32-6.13-3.52-9.88
	c6.48,1.42,9.74,6.45,13.87,10.33C294.99,184.6,294.83,185.11,294.68,185.62z"/>
<path class="st0" d="M371.49,199.65c-0.4-0.04-0.8-0.08-1.2-0.12c0.21-0.2,0.42-0.41,0.62-0.61
	C371.14,199.13,371.33,199.37,371.49,199.65z"/>
<g>
	<defs>
		<path id="SVGID_1_" d="M210.64,63c0,0,21.92-47,101.71-47c0,0,44.98-6,90.63,47L448,118.32L546,224l41.65,95L614,355.4l-13,134.17
			L564,583H87.2L-27,384.44L-32,335l89-162.16L148,91L210.64,63z"/>
	</defs>
	<clipPath id="SVGID_2_">
		<use xlink:href="#SVGID_1_"  style="overflow:visible;"/>
	</clipPath>
	<path class="st3" d="M660,63c-85.62,0-171.23,0-257.02,0c-1.18,4.53-1.03,8.14,2.05,12.1c11.95,15.35,16.45,33.24,15.87,52.4
		c-0.16,5.11,0.98,8.3,6.14,9.37c4.03,0.84,4.79,3.54,5.08,7.28c1.31,16.64,2.44,33.33-1.17,49.75c-2.01,9.16-5.51,18-8.49,27.49
		c6.42,1.39,13.84,2.89,21.2,4.62c9.72,2.27,19.42,4.62,29.07,7.17c2.16,0.57,4.24,1.89,6.06,3.28
		c15.04,11.46,27.99,24.98,40.42,39.22c9.15,10.47,19.96,19.5,30.27,28.91c2.02,1.85,2.84,3.32,2.18,5.87
		c-0.84,3.21-1.5,6.47-2.45,10.65c13.1,6.48,26.3,13.01,40.23,19.9c-4.29,4.82-8.44,9.48-13.37,15.02
		c7.46,2.27,14.61,4.45,22.98,6.99c-3.15,9.71-6.23,19.77-9.68,29.7c-5.74,16.52-15.44,30.72-26.85,43.74
		c-4.13,4.7-9.26,8.51-13.83,12.84c-20.07,18.99-43.77,32.71-67.49,46.38c-3.19,1.84-4.64,4.06-5.48,7.61
		c-1.92,8.16-5.85,15.27-13.54,19.49c-4.65,2.55-9.36,5.1-14.28,7.05c-4.61,1.84-7.82,3.65-10.52,8.82
		c-2.48,4.76-3.16,9.56-4.9,14.24c-0.95,2.56-2.84,4.77-4.8,7.94c2.81,7.2,6.02,15.74,9.59,24.12c0.47,1.11,2.83,2.01,4.32,2.01
		c26.49,0.11,52.98,0.08,79.46,0.07c46.31-0.01,92.62-0.02,138.93-0.03c0,6.33,0,12.67,0,19c-221.67,0-443.33,0-665,0
		c0-6.33,0-12.67,0-19c60.13,0,120.26,0,180.39,0c3.74-9.28,7.39-18.33,10.41-25.82c-2.06-3.76-3.88-6.32-4.92-9.16
		c-1.58-4.31,0.08-9.89-5.17-12.77c-0.34-0.19-0.54-0.87-0.58-1.34c-0.33-4.31-2.87-6.2-6.89-7.1c-2.72-0.61-5.25-2.06-7.87-3.12
		c-12.39-5.05-20.77-13.46-23.31-27.09c-0.29-1.55-2.13-3.12-3.63-4.1c-17.84-11.62-36.42-22.22-53.47-34.89
		c-23.3-17.31-43.84-37.57-54.5-65.58c-4.16-10.94-7.51-22.18-11.08-32.84c8.3-2.74,15.43-5.1,22.77-7.53
		c-4.61-5.15-8.77-9.8-13.25-14.82c11.29-5.45,21.34-10.21,31.3-15.14c8.82-4.37,8.75-4.45,7.03-14.31
		c-0.45-2.59-0.58-4.7,1.95-7.02c11.49-10.57,22.73-21.43,33.81-32.44c7.54-7.5,14.41-15.69,22.06-23.07
		c5.55-5.36,11.17-11.75,18.02-14.39c11.85-4.57,24.67-6.65,37.11-9.66c5.57-1.34,11.21-2.39,16.71-3.55
		c-2.31-5.46-4.71-10.24-6.38-15.25c-6.62-19.89-5.81-40.32-4.27-60.84c0.41-5.41,2.7-8.1,7.63-9.27c3.03-0.72,3.7-2.34,3.59-5.72
		c-0.66-19.79,3.32-38.5,15.7-54.48c3.19-4.12,3.2-7.91,2.51-12.69C138.57,63,66.78,63-5,63c0-22.33,0-44.67,0-67
		c221.67,0,443.33,0,665,0C660,18.33,660,40.67,660,63z M410.53,140.53c0.25-5.41,0.68-10.39,0.66-15.38
		c-0.07-18.25-5.11-34.72-17.56-48.55c-1.02-1.13-1.68-3.44-1.27-4.85c1.69-5.88-1.16-9.87-4.87-13.7
		c-8.32-8.62-18.03-15.29-29.05-19.87c-25.67-10.66-52.34-12.31-79.4-7.35c-20.54,3.77-38.88,12.23-53.55,27.75
		c-3.67,3.88-5.11,7.83-4.4,12.98c0.22,1.58-0.08,3.77-1.06,4.88c-14.93,17.02-19.55,36.99-17.09,58.98
		c0.42,3.78,0.02,6.45-4.28,7.25c-1.28,0.24-2.44,1.04-3.71,1.4c-2.96,0.84-4.08,2.62-4.11,5.79c-0.08,9.32-1.1,18.66-0.64,27.94
		c0.94,18.88,5.71,36.46,20.66,50.06c-1.22,0.43-2.09,0.84-3.01,1.04c-20.79,4.42-41.59,8.79-62.37,13.26
		c-1.73,0.37-3.59,1.1-4.91,2.23c-14.81,12.67-29.44,25.45-41.13,41.33c-5.28,7.17-11.8,13.58-18.46,19.56
		c-8.7,7.81-8.99,7.48-4.87,18.24c0.1,0.26-0.08,0.63-0.27,1.84c-11.18,6.28-22.84,12.82-34.82,19.55
		c4.27,3.68,8.6,7.42,13.94,12.02c-10,5.05-19.24,9.72-28.89,14.6c0.04,0.24,0.14,1.39,0.47,2.47
		c10.29,33.53,30.54,60.19,58.59,80.42c18.28,13.19,38.29,23.96,57.41,35.99c1.63,1.02,3.12,3.3,3.44,5.2
		c1.69,9.98,5.75,17.91,15.96,21.61c7.7,2.79,15.29,5.92,22.94,8.9c-2.17,6.26-1.82,6.99,4.68,9.44c1.89,0.71,3.75,1.47,6.4,2.51
		c-5.05,2.42-8.12,6.1-5.95,9.91c1.65,2.9,6.39,4.04,9.69,5.93c-4.46,10.75-9,21.68-13.74,33.11c4.95,0,8.96-0.2,12.93,0.06
		c2.94,0.19,4.31-0.82,5.43-3.59c4.16-10.27,8.65-20.4,13.14-30.84c3.74,1.03,7.15,1.98,10.89,3.01
		c-4.54,10.64-8.87,20.8-13.31,31.19c70.88,0,141.3,0,212.49,0c-4.7-11.39-9.24-22.38-13.88-33.63c1.92-0.59,3.9-0.98,5.66-1.81
		c1.64-0.78,4.34-2.05,4.33-3.08c-0.03-2.59-1.09-5.27-2.22-7.7c-0.48-1.04-2.14-1.53-3.76-2.6c3.8-1.5,7.52-2.02,9.72-4.13
		c1.77-1.7,1.71-5.32,2.53-8.34c6.14-2.34,13.54-5.21,20.98-7.98c9.92-3.69,14.89-10.97,16.37-21.27c0.31-2.2,2.18-4.82,4.1-6.03
		c9.97-6.29,20.14-12.27,30.34-18.2c20.98-12.2,40.66-25.94,55.97-45.2c13.44-16.91,25.03-34.74,29.94-55.25
		c-9.68-4.88-19.03-9.59-29-14.62c5.52-4.72,9.87-8.45,14.07-12.04c-12.31-6.73-24.2-13.24-35.8-19.59
		c1.43-4.15,2.89-7.36,3.54-10.73c0.28-1.43-0.73-3.61-1.87-4.73c-7.45-7.33-16.11-13.67-22.45-21.82
		c-12.48-16.05-26.85-30-42.36-42.94c-1.37-1.14-2.95-2.35-4.62-2.76c-13.05-3.22-26.11-6.41-39.24-9.27
		c-8.87-1.93-17.87-3.32-26.12-4.82c4.13-6.24,8.92-12.08,12.15-18.68c7.77-15.84,8.03-32.98,7.77-50.25
		c-0.14-9.58-2.03-16.84-12.85-18.49C410.74,140.84,410.65,140.64,410.53,140.53z"/>
	<path class="st4" d="M410.53,140.53c0.11,0.11,0.21,0.31,0.34,0.33c10.81,1.65,12.71,8.91,12.85,18.49
		c0.25,17.28,0,34.41-7.77,50.25c-3.24,6.6-8.03,12.43-12.15,18.68c8.25,1.51,17.25,2.89,26.12,4.82
		c13.13,2.86,26.19,6.06,39.24,9.27c1.67,0.41,3.25,1.61,4.62,2.76c15.51,12.94,29.88,26.89,42.36,42.94
		c6.34,8.16,15,14.5,22.45,21.82c1.14,1.12,2.15,3.3,1.87,4.73c-0.65,3.37-2.11,6.58-3.54,10.73c11.6,6.35,23.5,12.86,35.8,19.59
		c-4.2,3.59-8.55,7.32-14.07,12.04c9.97,5.03,19.31,9.74,29,14.62c-4.91,20.5-16.5,38.33-29.94,55.25
		c-15.31,19.26-34.99,33-55.97,45.2c-10.19,5.93-20.37,11.91-30.34,18.2c-1.92,1.21-3.79,3.83-4.1,6.03
		c-1.48,10.31-6.44,17.59-16.37,21.27c-7.44,2.76-14.84,5.64-20.98,7.98c-0.82,3.02-0.76,6.64-2.53,8.34
		c-2.2,2.11-5.92,2.63-9.72,4.13c1.62,1.07,3.28,1.56,3.76,2.6c1.12,2.43,2.19,5.11,2.22,7.7c0.01,1.03-2.68,2.3-4.33,3.08
		c-1.76,0.83-3.73,1.22-5.66,1.81c4.65,11.26,9.18,22.24,13.88,33.63c-71.19,0-141.61,0-212.49,0c4.44-10.39,8.77-20.55,13.31-31.19
		c-3.74-1.03-7.15-1.97-10.89-3.01c-4.48,10.45-8.98,20.58-13.14,30.84c-1.12,2.78-2.49,3.79-5.43,3.59
		c-3.97-0.26-7.98-0.06-12.93-0.06c4.75-11.43,9.28-22.37,13.74-33.11c-3.31-1.89-8.04-3.03-9.69-5.93
		c-2.17-3.81,0.9-7.49,5.95-9.91c-2.64-1.04-4.51-1.8-6.4-2.51c-6.51-2.45-6.85-3.18-4.68-9.44c-7.65-2.98-15.24-6.11-22.94-8.9
		c-10.21-3.7-14.27-11.63-15.96-21.61c-0.32-1.9-1.81-4.18-3.44-5.2c-19.12-12.03-39.14-22.81-57.41-35.99
		c-28.05-20.23-48.3-46.89-58.59-80.42c-0.33-1.08-0.42-2.23-0.47-2.47c9.65-4.87,18.89-9.54,28.89-14.6
		c-5.33-4.6-9.67-8.34-13.94-12.02c11.98-6.72,23.64-13.27,34.82-19.55c0.19-1.2,0.37-1.57,0.27-1.84
		c-4.12-10.76-3.83-10.42,4.87-18.24c6.65-5.98,13.17-12.39,18.46-19.56c11.69-15.88,26.32-28.65,41.13-41.33
		c1.32-1.13,3.18-1.86,4.91-2.23c20.78-4.48,41.58-8.84,62.37-13.26c0.92-0.2,1.79-0.61,3.01-1.04
		c-14.95-13.6-19.72-31.18-20.66-50.06c-0.46-9.28,0.56-18.63,0.64-27.94c0.03-3.16,1.15-4.94,4.11-5.79
		c1.27-0.36,2.43-1.17,3.71-1.4c4.3-0.79,4.7-3.46,4.28-7.25c-2.47-21.99,2.16-41.96,17.09-58.98c0.97-1.11,1.27-3.31,1.06-4.88
		c-0.71-5.15,0.73-9.1,4.4-12.98c14.67-15.52,33.01-23.98,53.55-27.75c27.06-4.96,53.73-3.31,79.4,7.35
		c11.02,4.58,20.72,11.25,29.05,19.87c3.7,3.83,6.56,7.82,4.87,13.7c-0.4,1.41,0.26,3.71,1.27,4.85
		c12.45,13.83,17.49,30.3,17.56,48.55C411.21,130.13,410.78,135.12,410.53,140.53z M218.95,242.19c-1.08,0-1.74-0.11-2.35,0.02
		c-20.37,4.11-40.75,8.13-61.07,12.47c-2.91,0.62-6.03,2.25-8.14,4.33c-16.87,16.69-33.53,33.6-49.98,50.17
		c12.32,9.1,23.88,17.19,34.93,25.92c11.25,8.88,20.83,19.41,28.23,33.78c7.26-8.61,13.89-16.22,20.22-24.07
		c2.89-3.59,4.01-7.9,3.29-12.67c-0.45-2.98-0.38-6.05-0.58-9.84c7.86,4.64,10.74,11.45,12.47,18.79
		c2.87,12.14,5.02,24.45,8.15,36.52c7.71,29.76,15.86,59.42,23.69,89.15c0.85,3.25,1.37,6.81,1,10.1
		c-0.73,6.43-1.92,12.85-3.41,19.15c-3.2,13.55-6.72,27.02-10.15,40.7c60.92,20.09,122.31,20.05,183.02,0.03
		c-3.66-14.89-7.41-29.5-10.8-44.21c-2.57-11.15-3.12-21.82,0.35-33.55c9.41-31.86,16.94-64.28,25.18-96.48
		c2.47-9.65,4.33-19.49,7.48-28.9c1.39-4.15,5.28-7.47,8.03-11.16c0.69,0.14,1.39,0.27,2.08,0.41
		c-5.84,22.19,10.46,32.17,22.88,44.93c14.96-26.2,38.26-42.16,62.36-57.15c-3.52-3.75-7.44-7.03-10.26-11.08
		c-11.18-16.04-25.78-28.71-40.29-41.46c-1.67-1.47-3.92-2.64-6.08-3.13c-16.53-3.75-33.1-7.38-49.69-10.87
		c-4.77-1-9.66-1.43-14.93-2.18c2.87,13.46,2.75,26.08-0.97,39c-13.33-10.53-27.88-17.89-43.98-22.28c-3.33-0.91-5.48-0.39-8.03,1.8
		c-11.34,9.76-22.87,19.3-34.87,29.38c-11.95-10.06-23.58-19.71-35.02-29.59c-2.29-1.98-4.17-2.55-7.12-1.75
		c-16.27,4.38-31.04,11.67-44.23,22.24C216.56,271.56,216.03,257.37,218.95,242.19z M306.85,232.57c0.03-0.66,0.06-1.33,0.09-1.99
		c10.32,0,20.68,0.59,30.94-0.17c10.24-0.76,20.55-2.17,30.54-4.53c20.04-4.74,33.12-17.43,37.72-37.6
		c2.17-9.49,2.33-19.43,3.6-29.13c0.69-5.23-1.53-7.57-6.44-9.16c-41.42-13.42-83.44-21.07-127.19-15.12
		c-23.48,3.19-46.36,8.59-68.72,16.38c-2.69,0.94-3.59,2.34-3.41,5.07c0.42,6.31,0.44,12.64,0.98,18.94
		c2.59,30.04,19.37,48.4,49.26,52.53C271.66,230.2,289.31,231.03,306.85,232.57z M399.72,478.26c2.25,9.09,4.38,17.71,6.49,26.26
		c5.12-0.35,9.69-0.19,14.04-1.1c4.33-0.91,8.84-2.26,12.54-4.58c3.64-2.28,6.89-5.68,9.27-9.28c1.05-1.58-0.86-4.89-0.7-7.36
		c0.12-1.86,0.98-4.02,2.23-5.4c11.83-13.02,25.47-24.4,34.82-39.67c4.77-7.79,10.22-15.15,15.4-22.68
		c8.72-12.69,17.46-25.36,26.19-38.03c-0.17-0.4-0.34-0.8-0.51-1.2c-3.71,1.03-7.38,2.2-11.14,3.03c-2.02,0.44-4.42,0.94-6.24,0.28
		c-11.44-4.15-19.75-12.01-25.33-23.13c-1.24,1.34-2.05,2.38-3.02,3.24c-3.88,3.47-3.5,6.71-0.69,11
		c5.98,9.1,13.92,15.45,24.36,19.18c-7.2,10.54-14.56,20.38-20.92,30.82c-12.05,19.76-26.81,37.18-43.82,52.76
		c-1.34,1.23-3.27,2.28-5.04,2.52C418.62,476.16,409.54,477.12,399.72,478.26z M427.91,364.71c-8.18,32.59-16.5,65.74-24.82,98.88
		c6.2-0.93,12.6-1.82,18.96-2.91c1.4-0.24,2.93-0.89,3.97-1.82c9.92-8.9,19.44-18.07,26.19-29.87c4.77-8.34,10.36-16.24,15.92-24.09
		c2.62-3.7,6.04-6.85,9.04-10.18c-2.77-2.41-5.59-4.32-7.71-6.83c-2.2-2.61-4.21-3.27-7.11-1.42c-4.53,2.9-8.66,1.97-12.45-1.52
		C442.6,378.22,435.29,371.49,427.91,364.71z M137.52,393.85c8.11,11.88,16.66,23.32,24,35.48c6.93,11.49,16.31,20.53,25.92,29.5
		c0.81,0.76,1.92,1.47,2.99,1.65c6.8,1.14,13.63,2.13,20.11,3.12c-8.39-33.4-16.73-66.57-24.88-99.01
		c-6.82,6.39-13.89,12.9-20.83,19.55c-4.45,4.26-9.24,5.11-14.9,2.58c-1.28-0.57-3.57-0.29-4.72,0.54
		C142.14,389.45,139.43,392.16,137.52,393.85z M388.55,93.07c0.27-0.37,0.54-0.74,0.8-1.11c-3.79-4.33-7.61-8.65-11.36-13.01
		c-1.73-2.01-3.24-1.77-5.52-0.54c-32.23,17.46-66.28,20.91-101.48,11.78c-11.43-2.96-22.29-8.1-34.55-12.67
		c-3.52,4.24-7.79,9.38-12.05,14.53c0.34,0.41,0.68,0.81,1.03,1.22c11.01-3.26,21.4-0.11,31.89,2.57
		c13.07,3.35,25.24,10.63,39.99,9.59c-2.35,3.39-4.72,6.96-8.04,8.86c-3.43,1.97-4,3.73-2.67,6.63c13.74,0,27.15,0,40.75,0
		c0.21-1.66,0.4-3.11,0.59-4.63c-4.79-2.72-9.8-5.08-10.78-9.91c7.31-1.7,14.25-2.99,21-4.96
		C354.61,96.62,370.58,89.01,388.55,93.07z M207.5,504.1c1.77-7.13,3.58-14.15,5.24-21.2c0.65-2.78-0.06-4.84-3.44-5.21
		c-7.74-0.85-15.48-1.71-23.19-2.8c-2.62-0.37-3.9,0.68-4.1,2.93c-0.43,4.92-0.86,9.88-0.7,14.8c0.06,1.78,1.42,3.93,2.83,5.18
		C190.63,503.53,198.48,504.92,207.5,504.1z M346.66,48.21c-23.91-14.72-88.99-6.19-104.6,13.13c1.45,0.82,2.9,1.58,4.29,2.44
		c3.62,2.25,6.74,3.18,10.47-0.54c2.73-2.72,6.62-4.42,10.19-6.14c21.14-10.18,43.51-12.7,66.62-10.3
		C337.63,47.21,341.64,47.66,346.66,48.21z M97.43,325.26c-10.07,7.73-20.11,15.44-30.42,23.35c2.94,1.4,5.42,2.73,8.03,3.76
		c1.41,0.55,3.6,1.35,4.46,0.72c9.3-6.82,18.42-13.91,27.89-21.16C103.53,329.35,100.5,327.32,97.43,325.26z M48.83,390.1
		c14.86-7.41,25.64-15.34,29.82-21.76c-3.48-1.46-6.96-2.92-9.63-4.04c-8.49,5.78-16.42,11.17-24.65,16.78
		C45.63,383.63,47.14,386.69,48.83,390.1z M380.16,130.7c0-5.4,0.72-10.07-0.14-14.43c-2.05-10.39-4.88-11.61-14.36-7.34
		c-0.26,0.12-0.43,0.43-0.63,0.66c4.44,6.85,4.65,8.53,2.06,17.91C371.05,128.48,375.01,129.44,380.16,130.7z M246.98,127.45
		c-3.25-6.65-2.65-12.62,1.89-18.13c-1.91-0.82-3.49-1.35-4.92-2.14c-3.93-2.18-6.22-0.82-8.18,2.97
		c-3.38,6.56-3.84,13.14-1.51,20.33C238.45,129.49,242.42,128.54,246.98,127.45z M384.71,104.43c5.05,8.98,6.28,18.39,3.15,28.49
		c2.38,0.85,4.5,1.61,8.03,2.87c0-8.51,0.44-16.24-0.12-23.89C395.2,104.07,393.49,103.2,384.71,104.43z M228.86,104.37
		c-0.39-0.55-0.78-1.1-1.16-1.65c-2.95,1.39-7.77,2.12-8.52,4.27c-3.12,9.01-2.69,18.44-0.42,28.31c2.53-0.93,4.72-1.73,6.94-2.55
		C222.54,122.44,223.98,113.21,228.86,104.37z"/>
	<path class="st5" d="M218.95,242.19c-2.92,15.18-2.38,29.37,1.41,38.52c13.19-10.57,27.96-17.86,44.23-22.24
		c2.95-0.79,4.83-0.22,7.12,1.75c11.43,9.88,23.07,19.53,35.02,29.59c12-10.08,23.53-19.62,34.87-29.38c2.55-2.19,4.7-2.71,8.03-1.8
		c16.1,4.38,30.65,11.75,43.98,22.28c3.72-12.92,3.85-25.55,0.97-39c5.27,0.75,10.16,1.18,14.93,2.18
		c16.59,3.49,33.16,7.11,49.69,10.87c2.16,0.49,4.41,1.67,6.08,3.13c14.51,12.75,29.11,25.42,40.29,41.46
		c2.82,4.04,6.73,7.33,10.26,11.08c-24.1,14.99-47.39,30.95-62.36,57.15c-12.42-12.76-28.72-22.74-22.88-44.93
		c-0.69-0.14-1.39-0.27-2.08-0.41c-2.75,3.7-6.65,7.01-8.03,11.16c-3.14,9.42-5.01,19.26-7.48,28.9
		c-8.24,32.21-15.77,64.62-25.18,96.48c-3.47,11.74-2.92,22.4-0.35,33.55c3.39,14.7,7.15,29.32,10.8,44.21
		c-60.72,20.02-122.1,20.06-183.02-0.03c3.43-13.68,6.94-27.15,10.15-40.7c1.49-6.3,2.68-12.72,3.41-19.15
		c0.37-3.3-0.14-6.86-1-10.1c-7.83-29.73-15.97-59.39-23.69-89.15c-3.13-12.07-5.27-24.38-8.15-36.52
		c-1.74-7.34-4.61-14.16-12.47-18.79c0.2,3.79,0.13,6.85,0.58,9.84c0.72,4.76-0.4,9.07-3.29,12.67
		c-6.32,7.85-12.95,15.46-20.22,24.07c-7.4-14.36-16.98-24.9-28.23-33.78c-11.05-8.73-22.61-16.82-34.93-25.92
		c16.45-16.57,33.11-33.48,49.98-50.17c2.11-2.09,5.23-3.71,8.14-4.33c20.32-4.34,40.7-8.37,61.07-12.47
		C217.21,242.08,217.87,242.19,218.95,242.19z M347.06,452.64c0-8.92,0-17.49,0-26.52c-4.45,0-8.53,0-12.74,0
		c0-34.05,0-67.63,0-101.68c4.39,0,8.49,0,12.71,0c0-9.05,0-17.63,0-26.34c-27.05,0-53.79,0-80.7,0c0,8.83,0,17.39,0,26.48
		c4.34,0,8.43,0,12.73,0c0,34.08,0,67.63,0,101.67c-4.38,0-8.47,0-12.65,0c0,9.06,0,17.62,0,26.39
		C293.34,452.64,319.96,452.64,347.06,452.64z"/>
	<path class="st5" d="M306.85,232.57c-17.55-1.54-35.19-2.37-52.62-4.77c-29.9-4.13-46.67-22.49-49.26-52.53
		c-0.54-6.29-0.56-12.63-0.98-18.94c-0.18-2.73,0.72-4.13,3.41-5.07c22.36-7.79,45.24-13.19,68.72-16.38
		c43.76-5.95,85.77,1.7,127.19,15.12c4.91,1.59,7.13,3.92,6.44,9.16c-1.28,9.71-1.44,19.64-3.6,29.13
		c-4.6,20.17-17.69,32.85-37.72,37.6c-9.99,2.36-20.29,3.77-30.54,4.53c-10.26,0.76-20.62,0.17-30.94,0.17
		C306.92,231.24,306.88,231.91,306.85,232.57z M306.55,209.01c3.15,1.8,5.75,3.65,8.61,4.87c14.72,6.25,29.88,5.26,45.12,2.42
		c12.1-2.25,22.95-6.97,31.08-16.52c7.34-8.62,9.69-18.47,5.63-29.32c-3.88-10.39-12.43-14.8-22.58-16.52
		c-16.47-2.79-32.29-0.13-46.78,8.03c-7.66,4.31-14.46,10.16-21.57,15.27c-18.05-19.64-41.13-27.1-68-23.16
		c-15.58,2.29-24.61,14.17-23.05,29.72c0.94,9.39,6.33,16.25,13.4,21.97c9.42,7.61,20.68,10.51,32.35,11.81
		C276.85,219.36,292.77,219.52,306.55,209.01z M281.41,151.71c1.01-3.11,1.83-5.64,2.83-8.72c-8.48,1.3-16.16,2.48-23.84,3.66
		c0.03,0.33,0.07,0.65,0.1,0.98C267.29,148.95,274.08,150.28,281.41,151.71z M332.33,151.73c7.36-1.47,14.16-2.84,20.96-4.2
		c-0.03-0.34-0.06-0.67-0.09-1.01c-7.73-1.12-15.46-2.23-23.84-3.44C330.48,146.36,331.33,148.84,332.33,151.73z"/>
	<path class="st5" d="M388.55,93.07c-17.97-4.07-33.94,3.55-50.43,8.36c-6.74,1.97-13.68,3.25-21,4.96
		c0.98,4.83,5.99,7.19,10.78,9.91c-0.19,1.52-0.38,2.97-0.59,4.63c-13.6,0-27,0-40.75,0c-1.33-2.9-0.76-4.65,2.67-6.63
		c3.32-1.91,5.69-5.47,8.04-8.86c-14.75,1.04-26.92-6.24-39.99-9.59c-10.49-2.68-20.88-5.83-31.89-2.57
		c-0.34-0.41-0.68-0.81-1.03-1.22c4.27-5.14,8.53-10.29,12.05-14.53c12.26,4.57,23.12,9.71,34.55,12.67
		c35.2,9.13,69.25,5.68,101.48-11.78c2.28-1.23,3.79-1.48,5.52,0.54c3.75,4.37,7.57,8.68,11.36,13.01
		C389.09,92.33,388.82,92.7,388.55,93.07z"/>
	<path class="st3" d="M97.43,325.26c3.07,2.06,6.1,4.09,9.96,6.68c-9.47,7.25-18.58,14.34-27.89,21.16
		c-0.87,0.63-3.05-0.17-4.46-0.72c-2.61-1.03-5.1-2.36-8.03-3.76C77.31,340.7,87.36,332.99,97.43,325.26z"/>
	<path class="st3" d="M246.98,127.45c-4.56,1.09-8.53,2.04-12.71,3.04c-2.34-7.19-1.87-13.77,1.51-20.33
		c1.96-3.8,4.25-5.15,8.18-2.97c1.43,0.79,3.01,1.32,4.92,2.14C244.32,114.83,243.73,120.8,246.98,127.45z"/>
	<path class="st5" d="M228.86,104.37c-4.88,8.84-6.32,18.07-3.16,28.38c-2.22,0.82-4.4,1.62-6.94,2.55
		c-2.27-9.87-2.7-19.3,0.42-28.31c0.74-2.15,5.57-2.88,8.52-4.27C228.09,103.27,228.47,103.82,228.86,104.37z"/>
	<path class="st4" d="M306.55,209.01c-13.78,10.51-29.7,10.35-45.78,8.56c-11.67-1.3-22.93-4.2-32.35-11.81
		c-7.07-5.71-12.46-12.58-13.4-21.97c-1.56-15.55,7.47-27.43,23.05-29.72c26.87-3.94,49.94,3.52,68,23.16
		c7.12-5.1,13.91-10.96,21.57-15.27c14.49-8.15,30.31-10.82,46.78-8.03c10.14,1.72,18.7,6.14,22.58,16.52
		c4.05,10.86,1.71,20.7-5.63,29.32c-8.13,9.55-18.98,14.27-31.08,16.52c-15.24,2.83-30.4,3.82-45.12-2.42
		C312.3,212.66,309.7,210.81,306.55,209.01z M371.49,199.65c9.76-4.91,14.2-11.18,13.35-19.51c-3.61,2.24-8.01,3.65-10.17,6.66
		c-2.34,3.26-2.59,8.02-3.76,12.12c-0.21,0.2-0.42,0.41-0.62,0.61C370.68,199.57,371.08,199.61,371.49,199.65z M276.89,184.12
		c-3.86-16.07-5.17-17.46-17.1-17.78c0.69,2.26,1.37,4.42,2.02,6.59c3.29,10.93,3.29,10.93,14.33,11.6
		C276.27,184.53,276.42,184.38,276.89,184.12z M336.39,184.54c3.61-0.25,6.59-0.26,9.49-0.75c1.2-0.2,2.87-1.19,3.23-2.21
		c1.79-5.01,3.22-10.15,4.96-15.85c-3.5,0.82-6.26,1.34-8.93,2.15c-1.47,0.45-3.58,1.09-4.02,2.19
		C339.31,174.62,338.02,179.38,336.39,184.54z M264.75,206.14c-1.43-4.67-2.61-8.98-4.12-13.17c-0.41-1.14-1.64-2.53-2.73-2.79
		c-3.46-0.81-7.03-1.14-10.64-1.66C251.56,205.1,252,205.55,264.75,206.14z M348.96,205.92c11.97,0.35,16.79-4.77,16.74-17.53
		c-3.08,0.52-6.21,0.85-9.22,1.67c-1.3,0.36-2.92,1.51-3.37,2.69C351.51,197.04,350.33,201.48,348.96,205.92z M329.95,205.6
		c4.07,0.53,7.75,1.01,11.51,1.5c1.67-5.56,3.18-10.56,4.71-15.62C333.7,190.88,333.51,191.03,329.95,205.6z M372.84,166.07
		c-2.48-0.27-5.22-0.74-7.98-0.8c-1.11-0.03-2.97,0.57-3.25,1.33c-1.82,4.95-3.3,10.02-4.8,14.76
		C368.31,182.51,372.14,175.97,372.84,166.07z M257.05,181.75c-0.92-2.9-1.7-5.41-2.51-7.91c-3.15-9.73-3.15-9.74-13.21-7.83
		c-0.29,0.06-0.55,0.3-0.82,0.47C243.88,179.91,244.53,180.52,257.05,181.75z M267.38,191.11c1.72,5.6,3.31,10.8,4.94,16.11
		c4.25-0.65,7.87-1.2,11.68-1.79c-1.67-5.19-3.02-9.37-4.31-13.4C275.46,191.72,271.7,191.43,267.38,191.11z M243.03,200.13
		c-1.48-9.76-4.12-17.83-15-19.37C228.57,190.24,234.32,196.01,243.03,200.13z M326.51,192.22c-4.18,0-7.79-0.11-11.4,0.07
		c-0.93,0.05-2.08,0.8-2.62,1.58c-0.34,0.49-0.03,2.05,0.49,2.43c3.2,2.33,6.54,4.46,10.23,6.91
		C324.48,198.99,325.42,195.87,326.51,192.22z M290.48,203.21c4.19-2.8,7.83-5.23,12.63-8.43c-5.62-4.19-10.87-2.14-16.1-2.8
		C288.23,195.93,289.24,199.21,290.48,203.21z M332.22,173.73c-0.37-0.3-0.74-0.59-1.1-0.89c-4.34,3.8-8.68,7.6-14.01,12.26
		c4.9,0,8.17,0,11.64,0C329.93,181.19,331.08,177.46,332.22,173.73z M294.68,185.62c0.15-0.51,0.31-1.02,0.46-1.53
		c-4.13-3.87-7.39-8.91-13.87-10.33c1.2,3.75,1.33,8.03,3.52,9.88C287.04,185.55,291.3,185.06,294.68,185.62z"/>
	<path class="st3" d="M243.03,200.13c-8.71-4.12-14.46-9.89-15-19.37C238.91,182.3,241.55,190.37,243.03,200.13z"/>
</g>
</svg>
