<svg id="Capa_1" data-name="Capa 1" xmlns="http://www.w3.org/2000/svg" viewBox="0 0 49.49 60.12"><defs><style>.cls-1{fill:#ffcd00;}.cls-2{fill:#232020;}</style></defs><title>location</title><path class="cls-1" d="M38.3,13.38A15.6,15.6,0,0,0,10.92,23.63c0,3.5,3.14,9.44,3.17,9.5l12.45,22,.33-.57L39,33.12s3.17-6,3.17-9.49A15.5,15.5,0,0,0,38.3,13.38ZM25,33.31A11.24,11.24,0,0,1,13.86,22.13C13.86,15.2,20.32,11,25,11A11.19,11.19,0,0,1,36.22,22.13,11.35,11.35,0,0,1,25,33.31Z"/><path class="cls-2" d="M41.18,18.24A16.61,16.61,0,0,0,8.42,22.13c0,3.75,3.16,9.72,3.3,10l12.89,22.8a.48.48,0,0,0,.43.26.51.51,0,0,0,.44-.26l.46-.82,12.43-22c.13-.25,3.29-6.22,3.29-10A16.13,16.13,0,0,0,41.18,18.24ZM37.49,31.62,25.37,53.08l-.33.57-12.45-22c0-.06-3.17-6-3.17-9.5a15.62,15.62,0,0,1,31.24,0C40.66,25.63,37.52,31.57,37.49,31.62Z"/><path class="cls-2" d="M25,10a12.2,12.2,0,1,0,9.32,4.35A12.19,12.19,0,0,0,25,10Zm0,23.35A11.24,11.24,0,0,1,13.86,22.13C13.86,15.2,20.32,11,25,11A11.19,11.19,0,0,1,36.22,22.13,11.35,11.35,0,0,1,25,33.31Z"/></svg>