<svg id="icon" data-name="Layer 1" xmlns="http://www.w3.org/2000/svg" viewBox="0 0 50 50"><title>stack-of-books</title><path d="M41.455,1.972a.5.5,0,0,0-.573-.413L29.56,3.4V1.458a.5.5,0,0,0-.5-.5H20.731a.5.5,0,0,0-.5.5V3.716H13.987V.785a.5.5,0,0,0-.5-.5H1.69a.5.5,0,0,0-.5.5V49.044a.5.5,0,0,0,.5.5H29.06a.5.5,0,0,0,.5-.5V8.559l.175,1.077h0v0L35.226,43.46h0l.947,5.834a.5.5,0,0,0,.493.42.433.433,0,0,0,.08-.007l11.645-1.89a.5.5,0,0,0,.413-.573ZM30.8,9.97,41.46,8.24l5.33,32.837-10.658,1.73Zm9.748-7.345L41.3,7.253,30.641,8.984,29.89,4.356ZM2.19,6.371h10.8V43.746H2.19Zm11.8,2.518h6.244V44.342H13.987Zm7.244-1.823H28.56V43.149H21.231Zm0-5.108H28.56V6.066H21.231V1.958Zm-1,2.758V7.889H13.987V4.716ZM12.987,1.285V5.371H2.19V1.285ZM2.19,44.746h10.8v3.8H2.19Zm11.8.6h6.244v3.2H13.987Zm7.244,3.2V44.149H28.56v4.395Zm15.848.1-.787-4.849,10.658-1.73.787,4.849Z"/><path d="M7.443,12.94a.5.5,0,0,0-.5.5V36.39a.5.5,0,0,0,1,0V13.44A.5.5,0,0,0,7.443,12.94Z"/><path d="M17.108,18.52a.5.5,0,0,0-.5.5V34.287a.5.5,0,0,0,1,0V19.02A.5.5,0,0,0,17.108,18.52Z"/><path d="M24.9,15.042a.5.5,0,0,0-.5.5V34.287a.5.5,0,0,0,1,0V15.542A.5.5,0,0,0,24.9,15.042Z"/><path d="M37.852,16.59a.5.5,0,0,0-.987.16l2.863,17.632a.5.5,0,0,0,.492.42A.443.443,0,0,0,40.3,34.8a.5.5,0,0,0,.413-.573Z"/></svg>
