<svg id="uiowa-logo" xmlns="http://www.w3.org/2000/svg" viewBox="0 0 328.7 40.3" fill="#FFCD00">
  <path d="M216.9 32.1c.3-.5.7-1.1 1.2-1.8.7-1.1 1.3-1.9 1.8-2.7.6-.8 1.2-1.7 2.4-2.9h-4.5l-.5 1.1h.7c.5 0 .7.1.7.4 0 .3 0 .9-.6 1.7l-2.7 4-4-7.1h-14.2l-.3 3.3h1.3l.1-.8c0-.4.2-.6.6-.9.7-.5 2.4-.5 3.8-.5V38c0 .6 0 .9-.2 1.4-.1.2-.2.6-.5.8h4.9l.4-1.1h-.7c-.6 0-1-.1-1.3-.5-.2-.2-.2-.6-.2-1V25.8c.7 0 3.2 0 3.7.4.7.6 1.6 2 1.6 2 .3.5.7 1.1 1.1 1.7 1 1.5 1.6 2.6 2.1 3.8v4c0 .6 0 1.2-.2 1.6-.1.3-.4.6-.6.8h4.9l.4-1.1h-.7c-.6 0-1-.1-1.3-.4-.2-.2-.2-.6-.2-1 0 0-.1-3.7 0-4.2.4-.4.7-.8 1-1.3z"/>
  <path class="st0" d="M185.3 31.2l-1.6-.7c-1.6-.7-3-1.5-2.8-2.9.4-2.6 6.1-3 5.6.4h1.5l.7-3.1c-1.3-.4-2.6-.6-4.2-.6-3.3 0-6.3 1.6-6 4.3.2 1.9 1.7 2.8 3.6 3.6l1.6.7c1.8.8 3.3 1.6 3.3 3.2-.1 1.7-1.7 3-3.9 3-3 0-4-.9-4-.9l-5.8-6.3c2.2-.4 3.8-1.9 3.7-3.9-.1-2.5-2.9-3.4-5.3-3.3h-6.4l-.4 1h.6c.4 0 .7.1.9.4.4.4.4 1.4.4 2.4v9.7c0 .8-.2 1.4-.7 1.9h4.6l.4-1.1h-.7c-.9 0-1.2-.5-1.2-1.3V25.8c2.5-.4 5.1.3 5.1 2.5 0 1.7-1.8 2.9-4.6 3l7.6 8.7s4.2.3 5.4.3c3.6.1 6.6-2 6.6-5 .1-2.2-1.8-3.2-4-4.1zM49.7 22.9h-1.5l.1-.7c.1-.9 0-1.5-.6-2.1-.7-.8-3.5-.7-5.3-.7v17.4c0 .7.1 1.3.3 1.6.5.6 1.1.7 1.9.7h.7l-.4 1.1H39c.2-.3.4-.6.5-.9.3-.8.3-1.3.3-2.1V19.4c-1.9 0-4.4 0-5.4.8-.6.5-.9.8-.9 1.5l-.1.9H32l.5-4.4h18.1l-.9 4.7zM65.6 40.2h-4.4c.3-.8.4-1.1.4-1.8v-6.5c-.7.5-1.4.5-2.2.6-.7 0-1.5.1-2.3.1-1.4.1-2.1.1-3.4.1v5.2c0 .9.3 1.3 1.3 1.3h.6l-.3 1h-4.6c.4-.7.5-1.2.6-2V27.8c0-.5.1-1.4-.3-1.8-.3-.3-.6-.3-1.1-.3h-.6l.4-1.1h4.2c-.1.3-.2.4-.2.6-.1.4-.1 1.6-.1 2v3.7h8v-3.2c0-.5.1-1.4-.3-1.8-.2-.3-.6-.3-1-.3h-.7l.5-1.1h4.2c-.1.4-.2.4-.2.6-.1.5-.1 1.6-.1 2v10.5c0 .9.3 1.3 1.4 1.3h.7l-.5 1.3zM78.5 40.2h-11c.2-.3.5-.6.6-1 .2-.6.1-1.2.1-1.8v-8.9c0-.5 0-1.7-.2-2.2-.3-.4-.5-.6-1.1-.6h-.6l.4-1h11.4l-.5 3.4h-1.4c.1-.8-.1-1.3-.5-1.8-.5-.5-1.9-.6-3.3-.6-.7 0-1.2 0-1.8.2v5.2h6.2c-.4 1.1-1.2 1.3-2.3 1.4-.5 0-.9.1-1.5.1-1 .1-1.6 0-2.5 0v4.6c0 .5.2 1.2.4 1.4.3.3 1.4.4 2.5.4 1.2 0 2.2 0 2.9-.8.5-.5.7-.9.9-1.7h1.6l-.3 3.7zM109 40.2h-5v-2c-3.4 1.8-6.7 3.1-10.5 2-4.4-1.3-4.1-6.5-4.2-11.1 0-3.5.9-7.8.3-9-.3-.5-.9-.9-1.6-.9h-.6l.3-1.1h5.5c-.3.4-.3.7-.4 1.1-.3 1.5-.9 6.6-.9 10.3 0 4.1.3 7.8 3.9 8.8 3.1.9 5.7 0 8.1-1.6V21.9c0-.9 0-1.6-.7-2.1-.5-.4-1-.5-1.6-.5h-.3l.3-1.1h5.5c-.3.5-.4.8-.5 1.3-.2.9-.1 1.5-.1 2.4v14c0 1.1 0 2.1.9 2.7.5.4 1 .5 1.6.5h.4l-.4 1.1zM125.4 25.8c-.1.4-.2 1.8-.2 2.3v12h-1.9c-.1-.7-.3-.8-.6-1.3s-.6-.9-.9-1.3l-8.5-9.9v8.6c0 .9.1 2.1.3 2.3.3.4.7.5 1.1.5h.6l-.4 1.1h-4.3c.3-.3.6-.7.7-1.1.3-.9.3-1.3.3-2.2v-9c0-.5 0-1.5-.4-1.9-.2-.3-.6-.3-1-.3h-.6l.4-1h4.4c.2.8.7 1.3 1.4 2.1l7.8 9.1v-7.6c0-.9 0-1.7-.4-2.1-.2-.3-.6-.4-1-.4h-.6l.4-1h4c-.3.4-.5.9-.6 1.1zM133.9 40.2H129c.2-.3.4-.5.5-.8.2-.5.2-.9.2-1.5V27.2c0-.5 0-.9-.3-1.2s-.5-.4-.9-.4h-.5l.4-1h4.4c-.3.3-.3.5-.5.8-.2.4-.2 1.2-.2 2v10.2c0 .4.1.8.2 1 .3.3.6.4 1.2.4h.7l-.3 1.2zM148 28.6c-.6 1.2-1.1 2.5-1.8 4.1-1.2 2.6-2.4 5.7-2.5 7.6h-2c-.2-1.4-1.6-5-2.8-8-1-2.4-2.5-5.4-3-5.9-.3-.4-.7-.7-1.2-.7h-.6l.3-1h3.9l4.8 11.7 3.6-8.5c.3-.7.4-1.3.3-1.6-.2-.4-.5-.6-1-.6h-.6l.3-1h4.8c-1.3 1.6-1.9 2.7-2.5 3.9zM163.5 40.2h-11c.2-.3.5-.6.6-1 .2-.6.1-1.2.1-1.8v-8.9c0-.5 0-1.7-.2-2.2-.3-.4-.5-.6-1.1-.6h-.6l.4-1h11.4l-.5 3.4h-1.4c.1-.8-.1-1.3-.5-1.8-.5-.5-1.9-.6-3.3-.6-.7 0-1.2 0-1.8.2v5.2h6.2c-.4 1.1-1.2 1.3-2.3 1.4-.5 0-.9.1-1.5.1-1 .1-1.6 0-2.5 0v4.6c0 .5.2 1.2.4 1.4.3.3 1.4.4 2.5.4 1.2 0 2.2 0 2.9-.8.5-.5.7-.9.9-1.7h1.6l-.3 3.7zM196.5 40.2h-4.9c.2-.3.4-.5.5-.8.2-.5.2-.9.2-1.5V27.2c0-.5 0-.9-.3-1.2s-.5-.4-.9-.4h-.5l.4-1h4.4c-.3.3-.3.5-.5.8-.2.4-.2 1.2-.2 2v10.2c0 .4.1.8.2 1 .3.3.6.4 1.2.4h.7l-.3 1.2zM243.9 31.4c.7 3.5-1.1 7-4.8 7.7-3.8.7-6.8-2.1-7.5-5.7-.7-3.5.8-7.1 4.6-7.8 3.9-.6 7 2.3 7.7 5.8zm2.8 0c-.6-4.5-4.5-7.7-10-6.9-5.3.7-8.3 4.4-7.7 9.1.6 4.5 4.3 7.5 9.7 6.8 5.3-.6 8.5-4.5 8-9zM258.2 28.1h-1.4c0-.7-.1-1.3-.6-1.8-.4-.5-1.6-.6-2.9-.6-.7 0-1.2 0-1.8.2v5.2h6.2c-.1.4-.4 1-.8 1.2-.6.3-1.7.3-2.8.4-1 0-1.7.1-2.6 0v4.9c0 .5.2 1.1.4 1.3.2.2.6.4 1.1.4h.8c-.2.6-.3 1.1-.3 1.1h-5c.2-.3.5-.6.6-1 .2-.6.1-1.1.1-1.8v-8.9c0-.5 0-1.8-.2-2.3-.3-.4-.6-.5-1.2-.5h-.6l.4-1h11.1l-.5 3.2zM274.2 40.2h-5.9c.2-.3.4-.6.5-.9.3-.8.3-1.3.3-2.1V21.7c0-.7 0-1.3-.4-1.7s-.8-.6-1.4-.6h-.4l.3-1.1h5.3c-.2.3-.3.4-.5.8-.3.7-.4 1.9-.4 3.1V37c0 .6.1 1.3.3 1.6.5.6 1.1.7 1.9.7h.7l-.3.9zM289.7 31.4c.7 3.5-1.1 7-4.8 7.7-3.8.7-6.8-2.1-7.5-5.7-.7-3.5.8-7.1 4.6-7.8 3.8-.6 7 2.3 7.7 5.8zm2.7 0c-.6-4.5-4.5-7.7-10-6.9-5.3.7-8.3 4.4-7.7 9.1.6 4.5 4.3 7.5 9.7 6.8 5.4-.6 8.6-4.5 8-9zM313.8 28.6c-.6 1.2-1.1 2.5-1.8 4.1-1.2 2.7-2.1 5.8-2.1 7.6h-2c-.2-1.4-1.4-4.5-2.5-7.6-.2-.5-.4-1.2-.7-1.7-.3.6-.6 1.1-1.2 2.4-1.2 2.7-2 5.2-2.1 7h-2.1c-.2-1.4-1.6-5-2.8-8-1-2.4-2.5-5.4-3-5.9-.3-.4-.7-.7-1.2-.7h-.5l.3-1h4l4.5 11.8c.7-1.5 3.1-7.1 3.1-7.2-.6-1.5-1.2-2.7-1.5-3-.4-.4-.7-.7-1.2-.7h-.6l.4-1h4c1.3 3.3 3.2 8.6 4.2 11.6l3.3-8.2c.3-.7.6-1.6.4-1.8-.2-.4-.5-.6-1-.6h-.6l.3-1h4.8c-1.2 1.6-1.8 2.7-2.4 3.9zM322.2 33.1c-1.6.1-3 .1-4.5-.1l2.3-5.7 2.2 5.8zm6.9 6h-.6c-.5 0-.9-.3-1.2-.7-.5-.5-1.8-3.6-2.8-6-1.2-3-2.4-6.4-2.7-7.9h-3.5c.8 1.6-.6 4.8-1.8 7.5-1.4 3.2-2.2 5.1-4.5 8.2h5l.3-1.1h-.6c-.5 0-.9-.2-1-.6-.1-.3.1-1 .3-1.6l1-2.3h3.6c.8 0 1.5-.2 1.9-.7l2.3 6.4h3.9l.4-1.2zM12.2 5c0 .6 0 1.5.2 1.6.8.5 2.1.9 2.5 1.4.1.1 0 1-.3.9-2.1-.5-2.2-.4-3.7-.4-.1 0-.4-.6-.5-1.1 0-.3.4-.5.5-1 .2-.7.1-4.1.1-6.3 0-.5.1-.7.6-.7s.5.3.5.7c0 1.7.1 3.4.1 4.9zM11 0c0-.5.6-.8.9-.5"/>
  <path class="st0" d="M14.7 8c.3.3 0 1.1-.6.9-1.1-.4-2.1-.2-3.2-.4-.3-.1-.4-.6-.4-.9M12.1 1.8c0 1.5-.1 2.9.1 4.4 0 .2.2.4.2.5M20.5 22.3c.2 0 1.2-.1 1.7 0 .1 0 .2.1.3.2.2.2.1 1 .1 1.2 0 .5-.3.8-.3 1.3 0 3.6.1 7.9-.1 8.6-.3 1.3-.3 1.5-.8 1.5-.1 0-.3 0-.4-.5-.1-.3-.1-.8-.1-1.5 0-1.5 0-5.3-.1-6.8-.1-1.4-.4-1.4-.5-1.5s-.3-.1-.3-.4c-.1-.5.1-1.5.2-1.9.2-.1.2-.2.3-.2z"/>
  <path class="st0" d="M23.3 38.3c-1.2 0-3.1.1-3.5-.2-.2-.1-.2-.4-.2-1.1-.1-4.6 0-9.1 0-13.7 0-.4-.1-1-.7-1-.7 0-2.1-.1-2.2 0-.1.1-.2.1-.2.2-.2.4-.3 1.5-.3 1.9 0 .2.1.3.4.4.7.1 1 .5 1 1.5.1 3.4.1 10.2-.3 11.3-.2.6-1.3.9-1.5.3-.2-.4-.2-10.6-.2-14.8 0-.7-.2-1-1-1h-3c-.1 0-.3.1-.3.3-.2.6-.4 1.9-.2 2.1 0 .1.1.2.3.2 1.4.1 2 .8 2 2.2.1 2.1.4 10.2-.6 11.1-.4.3-1.8.3-2.1.2-.2-.1-.4-.3-.4-.5-.3-2.5.1-14.5-.1-15.1-.1-.2-.2-.3-.4-.3-.4-.1-2.2 0-2.5-.1-.1 0-.2-.1-.2-.2 0-.4 0-.9.2-1.3.1-.2.3-.2.4-.2h15.7c.2 0 .5 0 .6-.3s.2-1.2.2-1.4c0-.1-.1-.2-.3-.2-.3 0-11.9 0-17.8-.1-.3 0-.9 0-.9-.2-.1-.3-.1-.9.1-1.2.6-1.2 1.1-.9 1.5-2.6.2-1-.1-1.8.4-2.7.7-1.1 1.2-1.4 1.6-2.2.3-.5-.3-1.2-.9-1.1-.4.2-2.8 1.8-4.1 3.9-1 1.7-1.4 3.6-2.1 5.4-.2.5-.4.6-1.2.7-.5 0-.6 1.7-.3 1.9.1 0 .2.1.2.1.7.1.9 1 .9 1.8 0 0 .2 13.7-.2 15.1-.3 1-.5.9-.8 1 0 0-.1 0-.2.2-.1.3-.2 1-.1 1.3 0 .1.1.2.3.2h23.5c.2 0 .3 0 .4-.3.1-.4.2-.9.1-1.1-.6-.4-.8-.4-1-.4zm-20.1-.4c-.4.5-.8.6-.8.1-.1-3.8 0-11.7 0-11.9.1-.4.7-.6 1 0 .4.8.5 11-.2 11.8zm4.2 0c-.4.5-1.4.7-1.6.1-.3-.9-.2-12.6-.1-12.8.1-.5.9-.4 1.2-.2.7.5.8.9.9 2 .2 3.1.2 10.1-.4 10.9z"/>
</svg>
