<svg id="close" data-name="Layer 1" xmlns="http://www.w3.org/2000/svg" viewBox="0 0 24 23"><title>close</title><path d="M18.91,7A8,8,0,0,0,16,4.09,7.88,7.88,0,0,0,11.9,3a8.08,8.08,0,0,0-7,4A7.91,7.91,0,0,0,3.8,11.1a8.08,8.08,0,0,0,4,7A7.91,7.91,0,0,0,11.9,19.2,7.88,7.88,0,0,0,16,18.11a8.08,8.08,0,0,0,4-7A7.88,7.88,0,0,0,18.91,7Zm-3.19,6a.65.65,0,0,1,.2.47.7.7,0,0,1-.2.49l-1,.95a.68.68,0,0,1-.49.2.65.65,0,0,1-.47-.2L11.9,13,10,14.92a.65.65,0,0,1-.47.2.7.7,0,0,1-.49-.2L8.08,14a.7.7,0,0,1-.2-.49.65.65,0,0,1,.2-.47L10,11.1,8.08,9.19a.65.65,0,0,1-.2-.47.68.68,0,0,1,.2-.49l.95-1a.7.7,0,0,1,.49-.2.65.65,0,0,1,.47.2L11.9,9.19l1.91-1.91a.65.65,0,0,1,.47-.2.68.68,0,0,1,.49.2l1,1a.68.68,0,0,1,.2.49.65.65,0,0,1-.2.47L13.81,11.1Z"/></svg>
