<svg id="icon" data-name="Layer 1" xmlns="http://www.w3.org/2000/svg" viewBox="0 0 50 50"><title>paper</title><path d="M43.382,14.7a.35.35,0,0,0-.012-.063.5.5,0,0,0-.121-.226L29.685.844a.5.5,0,0,0-.227-.121A.438.438,0,0,0,29.4.711.481.481,0,0,0,29.331.7H7.105a.5.5,0,0,0-.5.5V48.8a.5.5,0,0,0,.5.5H42.9a.5.5,0,0,0,.5-.5V14.761A.484.484,0,0,0,43.382,14.7ZM7.605,48.3V1.7H28.831V14.761a.5.5,0,0,0,.5.5H42.4V48.3ZM29.831,14.261V2.4L41.688,14.261Z"/><path d="M12.532,10.228H25a.5.5,0,0,0,0-1H12.532a.5.5,0,0,0,0,1Z"/><path d="M36.948,20.251H12.532a.5.5,0,0,0,0,1H36.948a.5.5,0,0,0,0-1Z"/><path d="M36.948,25.724H12.532a.5.5,0,0,0,0,1H36.948a.5.5,0,0,0,0-1Z"/><path d="M27.879,41.614H12.532a.5.5,0,0,0,0,1H27.879a.5.5,0,0,0,0-1Z"/><path d="M34.9,31.2H12.532a.5.5,0,0,0,0,1H34.9a.5.5,0,0,0,0-1Z"/></svg>
