<?xml version="1.0" encoding="utf-8"?>
<!-- Generator: Adobe Illustrator 24.3.0, SVG Export Plug-In . SVG Version: 6.00 Build 0)  -->
<svg version="1.1" id="Layer_1" xmlns:v="https://vecta.io/nano"
	 xmlns="http://www.w3.org/2000/svg" xmlns:xlink="http://www.w3.org/1999/xlink" x="0px" y="0px" width="599.8px"
	 height="1201.2px" viewBox="0 0 599.8 1201.2" style="enable-background:new 0 0 599.8 1201.2;" xml:space="preserve">
<style type="text/css">
	.st0{opacity:0.15;}
	.st1{fill:#FFCE06;}
</style>
<g class="st0">
	<g>
		<path id="B" class="st1" d="M50.4,1185.7L50.4,1185.7L0,1163.4l-51,22.5v37.9h2v-36.6l49-21.6l49,21.6v36.6h2v-37.9L50.4,1185.7z"
			/>
	</g>
	<g>
		<path id="C" class="st1" d="M467.6,1173.8l-67.6-29.9l-67.6,29.9v50h2v-48.7l65.6-29l65.6,29v48.7h2V1173.8z"/>
	</g>
	<path class="st1" d="M640.2,1123.2l-22.4-9.8v-1l-0.1-102.1l-17.7-7.8l-17.7,7.8v103l-22.6,9.9h0.1l-59.8,26.4l-59.8-26.4
		l-22.4-9.8v-1l-0.1-102.1l-17.7-7.8l-17.7,7.8v103l-22.6,9.9h0.1l-59.8,26.4l-59.8-26.4l-22.4-9.8v-1l-0.1-102.1l-17.7-7.8
		l-17.7,7.8v103l-22.6,9.9h0.1l-59.8,26.4l-59.8-26.4l-22.4-9.8v-1l-0.1-102.1L0,1002.5l-17.7,7.8v103l-22.6,9.9h0.1l-56.7,25.1v2.2
		l61.6-27.3h-0.1l19.1-8.4l0.6-0.3v-102.9l15.7-6.9l15.7,6.9v19.9l0.1,83.2l19.5,8.5l63.7,28.2v72.4h2v-72.4l83.3-36.9v-102.9
		l15.7-6.9l15.7,6.9v19.9l0.1,83.2l19.5,8.5l63.7,28.2v72.4h2v-72.4l83.3-36.9v-102.9l15.7-6.9l15.7,6.9v19.9l0.1,83.2l19.5,8.5
		l63.7,28.2v72.4h2v-72.4l83.3-36.9v-102.9l15.7-6.9l15.7,6.9v19.9l0.1,83.2l19.5,8.5l59.8,26.5v-2.2L640.2,1123.2z M651.1,1089
		L651,985.9l-0.6-0.2L600,963.4l-51,22.5V1089l-49,21.6l-48.9-21.6L451,985.9l-0.6-0.2L400,963.4l-51,22.5V1089l-49,21.6l-48.9-21.6
		L251,985.9l-0.6-0.2L200,963.4l-51,22.5V1089l-49,21.6L51.1,1089L51,985.9l-0.6-0.2L0,963.4l-51,22.5V1089l-45.9,20.3v2.2
		l47.9-21.2V987.2l49-21.6l49,21.6v61.1l0.1,42l50.9,22.5h0.1l50.9-22.5V987.2l49-21.6l49,21.6v61.1l0.1,42l50.9,22.5l51-22.5V987.2
		l49-21.6l49,21.6v61.1l0.1,42l50.9,22.5h0.1l50.9-22.5V987.2l49-21.6l49,21.6v61.1l0.1,42l46,20.3v-2.1L651.1,1089z M200,1182.9
		l-34.3,15.2v25.7h2v-24.4l32.3-14.3l32.4,14.3v24.4h2l-0.1-25.7L200,1182.9z"/>
	<g>
		<path id="C_1_" class="st1" d="M267.6,1173.8l-67.6-29.9l-67.6,29.9v50h2v-48.7l65.6-29l65.6,29v48.7h2V1173.8z"/>
	</g>
	<path class="st1" d="M0,1182.9l-34.3,15.2v25.7h2v-24.4L0,1185.1l32.4,14.3v24.4h2v-25.7L0,1182.9z"/>
	<g>
		<path id="C_2_" class="st1" d="M67.6,1173.8L0,1143.9l-67.6,29.9v50h2v-48.7l65.6-29l65.6,29v48.7h2V1173.8z"/>
	</g>
	<g>
		<path id="D" class="st1" d="M684.4,1123.2l-1.5-0.6l-48.5-21.4v-61.9h-1h1v-41.2L600,982.9l-34.3,15.2v103l-50.3,22.1h0.1
			l-15.5,6.9l-15.5-6.9h-0.1l-1.5-0.6l-48.5-21.4v-61.9h-1h1l-0.1-41.2L400,982.9l-34.3,15.2v103l-50.3,22.1h0.1l-15.5,6.9
			l-15.5-6.9h-0.1l-1.5-0.6l-48.5-21.4v-61.9h-1h1l-0.1-41.2L200,982.9l-34.3,15.2v103l-50.3,22.1h0.1l-15.5,6.9l-15.5-6.9h-0.1
			l-1.5-0.6l-48.5-21.4v-61.9h-1h1v-41.2L0,982.9l-34.3,15.2v103l-50.3,22.1h0.1l-12.4,5.5v2.2l17.4-7.7h-0.1l46.7-20.6l0.6-0.2
			v-103L0,985.1l32.4,14.3v103.1l47.1,20.7l20.1,8.9l0.4,0.2l20.5-9.1h-0.1l46.7-20.6l0.6-0.2v-103l32.3-14.3l32.4,14.3v103.1
			l47.1,20.7l20.1,8.9l0.4,0.2l20.5-9.1h-0.1l46.7-20.6l0.6-0.2v-103l32.3-14.3l32.4,14.3v103.1l47.1,20.7l20.1,8.9l0.4,0.2
			l20.5-9.1h-0.1l46.7-20.6l0.6-0.2v-103l32.3-14.3l32.4,14.3v103.1l47.1,20.7l15.6,6.9v-2.2l-10.6-4.7H684.4z"/>
	</g>
	<path class="st1" d="M651.1,689L651,585.9l-0.6-0.2L600,563.4l-51,22.5V689l-49,21.6L451.1,689L451,585.9l-0.6-0.2L400,563.4
		l-51,22.5V689l-49,21.6L251.1,689L251,585.9l-0.6-0.2L200,563.4l-51,22.5V689l-49,21.6L51.1,689L51,585.9l-0.6-0.2L0,563.4
		l-51,22.5V689l-45.9,20.3v2.2l47.9-21.2V587.2l49-21.6l49,21.6v61.1l0.1,42l50.9,22.5h0.1l50.9-22.5V587.2l49-21.6l49,21.6v61.1
		l0.1,42l50.9,22.5l51-22.5V587.2l49-21.6l49,21.6v61.1l0.1,42l50.9,22.5h0.1l50.9-22.5V587.2l49-21.6l49,21.6v61.1l0.1,42l46,20.3
		v-2.1L651.1,689z M640.2,723.2l-22.4-9.8v-1l-0.1-102.1l-17.7-7.8l-17.7,7.8v103l-22.6,9.9h0.1L500,749.6l-59.8-26.4l-22.4-9.8v-1
		l-0.1-102.1l-17.7-7.8l-17.7,7.8v103l-22.6,9.9h0.1L300,749.6l-59.8-26.4l-22.4-9.8v-1l-0.1-102.1l-17.7-7.8l-17.7,7.8v103
		l-22.6,9.9h0.1L100,749.6l-59.8-26.4l-22.4-9.8v-1l-0.1-102.1L0,602.5l-17.7,7.8v103l-22.6,9.9h0.1l-56.7,25.1v2.2l61.6-27.3h-0.1
		l19.1-8.4l0.6-0.3V611.6L0,604.7l15.7,6.9v19.9l0.1,83.2l19.5,8.5L99,751.4v102.1h2V751.4l83.3-36.9V611.6l15.7-6.9l15.7,6.9v19.9
		l0.1,83.2l19.5,8.5l63.7,28.2v102.1h2V751.4l83.3-36.9V611.6l15.7-6.9l15.7,6.9v19.9l0.1,83.2l19.5,8.5l63.7,28.2v102.1h2V751.4
		l83.3-36.9V611.6l15.7-6.9l15.7,6.9v19.9l0.1,83.2l19.5,8.5l59.8,26.5v-2.2L640.2,723.2z M667.7,876.8l-0.1-40.2v-62.8L600,743.9
		l-67.6,29.9v103l-32.3,14.3H500l-32.3-14.3l-0.1-40.2v-62.8L400,743.9l-67.6,29.9v103L300,891.1l-32.3-14.3l-0.1-40.2v-62.8
		L200,743.9l-67.6,29.9v103l-32.3,14.3H100l-32.3-14.3l-0.1-40.2v-62.8L0,743.9l-67.6,29.9v103l-29.3,12.9v2.2l31.3-13.8v-103
		l65.6-29l65.6,29v61.1l0.1,41.9l34.3,15.1l0.1,0.1l34.3-15.2v-103l65.6-29l65.6,29v61.1l0.1,41.9l34.3,15.1v0.1l34.4-15.2v-103
		l65.6-29l65.6,29v61.1l0.1,41.9l34.3,15.1l0.1,0.1l34.3-15.2v-103l65.6-29l65.6,29v61.1l0.1,41.9l29.4,13v-2.2L667.7,876.8z
		 M667.7,1076.8l-0.1-40.2v-62.8L600,943.9l-67.6,29.9v103l-32.3,14.3H500l-32.3-14.3l-0.1-40.2v-62.8L400,943.9l-67.6,29.9v103
		l-32.4,14.3l-32.3-14.3l-0.1-40.2v-62.8L200,943.9l-67.6,29.9v103l-32.3,14.3H100l-32.3-14.3l-0.1-40.2v-62.8L0,943.9l-67.6,29.9
		v103l-29.3,12.9v2.2l31.3-13.8v-103l65.6-29l65.6,29v61.1l0.1,41.9l34.3,15.1l0.1,0.1l34.3-15.2v-103l65.6-29l65.6,29v61.1
		l0.1,41.9l34.3,15.1v0.1l34.4-15.2v-103l65.6-29l65.6,29v61.1l0.1,41.9l34.3,15.1l0.1,0.1l34.3-15.2v-103l65.6-29l65.6,29v61.1
		l0.1,41.9l29.4,13v-2.2L667.7,1076.8z"/>
	<g>
		<path id="D_1_" class="st1" d="M684.4,723.2l-1.5-0.6l-48.5-21.4v-61.9h-1h1v-41.2L600,582.9l-34.3,15.2v103l-50.3,22.1h0.1
			l-15.5,6.9l-15.5-6.9h-0.1l-1.5-0.6l-48.5-21.4v-61.9h-1h1l-0.1-41.2L400,582.9l-34.3,15.2v103l-50.3,22.1h0.1l-15.5,6.9
			l-15.5-6.9h-0.1l-1.5-0.6l-48.5-21.4v-61.9h-1h1l-0.1-41.2L200,582.9l-34.3,15.2v103l-50.3,22.1h0.1l-15.5,6.9l-15.5-6.9h-0.1
			l-1.5-0.6l-48.5-21.4v-61.9h-1h1v-41.2L0,582.9l-34.3,15.2v103l-50.3,22.1h0.1l-12.4,5.5v2.2l17.4-7.7h-0.1l46.7-20.6l0.6-0.2
			v-103L0,585.1l32.4,14.3v103.1l47.1,20.7l20.1,8.9l0.4,0.2l20.5-9.1h-0.1l46.7-20.6l0.6-0.2v-103l32.3-14.3l32.4,14.3v103.1
			l47.1,20.7l20.1,8.9l0.4,0.2l20.5-9.1h-0.1l46.7-20.6l0.6-0.2v-103l32.3-14.3l32.4,14.3v103.1l47.1,20.7l20.1,8.9l0.4,0.2
			l20.5-9.1h-0.1l46.7-20.6l0.6-0.2v-103l32.3-14.3l32.4,14.3v103.1l47.1,20.7l15.6,6.9v-2.2l-10.6-4.7H684.4z"/>
	</g>
	<path class="st1" d="M651.1,889L651,785.9l-0.6-0.2L600,763.4l-51,22.5V889l-49,21.6L451.1,889L451,785.9l-0.6-0.2L400,763.4
		l-51,22.5V889l-49,21.6L251.1,889L251,785.9l-0.6-0.2L200,763.4l-51,22.5V889l-49,21.6L51.1,889L51,785.9l-0.6-0.2L0,763.4
		l-51,22.5V889l-45.9,20.3v2.2l47.9-21.2V787.2l49-21.6l49,21.6v61.1l0.1,42l50.9,22.5h0.1l50.9-22.5V787.2l49-21.6l49,21.6v61.1
		l0.1,42l50.9,22.5l51-22.5V787.2l49-21.6l49,21.6v61.1l0.1,42l50.9,22.5h0.1l50.9-22.5V787.2l49-21.6l49,21.6v61.1l0.1,42l46,20.3
		v-2.1L651.1,889z M684.4,1064.7l-0.1-20v-83.2l-83.5-36.9V821.4h-2v103.2l-83.5,36.9l0.4,103.2l-15.7,6.9v-0.1l-15.6-6.8l-0.1-20
		l-0.1-83.2l-83.4-36.9V821.4h-2v103.2l-83.5,36.9l0.4,103.2l-15.7,6.9v-0.1l-15.6-6.8l-0.1-20l-0.1-83.2l-83.4-36.9V821.4h-2v103.2
		l-83.5,36.9l0.4,103.2l-15.7,6.9v-0.1l-15.6-6.8v-20l-0.2-83.2L0.8,924.6V821.4h-2v103.2l-83.5,36.9l0.4,103.2l-12.6,5.5v2.2
		l14.6-6.5v-1l-0.1-19.9l-0.3-82.2l82.5-36.4l82.4,36.4l0.2,83v20.2l17.6,7.7v0.1l17.7-7.9v-1l-0.1-19.9l-0.3-82.2l82.5-36.4
		l82.5,36.4V1066l17.7,7.7v0.1l17.7-7.9v-1l-0.1-19.9l-0.3-82.2l82.5-36.4l82.4,36.4l0.1,103.2l17.7,7.7v0.1l17.7-7.9v-1l-0.1-19.9
		l-0.3-82.2l82.5-36.4l82.5,36.4V1066l12.8,5.6v-2.2L684.4,1064.7z M640.2,923.2l-22.4-9.8v-1l-0.1-102.1l-17.7-7.8l-17.7,7.8v103
		l-22.6,9.9h0.1L500,949.6l-59.8-26.4l-22.4-9.8v-1l-0.1-102.1l-17.7-7.8l-17.7,7.8v103l-22.6,9.9h0.1L300,949.6l-59.8-26.4
		l-22.4-9.8v-1l-0.1-102.1l-17.7-7.8l-17.7,7.8v103l-22.6,9.9h0.1L100,949.6l-59.8-26.4l-22.4-9.8v-1l-0.1-102.1L0,802.5l-17.7,7.8
		v103l-22.6,9.9h0.1l-56.7,25.1v2.2l61.6-27.3h-0.1l19.1-8.4l0.6-0.3V811.6L0,804.7l15.7,6.9v19.9l0.1,83.2l19.5,8.5L99,951.4v102.1
		h2V951.4l83.3-36.9V811.6l15.7-6.9l15.7,6.9v19.9l0.1,83.2l19.5,8.5l63.7,28.2v102.1h2V951.4l83.3-36.9V811.6l15.7-6.9l15.7,6.9
		v19.9l0.1,83.2l19.5,8.5l63.7,28.2v102.1h2V951.4l83.3-36.9V811.6l15.7-6.9l15.7,6.9v19.9l0.1,83.2l19.5,8.5l59.8,26.5v-2.2
		L640.2,923.2z"/>
	<g>
		<path id="D_2_" class="st1" d="M684.4,923.2l-1.5-0.6l-48.5-21.4v-61.9h-1h1v-41.2L600,782.9l-34.3,15.2v103l-50.3,22.1h0.1
			l-15.5,6.9l-15.5-6.9h-0.1l-1.5-0.6l-48.5-21.4v-61.9h-1h1l-0.1-41.2L400,782.9l-34.3,15.2v103l-50.3,22.1h0.1l-15.5,6.9
			l-15.5-6.9h-0.1l-1.5-0.6l-48.5-21.4v-61.9h-1h1l-0.1-41.2L200,782.9l-34.3,15.2v103l-50.3,22.1h0.1l-15.5,6.9l-15.5-6.9h-0.1
			l-1.5-0.6l-48.5-21.4v-61.9h-1h1v-41.2L0,782.9l-34.3,15.2v103l-50.3,22.1h0.1l-12.4,5.5v2.2l17.4-7.7h-0.1l46.7-20.6l0.6-0.2
			v-103L0,785.1l32.4,14.3v103.1l47.1,20.7l20.1,8.9l0.4,0.2l20.5-9.1h-0.1l46.7-20.6l0.6-0.2v-103l32.3-14.3l32.4,14.3v103.1
			l47.1,20.7l20.1,8.9l0.4,0.2l20.5-9.1h-0.1l46.7-20.6l0.6-0.2v-103l32.3-14.3l32.4,14.3v103.1l47.1,20.7l20.1,8.9l0.4,0.2
			l20.5-9.1h-0.1l46.7-20.6l0.6-0.2v-103l32.3-14.3l32.4,14.3v103.1l47.1,20.7l15.6,6.9v-2.2l-10.6-4.7H684.4z"/>
	</g>
	<path class="st1" d="M684.4,864.7l-0.1-20v-83.2l-83.5-36.9V621.4h-2v103.2l-83.5,36.9l0.4,103.2l-15.7,6.9v-0.1l-15.6-6.8l-0.1-20
		l-0.1-83.2l-83.4-36.9V621.4h-2v103.2l-83.5,36.9l0.4,103.2l-15.7,6.9v-0.1l-15.6-6.8l-0.1-20l-0.1-83.2l-83.4-36.9V621.4h-2v103.2
		l-83.5,36.9l0.4,103.2l-15.7,6.9v-0.1l-15.6-6.8v-20l-0.2-83.2L0.8,724.6V621.4h-2v103.2l-83.5,36.9l0.4,103.2l-12.6,5.5v2.2
		l14.6-6.5v-1l-0.1-19.9l-0.3-82.2l82.5-36.4l82.4,36.4l0.2,83V866l17.6,7.7v0.1l17.7-7.9v-1l-0.1-19.9l-0.3-82.2l82.5-36.4
		l82.5,36.4V866l17.7,7.7v0.1l17.7-7.9v-1l-0.1-19.9l-0.3-82.2l82.5-36.4l82.4,36.4l0.1,103.2l17.7,7.7v0.1l17.7-7.9v-1l-0.1-19.9
		l-0.3-82.2l82.5-36.4l82.5,36.4V866l12.8,5.6v-2.2L684.4,864.7z M198.8,1221.4h2v2.4h-2V1221.4z"/>
	<g>
		<path id="E" class="st1" d="M417.7,1210.9v-0.6l-17.7-7.8l-17.7,7.8v13.5h2v-12.2l15.7-6.9l15.7,6.9v12.2h2V1210.9z"/>
	</g>
	<g>
		<path id="E_1_" class="st1" d="M217.7,1210.9v-0.6l-17.7-7.8l-17.7,7.8v13.5h2v-12.2l15.7-6.9l15.7,6.9v12.2h2V1210.9z"/>
	</g>
	<path class="st1" d="M-1.2,1221.4h2v2.4h-2V1221.4z"/>
	<g>
		<path id="E_2_" class="st1" d="M17.7,1210.9v-0.6L0,1202.5l-17.7,7.8v13.5h2v-12.2l15.7-6.9l15.7,6.9v12.2h2V1210.9z"/>
	</g>
	<path class="st1" d="M398.8,1221.4h2v2.4h-2V1221.4z M598.8,1221.4h2v2.4h-2V1221.4z"/>
	<g>
		<path id="E_3_" class="st1" d="M617.7,1210.9v-0.6l-17.7-7.8l-17.7,7.8v13.5h2v-12.2l15.7-6.9l15.7,6.9v12.2h2V1210.9z"/>
	</g>
	<g>
		<path id="B_1_" class="st1" d="M250.4,1185.7L250.4,1185.7l-50.4-22.3l-51,22.5v37.9h2v-36.6l49-21.6l49,21.6v36.6h2v-37.9
			L250.4,1185.7z"/>
	</g>
	<path class="st1" d="M600,1182.9l-34.3,15.2v25.7h2v-24.4l32.3-14.3l32.4,14.3v24.4h2v-25.7L600,1182.9z"/>
	<g>
		<path id="B_2_" class="st1" d="M450.4,1185.7L450.4,1185.7l-50.4-22.3l-51,22.5v37.9h2v-36.6l49-21.6l49,21.6v36.6h2v-37.9
			L450.4,1185.7z"/>
	</g>
	<path class="st1" d="M400,1182.9l-34.3,15.2v25.7h2v-24.4l32.3-14.3l32.4,14.3v24.4h2l-0.1-25.7L400,1182.9z"/>
	<g>
		<path id="B_3_" class="st1" d="M650.4,1185.7L650.4,1185.7l-50.4-22.3l-51,22.5v37.9h2v-36.6l49-21.6l49,21.6v36.6h2v-37.9
			L650.4,1185.7z"/>
	</g>
	<path class="st1" d="M117.3,1162.8l82.5-36.5l82.5,36.5v61h2l-0.1-62.3l-83.4-36.9v-103.2h-2v103.2l-83.5,36.9l0.2,62.3h2
		L117.3,1162.8z M-82.7,1162.8l82.5-36.5l82.4,36.5l0.1,61h2l-0.1-62.3l-83.4-36.9v-103.2h-2v103.2l-83.5,36.9l0.2,62.3h2
		L-82.7,1162.8z M600.4,1144.1l-0.4-0.2l-67.6,29.9v50h2v-48.7l65.6-29l65.6,29v48.7h2v-50L600.4,1144.1z M517.3,1162.8l82.5-36.5
		l82.5,36.5v61h2v-62.3l-83.5-36.9v-103.2h-2v103.2l-83.5,36.9l0.2,62.3h2L517.3,1162.8z M317.3,1162.8l82.5-36.5l82.4,36.5l0.1,61
		h2l-0.1-62.3l-83.4-36.9v-103.2h-2v103.2l-83.5,36.9l0.2,62.3h2L317.3,1162.8z"/>
	<g>
		<path id="F" class="st1" d="M165.7-0.2v101.3l-50.3,22.2h0.1l-15.5,6.8l-15.5-6.8h-0.1l-1.5-0.7l-48.5-21.4V39.3h-1h1V-0.2h-2
			v102.7l47.1,20.8l20.1,8.8l0.4,0.2l20.5-9h-0.1l46.7-20.7l0.6-0.2V-0.2H165.7z"/>
	</g>
	<path class="st1" d="M249-0.2v48.5l0.1,42l50.9,22.5l51-22.5V-0.2h-2V89l-49,21.6L251.1,89L251-0.2L249-0.2z"/>
	<g>
		<path id="G" class="st1" d="M532.4,76.8l-32.3,14.3H500l-32.3-14.3l-0.1-40.2V-0.2h-2v36.4l0.1,41.9L500,93.3v-0.1l0.1,0.1
			l34.3-15.2V-0.2h-2v56.9V76.8z"/>
	</g>
	<path class="st1" d="M449-0.2v48.5l0.1,42l50.9,22.5h0.1L551,90.3V-0.2h-2V89l-49,21.6L451.1,89L451-0.2L449-0.2z M49-0.2v48.5
		l0.1,42l50.9,22.5h0.1L151,90.3V-0.2h-2V89l-49,21.6L51.1,89L51-0.2L49-0.2z M500,53.5h1V-0.2h-2v53.7H500z"/>
	<g>
		<path id="H" class="st1" d="M482.3,45.8V66l17.7,7.7v0.1l17.7-7.9v-1L517.6,45l-0.2-45.2h-2l0.2,46.8l0.1,18.1L500,71.6v-0.1
			l-15.6-6.8l-0.1-20V-0.2h-2L482.3,45.8z"/>
	</g>
	<g>
		<path id="F_1_" class="st1" d="M365.7-0.2v101.3l-50.3,22.2h0.1l-15.5,6.8l-15.5-6.8h-0.1l-1.5-0.7l-48.5-21.4V39.3h-1h1V-0.2h-2
			v102.7l47.1,20.8l20.1,8.8l0.4,0.2l20.5-9h-0.1l46.7-20.7l0.6-0.2V-0.2H365.7z"/>
	</g>
	<g>
		<path id="F_2_" class="st1" d="M565.7-0.2v101.3l-50.3,22.2h0.1l-15.5,6.8l-15.5-6.8h-0.1l-1.5-0.7l-48.5-21.4V39.3h-1h1V-0.2h-2
			v102.7l47.1,20.8l20.1,8.8l0.4,0.2l20.5-9h-0.1l46.7-20.7l0.6-0.2V-0.2H565.7z"/>
	</g>
	<g>
		<path id="G_1_" class="st1" d="M132.4,76.8l-32.3,14.3H100L67.7,76.8l-0.1-40.2V-0.2h-2v36.4l0.1,41.9L100,93.3v-0.1l0.1,0.1
			l34.3-15.2V-0.2h-2v56.9V76.8z"/>
	</g>
	<path class="st1" d="M651.1,89L651-0.2h-2v48.5l0.1,42l46,20.3v-2.1L651.1,89z M684.4,123.3l-1.5-0.7l-48.5-21.4V39.3h-1h1V-0.2h-2
		v102.7l47.1,20.8l15.6,6.8v-2.2L684.4,123.3L684.4,123.3z M667.7,76.8l-0.1-40.2V-0.2h-2v36.4l0.1,41.9l29.4,13v-2.2L667.7,76.8z
		 M667.7,676.8l-0.1-40.2v-62.8L600,543.9l-67.6,29.9v103l-32.3,14.3H500l-32.3-14.3l-0.1-40.2v-62.8L400,543.9l-67.6,29.9v103
		L300,691.1l-32.3-14.3l-0.1-40.2v-62.8L200,543.9l-67.6,29.9v103l-32.3,14.3H100l-32.3-14.3l-0.1-40.2v-62.8L0,543.9l-67.6,29.9
		v103l-29.3,12.9v2.2l31.3-13.8v-103l65.6-29l65.6,29v61.1l0.1,41.9l34.3,15.1l0.1,0.1l34.3-15.2v-103l65.6-29l65.6,29v61.1
		l0.1,41.9l34.3,15.1v0.1l34.4-15.2v-103l65.6-29l65.6,29v61.1l0.1,41.9l34.3,15.1l0.1,0.1l34.3-15.2v-103l65.6-29l65.6,29v61.1
		l0.1,41.9l29.4,13v-2.2L667.7,676.8z M-49,90.3V-0.2h-2V89l-45.9,20.3v2.2L-49,90.3z"/>
	<g>
		<path id="H_1_" class="st1" d="M282.3,45.8V66l17.7,7.7v0.1l17.7-7.9v-1L317.6,45l-0.2-45.2h-2l0.2,46.8l0.1,18.1L300,71.6v-0.1
			l-15.6-6.8l-0.1-20V-0.2h-2L282.3,45.8z"/>
	</g>
	<path class="st1" d="M332.4,76.8L300,91.1l-32.3-14.3l-0.1-40.2V-0.2h-2v36.4l0.1,41.9L300,93.3v-0.1v0.1l34.4-15.2V-0.2h-2v56.9
		V76.8z M-96.9,130.9l17.4-7.6h-0.1l46.7-20.7l0.6-0.2V-0.2h-2v101.3l-50.3,22.2h0.1l-12.4,5.4V130.9z M684.4,64.7l-0.1-20V-0.2h-2
		V66l12.8,5.6v-2.2L684.4,64.7z M684.4,323.3l-1.5-0.7l-48.5-21.4v-61.9h-1h1v-41.2L600,182.9l-34.3,15.2v103l-50.3,22.2h0.1
		l-15.5,6.8l-15.5-6.8h-0.1l-1.5-0.7l-48.5-21.4v-61.9h-1h1l-0.1-41.2L400,182.9l-34.3,15.2v103l-50.3,22.2h0.1l-15.5,6.8l-15.5-6.8
		h-0.1l-1.5-0.7l-48.5-21.4v-61.9h-1h1l-0.1-41.2L200,182.9l-34.3,15.2v103l-50.3,22.2h0.1l-15.5,6.8l-15.5-6.8h-0.1l-1.5-0.7
		l-48.5-21.4v-61.9h-1h1v-41.2L0,182.9l-34.3,15.2v103l-50.3,22.2h0.1l-12.4,5.4v2.2l17.4-7.6h-0.1l46.7-20.7l0.6-0.2v-103L0,185.1
		l32.4,14.3v103.1l47.1,20.8l20.1,8.8l0.4,0.2l20.5-9h-0.1l46.7-20.7l0.6-0.2v-103l32.3-14.3l32.4,14.3v103.1l47.1,20.8l20.1,8.8
		l0.4,0.2l20.5-9h-0.1l46.7-20.7l0.6-0.2v-103l32.3-14.3l32.4,14.3v103.1l47.1,20.8l20.1,8.8l0.4,0.2l20.5-9h-0.1l46.7-20.7l0.6-0.2
		v-103l32.3-14.3l32.4,14.3v103.1l47.1,20.8l15.6,6.8v-2.2l-10.6-4.6L684.4,323.3z M651.1,489L651,385.9l-0.6-0.2L600,363.4
		l-51,22.5V489l-49,21.6L451.1,489L451,385.9l-0.6-0.2L400,363.4l-51,22.5V489l-49,21.6L251.1,489L251,385.9l-0.6-0.2L200,363.4
		l-51,22.5V489l-49,21.6L51.1,489L51,385.9l-0.6-0.2L0,363.4l-51,22.5V489l-45.9,20.3v2.2l47.9-21.2V387.2l49-21.6l49,21.6v61.1
		l0.1,42l50.9,22.5h0.1l50.9-22.5V387.2l49-21.6l49,21.6v61.1l0.1,42l50.9,22.5l51-22.5V387.2l49-21.6l49,21.6v61.1l0.1,42
		l50.9,22.5h0.1l50.9-22.5V387.2l49-21.6l49,21.6v61.1l0.1,42l46,20.3v-2.1L651.1,489z M667.7,476.8l-0.1-40.2v-62.8L600,343.9
		l-67.6,29.9v103l-32.3,14.3H500l-32.3-14.3l-0.1-40.2v-62.8L400,343.9l-67.6,29.9v103L300,491.1l-32.3-14.3l-0.1-40.2v-62.8
		L200,343.9l-67.6,29.9v103l-32.3,14.3H100l-32.3-14.3l-0.1-40.2v-62.8L0,343.9l-67.6,29.9v103l-29.3,12.9v2.2l31.3-13.8v-103
		l65.6-29l65.6,29v61.1l0.1,41.9l34.3,15.2v-0.1l0.1,0.1l34.3-15.2v-103l65.6-29l65.6,29v61.1l0.1,41.9l34.3,15.2v-0.1v0.1
		l34.4-15.2v-103l65.6-29l65.6,29v61.1l0.1,41.9l34.3,15.2v-0.1l0.1,0.1l34.3-15.2v-103l65.6-29l65.6,29v61.1l0.1,41.9l29.4,13v-2.2
		L667.7,476.8z M640.2,323.3l-22.4-9.9v-1l-0.1-102.1l-17.7-7.8l-17.7,7.8v103l-22.6,10h0.1L500,349.6l-82.2-36.2v-1l-0.1-102.1
		l-17.7-7.8l-17.7,7.8v103l-22.6,10h0.1L300,349.6l-82.2-36.2v-1l-0.1-102.1l-17.7-7.8l-17.7,7.8v103l-22.6,10h0.1L100,349.6
		l-82.2-36.2v-1l-0.1-102.1L0,202.5l-17.7,7.8v103l-22.6,10h0.1l-56.7,25v2.2l61.5-27.2l19.1-8.5l0.6-0.3V211.6L0,204.7l15.7,6.9
		v19.9l0.1,83.2L99,351.4v102.1h2V351.4l63.7-28.1h-0.1l19.1-8.5l0.6-0.3V211.6l15.7-6.9l15.7,6.9v19.9l0.1,83.2l83.2,36.7v102.1h2
		V351.4l63.7-28.1h-0.1l19.1-8.5l0.6-0.3V211.6l15.7-6.9l15.7,6.9v19.9l0.1,83.2l83.2,36.7v102.1h2V351.4l63.7-28.1h-0.1l19.1-8.5
		l0.6-0.3V211.6l15.7-6.9l15.7,6.9v19.9l0.1,83.2l19.5,8.6l59.8,26.4v-2.2L640.2,323.3z M684.4,464.7l-0.1-20v-83.2l-83.5-36.9
		V221.4h-2v103.2l-83.5,36.9l0.4,103.2l-15.7,6.9v-0.1l-15.6-6.8l-0.1-20l-0.1-83.2l-83.4-36.9V221.4h-2v103.2l-83.5,36.9l0.4,103.2
		l-15.7,6.9v-0.1l-15.6-6.8l-0.1-20l-0.1-83.2l-83.4-36.9V221.4h-2v103.2l-83.5,36.9l0.4,103.2l-15.7,6.9v-0.1l-15.6-6.8v-20
		l-0.2-83.2L0.8,324.6V221.4h-2v103.2l-83.5,36.9l0.4,103.2l-12.6,5.5v2.2l14.6-6.4v-1.1l-0.1-19.9l-0.3-82.2l82.5-36.4l82.4,36.4
		l0.2,83V466l17.6,7.7v0.1l17.7-7.8v-1.1l-0.1-19.9l-0.3-82.2l82.5-36.4l82.5,36.4V466l17.7,7.7v0.1l17.7-7.8v-1.1l-0.1-19.9
		l-0.3-82.2l82.5-36.4l82.4,36.4l0.1,103.2l17.7,7.7v0.1l17.7-7.8v-1.1l-0.1-19.9l-0.3-82.2l82.5-36.4l82.5,36.4V466l12.8,5.6v-2.2
		L684.4,464.7z M684.4,664.7l-0.1-20v-83.2l-83.5-36.9V421.4h-2v103.2l-83.5,36.9l0.4,103.2l-15.7,6.9v-0.1l-15.6-6.8l-0.1-20
		l-0.1-83.2l-83.4-36.9V421.4h-2v103.2l-83.5,36.9l0.4,103.2l-15.7,6.9v-0.1l-15.6-6.8l-0.1-20l-0.1-83.2l-83.4-36.9V421.4h-2v103.2
		l-83.5,36.9l0.4,103.2l-15.7,6.9v-0.1l-15.6-6.8v-20l-0.2-83.2L0.8,524.6V421.4h-2v103.2l-83.5,36.9l0.4,103.2l-12.6,5.5v2.2
		l14.6-6.5v-1l-0.1-19.9l-0.3-82.2l82.5-36.4l82.4,36.4l0.2,83V666l17.6,7.7v0.1l17.7-7.9v-1l-0.1-19.9l-0.3-82.2l82.5-36.4
		l82.5,36.4V666l17.7,7.7v0.1l17.7-7.9v-1l-0.1-19.9l-0.3-82.2l82.5-36.4l82.4,36.4l0.1,103.2l17.7,7.7v0.1l17.7-7.9v-1l-0.1-19.9
		l-0.3-82.2l82.5-36.4l82.5,36.4V666l12.8,5.6v-2.2L684.4,664.7z"/>
	<g>
		<path id="D_3_" class="st1" d="M684.4,523.2l-1.5-0.6l-48.5-21.4v-61.9h-1h1v-41.2L600,382.9l-34.3,15.2v103l-50.3,22.1h0.1
			l-15.5,6.9l-15.5-6.9h-0.1l-1.5-0.6l-48.5-21.4v-61.9h-1h1l-0.1-41.2L400,382.9l-34.3,15.2v103l-50.3,22.1h0.1l-15.5,6.9
			l-15.5-6.9h-0.1l-1.5-0.6l-48.5-21.4v-61.9h-1h1l-0.1-41.2L200,382.9l-34.3,15.2v103l-50.3,22.1h0.1l-15.5,6.9l-15.5-6.9h-0.1
			l-1.5-0.6l-48.5-21.4v-61.9h-1h1v-41.2L0,382.9l-34.3,15.2v103l-50.3,22.1h0.1l-12.4,5.5v2.2l17.4-7.7h-0.1l46.7-20.6l0.6-0.2
			v-103L0,385.1l32.4,14.3v103.1l47.1,20.7l20.1,8.9l0.4,0.2l20.5-9.1h-0.1l46.7-20.6l0.6-0.2v-103l32.3-14.3l32.4,14.3v103.1
			l47.1,20.7l20.1,8.9l0.4,0.2l20.5-9.1h-0.1l46.7-20.6l0.6-0.2v-103l32.3-14.3l32.4,14.3v103.1l47.1,20.7l20.1,8.9l0.4,0.2
			l20.5-9.1h-0.1l46.7-20.6l0.6-0.2v-103l32.3-14.3l32.4,14.3v103.1l47.1,20.7l15.6,6.9v-2.2l-10.6-4.7H684.4z"/>
	</g>
	<path class="st1" d="M640.2,523.2l-22.4-9.8v-1l-0.1-102.1l-17.7-7.8l-17.7,7.8v103l-22.6,9.9h0.1L500,549.6l-59.8-26.4l-22.4-9.8
		v-1l-0.1-102.1l-17.7-7.8l-17.7,7.8v103l-22.6,9.9h0.1L300,549.6l-59.8-26.4l-22.4-9.8v-1l-0.1-102.1l-17.7-7.8l-17.7,7.8v103
		l-22.6,9.9h0.1L100,549.6l-59.8-26.4l-22.4-9.8v-1l-0.1-102.1L0,402.5l-17.7,7.8v103l-22.6,9.9h0.1l-56.7,25.1v2.2l61.6-27.3h-0.1
		l19.1-8.4l0.6-0.3V411.6L0,404.7l15.7,6.9v19.9l0.1,83.2l19.5,8.5L99,551.4v102.1h2V551.4l83.3-36.9V411.6l15.7-6.9l15.7,6.9v19.9
		l0.1,83.2l19.5,8.5l63.7,28.2v102.1h2V551.4l83.3-36.9V411.6l15.7-6.9l15.7,6.9v19.9l0.1,83.2l19.5,8.5l63.7,28.2v102.1h2V551.4
		l83.3-36.9V411.6l15.7-6.9l15.7,6.9v19.9l0.1,83.2l19.5,8.5l59.8,26.5v-2.2L640.2,523.2z M667.7,276.8l-0.1-40.2v-62.8L600,143.9
		l-67.6,29.9v103l-32.3,14.3H500l-32.3-14.3l-0.1-40.2v-62.8L400,143.9l-67.6,29.9v103L300,291.1l-32.3-14.3l-0.1-40.2v-62.8
		L200,143.9l-67.6,29.9v103l-32.3,14.3H100l-32.3-14.3l-0.1-40.2v-62.8L0,143.9l-67.6,29.9v103l-29.3,12.9v2.2l31.3-13.8v-103
		l65.6-29l65.6,29v61.1l0.1,41.9l34.3,15.2v-0.1l0.1,0.1l34.3-15.2v-103l65.6-29l65.6,29v61.1l0.1,41.9l34.3,15.2v-0.1v0.1
		l34.4-15.2v-103l65.6-29l65.6,29v61.1l0.1,41.9l34.3,15.2v-0.1l0.1,0.1l34.3-15.2v-103l65.6-29l65.6,29v61.1l0.1,41.9l29.4,13v-2.2
		L667.7,276.8z M100,53.5h1V-0.2h-2v53.7H100z M-82.3,65.9v-1L-82.4,45l-0.2-45.2h-2l0.2,46.8l0.1,18.1l-12.6,5.5v2.2L-82.3,65.9z
		 M651.1,289L651,185.9l-0.6-0.2L600,163.4l-51,22.5V289l-49,21.6L451.1,289L451,185.9l-0.6-0.2L400,163.4l-51,22.5V289l-49,21.6
		L251.1,289L251,185.9l-0.6-0.2L200,163.4l-51,22.5V289l-49,21.6L51.1,289L51,185.9l-0.6-0.2L0,163.4l-51,22.5V289l-45.9,20.3v2.2
		l47.9-21.2V187.2l49-21.6l49,21.6v61.1l0.1,42l50.9,22.5h0.1l50.9-22.5V187.2l49-21.6l49,21.6v61.1l0.1,42l50.9,22.5l51-22.5V187.2
		l49-21.6l49,21.6v61.1l0.1,42l50.9,22.5h0.1l50.9-22.5V187.2l49-21.6l49,21.6v61.1l0.1,42l46,20.3v-2.1L651.1,289z M82.4,45.8V66
		l17.6,7.7v0.1l17.7-7.9v-1L117.6,45l-0.2-45.2h-2l0.2,46.8l0.1,18.1L100,71.6v-0.1l-15.6-6.8v-20L84.3-0.2h-2L82.4,45.8z
		 M-65.6,78.1V-0.2h-2v77l-29.3,12.9v2.2L-65.6,78.1z M300,53.5h1V-0.2h-2v53.7H300z M684.4,264.7l-0.1-20v-83.2l-83.5-36.9V21.4h-2
		v103.2l-83.5,36.9l0.4,103.2l-15.7,6.9v-0.1l-15.6-6.8l-0.1-20l-0.1-83.2l-83.4-36.9V21.4h-2v103.2l-83.5,36.9l0.4,103.2l-15.7,6.9
		v-0.1l-15.6-6.8l-0.1-20l-0.1-83.2l-83.4-36.9V21.4h-2v103.2l-83.5,36.9l0.4,103.2l-15.7,6.9v-0.1l-15.6-6.8v-20l-0.2-83.2
		L0.8,124.6V21.4h-2v103.2l-83.5,36.9l0.4,103.2l-12.6,5.5v2.2l14.6-6.4v-1.1l-0.1-19.9l-0.3-82.2l82.5-36.4l82.4,36.4l0.2,83V266
		l17.6,7.7v0.1l17.7-7.8v-1.1l-0.1-19.9l-0.3-82.2l82.5-36.4l82.5,36.4V266l17.7,7.7v0.1l17.7-7.8v-1.1l-0.1-19.9l-0.3-82.2
		l82.5-36.4l82.4,36.4l0.1,103.2l17.7,7.7v0.1l17.7-7.8v-1.1l-0.1-19.9l-0.3-82.2l82.5-36.4l82.5,36.4V266l12.8,5.6v-2.2
		L684.4,264.7z M640.2,123.3l-22.4-9.9v-1l-0.1-102.1L600,2.5l-17.7,7.8v103l-22.6,10h0.1L500,149.6l-82.2-36.2v-1l-0.1-102.1
		L400,2.5l-17.7,7.8v103l-22.6,10h0.1L300,149.6l-82.2-36.2v-1l-0.1-102.1L200,2.5l-17.7,7.8v103l-22.6,10h0.1L100,149.6l-82.2-36.2
		v-1L17.7,10.3L0,2.5l-17.7,7.8v103l-22.6,10h0.1l-56.7,25v2.2l61.5-27.2l19.1-8.5l0.6-0.3V11.6L0,4.7l15.7,6.9v19.9l0.1,83.2
		L99,151.4v102.1h2V151.4l63.7-28.1h-0.1l19.1-8.5l0.6-0.3V11.6L200,4.7l15.7,6.9v19.9l0.1,83.2l83.2,36.7v102.1h2V151.4l63.7-28.1
		h-0.1l19.1-8.5l0.6-0.3V11.6L400,4.7l15.7,6.9v19.9l0.1,83.2l83.2,36.7v102.1h2V151.4l63.7-28.1h-0.1l19.1-8.5l0.6-0.3V11.6
		L600,4.7l15.7,6.9v19.9l0.1,83.2l19.5,8.6l59.8,26.4v-2.2L640.2,123.3z"/>
</g>
</svg>
