<svg id="logo" xmlns="http://www.w3.org/2000/svg"   width="100%" height="100%" viewBox="0 0 249.31 80.33">
  <path d="M28.63 14.88c0 .81-.07 2.14.33 2.4 1.12.75 3.02 1.27 3.62 1.99.16.2-.04 1.48-.48 1.38-3.03-.67-3.17-.63-5.39-.6-.18 0-.65-.94-.68-1.56-.01-.39.54-.79.75-1.43.35-1.06.08-5.94.19-9.24.02-.74.1-1.02.82-1.02.66 0 .76.46.75 1.02-.03 2.35.09 4.75.09 7.06zM40.79 40.06c.23-.06 1.79-.14 2.54 0 .2.04.35.19.4.26.23.29.19 1.45.17 1.8-.04.75-.43 1.18-.43 1.84.05 5.28.18 11.52-.11 12.63-.49 1.87-.42 2.19-1.16 2.26-.21.02-.44-.04-.58-.67-.1-.46-.14-1.22-.15-2.16-.03-2.18.02-7.8-.08-9.99-.09-1.99-.6-2.12-.75-2.22-.19-.14-.45-.2-.5-.53-.12-.69.11-2.26.32-2.83.05-.12.16-.35.33-.39z"/>
  <path d="M44.8 63.55c-1.8 0-4.53.1-5.05-.23-.35-.23-.32-.75-.34-1.74-.18-6.69.07-13.36-.05-20.05 0-.58-.19-1.51-1-1.51-1.04 0-3.01-.08-3.2.07-.15.08-.26.17-.35.35-.29.62-.47 2.14-.4 2.83.02.24.17.48.52.56.98.22 1.47.77 1.5 2.24.08 5.04.15 14.92-.51 16.56-.33.82-1.86 1.37-2.26.51-.3-.65-.26-15.48-.26-21.6 0-1.07-.35-1.53-1.53-1.53-1.49 0-2.85-.02-4.36 0-.11 0-.37.08-.49.38-.34.84-.52 2.82-.35 3.11.06.1.12.26.51.3 1.98.21 2.9 1.14 2.95 3.18.07 3.14.53 14.93-.85 16.19-.56.51-2.66.42-3.14.26a.846.846 0 0 1-.59-.74c-.37-3.59.19-21.2-.21-22.11-.15-.35-.32-.41-.64-.51-.56-.16-3.19.03-3.68-.16-.1-.04-.32-.08-.33-.32-.05-.64.01-1.33.25-1.84.12-.25.49-.27.64-.27 7.74-.01 18.77.06 22.95-.07.23-.01.68-.07.81-.45.17-.5.34-1.71.23-2.05-.06-.2-.14-.28-.41-.35-.46-.06-17.35-.03-26-.15-.46 0-1.27.06-1.38-.35-.12-.42-.09-1.28.12-1.69.85-1.69 1.61-1.31 2.15-3.77.32-1.49-.19-2.69.54-3.88.97-1.59 1.71-2.1 2.38-3.27.42-.73-.46-1.81-1.27-1.58-.58.23-4.11 2.58-6 5.77-1.5 2.54-2.04 5.27-3.11 7.96-.27.67-.66.84-1.73.95-.67.07-.94 2.43-.5 2.73.09.06.26.11.33.13.97.21 1.33 1.4 1.34 2.56 0 0 .23 20.02-.34 22.14-.4 1.5-.79 1.3-1.16 1.47-.03.02-.19.07-.25.24-.16.42-.34 1.43-.21 1.95.05.2.12.31.37.31 13.18 0 28.84.01 34.35.01.29 0 .42-.06.53-.48.15-.52.27-1.26.21-1.68-.07-.38-.46-.38-.73-.38zm-29.37-.64c-.61.69-1.2.94-1.22.12-.09-5.54-.02-17.14.06-17.47.14-.64 1.01-.95 1.44.06.53 1.21.73 16.16-.28 17.29zm6.07-.04c-.63.72-1.99.98-2.29.18-.48-1.27-.22-18.38-.15-18.72.13-.66 1.33-.59 1.77-.28 1 .72 1.16 1.29 1.26 2.9.29 4.61.36 14.83-.59 15.92zM233.08 33.3c.33-.5.73-1.12 1.19-1.81.69-1.09 1.25-1.88 1.81-2.74.59-.82 1.19-1.68 2.38-2.9H234l-.5 1.09h.73c.53 0 .66.13.69.36.03.26 0 .89-.56 1.68l-2.74 3.99-4.03-7.13h-14.22l-.33 3.33h1.32l.13-.76c.03-.43.2-.63.63-.92.69-.46 2.44-.5 3.83-.5v12.14c0 .56-.03.92-.2 1.42-.1.2-.2.63-.46.83h4.92l.39-1.06h-.73c-.56 0-.96-.1-1.29-.46-.17-.17-.2-.56-.2-.99V27c.73 0 3.23-.03 3.73.43.66.63 1.61 2.01 1.61 2.01.33.55.7 1.15 1.05 1.72.96 1.48 1.58 2.57 2.08 3.79v3.96c0 .56.03 1.15-.17 1.65-.1.3-.36.56-.56.83h4.95l.43-1.09h-.73c-.56 0-.99-.1-1.29-.43-.17-.2-.2-.56-.2-1.02 0 0-.07-3.7-.03-4.16.23-.47.5-.9.83-1.39zM212.62 41.41h-4.85c.16-.26.4-.53.5-.79.2-.53.23-.89.23-1.45V28.48c0-.5 0-.86-.26-1.16-.26-.26-.53-.43-.92-.43h-.53l.36-1.02h4.42c-.26.26-.33.53-.46.79-.2.43-.2 1.22-.2 2.05v10.2c0 .43.1.82.23 1.02.33.33.63.4 1.19.4h.73l-.44 1.08zM201.49 32.39l-1.58-.69c-1.58-.69-3-1.45-2.81-2.87.4-2.64 6.14-2.97 5.61.4h1.45l.73-3.1c-1.25-.36-2.64-.59-4.22-.59-3.3.03-6.27 1.58-5.97 4.26.2 1.88 1.75 2.81 3.56 3.6l1.62.73c1.82.82 3.3 1.55 3.27 3.17-.07 1.75-1.72 2.95-3.86 2.97-3.03.03-4.01-.95-4.01-.95-.05-.05-5.76-6.28-5.76-6.28 2.18-.43 3.83-1.91 3.73-3.93-.07-2.48-2.87-3.37-5.28-3.33l-6.43.03-.43 1.02h.59c.43 0 .69.07.92.36.36.36.43 1.35.43 2.38v9.83c0 .76-.2 1.35-.66 1.95h4.55l.4-1.09h-.66c-.92 0-1.19-.5-1.19-1.25l-.03-11.95c2.48-.43 5.12.33 5.12 2.54 0 1.75-1.78 2.9-4.55 3.04l7.56 8.68s4.2.31 5.45.33c3.56.07 6.6-2.01 6.57-5.05-.03-2.26-2.01-3.28-4.12-4.21zM65.83 24.15h-1.45l.13-.66c.13-.86.03-1.49-.56-2.15-.73-.79-3.5-.66-5.35-.73v17.42c0 .66.07 1.29.33 1.62.5.56 1.12.69 1.88.69h.66l-.4 1.12H55.2c.23-.3.4-.59.5-.92.26-.76.3-1.32.3-2.15l.03-17.79c-1.88 0-4.39.03-5.45.76-.59.46-.86.83-.92 1.49l-.13.89h-1.42l.5-4.36h18.05l-.83 4.77zM81.7 41.38h-4.39c.33-.76.4-1.06.4-1.85v-6.5c-.66.46-1.42.53-2.21.59-.69.03-1.52.07-2.28.1-1.35.1-2.08.1-3.37.07v5.25c0 .89.33 1.29 1.32 1.29h.63l-.36 1.09h-4.62c.36-.66.53-1.22.59-1.98.03-.3.03-.59.03-.99v-9.4c0-.53.1-1.42-.26-1.85-.26-.26-.56-.26-1.06-.26h-.56l.44-1.07h4.19c-.13.33-.2.4-.23.63-.07.43-.1 1.55-.1 2.05v3.73h7.85l-.03-3.23c0-.53.07-1.39-.3-1.82-.23-.26-.56-.3-1.02-.3h-.59l.46-1.06h4.22c-.1.4-.16.4-.2.63-.1.46-.13 1.55-.13 2.05v10.53c0 .86.33 1.25 1.35 1.25h.66l-.43 1.05zM94.64 41.38l-11.02.03c.23-.3.46-.63.56-.99.17-.63.13-1.16.13-1.81v-8.94c0-.5 0-1.75-.23-2.18-.26-.43-.53-.59-1.06-.59h-.56l.4-1.02s10.89-.03 11.42 0l-.46 3.4h-1.39c.07-.83-.07-1.32-.53-1.78-.46-.46-1.91-.56-3.3-.56-.73 0-1.19.03-1.85.17v5.21h6.24c-.4 1.06-1.19 1.29-2.28 1.42-.46.03-.92.07-1.45.1-.99.07-1.58.03-2.51.03v4.55c0 .53.2 1.15.36 1.35.3.33 1.39.43 2.54.43 1.22 0 2.18 0 2.94-.79.49-.5.73-.89.86-1.72h1.58l-.39 3.69zM125.2 41.41h-5.02l-.03-1.98c-3.43 1.78-6.73 3.07-10.53 1.98-4.36-1.25-4.12-6.47-4.16-11.06-.03-3.53.89-7.82.26-8.98-.3-.53-.89-.86-1.58-.86h-.56l.26-1.12h5.51c-.26.43-.3.69-.4 1.12-.3 1.45-.89 6.6-.86 10.33.03 4.09.33 7.79 3.89 8.81 3.1.86 5.68.03 8.08-1.55V23.16c0-.89 0-1.62-.66-2.14-.5-.43-.96-.5-1.58-.5h-.33l.26-1.12h5.51c-.26.49-.36.79-.5 1.32-.23.92-.13 1.48-.13 2.44v13.96c0 1.12-.03 2.08.89 2.74.53.36.96.46 1.58.46h.4l-.3 1.09zM141.6 27.06c-.13.43-.2 1.78-.2 2.31l-.03 12.04h-1.91c-.07-.66-.26-.79-.59-1.32-.3-.46-.56-.89-.89-1.25l-8.51-9.93v8.65c0 .92.13 2.08.3 2.28.33.36.73.5 1.12.5l.63.03-.36 1.06h-4.36c.33-.3.59-.69.73-1.06.33-.89.3-1.32.33-2.24l.03-8.98c0-.5 0-1.48-.4-1.91-.23-.26-.56-.33-1.02-.33h-.59l.43-1.02h4.36c.23.79.73 1.32 1.39 2.15l7.75 9.14V29.4c0-.89-.03-1.75-.4-2.15-.23-.26-.56-.36-1.02-.36h-.56l.36-1.02h3.96c-.25.43-.49.96-.55 1.19zM150.01 41.41h-4.85c.16-.26.4-.53.5-.79.2-.53.23-.89.23-1.45V28.48c0-.5 0-.86-.26-1.16-.26-.26-.53-.43-.92-.43h-.53l.36-1.02h4.42c-.26.26-.33.53-.46.79-.2.43-.2 1.22-.2 2.05v10.2c0 .43.1.82.23 1.02.33.33.63.4 1.19.4h.73l-.44 1.08zM164.17 29.86c-.59 1.22-1.09 2.48-1.82 4.09-1.19 2.64-2.41 5.74-2.48 7.56h-2.01c-.23-1.42-1.55-4.98-2.77-7.99-.96-2.41-2.54-5.41-3-5.94-.33-.36-.69-.69-1.19-.69h-.56l.3-.99 3.93-.03 4.78 11.75 3.56-8.55c.26-.66.4-1.25.26-1.55-.16-.36-.5-.63-.96-.63h-.63l.26-.99h4.78c-1.23 1.62-1.86 2.74-2.45 3.96zM179.65 41.38l-11.02.03c.23-.3.46-.63.56-.99.17-.63.13-1.16.13-1.81v-8.94c0-.5 0-1.75-.23-2.18-.26-.43-.53-.59-1.06-.59h-.56l.4-1.02s10.89-.03 11.42 0l-.46 3.4h-1.39c.07-.83-.07-1.32-.53-1.78-.46-.46-1.92-.56-3.3-.56-.73 0-1.19.03-1.85.17v5.21H178c-.4 1.06-1.19 1.29-2.28 1.42-.46.03-.92.07-1.45.1-.99.07-1.58.03-2.51.03v4.55c0 .53.2 1.15.36 1.35.3.33 1.39.43 2.54.43 1.22 0 2.18 0 2.94-.79.5-.5.73-.89.86-1.72h1.58l-.39 3.69zM70.91 56.83c.69 3.5-1.06 7.03-4.79 7.69-3.8.69-6.8-2.15-7.49-5.71-.66-3.5.79-7.13 4.62-7.79 3.83-.62 7 2.28 7.66 5.81zm2.77-.03c-.59-4.52-4.49-7.66-10-6.9-5.28.73-8.35 4.36-7.72 9.11.59 4.52 4.26 7.49 9.67 6.8 5.38-.66 8.65-4.49 8.05-9.01zM85.2 53.47h-1.39c0-.69-.07-1.32-.56-1.78-.43-.46-1.65-.56-2.9-.56-.73 0-1.19.03-1.85.17v5.21h6.2c-.13.36-.36.99-.79 1.16-.63.26-1.72.33-2.84.36-.99.03-1.65.07-2.57 0v4.88c0 .53.2 1.06.4 1.25.17.17.59.36 1.09.36.17.03.59-.03.76-.03l-.33 1.09h-5.05c.23-.3.46-.63.56-.99.16-.63.13-1.12.13-1.78v-8.94c0-.5.03-1.85-.2-2.28-.26-.4-.63-.53-1.15-.53h-.56l.43-1.02s10.49.03 11.12 0l-.5 3.43zM101.27 65.58H95.4c.2-.3.4-.56.49-.89.26-.79.3-1.32.3-2.14l.03-15.51c0-.66 0-1.25-.43-1.75-.36-.4-.79-.59-1.39-.59H94l.33-1.12h5.28c-.17.26-.3.36-.46.76-.3.69-.36 1.88-.36 3.1v14.75c0 .63.07 1.25.33 1.58.49.56 1.12.73 1.88.73h.66l-.39 1.08zM116.68 56.83c.69 3.5-1.06 7.03-4.78 7.69-3.8.69-6.8-2.15-7.49-5.71-.66-3.5.79-7.13 4.62-7.79 3.82-.62 6.99 2.28 7.65 5.81zm2.77-.03c-.59-4.52-4.49-7.66-10-6.9-5.28.73-8.35 4.36-7.72 9.11.59 4.52 4.26 7.49 9.67 6.8 5.38-.66 8.65-4.49 8.05-9.01zM140.8 53.99c-.59 1.19-1.12 2.48-1.82 4.06-1.19 2.67-2.08 5.77-2.15 7.56h-2.05c-.23-1.39-1.39-4.52-2.51-7.62-.16-.5-.4-1.19-.66-1.75-.33.63-.56 1.06-1.15 2.41-1.16 2.67-2.01 5.18-2.08 6.96h-2.08c-.23-1.39-1.55-4.98-2.77-7.95-.96-2.41-2.54-5.44-3-5.94-.33-.36-.69-.66-1.19-.66h-.53l.33-1.02h3.99l4.52 11.81c.69-1.52 3.13-7.1 3.1-7.16-.56-1.52-1.19-2.67-1.45-2.97-.36-.36-.69-.66-1.22-.66h-.56l.36-1.02h4.03c1.25 3.33 3.17 8.65 4.19 11.62l3.27-8.15c.26-.66.56-1.55.4-1.85-.17-.4-.53-.59-.99-.59h-.56l.3-1.02h4.78c-1.24 1.6-1.9 2.72-2.5 3.94zM149.25 58.48c-1.55.1-2.97.07-4.49-.1l2.28-5.68 2.21 5.78zm6.87 6.01h-.56c-.53 0-.86-.33-1.22-.69-.46-.5-1.81-3.63-2.8-6.04-1.19-3-2.44-6.44-2.67-7.85h-3.53c.76 1.58-.56 4.82-1.78 7.52-1.42 3.2-2.24 5.08-4.52 8.15h5.02l.3-1.09h-.63c-.46 0-.86-.23-1.02-.59-.13-.3.07-.99.33-1.65l.99-2.34h3.6c.76 0 1.48-.17 1.95-.73l2.34 6.4h3.89l.31-1.09z"/>
</svg>
