<svg xmlns="http://www.w3.org/2000/svg" viewBox="0 0 1226.96 798.35"><defs><style>.cls-1{opacity:0.23;}.cls-2{fill:#ffce06;}</style></defs><title>pattern</title><g id="Layer_2" data-name="Layer 2"><g class="cls-1"><polygon class="cls-2" points="1186.65 646.56 1186.65 646.56 1164.58 696.55 1164.4 696.95 1186.91 747.93 1224.82 747.93 1224.82 745.93 1188.21 745.93 1166.59 696.95 1188.21 647.97 1224.82 647.97 1224.82 645.97 1186.91 645.97 1186.65 646.56"/><polygon class="cls-2" points="1174.74 229.32 1145.05 296.55 1144.88 296.95 1174.74 364.58 1224.82 364.58 1224.82 362.58 1176.04 362.58 1147.06 296.95 1176.04 231.32 1224.82 231.32 1224.82 229.32 1174.74 229.32"/><polygon class="cls-2" points="1124.23 56.75 1114.34 79.17 1113.4 79.17 1011.91 79.26 1011.26 79.26 1003.45 96.95 1011.26 114.64 1031.79 114.64 1114.24 114.66 1124.23 137.29 1124.23 137.2 1150.61 196.94 1150.59 196.99 1150.6 196.99 1124.23 256.72 1124.23 256.75 1114.34 279.17 1113.4 279.17 1011.91 279.26 1011.26 279.26 1003.45 296.95 1011.26 314.64 1031.79 314.64 1114.24 314.66 1124.23 337.29 1124.23 337.2 1150.61 396.94 1150.59 396.99 1150.6 396.99 1124.23 456.72 1124.23 456.75 1114.34 479.17 1113.4 479.17 1011.91 479.26 1011.26 479.26 1003.45 496.95 1011.26 514.64 1031.79 514.64 1114.24 514.66 1124.23 537.29 1124.23 537.2 1150.61 596.94 1150.59 596.99 1150.6 596.99 1124.23 656.72 1124.23 656.75 1114.34 679.16 1113.4 679.17 1011.91 679.26 1011.26 679.26 1003.45 696.95 1011.26 714.64 1031.79 714.64 1114.24 714.66 1124.23 737.29 1124.23 737.2 1149.24 793.84 1151.43 793.84 1124.23 732.25 1124.23 732.34 1115.81 713.26 1115.52 712.66 1032.52 712.64 1012.56 712.64 1005.63 696.95 1012.56 681.26 1032.52 681.26 1032.52 681.24 1032.52 681.24 1032.52 681.26 1114.99 681.16 1115.64 681.16 1124.23 661.7 1124.23 661.67 1152.37 597.95 1224.82 597.95 1224.82 595.94 1152.36 595.94 1124.23 532.25 1124.23 532.34 1115.81 513.26 1115.52 512.66 1032.52 512.64 1012.56 512.64 1005.63 496.95 1012.56 481.26 1032.52 481.26 1032.52 481.24 1032.52 481.24 1032.52 481.26 1114.99 481.16 1115.64 481.16 1124.23 461.7 1124.23 461.67 1152.37 397.95 1224.82 397.95 1224.82 395.94 1152.36 395.94 1124.23 332.25 1124.23 332.34 1115.81 313.26 1115.52 312.66 1032.52 312.64 1012.56 312.64 1005.63 296.95 1012.56 281.26 1032.52 281.26 1032.52 281.24 1032.52 281.24 1032.52 281.26 1114.99 281.16 1115.64 281.16 1124.23 261.7 1124.23 261.67 1152.37 197.95 1224.82 197.95 1224.82 195.94 1152.36 195.94 1124.23 132.25 1124.23 132.34 1115.81 113.26 1115.52 112.66 1032.52 112.64 1012.56 112.64 1005.63 96.95 1012.56 81.26 1032.52 81.26 1032.52 81.24 1032.52 81.24 1032.52 81.26 1114.99 81.16 1115.64 81.16 1124.23 61.7 1124.23 61.67 1150.65 1.84 1148.46 1.84 1124.23 56.72 1124.23 56.75"/><polygon class="cls-2" points="1089.97 45.9 1028.88 45.97 986.91 45.97 986.65 46.56 986.65 46.56 964.58 96.55 964.4 96.95 986.91 147.93 1049.27 147.93 1089.75 147.93 1089.75 147.92 1089.97 147.92 1111.6 196.91 1111.56 196.99 1111.57 196.99 1089.97 245.9 1028.88 245.97 986.91 245.97 986.65 246.56 986.65 246.56 964.58 296.55 964.4 296.95 986.91 347.93 1049.27 347.93 1089.75 347.93 1089.75 347.92 1089.97 347.92 1111.6 396.91 1111.56 396.99 1111.57 396.99 1089.97 445.9 1028.88 445.97 986.91 445.97 986.65 446.56 986.65 446.56 964.58 496.55 964.4 496.95 986.91 547.93 1049.27 547.93 1089.75 547.93 1089.75 547.92 1089.97 547.92 1111.6 596.91 1111.56 596.99 1111.57 596.99 1089.97 645.9 1028.88 645.97 986.91 645.97 986.65 646.56 986.65 646.56 964.58 696.55 964.4 696.95 986.91 747.93 1049.27 747.93 1089.75 747.93 1089.75 747.92 1089.97 747.92 1110.25 793.84 1112.43 793.84 1091.28 745.92 1028.92 745.92 1028.92 745.93 988.21 745.93 966.59 696.95 988.21 647.97 1049.27 647.97 1049.27 647.95 1049.27 647.95 1049.27 647.97 1090.63 647.9 1090.63 647.9 1091.28 647.9 1113.75 596.99 1113.75 596.99 1113.79 596.91 1091.28 545.92 1028.92 545.92 1028.92 545.93 988.21 545.93 966.59 496.95 988.21 447.97 1049.27 447.97 1049.27 447.95 1049.27 447.95 1049.27 447.97 1090.63 447.9 1090.63 447.9 1091.28 447.9 1113.75 396.99 1113.75 396.99 1113.79 396.91 1091.28 345.92 1028.92 345.92 1028.92 345.93 988.21 345.93 966.59 296.95 988.21 247.97 1049.27 247.97 1049.27 247.95 1049.27 247.95 1049.27 247.97 1090.63 247.9 1090.63 247.9 1091.28 247.9 1113.75 196.99 1113.75 196.99 1113.79 196.91 1091.28 145.92 1028.92 145.92 1028.92 145.93 988.21 145.93 966.59 96.95 988.21 47.97 1049.27 47.97 1049.27 47.95 1049.27 47.95 1049.27 47.97 1090.63 47.9 1090.63 47.9 1091.28 47.9 1111.61 1.84 1109.43 1.84 1089.97 45.9"/><polygon class="cls-2" points="1183.92 496.95 1199.09 531.3 1224.82 531.3 1224.82 529.27 1220.44 529.27 1220.44 529.3 1200.39 529.3 1186.11 496.95 1200.39 464.6 1224.82 464.58 1224.82 462.58 1199.09 462.61 1183.92 496.95"/><polygon class="cls-2" points="1174.74 429.32 1145.05 496.55 1144.88 496.95 1174.74 564.58 1224.82 564.58 1224.82 562.58 1176.04 562.58 1147.06 496.95 1176.04 431.32 1224.82 431.32 1224.82 429.32 1174.74 429.32"/><polygon class="cls-2" points="1183.92 696.95 1199.09 731.3 1224.82 731.3 1224.82 729.27 1220.44 729.27 1220.44 729.3 1200.39 729.3 1186.11 696.95 1200.39 664.6 1224.82 664.58 1224.82 662.58 1199.09 662.61 1183.92 696.95"/><polygon class="cls-2" points="1174.74 629.32 1145.05 696.55 1144.88 696.95 1174.74 764.58 1224.82 764.58 1224.82 762.58 1176.04 762.58 1147.06 696.95 1176.04 631.32 1224.82 631.32 1224.82 629.32 1174.74 629.32"/><polygon class="cls-2" points="1124.23 12.53 1123.58 14.01 1123.58 14.01 1102.15 62.55 1040.31 62.56 1040.31 63.56 1040.31 62.56 999.09 62.6 983.92 96.95 999.09 131.3 1040.91 131.3 1102.06 131.3 1124.23 181.51 1124.23 181.42 1131.09 196.94 1131.07 196.99 1124.23 212.47 1124.23 212.53 1123.58 214.01 1123.58 214.01 1102.15 262.55 1040.31 262.56 1040.31 263.56 1040.31 262.56 999.09 262.61 983.92 296.95 999.09 331.3 1040.91 331.3 1102.06 331.3 1124.23 381.51 1124.23 381.42 1131.09 396.94 1131.07 396.99 1124.23 412.47 1124.23 412.53 1123.58 414.01 1123.58 414.01 1102.15 462.55 1040.31 462.56 1040.31 463.56 1040.31 462.56 999.09 462.61 983.92 496.95 999.09 531.3 1040.91 531.3 1102.06 531.3 1124.23 581.51 1124.23 581.42 1131.09 596.94 1131.07 596.99 1124.23 612.47 1124.23 612.53 1123.58 614.01 1123.58 614.01 1102.15 662.55 1040.31 662.56 1040.31 663.56 1040.31 662.56 999.09 662.61 983.92 696.95 999.09 731.3 1040.91 731.3 1102.06 731.3 1124.23 781.51 1124.23 781.42 1129.72 793.84 1131.91 793.84 1124.23 776.47 1124.23 776.56 1103.62 729.87 1103.36 729.27 1020.45 729.27 1020.45 729.3 1000.39 729.3 986.11 696.95 1000.39 664.6 1040.31 664.56 1103.45 664.55 1124.23 617.48 1124.23 617.42 1133.1 597.35 1133.25 596.99 1133.27 596.94 1124.23 576.47 1124.23 576.56 1103.62 529.87 1103.36 529.27 1020.45 529.27 1020.45 529.3 1000.39 529.3 986.11 496.95 1000.39 464.6 1040.31 464.56 1103.45 464.55 1124.23 417.48 1124.23 417.42 1133.1 397.35 1133.25 396.99 1133.27 396.94 1124.23 376.47 1124.23 376.56 1103.62 329.87 1103.36 329.27 1020.45 329.27 1020.45 329.3 1000.39 329.3 986.11 296.95 1000.39 264.6 1040.31 264.56 1103.45 264.55 1124.23 217.48 1124.23 217.42 1133.1 197.35 1133.25 196.99 1133.27 196.94 1124.23 176.47 1124.23 176.56 1103.62 129.87 1103.36 129.27 1020.45 129.27 1020.45 129.3 1000.39 129.3 986.11 96.95 1000.39 64.6 1040.31 64.56 1103.45 64.55 1124.23 17.48 1124.23 17.42 1131.11 1.84 1128.92 1.84 1124.23 12.47 1124.23 12.53"/><polygon class="cls-2" points="689.97 45.9 628.88 45.97 586.91 45.97 586.65 46.56 586.65 46.56 564.58 96.55 564.4 96.95 586.91 147.93 649.27 147.93 689.75 147.93 689.75 147.92 689.97 147.92 711.6 196.91 711.56 196.99 711.57 196.99 689.97 245.9 628.88 245.97 586.91 245.97 586.65 246.56 586.65 246.56 564.58 296.55 564.4 296.95 586.91 347.93 649.27 347.93 689.75 347.93 689.75 347.92 689.97 347.92 711.6 396.91 711.56 396.99 711.57 396.99 689.97 445.9 628.88 445.97 586.91 445.97 586.65 446.56 586.65 446.56 564.58 496.55 564.4 496.95 586.91 547.93 649.27 547.93 689.75 547.93 689.75 547.92 689.97 547.92 711.6 596.91 711.56 596.99 711.57 596.99 689.97 645.9 628.88 645.97 586.91 645.97 586.65 646.56 586.65 646.56 564.58 696.55 564.4 696.95 586.91 747.93 649.27 747.93 689.75 747.93 689.75 747.92 689.97 747.92 710.25 793.84 712.43 793.84 691.28 745.92 628.92 745.92 628.92 745.93 588.21 745.93 566.59 696.95 588.21 647.97 649.27 647.97 649.27 647.95 649.27 647.95 649.27 647.97 690.63 647.9 690.63 647.9 691.28 647.9 713.75 596.99 713.75 596.99 713.79 596.91 691.28 545.92 628.92 545.92 628.92 545.93 588.21 545.93 566.59 496.95 588.21 447.97 649.27 447.97 649.27 447.95 649.27 447.95 649.27 447.97 690.63 447.9 690.63 447.9 691.28 447.9 713.75 396.99 713.75 396.99 713.79 396.91 691.28 345.92 628.92 345.92 628.92 345.93 588.21 345.93 566.59 296.95 588.21 247.97 649.27 247.97 649.27 247.95 649.27 247.95 649.27 247.97 690.63 247.9 690.63 247.9 691.28 247.9 713.75 196.99 713.75 196.99 713.79 196.91 691.28 145.92 628.92 145.92 628.92 145.93 588.21 145.93 566.59 96.95 588.21 47.97 649.27 47.97 649.27 47.95 649.27 47.95 649.27 47.97 690.63 47.9 690.63 47.9 691.28 47.9 711.61 1.84 709.43 1.84 689.97 45.9"/><polygon class="cls-2" points="724.23 56.75 714.34 79.17 713.4 79.17 611.91 79.26 611.26 79.26 603.45 96.95 611.26 114.64 631.79 114.64 714.24 114.66 724.23 137.29 724.23 137.2 750.61 196.94 750.59 196.99 750.6 196.99 724.23 256.72 724.23 256.75 714.34 279.17 713.4 279.17 611.91 279.26 611.26 279.26 603.45 296.95 611.26 314.64 631.79 314.64 714.24 314.66 724.23 337.29 724.23 337.2 750.61 396.94 750.59 396.99 750.6 396.99 724.23 456.72 724.23 456.75 714.34 479.17 713.4 479.17 611.91 479.26 611.26 479.26 603.45 496.95 611.26 514.64 631.79 514.64 714.24 514.66 724.23 537.29 724.23 537.2 750.61 596.94 750.59 596.99 750.6 596.99 724.23 656.72 724.23 656.75 714.34 679.16 713.4 679.17 611.91 679.26 611.26 679.26 603.45 696.95 611.26 714.64 631.79 714.64 714.24 714.66 724.23 737.29 724.23 737.2 749.24 793.84 751.43 793.84 724.23 732.25 724.23 732.34 715.81 713.26 715.52 712.66 632.51 712.64 612.56 712.64 605.63 696.95 612.56 681.26 632.51 681.26 632.51 681.24 632.52 681.24 632.52 681.26 714.99 681.16 715.64 681.16 724.23 661.7 724.23 661.67 752.37 597.95 854.48 597.95 854.48 597.94 854.48 597.94 854.48 596.99 854.47 596.99 854.47 595.94 752.36 595.94 724.23 532.25 724.23 532.34 715.81 513.26 715.52 512.66 632.51 512.64 612.56 512.64 605.63 496.95 612.56 481.26 632.51 481.26 632.51 481.24 632.52 481.24 632.52 481.26 714.99 481.16 715.64 481.16 724.23 461.7 724.23 461.67 752.37 397.95 854.48 397.95 854.48 397.94 854.48 397.94 854.48 396.99 854.47 396.99 854.47 395.94 752.36 395.94 724.23 332.25 724.23 332.34 715.81 313.26 715.52 312.66 632.51 312.64 612.56 312.64 605.63 296.95 612.56 281.26 632.51 281.26 632.51 281.24 632.52 281.24 632.52 281.26 714.99 281.16 715.64 281.16 724.23 261.7 724.23 261.67 752.37 197.95 854.48 197.95 854.48 197.94 854.48 197.94 854.48 196.99 854.47 196.99 854.47 195.94 752.36 195.94 724.23 132.25 724.23 132.34 715.81 113.26 715.52 112.66 632.51 112.64 612.56 112.64 605.63 96.95 612.56 81.26 632.51 81.26 632.51 81.24 632.52 81.24 632.52 81.26 714.99 81.16 715.64 81.16 724.23 61.7 724.23 61.67 750.65 1.84 748.46 1.84 724.23 56.72 724.23 56.75"/><polygon class="cls-2" points="877.79 29.27 837.61 29.32 837.61 29.32 774.74 29.32 745.05 96.55 744.88 96.95 774.74 164.58 857.65 164.58 877.8 164.58 892.08 196.91 892.04 196.99 892.04 196.99 877.79 229.27 837.61 229.32 837.61 229.32 774.74 229.32 745.05 296.55 744.88 296.95 774.74 364.58 857.65 364.58 877.8 364.58 892.08 396.91 892.04 396.99 892.04 396.99 877.79 429.27 837.61 429.32 837.61 429.32 774.74 429.32 745.05 496.55 744.88 496.95 774.74 564.58 857.65 564.58 877.8 564.58 892.08 596.91 892.04 596.99 892.04 596.99 877.79 629.27 837.61 629.32 837.61 629.32 774.74 629.32 745.05 696.55 744.88 696.95 774.74 764.58 857.65 764.58 877.8 764.58 890.72 793.84 892.91 793.84 879.1 762.56 838.23 762.58 776.04 762.58 747.06 696.95 776.04 631.32 837.13 631.32 837.13 631.32 879.1 631.26 894.23 596.99 894.22 596.99 894.26 596.91 879.1 562.56 838.23 562.58 776.04 562.58 747.06 496.95 776.04 431.32 837.13 431.32 837.13 431.32 879.1 431.26 894.23 396.99 894.22 396.99 894.26 396.91 879.1 362.56 838.23 362.58 776.04 362.58 747.06 296.95 776.04 231.32 837.13 231.32 837.13 231.32 879.1 231.26 894.23 196.99 894.22 196.99 894.26 196.91 879.1 162.56 838.23 162.58 776.04 162.58 747.06 96.95 776.04 31.32 837.13 31.32 837.13 31.32 879.1 31.27 892.09 1.84 889.9 1.84 877.79 29.27"/><polygon class="cls-2" points="1077.79 29.27 1037.61 29.32 1037.61 29.32 974.74 29.32 945.05 96.55 944.88 96.95 974.74 164.58 1057.65 164.58 1077.8 164.58 1092.08 196.91 1092.04 196.99 1092.04 196.99 1077.79 229.27 1037.61 229.32 1037.61 229.32 974.74 229.32 945.05 296.55 944.88 296.95 974.74 364.58 1057.65 364.58 1077.8 364.58 1092.08 396.91 1092.04 396.99 1092.04 396.99 1077.79 429.27 1037.61 429.32 1037.61 429.32 974.74 429.32 945.05 496.55 944.88 496.95 974.74 564.58 1057.65 564.58 1077.8 564.58 1092.08 596.91 1092.04 596.99 1092.04 596.99 1077.79 629.27 1037.61 629.32 1037.61 629.32 974.74 629.32 945.05 696.55 944.88 696.95 974.74 764.58 1057.65 764.58 1077.8 764.58 1090.72 793.84 1092.91 793.84 1079.1 762.56 1038.23 762.58 976.04 762.58 947.06 696.95 976.04 631.32 1037.13 631.32 1037.13 631.32 1079.1 631.26 1094.23 596.99 1094.22 596.99 1094.26 596.91 1079.1 562.56 1038.23 562.58 976.04 562.58 947.06 496.95 976.04 431.32 1037.13 431.32 1037.13 431.32 1079.1 431.26 1094.23 396.99 1094.22 396.99 1094.26 396.91 1079.1 362.56 1038.23 362.58 976.04 362.58 947.06 296.95 976.04 231.32 1037.13 231.32 1037.13 231.32 1079.1 231.26 1094.23 196.99 1094.22 196.99 1094.26 196.91 1079.1 162.56 1038.23 162.58 976.04 162.58 947.06 96.95 976.04 31.32 1037.13 31.32 1037.13 31.32 1079.1 31.27 1092.09 1.84 1089.9 1.84 1077.79 29.27"/><polygon class="cls-2" points="724.23 12.53 723.58 14.01 723.58 14.01 702.15 62.55 640.31 62.56 640.31 63.56 640.31 62.56 599.09 62.6 583.92 96.95 599.09 131.3 640.91 131.3 702.06 131.3 724.23 181.51 724.23 181.42 731.09 196.94 731.07 196.99 724.23 212.47 724.23 212.53 723.58 214.01 723.58 214.01 702.15 262.55 640.31 262.56 640.31 263.56 640.31 262.56 599.09 262.61 583.92 296.95 599.09 331.3 640.91 331.3 702.06 331.3 724.23 381.51 724.23 381.42 731.09 396.94 731.07 396.99 724.23 412.47 724.23 412.53 723.58 414.01 723.58 414.01 702.15 462.55 640.31 462.56 640.31 463.56 640.31 462.56 599.09 462.61 583.92 496.95 599.09 531.3 640.91 531.3 702.06 531.3 724.23 581.51 724.23 581.42 731.09 596.94 731.07 596.99 724.23 612.47 724.23 612.53 723.58 614.01 723.58 614.01 702.15 662.55 640.31 662.56 640.31 663.56 640.31 662.56 599.09 662.61 583.92 696.95 599.09 731.3 640.91 731.3 702.06 731.3 724.23 781.51 724.23 781.42 729.72 793.84 731.91 793.84 724.23 776.47 724.23 776.56 703.62 729.87 703.36 729.27 620.45 729.27 620.45 729.3 600.39 729.3 586.11 696.95 600.39 664.6 640.31 664.56 703.45 664.55 724.23 617.48 724.23 617.42 733.1 597.35 733.25 596.99 733.27 596.94 724.23 576.47 724.23 576.56 703.62 529.87 703.36 529.27 620.45 529.27 620.45 529.3 600.39 529.3 586.11 496.95 600.39 464.6 640.31 464.56 703.45 464.55 724.23 417.48 724.23 417.42 733.1 397.35 733.25 396.99 733.27 396.94 724.23 376.47 724.23 376.56 703.62 329.87 703.36 329.27 620.45 329.27 620.45 329.3 600.39 329.3 586.11 296.95 600.39 264.6 640.31 264.56 703.45 264.55 724.23 217.48 724.23 217.42 733.1 197.35 733.25 196.99 733.27 196.94 724.23 176.47 724.23 176.56 703.62 129.87 703.36 129.27 620.45 129.27 620.45 129.3 600.39 129.3 586.11 96.95 600.39 64.6 640.31 64.56 703.45 64.55 724.23 17.48 724.23 17.42 731.11 1.84 728.92 1.84 724.23 12.47 724.23 12.53"/><polygon class="cls-2" points="889.97 45.9 828.88 45.97 786.91 45.97 786.65 46.56 786.65 46.56 764.58 96.55 764.4 96.95 786.91 147.93 849.27 147.93 889.75 147.93 889.75 147.92 889.97 147.92 911.6 196.91 911.56 196.99 911.57 196.99 889.97 245.9 828.88 245.97 786.91 245.97 786.65 246.56 786.65 246.56 764.58 296.55 764.4 296.95 786.91 347.93 849.27 347.93 889.75 347.93 889.75 347.92 889.97 347.92 911.6 396.91 911.56 396.99 911.57 396.99 889.97 445.9 828.88 445.97 786.91 445.97 786.65 446.56 786.65 446.56 764.58 496.55 764.4 496.95 786.91 547.93 849.27 547.93 889.75 547.93 889.75 547.92 889.97 547.92 911.6 596.91 911.56 596.99 911.57 596.99 889.97 645.9 828.88 645.97 786.91 645.97 786.65 646.56 786.65 646.56 764.58 696.55 764.4 696.95 786.91 747.93 849.27 747.93 889.75 747.93 889.75 747.92 889.97 747.92 910.25 793.84 912.43 793.84 891.28 745.92 828.92 745.92 828.92 745.93 788.21 745.93 766.59 696.95 788.21 647.97 849.27 647.97 849.27 647.95 849.27 647.95 849.27 647.97 890.63 647.9 890.63 647.9 891.28 647.9 913.75 596.99 913.75 596.99 913.79 596.91 891.28 545.92 828.92 545.92 828.92 545.93 788.21 545.93 766.59 496.95 788.21 447.97 849.27 447.97 849.27 447.95 849.27 447.95 849.27 447.97 890.63 447.9 890.63 447.9 891.28 447.9 913.75 396.99 913.75 396.99 913.79 396.91 891.28 345.92 828.92 345.92 828.92 345.93 788.21 345.93 766.59 296.95 788.21 247.97 849.27 247.97 849.27 247.95 849.27 247.95 849.27 247.97 890.63 247.9 890.63 247.9 891.28 247.9 913.75 196.99 913.75 196.99 913.79 196.91 891.28 145.92 828.92 145.92 828.92 145.93 788.21 145.93 766.59 96.95 788.21 47.97 849.27 47.97 849.27 47.95 849.27 47.95 849.27 47.97 890.63 47.9 890.63 47.9 891.28 47.9 911.61 1.84 909.43 1.84 889.97 45.9"/><polygon class="cls-2" points="1065.63 12.59 1046.85 12.61 1045.67 12.61 1045.67 12.61 962.45 12.71 925.58 96.2 924.23 96.2 822.37 96.2 822.37 98.2 924.23 98.2 925.58 98.2 962.45 181.7 1047.58 181.31 1065.63 181.23 1072.55 196.92 1072.52 196.99 1065.63 212.59 1046.85 212.61 1045.67 212.61 1045.67 212.61 962.45 212.71 925.58 296.2 924.23 296.2 822.37 296.2 822.37 298.2 924.23 298.2 925.58 298.2 962.45 381.7 1047.58 381.31 1065.63 381.23 1072.55 396.92 1072.52 396.99 1065.63 412.59 1046.85 412.61 1045.67 412.61 1045.67 412.61 962.45 412.71 925.58 496.2 924.23 496.2 822.37 496.2 822.37 498.2 924.23 498.2 925.58 498.2 962.45 581.7 1047.58 581.31 1065.63 581.23 1072.55 596.92 1072.52 596.99 1065.63 612.59 1046.85 612.61 1045.67 612.61 1045.67 612.61 962.45 612.71 925.58 696.2 924.23 696.2 822.37 696.2 822.37 698.2 924.23 698.2 925.58 698.2 962.45 781.7 1047.58 781.31 1065.63 781.23 1071.19 793.84 1073.38 793.84 1066.92 779.23 1065.92 779.23 1065.92 779.23 1047.75 779.31 1046.01 779.32 963.75 779.69 927.33 697.2 963.75 614.71 1046.77 614.61 1066.93 614.61 1074.7 596.99 1074.74 596.92 1066.92 579.23 1065.92 579.23 1065.92 579.23 1047.75 579.31 1046.01 579.32 963.75 579.69 927.33 497.2 963.75 414.7 1046.77 414.61 1066.93 414.61 1074.7 396.99 1074.74 396.92 1066.92 379.23 1065.92 379.23 1065.92 379.23 1047.75 379.31 1046.01 379.32 963.75 379.69 927.33 297.2 963.75 214.71 1046.77 214.61 1066.93 214.61 1074.7 196.99 1074.74 196.92 1066.92 179.23 1065.92 179.23 1065.92 179.23 1047.75 179.31 1046.01 179.32 963.75 179.69 927.33 97.2 963.75 14.71 1046.77 14.61 1066.93 14.61 1072.56 1.84 1070.38 1.84 1065.63 12.59"/><polygon class="cls-2" points="924.23 56.75 914.34 79.17 913.4 79.17 811.91 79.26 811.26 79.26 803.45 96.95 811.26 114.64 831.79 114.64 914.24 114.66 924.23 137.29 924.23 137.2 950.61 196.94 950.59 196.99 950.6 196.99 924.23 256.72 924.23 256.75 914.34 279.17 913.4 279.17 811.91 279.26 811.26 279.26 803.45 296.95 811.26 314.64 831.79 314.64 914.24 314.66 924.23 337.29 924.23 337.2 950.61 396.94 950.59 396.99 950.6 396.99 924.23 456.72 924.23 456.75 914.34 479.17 913.4 479.17 811.91 479.26 811.26 479.26 803.45 496.95 811.26 514.64 831.79 514.64 914.24 514.66 924.23 537.29 924.23 537.2 950.61 596.94 950.59 596.99 950.6 596.99 924.23 656.72 924.23 656.75 914.34 679.16 913.4 679.17 811.91 679.26 811.26 679.26 803.45 696.95 811.26 714.64 831.79 714.64 914.24 714.66 924.23 737.29 924.23 737.2 949.24 793.84 951.43 793.84 924.23 732.25 924.23 732.34 915.81 713.26 915.52 712.66 832.51 712.64 812.56 712.64 805.63 696.95 812.56 681.26 832.51 681.26 832.51 681.24 832.52 681.24 832.52 681.26 914.99 681.16 915.64 681.16 924.23 661.7 924.23 661.67 952.37 597.95 1054.48 597.95 1054.48 597.94 1054.48 597.94 1054.48 596.99 1054.47 596.99 1054.47 595.94 952.36 595.94 924.23 532.25 924.23 532.34 915.81 513.26 915.52 512.66 832.51 512.64 812.56 512.64 805.63 496.95 812.56 481.26 832.51 481.26 832.51 481.24 832.52 481.24 832.52 481.26 914.99 481.16 915.64 481.16 924.23 461.7 924.23 461.67 952.37 397.95 1054.48 397.95 1054.48 397.94 1054.48 397.94 1054.48 396.99 1054.47 396.99 1054.47 395.94 952.36 395.94 924.23 332.25 924.23 332.34 915.81 313.26 915.52 312.66 832.51 312.64 812.56 312.64 805.63 296.95 812.56 281.26 832.51 281.26 832.51 281.24 832.52 281.24 832.52 281.26 914.99 281.16 915.64 281.16 924.23 261.7 924.23 261.67 952.37 197.95 1054.48 197.95 1054.48 197.94 1054.48 197.94 1054.48 196.99 1054.47 196.99 1054.47 195.94 952.36 195.94 924.23 132.25 924.23 132.34 915.81 113.26 915.52 112.66 832.51 112.64 812.56 112.64 805.63 96.95 812.56 81.26 832.51 81.26 832.51 81.24 832.52 81.24 832.52 81.26 914.99 81.16 915.64 81.16 924.23 61.7 924.23 61.67 950.65 1.84 948.46 1.84 924.23 56.72 924.23 56.75"/><polygon class="cls-2" points="924.23 12.53 923.58 14.01 923.58 14.01 902.15 62.55 840.31 62.56 840.31 63.56 840.31 62.56 799.09 62.6 783.92 96.95 799.09 131.3 840.91 131.3 902.06 131.3 924.23 181.51 924.23 181.42 931.09 196.94 931.07 196.99 924.23 212.47 924.23 212.53 923.58 214.01 923.58 214.01 902.15 262.55 840.31 262.56 840.31 263.56 840.31 262.56 799.09 262.61 783.92 296.95 799.09 331.3 840.91 331.3 902.06 331.3 924.23 381.51 924.23 381.42 931.09 396.94 931.07 396.99 924.23 412.47 924.23 412.53 923.58 414.01 923.58 414.01 902.15 462.55 840.31 462.56 840.31 463.56 840.31 462.56 799.09 462.61 783.92 496.95 799.09 531.3 840.91 531.3 902.06 531.3 924.23 581.51 924.23 581.42 931.09 596.94 931.07 596.99 924.23 612.47 924.23 612.53 923.58 614.01 923.58 614.01 902.15 662.55 840.31 662.56 840.31 663.56 840.31 662.56 799.09 662.61 783.92 696.95 799.09 731.3 840.91 731.3 902.06 731.3 924.23 781.51 924.23 781.42 929.72 793.84 931.91 793.84 924.23 776.47 924.23 776.56 903.62 729.87 903.36 729.27 820.45 729.27 820.45 729.3 800.39 729.3 786.11 696.95 800.39 664.6 840.31 664.56 903.45 664.55 924.23 617.48 924.23 617.42 933.1 597.35 933.25 596.99 933.27 596.94 924.23 576.47 924.23 576.56 903.62 529.87 903.36 529.27 820.45 529.27 820.45 529.3 800.39 529.3 786.11 496.95 800.39 464.6 840.31 464.56 903.45 464.55 924.23 417.48 924.23 417.42 933.1 397.35 933.25 396.99 933.27 396.94 924.23 376.47 924.23 376.56 903.62 329.87 903.36 329.27 820.45 329.27 820.45 329.3 800.39 329.3 786.11 296.95 800.39 264.6 840.31 264.56 903.45 264.55 924.23 217.48 924.23 217.42 933.1 197.35 933.25 196.99 933.27 196.94 924.23 176.47 924.23 176.56 903.62 129.87 903.36 129.27 820.45 129.27 820.45 129.3 800.39 129.3 786.11 96.95 800.39 64.6 840.31 64.56 903.45 64.55 924.23 17.48 924.23 17.42 931.11 1.84 928.92 1.84 924.23 12.47 924.23 12.53"/><polygon class="cls-2" points="865.63 12.59 846.85 12.61 845.67 12.61 845.67 12.61 762.45 12.71 725.58 96.2 724.23 96.2 622.37 96.2 622.37 98.2 724.23 98.2 725.58 98.2 762.45 181.7 847.58 181.31 865.63 181.23 872.55 196.92 872.52 196.99 865.63 212.59 846.85 212.61 845.67 212.61 845.67 212.61 762.45 212.71 725.58 296.2 724.23 296.2 622.37 296.2 622.37 298.2 724.23 298.2 725.58 298.2 762.45 381.7 847.58 381.31 865.63 381.23 872.55 396.92 872.52 396.99 865.63 412.59 846.85 412.61 845.67 412.61 845.67 412.61 762.45 412.71 725.58 496.2 724.23 496.2 622.37 496.2 622.37 498.2 724.23 498.2 725.58 498.2 762.45 581.7 847.58 581.31 865.63 581.23 872.55 596.92 872.52 596.99 865.63 612.59 846.85 612.61 845.67 612.61 845.67 612.61 762.45 612.71 725.58 696.2 724.23 696.2 622.37 696.2 622.37 698.2 724.23 698.2 725.58 698.2 762.45 781.7 847.58 781.31 865.63 781.23 871.19 793.84 873.38 793.84 866.92 779.23 865.92 779.23 865.92 779.23 847.75 779.31 846.01 779.32 763.75 779.69 727.33 697.2 763.75 614.71 846.77 614.61 866.93 614.61 874.71 596.99 874.74 596.92 866.92 579.23 865.92 579.23 865.92 579.23 847.75 579.31 846.01 579.32 763.75 579.69 727.33 497.2 763.75 414.7 846.77 414.61 866.93 414.61 874.71 396.99 874.74 396.92 866.92 379.23 865.92 379.23 865.92 379.23 847.75 379.31 846.01 379.32 763.75 379.69 727.33 297.2 763.75 214.71 846.77 214.61 866.93 214.61 874.71 196.99 874.74 196.92 866.92 179.23 865.92 179.23 865.92 179.23 847.75 179.31 846.01 179.32 763.75 179.69 727.33 97.2 763.75 14.71 846.77 14.61 866.93 14.61 872.56 1.84 870.38 1.84 865.63 12.59"/><rect class="cls-2" x="1222.37" y="496.2" width="2.45" height="2"/><polygon class="cls-2" points="1211.91 279.26 1211.26 279.26 1203.45 296.95 1211.26 314.64 1224.82 314.64 1224.82 312.64 1212.56 312.64 1205.63 296.95 1212.56 281.26 1224.82 281.26 1224.82 279.25 1211.91 279.26"/><polygon class="cls-2" points="1211.91 479.26 1211.26 479.26 1203.45 496.95 1211.26 514.64 1224.82 514.64 1224.82 512.64 1212.56 512.64 1205.63 496.95 1212.56 481.26 1224.82 481.26 1224.82 479.25 1211.91 479.26"/><rect class="cls-2" x="1222.37" y="696.2" width="2.45" height="2"/><polygon class="cls-2" points="1211.91 679.26 1211.26 679.26 1203.45 696.95 1211.26 714.64 1224.82 714.64 1224.82 712.64 1212.56 712.64 1205.63 696.95 1212.56 681.26 1224.82 681.26 1224.82 679.25 1211.91 679.26"/><rect class="cls-2" x="1222.37" y="296.2" width="2.45" height="2"/><rect class="cls-2" x="1222.37" y="96.2" width="2.45" height="2"/><polygon class="cls-2" points="1211.91 79.26 1211.26 79.26 1203.45 96.95 1211.26 114.64 1224.82 114.64 1224.82 112.64 1212.56 112.64 1205.63 96.95 1212.56 81.26 1224.82 81.26 1224.82 79.25 1211.91 79.26"/><polygon class="cls-2" points="1186.65 446.56 1186.65 446.56 1164.58 496.55 1164.4 496.95 1186.91 547.93 1224.82 547.93 1224.82 545.93 1188.21 545.93 1166.59 496.95 1188.21 447.97 1224.82 447.97 1224.82 445.97 1186.91 445.97 1186.65 446.56"/><polygon class="cls-2" points="1183.92 96.95 1199.09 131.3 1224.82 131.3 1224.82 129.27 1220.44 129.27 1220.44 129.3 1200.39 129.3 1186.11 96.95 1200.39 64.6 1224.82 64.58 1224.82 62.58 1199.09 62.6 1183.92 96.95"/><polygon class="cls-2" points="1186.65 246.56 1186.65 246.56 1164.58 296.55 1164.4 296.95 1186.91 347.93 1224.82 347.93 1224.82 345.93 1188.21 345.93 1166.59 296.95 1188.21 247.97 1224.82 247.97 1224.82 245.97 1186.91 245.97 1186.65 246.56"/><polygon class="cls-2" points="1183.92 296.95 1199.09 331.3 1224.82 331.3 1224.82 329.27 1220.44 329.27 1220.44 329.3 1200.39 329.3 1186.11 296.95 1200.39 264.6 1224.82 264.58 1224.82 262.58 1199.09 262.61 1183.92 296.95"/><polygon class="cls-2" points="1186.65 46.56 1186.65 46.56 1164.58 96.55 1164.4 96.95 1186.91 147.93 1224.82 147.93 1224.82 145.93 1188.21 145.93 1166.59 96.95 1188.21 47.97 1224.82 47.97 1224.82 45.97 1186.91 45.97 1186.65 46.56"/><polygon class="cls-2" points="1163.75 579.69 1127.33 497.2 1163.75 414.7 1224.82 414.63 1224.82 412.64 1162.45 412.71 1125.58 496.2 1124.23 496.2 1022.37 496.2 1022.37 498.2 1124.23 498.2 1125.58 498.2 1162.45 581.7 1224.82 581.42 1224.82 579.42 1163.75 579.69"/><polygon class="cls-2" points="1163.75 779.69 1127.33 697.2 1163.75 614.71 1224.82 614.63 1224.82 612.64 1162.45 612.71 1125.58 696.2 1124.23 696.2 1022.37 696.2 1022.37 698.2 1124.23 698.2 1125.58 698.2 1162.45 781.7 1224.82 781.42 1224.82 779.42 1163.75 779.69"/><polygon class="cls-2" points="1145.05 96.55 1144.88 96.95 1174.74 164.58 1224.82 164.58 1224.82 162.58 1176.04 162.58 1147.06 96.95 1176.04 31.32 1224.82 31.32 1224.82 29.32 1174.74 29.32 1145.05 96.55"/><polygon class="cls-2" points="1163.75 179.69 1127.33 97.2 1163.75 14.71 1224.82 14.63 1224.82 12.64 1162.45 12.71 1125.58 96.2 1124.23 96.2 1022.37 96.2 1022.37 98.2 1124.23 98.2 1125.58 98.2 1162.45 181.7 1224.82 181.42 1224.82 179.42 1163.75 179.69"/><polygon class="cls-2" points="1163.75 379.69 1127.33 297.2 1163.75 214.71 1224.82 214.63 1224.82 212.64 1162.45 212.71 1125.58 296.2 1124.23 296.2 1022.37 296.2 1022.37 298.2 1124.23 298.2 1125.58 298.2 1162.45 381.7 1224.82 381.42 1224.82 379.42 1163.75 379.69"/><polygon class="cls-2" points="0.82 531.3 40.91 531.3 102.06 531.3 124.23 581.51 124.23 581.42 131.09 596.94 131.07 596.99 124.23 612.47 124.23 612.53 123.58 614.01 123.58 614.01 102.15 662.55 40.31 662.56 40.31 663.56 40.31 662.56 0.82 662.6 0.82 664.6 40.31 664.56 103.45 664.55 124.23 617.48 124.23 617.42 133.1 597.35 133.25 596.99 133.27 596.94 124.23 576.47 124.23 576.56 103.62 529.87 103.36 529.27 20.45 529.27 20.45 529.3 0.82 529.3 0.82 531.3"/><polygon class="cls-2" points="0.82 447.97 49.27 447.97 49.27 447.95 49.27 447.95 49.27 447.97 90.63 447.9 90.63 447.9 91.28 447.9 113.75 396.99 113.75 396.99 113.79 396.91 91.28 345.92 28.92 345.92 28.92 345.93 0.82 345.93 0.82 347.93 49.27 347.93 89.75 347.93 89.75 347.92 89.97 347.92 111.6 396.91 111.56 396.99 111.57 396.99 89.97 445.9 28.89 445.97 0.82 445.97 0.82 447.97"/><polygon class="cls-2" points="77.8 164.58 92.08 196.91 92.04 196.99 92.04 196.99 77.79 229.27 37.6 229.32 37.6 229.32 0.82 229.32 0.82 231.32 37.13 231.32 37.13 231.32 79.1 231.26 94.23 196.99 94.22 196.99 94.26 196.91 79.1 162.56 38.23 162.58 0.82 162.58 0.82 164.58 57.65 164.58 77.8 164.58"/><polygon class="cls-2" points="0.82 247.97 49.27 247.97 49.27 247.95 49.27 247.95 49.27 247.97 90.63 247.9 90.63 247.9 91.28 247.9 113.75 196.99 113.75 196.99 113.79 196.91 91.28 145.92 28.92 145.92 28.92 145.93 0.82 145.93 0.82 147.93 49.27 147.93 89.75 147.93 89.75 147.92 89.97 147.92 111.6 196.91 111.56 196.99 111.57 196.99 89.97 245.9 28.89 245.97 0.82 245.97 0.82 247.97"/><polygon class="cls-2" points="0.82 647.97 49.27 647.97 49.27 647.95 49.27 647.95 49.27 647.97 90.63 647.9 90.63 647.9 91.28 647.9 113.75 596.99 113.75 596.99 113.79 596.91 91.28 545.92 28.92 545.92 28.92 545.93 0.82 545.93 0.82 547.93 49.27 547.93 89.75 547.93 89.75 547.92 89.97 547.92 111.6 596.91 111.56 596.99 111.57 596.99 89.97 645.9 28.89 645.97 0.82 645.97 0.82 647.97"/><polygon class="cls-2" points="54.48 196.99 54.47 196.99 54.47 195.94 0.82 195.94 0.82 197.95 54.48 197.95 54.48 197.94 54.48 197.94 54.48 196.99"/><polygon class="cls-2" points="46.77 214.61 66.93 214.61 74.7 196.99 74.74 196.92 66.92 179.23 65.92 179.23 65.92 179.23 47.75 179.31 46.01 179.32 0.82 179.53 0.82 181.53 47.58 181.31 65.63 181.23 72.55 196.92 72.52 196.99 65.63 212.59 46.85 212.61 45.67 212.61 45.67 212.61 0.82 212.66 0.82 214.66 46.77 214.61"/><polygon class="cls-2" points="0.82 331.3 40.91 331.3 102.06 331.3 124.23 381.51 124.23 381.42 131.09 396.94 131.07 396.99 124.23 412.47 124.23 412.53 123.58 414.01 123.58 414.01 102.15 462.55 40.31 462.56 40.31 463.56 40.31 462.56 0.82 462.6 0.82 464.6 40.31 464.56 103.45 464.55 124.23 417.48 124.23 417.42 133.1 397.35 133.25 396.99 133.27 396.94 124.23 376.47 124.23 376.56 103.62 329.87 103.36 329.27 20.45 329.27 20.45 329.3 0.82 329.3 0.82 331.3"/><polygon class="cls-2" points="0.82 131.3 40.91 131.3 102.06 131.3 124.23 181.51 124.23 181.42 131.09 196.94 131.07 196.99 124.23 212.47 124.23 212.53 123.58 214.01 123.58 214.01 102.15 262.55 40.31 262.56 40.31 263.56 40.31 262.56 0.82 262.6 0.82 264.6 40.31 264.56 103.45 264.55 124.23 217.48 124.23 217.42 133.1 197.35 133.25 196.99 133.27 196.94 124.23 176.47 124.23 176.56 103.62 129.87 103.36 129.27 20.45 129.27 20.45 129.3 0.82 129.3 0.82 131.3"/><polygon class="cls-2" points="77.8 564.58 92.08 596.91 92.04 596.99 92.04 596.99 77.79 629.27 37.6 629.32 37.6 629.32 0.82 629.32 0.82 631.32 37.13 631.32 37.13 631.32 79.1 631.26 94.23 596.99 94.22 596.99 94.26 596.91 79.1 562.56 38.23 562.58 0.82 562.58 0.82 564.58 57.65 564.58 77.8 564.58"/><polygon class="cls-2" points="89.97 45.9 28.89 45.97 0.82 45.97 0.82 47.97 49.27 47.97 49.27 47.95 49.27 47.95 49.27 47.97 90.63 47.9 90.63 47.9 91.28 47.9 111.61 1.84 109.43 1.84 89.97 45.9"/><polygon class="cls-2" points="124.23 12.53 123.58 14.01 123.58 14.01 102.15 62.55 40.31 62.56 40.31 63.56 40.31 62.56 0.82 62.6 0.82 64.6 40.31 64.56 103.45 64.55 124.23 17.48 124.23 17.42 131.11 1.84 128.92 1.84 124.23 12.47 124.23 12.53"/><polygon class="cls-2" points="77.79 29.27 37.6 29.32 37.6 29.32 0.82 29.32 0.82 31.32 37.13 31.32 37.13 31.32 79.1 31.27 92.09 1.84 89.9 1.84 77.79 29.27"/><polygon class="cls-2" points="677.79 29.27 637.61 29.32 637.61 29.32 574.74 29.32 545.05 96.55 544.88 96.95 574.74 164.58 657.65 164.58 677.8 164.58 692.08 196.91 692.04 196.99 692.04 196.99 677.79 229.27 637.61 229.32 637.61 229.32 574.74 229.32 545.05 296.55 544.88 296.95 574.74 364.58 657.65 364.58 677.8 364.58 692.08 396.91 692.04 396.99 692.04 396.99 677.79 429.27 637.61 429.32 637.61 429.32 574.74 429.32 545.05 496.55 544.88 496.95 574.74 564.58 657.65 564.58 677.8 564.58 692.08 596.91 692.04 596.99 692.04 596.99 677.79 629.27 637.61 629.32 637.61 629.32 574.74 629.32 545.05 696.55 544.88 696.95 574.74 764.58 657.65 764.58 677.8 764.58 690.72 793.84 692.91 793.84 679.1 762.56 638.23 762.58 576.04 762.58 547.06 696.95 576.04 631.32 637.13 631.32 637.13 631.32 679.1 631.26 694.23 596.99 694.22 596.99 694.26 596.91 679.1 562.56 638.23 562.58 576.04 562.58 547.06 496.95 576.04 431.32 637.13 431.32 637.13 431.32 679.1 431.26 694.23 396.99 694.22 396.99 694.26 396.91 679.1 362.56 638.23 362.58 576.04 362.58 547.06 296.95 576.04 231.32 637.13 231.32 637.13 231.32 679.1 231.26 694.23 196.99 694.22 196.99 694.26 196.91 679.1 162.56 638.23 162.58 576.04 162.58 547.06 96.95 576.04 31.32 637.13 31.32 637.13 31.32 679.1 31.27 692.09 1.84 689.9 1.84 677.79 29.27"/><polygon class="cls-2" points="91.28 745.92 28.92 745.92 28.92 745.93 0.82 745.93 0.82 747.93 49.27 747.93 89.75 747.93 89.75 747.92 89.97 747.92 110.25 793.84 112.43 793.84 91.28 745.92"/><polygon class="cls-2" points="46.77 414.61 66.93 414.61 74.7 396.99 74.74 396.92 66.92 379.23 65.92 379.23 65.92 379.23 47.75 379.31 46.01 379.32 0.82 379.52 0.82 381.52 47.58 381.31 65.63 381.23 72.55 396.92 72.52 396.99 65.63 412.59 46.85 412.61 45.67 412.61 45.67 412.61 0.82 412.66 0.82 414.66 46.77 414.61"/><polygon class="cls-2" points="77.8 364.58 92.08 396.91 92.04 396.99 92.04 396.99 77.79 429.27 37.6 429.32 37.6 429.32 0.82 429.32 0.82 431.32 37.13 431.32 37.13 431.32 79.1 431.26 94.23 396.99 94.22 396.99 94.26 396.91 79.1 362.56 38.23 362.58 0.82 362.58 0.82 364.58 57.65 364.58 77.8 364.58"/><polygon class="cls-2" points="131.91 793.84 124.23 776.47 124.23 776.56 103.62 729.87 103.36 729.27 20.45 729.27 20.45 729.3 0.82 729.3 0.82 731.3 40.91 731.3 102.06 731.3 124.23 781.51 124.23 781.42 129.72 793.84 131.91 793.84"/><polygon class="cls-2" points="65.63 12.59 46.85 12.61 45.67 12.61 45.67 12.61 0.82 12.66 0.82 14.66 46.77 14.61 66.93 14.61 72.56 1.84 70.38 1.84 65.63 12.59"/><polygon class="cls-2" points="324.23 12.53 323.58 14.01 323.58 14.01 302.15 62.55 240.31 62.56 240.31 63.56 240.31 62.56 199.09 62.6 183.92 96.95 199.09 131.3 240.91 131.3 302.06 131.3 324.23 181.51 324.23 181.42 331.09 196.94 331.07 196.99 324.23 212.47 324.23 212.53 323.58 214.01 323.58 214.01 302.15 262.55 240.31 262.56 240.31 263.56 240.31 262.56 199.09 262.61 183.92 296.95 199.09 331.3 240.91 331.3 302.06 331.3 324.23 381.51 324.23 381.42 331.09 396.94 331.07 396.99 324.23 412.47 324.23 412.53 323.58 414.01 323.58 414.01 302.15 462.55 240.31 462.56 240.31 463.56 240.31 462.56 199.09 462.61 183.92 496.95 199.09 531.3 240.91 531.3 302.06 531.3 324.23 581.51 324.23 581.42 331.09 596.94 331.07 596.99 324.23 612.47 324.23 612.53 323.58 614.01 323.58 614.01 302.15 662.55 240.31 662.56 240.31 663.56 240.31 662.56 199.09 662.61 183.92 696.95 199.09 731.3 240.91 731.3 302.06 731.3 324.23 781.51 324.23 781.42 329.72 793.84 331.91 793.84 324.23 776.47 324.23 776.56 303.62 729.87 303.36 729.27 220.44 729.27 220.44 729.3 200.39 729.3 186.11 696.95 200.39 664.6 240.31 664.56 303.45 664.55 324.23 617.48 324.23 617.42 333.1 597.35 333.25 596.99 333.27 596.94 324.23 576.47 324.23 576.56 303.62 529.87 303.36 529.27 220.44 529.27 220.44 529.3 200.39 529.3 186.11 496.95 200.39 464.6 240.31 464.56 303.45 464.55 324.23 417.48 324.23 417.42 333.1 397.35 333.25 396.99 333.27 396.94 324.23 376.47 324.23 376.56 303.62 329.87 303.36 329.27 220.44 329.27 220.44 329.3 200.39 329.3 186.11 296.95 200.39 264.6 240.31 264.56 303.45 264.55 324.23 217.48 324.23 217.42 333.1 197.35 333.25 196.99 333.27 196.94 324.23 176.47 324.23 176.56 303.62 129.87 303.36 129.27 220.44 129.27 220.44 129.3 200.39 129.3 186.11 96.95 200.39 64.6 240.31 64.56 303.45 64.55 324.23 17.48 324.23 17.42 331.11 1.84 328.92 1.84 324.23 12.47 324.23 12.53"/><polygon class="cls-2" points="489.97 45.9 428.88 45.97 386.91 45.97 386.65 46.56 386.65 46.56 364.58 96.55 364.4 96.95 386.91 147.93 449.27 147.93 489.75 147.93 489.75 147.92 489.97 147.92 511.6 196.91 511.56 196.99 511.57 196.99 489.97 245.9 428.88 245.97 386.91 245.97 386.65 246.56 386.65 246.56 364.58 296.55 364.4 296.95 386.91 347.93 449.27 347.93 489.75 347.93 489.75 347.92 489.97 347.92 511.6 396.91 511.56 396.99 511.57 396.99 489.97 445.9 428.88 445.97 386.91 445.97 386.65 446.56 386.65 446.56 364.58 496.55 364.4 496.95 386.91 547.93 449.27 547.93 489.75 547.93 489.75 547.92 489.97 547.92 511.6 596.91 511.56 596.99 511.57 596.99 489.97 645.9 428.88 645.97 386.91 645.97 386.65 646.56 386.65 646.56 364.58 696.55 364.4 696.95 386.91 747.93 449.27 747.93 489.75 747.93 489.75 747.92 489.97 747.92 510.25 793.84 512.43 793.84 491.28 745.92 428.92 745.92 428.92 745.93 388.21 745.93 366.59 696.95 388.21 647.97 449.27 647.97 449.27 647.95 449.27 647.95 449.27 647.97 490.63 647.9 490.63 647.9 491.28 647.9 513.75 596.99 513.75 596.99 513.79 596.91 491.28 545.92 428.92 545.92 428.92 545.93 388.21 545.93 366.59 496.95 388.21 447.97 449.27 447.97 449.27 447.95 449.27 447.95 449.27 447.97 490.63 447.9 490.63 447.9 491.28 447.9 513.75 396.99 513.75 396.99 513.79 396.91 491.28 345.92 428.92 345.92 428.92 345.93 388.21 345.93 366.59 296.95 388.21 247.97 449.27 247.97 449.27 247.95 449.27 247.95 449.27 247.97 490.63 247.9 490.63 247.9 491.28 247.9 513.75 196.99 513.75 196.99 513.79 196.91 491.28 145.92 428.92 145.92 428.92 145.93 388.21 145.93 366.59 96.95 388.21 47.97 449.27 47.97 449.27 47.95 449.27 47.95 449.27 47.97 490.63 47.9 490.63 47.9 491.28 47.9 511.61 1.84 509.43 1.84 489.97 45.9"/><polygon class="cls-2" points="477.79 29.27 437.61 29.32 437.61 29.32 374.74 29.32 345.05 96.55 344.88 96.95 374.74 164.58 457.65 164.58 477.8 164.58 492.08 196.91 492.04 196.99 492.04 196.99 477.79 229.27 437.61 229.32 437.61 229.32 374.74 229.32 345.05 296.55 344.88 296.95 374.74 364.58 457.65 364.58 477.8 364.58 492.08 396.91 492.04 396.99 492.04 396.99 477.79 429.27 437.61 429.32 437.61 429.32 374.74 429.32 345.05 496.55 344.88 496.95 374.74 564.58 457.65 564.58 477.8 564.58 492.08 596.91 492.04 596.99 492.04 596.99 477.79 629.27 437.61 629.32 437.61 629.32 374.74 629.32 345.05 696.55 344.88 696.95 374.74 764.58 457.65 764.58 477.8 764.58 490.72 793.84 492.91 793.84 479.1 762.56 438.23 762.58 376.04 762.58 347.06 696.95 376.04 631.32 437.13 631.32 437.13 631.32 479.1 631.26 494.23 596.99 494.22 596.99 494.26 596.91 479.1 562.56 438.23 562.58 376.04 562.58 347.06 496.95 376.04 431.32 437.13 431.32 437.13 431.32 479.1 431.26 494.23 396.99 494.22 396.99 494.26 396.91 479.1 362.56 438.23 362.58 376.04 362.58 347.06 296.95 376.04 231.32 437.13 231.32 437.13 231.32 479.1 231.26 494.23 196.99 494.22 196.99 494.26 196.91 479.1 162.56 438.23 162.58 376.04 162.58 347.06 96.95 376.04 31.32 437.13 31.32 437.13 31.32 479.1 31.27 492.09 1.84 489.9 1.84 477.79 29.27"/><polygon class="cls-2" points="324.23 56.75 314.33 79.17 313.4 79.17 211.91 79.26 211.26 79.26 203.45 96.95 211.26 114.64 231.79 114.64 314.24 114.66 324.23 137.29 324.23 137.2 350.61 196.94 350.59 196.99 350.6 196.99 324.23 256.72 324.23 256.75 314.33 279.17 313.4 279.17 211.91 279.26 211.26 279.26 203.45 296.95 211.26 314.64 231.79 314.64 314.24 314.66 324.23 337.29 324.23 337.2 350.61 396.94 350.59 396.99 350.6 396.99 324.23 456.72 324.23 456.75 314.33 479.17 313.4 479.17 211.91 479.26 211.26 479.26 203.45 496.95 211.26 514.64 231.79 514.64 314.24 514.66 324.23 537.29 324.23 537.2 350.61 596.94 350.59 596.99 350.6 596.99 324.23 656.72 324.23 656.75 314.33 679.16 313.4 679.17 211.91 679.26 211.26 679.26 203.45 696.95 211.26 714.64 231.79 714.64 314.24 714.66 324.23 737.29 324.23 737.2 349.24 793.84 351.43 793.84 324.23 732.25 324.23 732.34 315.81 713.26 315.52 712.66 232.51 712.64 212.56 712.64 205.63 696.95 212.56 681.26 232.51 681.26 232.51 681.24 232.52 681.24 232.52 681.26 314.99 681.16 315.64 681.16 324.23 661.7 324.23 661.67 352.37 597.95 454.48 597.95 454.48 597.94 454.48 597.94 454.48 596.99 454.47 596.99 454.47 595.94 352.36 595.94 324.23 532.25 324.23 532.34 315.81 513.26 315.52 512.66 232.51 512.64 212.56 512.64 205.63 496.95 212.56 481.26 232.51 481.26 232.51 481.24 232.52 481.24 232.52 481.26 314.99 481.16 315.64 481.16 324.23 461.7 324.23 461.67 352.37 397.95 454.48 397.95 454.48 397.94 454.48 397.94 454.48 396.99 454.47 396.99 454.47 395.94 352.36 395.94 324.23 332.25 324.23 332.34 315.81 313.26 315.52 312.66 232.51 312.64 212.56 312.64 205.63 296.95 212.56 281.26 232.51 281.26 232.51 281.24 232.52 281.24 232.52 281.26 314.99 281.16 315.64 281.16 324.23 261.7 324.23 261.67 352.37 197.95 454.48 197.95 454.48 197.94 454.48 197.94 454.48 196.99 454.47 196.99 454.47 195.94 352.36 195.94 324.23 132.25 324.23 132.34 315.81 113.26 315.52 112.66 232.51 112.64 212.56 112.64 205.63 96.95 212.56 81.26 232.51 81.26 232.51 81.24 232.52 81.24 232.52 81.26 314.99 81.16 315.64 81.16 324.23 61.7 324.23 61.67 350.65 1.84 348.46 1.84 324.23 56.72 324.23 56.75"/><polygon class="cls-2" points="465.63 12.59 446.85 12.61 445.67 12.61 445.67 12.61 362.45 12.71 325.58 96.2 324.23 96.2 222.37 96.2 222.37 98.2 324.23 98.2 325.58 98.2 362.45 181.7 447.58 181.31 465.63 181.23 472.55 196.92 472.52 196.99 465.63 212.59 446.85 212.61 445.67 212.61 445.67 212.61 362.45 212.71 325.58 296.2 324.23 296.2 222.37 296.2 222.37 298.2 324.23 298.2 325.58 298.2 362.45 381.7 447.58 381.31 465.63 381.23 472.55 396.92 472.52 396.99 465.63 412.59 446.85 412.61 445.67 412.61 445.67 412.61 362.45 412.71 325.58 496.2 324.23 496.2 222.37 496.2 222.37 498.2 324.23 498.2 325.58 498.2 362.45 581.7 447.58 581.31 465.63 581.23 472.55 596.92 472.52 596.99 465.63 612.59 446.85 612.61 445.67 612.61 445.67 612.61 362.45 612.71 325.58 696.2 324.23 696.2 222.37 696.2 222.37 698.2 324.23 698.2 325.58 698.2 362.45 781.7 447.58 781.31 465.63 781.23 471.19 793.84 473.38 793.84 466.93 779.23 465.92 779.23 465.92 779.23 447.75 779.31 446.01 779.32 363.75 779.69 327.33 697.2 363.75 614.71 446.77 614.61 466.93 614.61 474.7 596.99 474.74 596.92 466.93 579.23 465.92 579.23 465.92 579.23 447.75 579.31 446.01 579.32 363.75 579.69 327.33 497.2 363.75 414.7 446.77 414.61 466.93 414.61 474.7 396.99 474.74 396.92 466.93 379.23 465.92 379.23 465.92 379.23 447.75 379.31 446.01 379.32 363.75 379.69 327.33 297.2 363.75 214.71 446.77 214.61 466.93 214.61 474.7 196.99 474.74 196.92 466.93 179.23 465.92 179.23 465.92 179.23 447.75 179.31 446.01 179.32 363.75 179.69 327.33 97.2 363.75 14.71 446.77 14.61 466.93 14.61 472.56 1.84 470.38 1.84 465.63 12.59"/><polygon class="cls-2" points="665.63 12.59 646.85 12.61 645.67 12.61 645.67 12.61 562.45 12.71 525.58 96.2 524.23 96.2 422.37 96.2 422.37 98.2 524.23 98.2 525.58 98.2 562.45 181.7 647.58 181.31 665.63 181.23 672.55 196.92 672.52 196.99 665.63 212.59 646.85 212.61 645.67 212.61 645.67 212.61 562.45 212.71 525.58 296.2 524.23 296.2 422.37 296.2 422.37 298.2 524.23 298.2 525.58 298.2 562.45 381.7 647.58 381.31 665.63 381.23 672.55 396.92 672.52 396.99 665.63 412.59 646.85 412.61 645.67 412.61 645.67 412.61 562.45 412.71 525.58 496.2 524.23 496.2 422.37 496.2 422.37 498.2 524.23 498.2 525.58 498.2 562.45 581.7 647.58 581.31 665.63 581.23 672.55 596.92 672.52 596.99 665.63 612.59 646.85 612.61 645.67 612.61 645.67 612.61 562.45 612.71 525.58 696.2 524.23 696.2 422.37 696.2 422.37 698.2 524.23 698.2 525.58 698.2 562.45 781.7 647.58 781.31 665.63 781.23 671.19 793.84 673.38 793.84 666.92 779.23 665.92 779.23 665.92 779.23 647.75 779.31 646.01 779.32 563.75 779.69 527.33 697.2 563.75 614.71 646.77 614.61 666.93 614.61 674.71 596.99 674.74 596.92 666.92 579.23 665.92 579.23 665.92 579.23 647.75 579.31 646.01 579.32 563.75 579.69 527.33 497.2 563.75 414.7 646.77 414.61 666.93 414.61 674.71 396.99 674.74 396.92 666.92 379.23 665.92 379.23 665.92 379.23 647.75 379.31 646.01 379.32 563.75 379.69 527.33 297.2 563.75 214.71 646.77 214.61 666.93 214.61 674.71 196.99 674.74 196.92 666.92 179.23 665.92 179.23 665.92 179.23 647.75 179.31 646.01 179.32 563.75 179.69 527.33 97.2 563.75 14.71 646.77 14.61 666.93 14.61 672.56 1.84 670.38 1.84 665.63 12.59"/><polygon class="cls-2" points="524.23 12.53 523.58 14.01 523.58 14.01 502.15 62.55 440.31 62.56 440.31 63.56 440.31 62.56 399.09 62.6 383.92 96.95 399.09 131.3 440.91 131.3 502.06 131.3 524.23 181.51 524.23 181.42 531.09 196.94 531.07 196.99 524.23 212.47 524.23 212.53 523.58 214.01 523.58 214.01 502.15 262.55 440.31 262.56 440.31 263.56 440.31 262.56 399.09 262.61 383.92 296.95 399.09 331.3 440.91 331.3 502.06 331.3 524.23 381.51 524.23 381.42 531.09 396.94 531.07 396.99 524.23 412.47 524.23 412.53 523.58 414.01 523.58 414.01 502.15 462.55 440.31 462.56 440.31 463.56 440.31 462.56 399.09 462.61 383.92 496.95 399.09 531.3 440.91 531.3 502.06 531.3 524.23 581.51 524.23 581.42 531.09 596.94 531.07 596.99 524.23 612.47 524.23 612.53 523.58 614.01 523.58 614.01 502.15 662.55 440.31 662.56 440.31 663.56 440.31 662.56 399.09 662.61 383.92 696.95 399.09 731.3 440.91 731.3 502.06 731.3 524.23 781.51 524.23 781.42 529.72 793.84 531.91 793.84 524.23 776.47 524.23 776.56 503.62 729.87 503.36 729.27 420.44 729.27 420.44 729.3 400.39 729.3 386.11 696.95 400.39 664.6 440.31 664.56 503.45 664.55 524.23 617.48 524.23 617.42 533.1 597.35 533.25 596.99 533.27 596.94 524.23 576.47 524.23 576.56 503.62 529.87 503.36 529.27 420.44 529.27 420.44 529.3 400.39 529.3 386.11 496.95 400.39 464.6 440.31 464.56 503.45 464.55 524.23 417.48 524.23 417.42 533.1 397.35 533.25 396.99 533.27 396.94 524.23 376.47 524.23 376.56 503.62 329.87 503.36 329.27 420.44 329.27 420.44 329.3 400.39 329.3 386.11 296.95 400.39 264.6 440.31 264.56 503.45 264.55 524.23 217.48 524.23 217.42 533.1 197.35 533.25 196.99 533.27 196.94 524.23 176.47 524.23 176.56 503.62 129.87 503.36 129.27 420.44 129.27 420.44 129.3 400.39 129.3 386.11 96.95 400.39 64.6 440.31 64.56 503.45 64.55 524.23 17.48 524.23 17.42 531.11 1.84 528.92 1.84 524.23 12.47 524.23 12.53"/><polygon class="cls-2" points="524.23 56.75 514.34 79.17 513.4 79.17 411.91 79.26 411.26 79.26 403.45 96.95 411.26 114.64 431.79 114.64 514.24 114.66 524.23 137.29 524.23 137.2 550.61 196.94 550.59 196.99 550.6 196.99 524.23 256.72 524.23 256.75 514.34 279.17 513.4 279.17 411.91 279.26 411.26 279.26 403.45 296.95 411.26 314.64 431.79 314.64 514.24 314.66 524.23 337.29 524.23 337.2 550.61 396.94 550.59 396.99 550.6 396.99 524.23 456.72 524.23 456.75 514.34 479.17 513.4 479.17 411.91 479.26 411.26 479.26 403.45 496.95 411.26 514.64 431.79 514.64 514.24 514.66 524.23 537.29 524.23 537.2 550.61 596.94 550.59 596.99 550.6 596.99 524.23 656.72 524.23 656.75 514.34 679.16 513.4 679.17 411.91 679.26 411.26 679.26 403.45 696.95 411.26 714.64 431.79 714.64 514.24 714.66 524.23 737.29 524.23 737.2 549.24 793.84 551.43 793.84 524.23 732.25 524.23 732.34 515.81 713.26 515.52 712.66 432.51 712.64 412.56 712.64 405.63 696.95 412.56 681.26 432.51 681.26 432.51 681.24 432.52 681.24 432.52 681.26 514.99 681.16 515.64 681.16 524.23 661.7 524.23 661.67 552.37 597.95 654.48 597.95 654.48 597.94 654.48 597.94 654.48 596.99 654.47 596.99 654.47 595.94 552.36 595.94 524.23 532.25 524.23 532.34 515.81 513.26 515.52 512.66 432.51 512.64 412.56 512.64 405.63 496.95 412.56 481.26 432.51 481.26 432.51 481.24 432.52 481.24 432.52 481.26 514.99 481.16 515.64 481.16 524.23 461.7 524.23 461.67 552.37 397.95 654.48 397.95 654.48 397.94 654.48 397.94 654.48 396.99 654.47 396.99 654.47 395.94 552.36 395.94 524.23 332.25 524.23 332.34 515.81 313.26 515.52 312.66 432.51 312.64 412.56 312.64 405.63 296.95 412.56 281.26 432.51 281.26 432.51 281.24 432.52 281.24 432.52 281.26 514.99 281.16 515.64 281.16 524.23 261.7 524.23 261.67 552.37 197.95 654.48 197.95 654.48 197.94 654.48 197.94 654.48 196.99 654.47 196.99 654.47 195.94 552.36 195.94 524.23 132.25 524.23 132.34 515.81 113.26 515.52 112.66 432.51 112.64 412.56 112.64 405.63 96.95 412.56 81.26 432.51 81.26 432.51 81.24 432.52 81.24 432.52 81.26 514.99 81.16 515.64 81.16 524.23 61.7 524.23 61.67 550.65 1.84 548.46 1.84 524.23 56.72 524.23 56.75"/><polygon class="cls-2" points="277.79 29.27 237.6 29.32 237.6 29.32 174.74 29.32 145.05 96.55 144.88 96.95 174.74 164.58 257.65 164.58 277.8 164.58 292.08 196.91 292.04 196.99 292.04 196.99 277.79 229.27 237.6 229.32 237.6 229.32 174.74 229.32 145.05 296.55 144.88 296.95 174.74 364.58 257.65 364.58 277.8 364.58 292.08 396.91 292.04 396.99 292.04 396.99 277.79 429.27 237.6 429.32 237.6 429.32 174.74 429.32 145.05 496.55 144.88 496.95 174.74 564.58 257.65 564.58 277.8 564.58 292.08 596.91 292.04 596.99 292.04 596.99 277.79 629.27 237.6 629.32 237.6 629.32 174.74 629.32 145.05 696.55 144.88 696.95 174.74 764.58 257.65 764.58 277.8 764.58 290.72 793.84 292.91 793.84 279.1 762.56 238.23 762.58 176.04 762.58 147.06 696.95 176.04 631.32 237.13 631.32 237.13 631.32 279.1 631.26 294.23 596.99 294.22 596.99 294.26 596.91 279.1 562.56 238.23 562.58 176.04 562.58 147.06 496.95 176.04 431.32 237.13 431.32 237.13 431.32 279.1 431.26 294.23 396.99 294.22 396.99 294.26 396.91 279.1 362.56 238.23 362.58 176.04 362.58 147.06 296.95 176.04 231.32 237.13 231.32 237.13 231.32 279.1 231.26 294.23 196.99 294.22 196.99 294.26 196.91 279.1 162.56 238.23 162.58 176.04 162.58 147.06 96.95 176.04 31.32 237.13 31.32 237.13 31.32 279.1 31.27 292.09 1.84 289.9 1.84 277.79 29.27"/><polygon class="cls-2" points="54.48 596.99 54.47 596.99 54.47 595.94 0.82 595.94 0.82 597.95 54.48 597.95 54.48 597.94 54.48 597.94 54.48 596.99"/><polygon class="cls-2" points="66.92 779.23 65.92 779.23 65.92 779.23 47.75 779.31 46.01 779.32 0.82 779.52 0.82 781.52 47.58 781.31 65.63 781.23 71.19 793.84 73.38 793.84 66.92 779.23"/><polygon class="cls-2" points="289.97 45.9 228.88 45.97 186.91 45.97 186.65 46.56 186.65 46.56 164.58 96.55 164.4 96.95 186.91 147.93 249.27 147.93 289.75 147.93 289.75 147.92 289.97 147.92 311.6 196.91 311.56 196.99 311.57 196.99 289.97 245.9 228.88 245.97 186.91 245.97 186.65 246.56 186.65 246.56 164.58 296.55 164.4 296.95 186.91 347.93 249.27 347.93 289.75 347.93 289.75 347.92 289.97 347.92 311.6 396.91 311.56 396.99 311.57 396.99 289.97 445.9 228.88 445.97 186.91 445.97 186.65 446.56 186.65 446.56 164.58 496.55 164.4 496.95 186.91 547.93 249.27 547.93 289.75 547.93 289.75 547.92 289.97 547.92 311.6 596.91 311.56 596.99 311.57 596.99 289.97 645.9 228.88 645.97 186.91 645.97 186.65 646.56 186.65 646.56 164.58 696.55 164.4 696.95 186.91 747.93 249.27 747.93 289.75 747.93 289.75 747.92 289.97 747.92 310.25 793.84 312.43 793.84 291.28 745.92 228.92 745.92 228.92 745.93 188.21 745.93 166.59 696.95 188.21 647.97 249.27 647.97 249.27 647.95 249.27 647.95 249.27 647.97 290.63 647.9 290.63 647.9 291.28 647.9 313.75 596.99 313.75 596.99 313.79 596.91 291.28 545.92 228.92 545.92 228.92 545.93 188.21 545.93 166.59 496.95 188.21 447.97 249.27 447.97 249.27 447.95 249.27 447.95 249.27 447.97 290.63 447.9 290.63 447.9 291.28 447.9 313.75 396.99 313.75 396.99 313.79 396.91 291.28 345.92 228.92 345.92 228.92 345.93 188.21 345.93 166.59 296.95 188.21 247.97 249.27 247.97 249.27 247.95 249.27 247.95 249.27 247.97 290.63 247.9 290.63 247.9 291.28 247.9 313.75 196.99 313.75 196.99 313.79 196.91 291.28 145.92 228.92 145.92 228.92 145.93 188.21 145.93 166.59 96.95 188.21 47.97 249.27 47.97 249.27 47.95 249.27 47.95 249.27 47.97 290.63 47.9 290.63 47.9 291.28 47.9 311.61 1.84 309.43 1.84 289.97 45.9"/><polygon class="cls-2" points="46.77 614.61 66.93 614.61 74.7 596.99 74.74 596.92 66.92 579.23 65.92 579.23 65.92 579.23 47.75 579.31 46.01 579.32 0.82 579.52 0.82 581.52 47.58 581.31 65.63 581.23 72.55 596.92 72.52 596.99 65.63 612.59 46.85 612.61 45.67 612.61 45.67 612.61 0.82 612.66 0.82 614.66 46.77 614.61"/><polygon class="cls-2" points="79.1 762.56 38.23 762.58 0.82 762.58 0.82 764.58 57.65 764.58 77.8 764.58 90.72 793.84 92.91 793.84 79.1 762.56"/><polygon class="cls-2" points="54.48 396.99 54.47 396.99 54.47 395.94 0.82 395.94 0.82 397.95 54.48 397.95 54.48 397.94 54.48 397.94 54.48 396.99"/><polygon class="cls-2" points="265.63 12.59 246.85 12.61 245.67 12.61 245.67 12.61 162.45 12.71 125.58 96.2 124.23 96.2 22.37 96.2 22.37 98.2 124.23 98.2 125.58 98.2 162.45 181.7 247.58 181.31 265.63 181.23 272.55 196.92 272.52 196.99 265.63 212.59 246.85 212.61 245.67 212.61 245.67 212.61 162.45 212.71 125.58 296.2 124.23 296.2 22.37 296.2 22.37 298.2 124.23 298.2 125.58 298.2 162.45 381.7 247.58 381.31 265.63 381.23 272.55 396.92 272.52 396.99 265.63 412.59 246.85 412.61 245.67 412.61 245.67 412.61 162.45 412.71 125.58 496.2 124.23 496.2 22.37 496.2 22.37 498.2 124.23 498.2 125.58 498.2 162.45 581.7 247.58 581.31 265.63 581.23 272.55 596.92 272.52 596.99 265.63 612.59 246.85 612.61 245.67 612.61 245.67 612.61 162.45 612.71 125.58 696.2 124.23 696.2 22.37 696.2 22.37 698.2 124.23 698.2 125.58 698.2 162.45 781.7 247.58 781.31 265.63 781.23 271.19 793.84 273.38 793.84 266.93 779.23 265.92 779.23 265.92 779.23 247.75 779.31 246.01 779.32 163.75 779.69 127.33 697.2 163.75 614.71 246.77 614.61 266.93 614.61 274.7 596.99 274.74 596.92 266.93 579.23 265.92 579.23 265.92 579.23 247.75 579.31 246.01 579.32 163.75 579.69 127.33 497.2 163.75 414.7 246.77 414.61 266.93 414.61 274.7 396.99 274.74 396.92 266.93 379.23 265.92 379.23 265.92 379.23 247.75 379.31 246.01 379.32 163.75 379.69 127.33 297.2 163.75 214.71 246.77 214.61 266.93 214.61 274.7 196.99 274.74 196.92 266.93 179.23 265.92 179.23 265.92 179.23 247.75 179.31 246.01 179.32 163.75 179.69 127.33 97.2 163.75 14.71 246.77 14.61 266.93 14.61 272.56 1.84 270.38 1.84 265.63 12.59"/><polygon class="cls-2" points="124.23 56.75 114.33 79.17 113.4 79.17 11.91 79.26 11.26 79.26 3.45 96.95 11.26 114.64 31.79 114.64 114.24 114.66 124.23 137.29 124.23 137.2 150.61 196.94 150.59 196.99 150.6 196.99 124.23 256.72 124.23 256.75 114.33 279.17 113.4 279.17 11.91 279.26 11.26 279.26 3.45 296.95 11.26 314.64 31.79 314.64 114.24 314.66 124.23 337.29 124.23 337.2 150.61 396.94 150.59 396.99 150.6 396.99 124.23 456.72 124.23 456.75 114.33 479.17 113.4 479.17 11.91 479.26 11.26 479.26 3.45 496.95 11.26 514.64 31.79 514.64 114.24 514.66 124.23 537.29 124.23 537.2 150.61 596.94 150.59 596.99 150.6 596.99 124.23 656.72 124.23 656.75 114.33 679.16 113.4 679.17 11.91 679.26 11.26 679.26 3.45 696.95 11.26 714.64 31.79 714.64 114.24 714.66 124.23 737.29 124.23 737.2 149.24 793.84 151.43 793.84 124.23 732.25 124.23 732.34 115.81 713.26 115.52 712.66 32.52 712.64 12.56 712.64 5.63 696.95 12.56 681.26 32.52 681.26 32.52 681.24 32.52 681.24 32.52 681.26 114.99 681.16 115.64 681.16 124.23 661.7 124.23 661.67 152.37 597.95 254.48 597.95 254.48 597.94 254.48 597.94 254.48 596.99 254.47 596.99 254.47 595.94 152.36 595.94 124.23 532.25 124.23 532.34 115.81 513.26 115.52 512.66 32.52 512.64 12.56 512.64 5.63 496.95 12.56 481.26 32.52 481.26 32.52 481.24 32.52 481.24 32.52 481.26 114.99 481.16 115.64 481.16 124.23 461.7 124.23 461.67 152.37 397.95 254.48 397.95 254.48 397.94 254.48 397.94 254.48 396.99 254.47 396.99 254.47 395.94 152.36 395.94 124.23 332.25 124.23 332.34 115.81 313.26 115.52 312.66 32.52 312.64 12.56 312.64 5.63 296.95 12.56 281.26 32.52 281.26 32.52 281.24 32.52 281.24 32.52 281.26 114.99 281.16 115.64 281.16 124.23 261.7 124.23 261.67 152.37 197.95 254.48 197.95 254.48 197.94 254.48 197.94 254.48 196.99 254.47 196.99 254.47 195.94 152.36 195.94 124.23 132.25 124.23 132.34 115.81 113.26 115.52 112.66 32.52 112.64 12.56 112.64 5.63 96.95 12.56 81.26 32.52 81.26 32.52 81.24 32.52 81.24 32.52 81.26 114.99 81.16 115.64 81.16 124.23 61.7 124.23 61.67 150.65 1.84 148.46 1.84 124.23 56.72 124.23 56.75"/></g></g></svg>