<svg xmlns="http://www.w3.org/2000/svg" viewBox="0 0 426 36" fill="#FFCD00">
    <path class="st0" d="M279 35c-0.8-0.1-1-0.6-1.1-1.4V18.4c0.1-0.9 0.2-1.3 0.9-1.4 0.3-0.1 0.6-0.1 1.2-0.1v-0.4c-0.5 0-0.5 0-0.6 0h-7.3c-0.1 0-0.1 0-0.6 0v0.4c0.9 0 1.3 0 1.5 0.1 0.9 0.1 1.2 0.6 1.2 1.4v6h-10.6v-6c0.1-0.9 0.2-1.3 0.9-1.4 0.3-0.1 0.6-0.1 1.2-0.1v-0.4c-0.5 0-0.5 0-0.6 0h-7.3c0 0-0.1 0-0.6 0v0.4c0.9 0 1.3 0 1.5 0.1 0.9 0.1 1.1 0.6 1.2 1.4 0.1 0.8 0.1 14.1 0 15.1 -0.1 0.7-0.3 1.3-0.9 1.4 -0.2 0.1-0.6 0.1-1.4 0.1v0.4c0.5 0 0.5 0 0.6 0h7.7c0 0 0 0 0.5 0V35c-0.9 0-1.4-0.1-1.8-0.1 -0.8-0.1-1-0.6-1.1-1.4v-7.8h10.6l-0.1 7.8c-0.1 0.7-0.2 1.3-0.8 1.4 -0.2 0.1-0.6 0.1-1.4 0.1v0.4c0.5 0 0.5 0 0.6 0h7.7c0 0 0 0 0.5 0V35c-0.9 0-1.4-0.1-1.8-0.1l0 0L279 35z"></path><path class="st0" d="M355.5 35.1c-0.7-0.1-0.9-0.6-0.9-1.2V20.7c0.1-0.8 0.2-1.2 0.9-1.2 0.3-0.1 0.5-0.1 1.1-0.1v-0.4c-0.4 0-0.4 0-0.5 0h-6.4c0 0-0.1 0-0.5 0v0.4c0.7 0 1.2 0 1.3 0.1 0.8 0.1 0.9 0.5 1 1.2v5.2h-9.2v-5.2c0.1-0.8 0.2-1.2 0.9-1.2 0.3-0.1 0.5-0.1 1.1-0.1v-0.4c-0.4 0-0.4 0-0.5 0h-6.4c0 0-0.1 0-0.5 0v0.4c0.7 0 1.2 0 1.3 0.1 0.8 0.1 0.9 0.5 1 1.2s0.1 12.2-0.1 13.1c-0.1 0.6-0.2 1.2-0.7 1.2 -0.2 0.1-0.5 0.1-1.2 0.1v0.4c0.4 0 0.4 0 0.5 0h6.6c0 0 0 0 0.4 0v-0.4c-0.8 0-1.2-0.1-1.6-0.1 -0.7-0.1-0.9-0.6-0.9-1.2v-6.8h9.2v6.7c-0.1 0.6-0.2 1.2-0.7 1.2 -0.2 0.1-0.5 0.1-1.2 0.1v0.4c0.4 0 0.4 0 0.5 0h6.6c0 0 0 0 0.4 0v-0.4c-0.8 0-1.2-0.1-1.6-0.1l0 0H355.5z"></path><path class="st0" d="M333.7 35.5v-0.4c-0.7 0-1.3-0.1-1.6-0.1 -0.7-0.1-1-0.6-1-1.2 0-1.3 0-13.6 0-13.6l2.9 0.1c2.1 0.1 2.7 0.6 2.8 1.2v0.6h0.5v-3.1h-15.4l0 0c-0.1 0.1-0.5 2.2-0.6 2.8h0.5c0.1-0.5 0.3-0.7 0.5-1 0.4-0.5 0.9-0.6 2.3-0.6l3.5-0.1c0 0 0.1 12.7 0 13.6 -0.1 0.6-0.3 1.2-0.7 1.2 -0.2 0.1-0.4 0.1-1.2 0.1v0.4H333.7L333.7 35.5z"></path><path class="st0" d="M304 28.7h-4.3c-0.1 0-0.1-0.1-0.1-0.1l2.2-5.4c0-0.1 0.1-0.2 0.1-0.2 0.1 0 0.1 0.1 0.1 0.2l2.2 5.4C304.2 28.7 304.2 28.7 304 28.7L304 28.7 304 28.7zM323.3 32.1c-0.2 0-0.2 0.1-0.3 0.4 -0.1 0.4-0.4 1-0.6 1.3 -0.6 0.6-1.5 0.6-2.7 0.6 -1.9 0-2.4-0.1-2.9-0.5 -0.5-0.4-0.5-1.9-0.5-4.7v-3.8c0-3.3 0-4 0.1-4.6 0.1-0.8 0.2-1.2 0.9-1.2 0.3-0.1 0.6-0.1 0.9-0.1 0 0 0 0 0.4 0v-0.4h-7.4v0.4c0.8 0 1 0 1.2 0.1 0.8 0.1 0.9 0.5 1 1.2 0.1 0.7 0.1 1.3 0.1 4.6v3.8c0 2-0.1 3.7-0.1 4.7 -0.1 0.9-0.3 1.2-1.4 1.3 -2.3-0.1-2.7-1.9-3.3-3.4 -1.5-3.3-5.8-13.2-5.8-13.2h-0.5l-6.3 14.6c-0.5 1.1-0.9 1.9-2 1.9 -0.1 0-0.4 0-0.8 0.1l0.6-3h-0.5c0 0.2 0 0.3-0.1 0.4 -0.1 0.9-0.4 1.4-1.1 1.6 -0.6 0.3-1.6 0.3-2.2 0.3 -2.4 0-2.8-0.4-2.8-1.8 0-0.6 0-2.7 0-3.4v-1.7c0-0.1 0-0.2 0.1-0.2 0.6 0 2.9 0 3.4 0.1 0.9 0.1 1.2 0.4 1.3 0.9 0.1 0.3 0.1 0.6 0.1 0.8 0 0 0 0.1 0 0.2h0.4l0.3-3.7h-0.4c-0.1 0.1-0.1 0.2-0.2 0.3 -0.2 0.2-0.6 0.3-1.2 0.4 -0.6 0.1-3.2 0.1-3.7 0.1 -0.1 0-0.1-0.1-0.1-0.2v-5.5c0-0.1 0.1-0.2 0.1-0.2 0.5 0 3 0.1 3.4 0.1 1.2 0.1 1.4 0.4 1.6 0.8 0.1 0.3 0.1 0.6 0.1 0.8 0 0 0 0 0 0.3h0.4c0 0 0.3-3 0.3-3.1h-11.4v0.4c0.4 0 1.2 0 1.3 0.1 0.8 0.1 0.9 0.5 1 1.2 0.1 0.7 0.1 1.3 0.1 4.6v3.8c0 2 0 3.7-0.1 4.7 -0.1 0.6-0.2 1.2-0.7 1.2 -0.2 0.1-0.9 0.1-1.2 0.1v0.4h16.9v-0.4h-0.7c-0.7 0-0.9-0.3-0.9-0.6 0-0.3 0.1-0.8 0.4-1.4l1.3-3.1c0.1-0.1 0.1-0.1 0.2-0.1h5.3c0.1 0 0.2 0.1 0.2 0.1l1.9 4.6c0.1 0.3-0.1 0.4-0.2 0.5 -0.1 0-0.1 0-0.3 0v0.4h17.1c0 0 0.4-2.7 0.4-3 0-0.3 0-0.4-0.2-0.4l0 0L323.3 32.1z"></path><path class="st0" d="M407.6 27.3c-0.4 0.3-0.7 0.4-1.7 0.4 -0.6 0-1.3-0.1-1.8-0.2 -0.1-0.1-0.2-0.1-0.2-0.4v-6.6c0-0.1 0.1-0.3 0.2-0.3 0.2-0.1 0.6-0.1 1.2-0.1 1.4 0 3.6 0.9 3.6 4 0 1.8-0.6 2.8-1.4 3.3l0 0V27.3zM426.2 32.2L426.2 32.2h-0.4l0 0c0 0.2 0 0.3-0.1 0.4 -0.1 0.9-0.4 1.4-1.1 1.6 -0.6 0.3-1.6 0.3-2.2 0.3 -2.4 0-2.8-0.4-2.8-1.8 0-0.6 0-2.7 0-3.4v-1.7c0-0.1 0-0.2 0.1-0.2 0.6 0 2.9 0 3.4 0.1 0.9 0.1 1.2 0.4 1.3 0.9 0.1 0.3 0.1 0.6 0.1 0.8 0 0 0 0.1 0 0.2h0.4l0.3-3.7h-0.4c-0.1 0.1-0.1 0.2-0.2 0.3 -0.2 0.2-0.6 0.3-1.2 0.4 -0.6 0.1-3.2 0.1-3.7 0.1 -0.1 0-0.1-0.1-0.1-0.2v-5.5c0-0.1 0.1-0.2 0.1-0.2 0.5 0 3 0.1 3.4 0.1 1.2 0.1 1.4 0.4 1.6 0.8 0.1 0.3 0.1 0.6 0.1 0.8 0 0 0 0 0 0.3h0.4c0 0 0.3-3 0.3-3.1h-11.4v0.4c0.4 0 1.2 0 1.3 0.1 0.8 0.1 0.9 0.5 1 1.2 0.1 0.7 0.1 1.3 0.1 4.6v3.8c0 2 0 3.7-0.1 4.7 -0.1 0.6-0.2 1-0.5 1.2 -0.6 0-1.3-0.4-2.3-1.4 -1.4-1.4-3-3.3-5.1-5.8 2.4-1.8 3.1-3.3 3.1-4.9 0-1.4-0.9-2.6-1.6-3 -1.3-0.8-2.9-0.9-4.3-0.9h-7.1v0.4c0.8 0 1.2 0 1.4 0.1 0.8 0.1 0.9 0.5 1 1.2v13.1c0 0.7-0.4 1.2-0.9 1.2 -1.6 0-2.2-2.1-2.8-3.3 -1.5-3.3-5.8-13.2-5.8-13.2h-0.5L384.5 33c-0.9 2.4-2.5 1.7-2.5 1.7l0.8-4h-0.6c-0.1 0.4-0.1 0.4-0.1 0.5 -0.1 0.4-0.4 1.2-0.9 1.7 -1.1 1.2-2.6 1.4-5 1.4 -3.7 0-8.6-3-8.6-9 0-2.4 0.5-4.8 2.5-6.6 1.2-1 2.7-1.6 5.1-1.6 2.5 0 4.6 0.6 5.5 1.6 0.6 0.6 1.1 1.2 1 2.9h0.6v-5c-0.1 0-0.1 0-0.2-0.1 -0.8-0.1-1.7-0.3-2.7-0.4 -1.2-0.1-2.2-0.3-4-0.3 -4 0-6.6 1-8.6 2.7 -2.6 2.2-3.2 5.2-3.2 6.9 0 2.4 0.7 5.3 3.4 7.4 2.4 2 5.6 2.7 9.4 2.7 1.7 0 5.1-0.4 5.1-0.4 0.4 0 6.1 0 6.1 0V35H387c-0.7 0-0.9-0.3-0.9-0.6 0-0.3 0.1-0.8 0.4-1.4l1.3-3.1c0.1-0.1 0.1-0.1 0.2-0.1h5.3c0.1 0 0.2 0.1 0.2 0.1l1.9 4.6c0.1 0.3-0.1 0.4-0.2 0.5 -0.1 0-0.1 0-0.3 0v0.4c0 0 11.3 0 11.5 0V35c-0.6 0-1.2-0.1-1.4-0.1 -0.7-0.1-0.9-0.6-0.9-1.2 -0.1-0.9-0.1-2.7-0.1-4.7v-0.3c0-0.1 0.1-0.1 0.2-0.1l2.1 0.1c0.1 0 0.3 0 0.4 0.1 0.3 0.4 1.4 1.8 2.3 3 1.3 1.7 2.2 2.7 3.2 3.2 0.6 0.3 1.2 0.4 2.5 0.4h2.2c0.1 0 0.1 0 0.2 0h8.7l0.4-3.3H426.2zM392.2 28.7h-4.3c-0.1 0-0.1-0.1-0.1-0.1l2.2-5.4c0-0.1 0.1-0.2 0.1-0.2s0.1 0.1 0.1 0.2l2.2 5.4C392.4 28.7 392.4 28.7 392.2 28.7L392.2 28.7 392.2 28.7z"></path><path class="st0" d="M47.4 16.3v0.4c-0.1 0-0.8 0.1-1.1 0.1 -0.7 0.1-0.9 0.6-1 1.4 -0.1 0.8-0.1 1.5-0.1 5.3v2.7c0 2.8-0.3 5.8-2.5 7.6 -1.9 1.5-3.8 1.8-5.6 1.8 -1.4 0-4-0.1-6-1.7 -1.4-1.2-2.4-3-2.4-6.6v-3.7c0-3.8 0-4.5-0.1-5.3 -0.1-0.9-0.3-1.2-1.2-1.4 -0.2-0.1-1.3-0.1-1.4-0.1v-0.4h8.1v0.4c-0.1 0-0.7 0.1-1 0.1 -0.7 0.1-0.9 0.6-1 1.4 -0.1 0.8-0.1 1.5-0.1 5.3v3.5c0 3.7 0.8 5.2 2.1 6.2 1.2 0.9 2.4 1 3.4 1 1.2 0 2.7-0.4 3.7-1.4 1.5-1.4 1.6-3.7 1.6-6.3v-3.2c0-3.8 0-4.5-0.1-5.3 -0.1-0.9-0.3-1.2-1.2-1.4 -0.2-0.1-1.1-0.1-1.2-0.1v-0.4h6.8l0 0V16.3z"></path><path class="st0" d="M60.3 18.9v0.4c0.1 0 1.2 0.1 1.6 0.1 0.6 0.2 0.8 0.6 0.8 1.9V31l-13-12.5h-0.6v13.7c0 1.9-0.2 2.5-0.8 2.7 -0.4 0.1-1.4 0.1-1.4 0.1v0.4h6.5v-0.4c0 0-1.2 0-1.6-0.1 -0.4-0.1-0.8-0.7-0.8-2.4v-9c1.7 1.7 12.8 12.3 12.8 12.3h0.8V21.2c0-1.2 0.2-1.7 0.9-1.9 0.3-0.1 0.9-0.1 1.2-0.1v-0.4L60.3 18.9 60.3 18.9 60.3 18.9z"></path><path class="st0" d="M100.9 32c-0.1 0.6-0.4 1.7-1.3 1.9 -0.6 0.2-1.6 0.3-2.2 0.3 -2.4 0-2.7-0.4-2.8-1.8 0-0.6 0-2.7 0-3.4v-1.7c0-0.1 0-0.2 0.1-0.2 0.6 0 2.9 0 3.3 0.1 0.9 0.1 1.2 0.4 1.3 0.9 0.1 0.3 0.1 0.6 0.1 0.8 0 0 0 0 0 0.2h0.3l0.4-3.7h-0.3c-0.1 0.1-0.2 0.2-0.3 0.3 -0.2 0.2-0.6 0.3-1.2 0.4 -0.5 0.1-3.2 0.1-3.7 0.1 -0.1 0-0.1-0.1-0.1-0.2v-5.8c0 0 3.6 0.1 4 0.1 1.4 0.3 1.2 1.1 1.3 1.7h0.4c0.1-0.4 0.3-3 0.3-3l0 0H85.6v0.4c0.3 0 0.4 0 0.4 0 0.3 0 0.6 0 0.9 0.1 0.2 0.1 0.3 0.2 0.3 0.4s-0.1 0.5-0.2 0.8c-0.6 1.4-3.6 8.5-4.6 10.9h-0.1l-4-9.9c-0.4-0.8-0.5-1.4-0.5-1.7 0-0.2 0.1-0.4 0.2-0.4 0.1-0.1 0.5-0.1 1.2-0.1v-0.4H67.4v0.4c2.2-0.1 2 1.4 2 1.4v13.1c0 0 0.2 1.4-2 1.4v0.4h6.9v-0.4c-2.1 0-1.9-1.3-1.9-1.3V20.9c0 0 0-1.2 1.1-1.2 0.6 0.1 1.3 1.4 1.8 2.5l6.1 13.7h0.5c0 0 5.8-12.2 6.7-14.2 0.6-1.4 1-1.8 1.3-1.9 0.1-0.1 1.6-0.4 1.6 1.1 0 0.7 0.1 12.2-0.1 13.1 -0.1 0.6-0.2 1.1-0.6 1.2 -0.2 0.1-0.5 0.1-1.2 0.1v0.4c0.4 0 0.4 0 0.4 0h10.6c0.1-0.6 0.5-2.7 0.6-3.4h-0.5l0 0L100.9 32z"></path><path class="st0" d="M129.5 33.7c0 0 0.2 1.4-2 1.4v0.4h6.9v-0.4c-2.1 0-1.9-1.3-1.9-1.3V20.7c0 0-0.1-1.3 1.9-1.3V19h-6.9v0.4c2.2-0.1 2 1.4 2 1.4v13.1V33.7z"></path><path class="st0" d="M111.2 27.1c-0.4 0.3-0.7 0.4-1.7 0.4 -0.6 0-1.3-0.1-1.8-0.2 -0.1-0.1-0.2-0.1-0.2-0.4v-6.6c0-0.1 0.1-0.3 0.2-0.3 0.2-0.1 0.6-0.1 1.2-0.1 1.4 0 3.6 0.9 3.6 4C112.6 25.7 112 26.7 111.2 27.1L111.2 27.1 111.2 27.1zM122.5 25.4l-0.6-0.4c-1.9-1.4-2.4-2.2-2.4-3.2 0-1.3 1.1-2.2 2.8-2.2 1.5 0 2.2 0.6 2.5 1.1 0.5 0.6 0.6 1.2 0.6 1.4 0 0.1 0 0.1 0 0.4h0.4l0.1-3.4c-0.1-0.1-1.5-0.5-3.5-0.5 -3.2 0-5.4 1.7-5.4 4.1 0 1.8 0.9 3.3 3.5 5.2l1.1 0.8c1.9 1.4 2.3 2.4 2.3 3.5 0 1.2-1 2.5-3.1 2.5 0 0-2.2 0-3.4-1.2 -1.2-1.2-3-3.3-5-5.8 2.4-1.8 3.1-3.3 3.1-4.9 0-1.4-0.9-2.6-1.6-3 -1.3-0.8-2.8-0.9-4.3-0.9h-7v0.4c0 0 2.2-0.1 2.2 1.3 0 0.7 0 12.2 0 13.1 0 1.4-1.7 1.3-1.9 1.3v0.4h7.2V35c-1.2 0-2.3 0-2.3-1.3 0-0.9-0.1-5-0.1-5 0-0.4 2.5-0.1 2.7 0 0.3 0.4 1.4 1.8 2.3 3 1.3 1.7 1.7 2.2 2.6 2.8 0 0 4 2.7 9 0.2 1.5-0.7 2.2-2.5 2.2-3.8C126.4 28.9 125.4 27.4 122.5 25.4L122.5 25.4 122.5 25.4z"></path><path class="st0" d="M155.7 18.9v0.4c0.3 0 0.4 0 0.4 0 0.4 0.1 0.5 0.4 0.5 0.6 0 0.3-0.1 0.6-0.4 1.2 -0.4 0.6-3.2 5.5-3.5 6 -0.3-0.5-2.7-4.4-3.7-6 0 0-0.4-0.5-0.6-1.4 -0.1-0.4 0.8-0.4 0.8-0.4v-0.4h-14.9l-0.4 2.9c0 0 0 0 0.4 0 0.2-1 0.8-1.6 1.9-1.7 1.4 0 3.1 0 3.1 0V29c0 2 0 3.7-0.1 4.7 -0.1 0.6-0.2 1.1-0.6 1.2 -0.1 0-1 0.1-1.2 0.1v0.4h7.1V35c-0.3 0-0.9-0.1-1.1-0.1 -0.7-0.1-0.9-0.6-0.9-1.2 -0.1-0.9-0.1-2.7-0.1-4.7v-8.9h2.9c0.3 0.3 0.6 0.6 0.9 1 0.8 1.2 4 5.9 4.1 6.3 0.3 0.6 0.5 1.1 0.5 2.3v1.8c0 0.4 0 1.3-0.1 2.2 -0.1 0.6-0.3 1.1-0.7 1.2 -0.2 0.1-0.4 0.1-1.3 0.1v0.4h7.6V35c-0.7 0-1.2-0.1-1.5-0.1 -0.7-0.1-0.9-0.6-0.9-1.2 -0.1-0.9-0.1-1.8-0.1-2.2v-1.8c0-0.7 0-1.4 0.4-2.2 0.4-0.9 3.7-6 4.5-6.9 0.5-0.6 0.8-0.9 1.3-1.1 0.4-0.1 0.8-0.3 1-0.3 0 0 0.1 0 0.4 0v-0.4L155.7 18.9 155.7 18.9 155.7 18.9z"></path><path class="st0" d="M206.7 35.1c1.5 0 5.3-0.9 5.3-6.8 0-4.5-2.7-8.9-6.8-8.9 -1.5 0-5.3 0.9-5.3 6.8C199.9 30.8 202.5 35.1 206.7 35.1L206.7 35.1zM205.8 18.6c5.2 0 9.8 3.5 9.8 8.7 0 4.5-3.6 8.7-9.4 8.7 -5.2 0-9.8-3.5-9.8-8.7C196.3 22.8 199.9 18.6 205.8 18.6L205.8 18.6z"></path><path class="st0" d="M239 18.9v0.7c-1.7 0-2 0.6-2.5 2l-4.9 14.2h-0.7l-4.5-12h-0.1l-4 12h-0.7l-5.3-14c-0.7-1.9-1.1-2.1-2.3-2.2v-0.7h7.1v0.7h-0.6c-0.8 0-1.3 0.4-1.3 1 0 0.2 0.1 0.5 0.4 1.3l3.5 9.6h0.1l4-12.9h0.4l4.7 12.9h0.1l2.9-9.5c0.1-0.6 0.3-1.1 0.3-1.4 0-0.8-0.6-1-1.8-1.1v-0.7L239 18.9 239 18.9 239 18.9z"></path><path class="st0" d="M239.7 29.1l2.2-6 2.6 6H239.7L239.7 29.1zM249.8 33.3L243.3 19h-0.4l-5.3 12.5c-1.3 3.2-1.8 3.4-3.5 3.5v0.7h5.8V35c-1.5 0-1.8-0.3-1.8-0.9 0-0.2 0.1-0.6 0.6-2.2l0.7-1.9h5.5l0.9 2.2c0.5 1.2 0.6 1.7 0.6 1.9 0 0.6-0.4 0.9-1.7 0.9v0.7h7.3V35C250.9 35 250.3 34.6 249.8 33.3L249.8 33.3 249.8 33.3z"></path><path class="st0" d="M187.9 16.5v0.4c2.4 0 2.2 1.5 2.2 1.5v15.1 -0.1c0 0-0.1 1.5-2.3 1.5v0.4h8v-0.4c-2.2 0-2.2-1.5-2.2-1.5V18.2c0 0-0.2-1.5 2.2-1.5v-0.4l-7.9 0.1 0 0V16.5z"></path><path class="st0" d="M168.7 34.6c-3.1 0-5-2.7-5-6 0-4 2.1-5.1 4-5.1 2.7 0 4.8 2.2 4.8 5.9C172.4 34 169.8 34.6 168.7 34.6L168.7 34.6zM168 35.4c4.1 0 6.7-3 6.7-6.6 0-3.7-2.5-6-6.6-6 -4.9 0-6.7 3.6-6.7 6.3C161.5 31.9 163.4 35.4 168 35.4L168 35.4z"></path><path class="st0" d="M179.2 29.1c0-0.1 0-0.1 0.1-0.1 0.3 0 2 0 2.4 0.1 0.5 0.1 0.7 0.4 0.9 0.6 0.1 0.2 0.1 0.4 0.1 0.5s0 0.2 0.1 0.2c0.1 0 0.1-0.1 0.1-0.3s0-0.9 0.1-1.2c0.1-0.5 0.1-0.9 0.1-1 0-0.1 0-0.1-0.1-0.1 -0.1 0-0.1 0.1-0.2 0.1 -0.1 0.2-0.4 0.3-0.7 0.3 -0.2 0-0.4 0-0.7 0h-2.1c-0.1 0-0.1-0.1-0.1-0.1v-4c0-0.1 0.1-0.2 0.1-0.2l2.5 0.1c0.6 0 0.9 0.3 1.1 0.5 0.1 0.2 0.1 0.5 0.1 0.6 0 0.1 0.1 0.3 0.1 0.3 0.1 0 0.1-0.1 0.1-0.2 0-0.2 0.1-1.2 0.1-1.3 0.1-0.4 0.1-0.6 0.1-0.7 0-0.1-0.1-0.1-0.1-0.1s-0.1 0.1-0.3 0.1c-0.1 0.1-0.4 0.1-0.6 0.1 -0.4 0-3.7 0-4.3 0 -0.5 0-1.5-0.1-2.3-0.1 -0.2 0-0.4 0-0.4 0.1 0 0.1 0.1 0.1 0.3 0.1 0.2 0 0.5 0 0.6 0.1 0.5 0.1 0.6 0.4 0.7 0.9 0 0.5 0 1 0 3.5v2.9c0 1.6 0 2.7-0.1 3.5 -0.1 0.5-0.1 0.9-0.5 0.9 -0.1 0-0.4 0.1-0.6 0.1 -0.1 0-0.2 0.1-0.2 0.1 0 0.1 0.1 0.1 0.4 0.1 0.6 0 1.7-0.1 2.1-0.1s1.4 0.1 2.4 0.1c0.2 0 0.4-0.1 0.4-0.1s-0.1-0.1-0.3-0.1 -0.6 0-0.8-0.1c-0.5-0.1-0.6-0.4-0.6-0.9 -0.1-0.6-0.1-1.9-0.1-3.5v-1.3V29.1z"></path><path class="st0" d="M12.7 4.3c0 0.5 0 1.3 0.2 1.4 0.7 0.4 1.9 0.8 2.2 1.2 0.1 0.1 0 0.9-0.3 0.8 -1.9-0.4-2-0.4-3.3-0.4 -0.1 0-0.4-0.5-0.4-1 0-0.3 0.4-0.4 0.4-0.9C11.7 5 11.6 1.9 11.6 0c0-0.4 0.1-0.6 0.5-0.6 0.4 0 0.4 0.3 0.4 0.6C12.6 1.5 12.7 3 12.7 4.3z"></path><path class="st0" d="M11.6-0.1c0-0.4 0.5-0.7 0.8-0.4"></path><path class="st0" d="M14.9 7c0.3 0.3 0 1-0.5 0.8 -1-0.4-1.9-0.2-2.9-0.4 -0.3-0.1-0.4-0.5-0.4-0.8"></path><path class="st0" d="M12.6 1.5c0 1.3-0.1 2.6 0.1 3.9 0 0.2 0.2 0.4 0.2 0.4"></path><path class="st0" d="M20.1 19.8c0.2 0 1.1-0.1 1.5 0 0.1 0 0.2 0.1 0.3 0.2 0.2 0.2 0.1 0.9 0.1 1.1 0 0.4-0.3 0.7-0.3 1.2 0 3.2 0.1 7-0.1 7.7 -0.3 1.2-0.3 1.3-0.7 1.3 -0.1 0-0.3 0-0.4-0.4 -0.1-0.3-0.1-0.7-0.1-1.3 0-1.3 0-4.7-0.1-6.1 -0.1-1.2-0.4-1.2-0.4-1.3 -0.1-0.1-0.3-0.1-0.3-0.4 -0.1-0.4 0.1-1.3 0.2-1.7C20 19.9 20 19.8 20.1 19.8z"></path><path class="st0" d="M22.6 34c-1.1 0-2.8 0.1-3.1-0.2 -0.2-0.1-0.2-0.4-0.2-1 -0.1-4.1 0-8.1 0-12.2 0-0.4-0.1-0.9-0.6-0.9 -0.6 0-1.9-0.1-2 0 -0.1 0.1-0.2 0.1-0.2 0.2 -0.2 0.4-0.3 1.3-0.3 1.7 0 0.2 0.1 0.3 0.4 0.4 0.6 0.1 0.9 0.4 0.9 1.3 0.1 3 0.1 9.1-0.3 10.1 -0.2 0.5-1.2 0.8-1.3 0.3 -0.2-0.4-0.2-9.5-0.2-13.2 0-0.6-0.2-0.9-0.9-0.9 -0.9 0-1.7 0-2.7 0 -0.1 0-0.3 0.1-0.3 0.3 -0.2 0.5-0.4 1.7-0.2 1.9 0 0.1 0.1 0.2 0.3 0.2 1.2 0.1 1.8 0.7 1.8 2 0.1 1.9 0.4 9.1-0.5 9.9 -0.4 0.3-1.6 0.3-1.9 0.2 -0.2-0.1-0.4-0.3-0.4-0.4 -0.3-2.2 0.1-12.9-0.1-13.5 -0.1-0.2-0.2-0.3-0.4-0.3 -0.4-0.1-2 0-2.2-0.1 -0.1 0-0.2-0.1-0.2-0.2 0-0.4 0-0.8 0.2-1.2 0.1-0.2 0.3-0.2 0.4-0.2 4.7 0 11.4 0 14 0 0.2 0 0.4 0 0.5-0.3 0.1-0.3 0.2-1.1 0.2-1.2 0-0.1-0.1-0.2-0.3-0.2 -0.3 0-10.6 0-15.9-0.1 -0.3 0-0.8 0-0.8-0.2 -0.1-0.3-0.1-0.8 0.1-1.1 0.5-1.1 1-0.8 1.3-2.3 0.2-0.9-0.1-1.6 0.4-2.4 0.6-1 1.1-1.2 1.4-2 0.3-0.4-0.3-1.1-0.8-1 -0.4 0.2-2.5 1.6-3.7 3.5 -0.9 1.5-1.2 3.2-1.9 4.8 -0.2 0.4-0.4 0.5-1.1 0.6 -0.4 0-0.5 1.5-0.3 1.7 0.1 0 0.2 0.1 0.2 0.1 0.6 0.1 0.8 0.9 0.8 1.6 0 0 0.2 12.2-0.2 13.5 -0.3 0.9-0.4 0.8-0.7 0.9 0 0-0.1 0-0.2 0.2 -0.1 0.3-0.2 0.9-0.1 1.2 0 0.1 0.1 0.2 0.3 0.2 8 0 17.6 0 21 0 0.2 0 0.3 0 0.4-0.3 0.1-0.4 0.2-0.8 0.1-1C22.9 34 22.7 34 22.6 34zM4.6 33.7c-0.4 0.4-0.7 0.5-0.7 0.1 -0.1-3.4 0-10.4 0-10.6 0.1-0.4 0.6-0.5 0.9 0C5.2 23.9 5.3 33 4.6 33.7zM8.4 33.7C8 34.1 7.1 34.3 7 33.8 6.7 33 6.8 22.5 6.9 22.4 7 21.9 7.7 22 7.9 22.2 8.6 22.6 8.7 23 8.7 24 8.9 26.7 8.9 33 8.4 33.7z"></path>
</svg>