<?xml version="1.0" encoding="utf-8"?>
<!-- Generator: Adobe Illustrator 24.0.1, SVG Export Plug-In . SVG Version: 6.00 Build 0)  -->
<svg version="1.1" id="Capa_1" xmlns="http://www.w3.org/2000/svg" xmlns:xlink="http://www.w3.org/1999/xlink" x="0px" y="0px"
	 width="49.5px" height="60.1px" viewBox="0 0 49.5 60.1" style="enable-background:new 0 0 49.5 60.1;" xml:space="preserve">
<style type="text/css">
	.st0{fill:#FFFFFF;}
	.st1{fill:#231F20;}
</style>
<path class="st0" d="M50.2,23.9c0-4.5-3.4-8.1-7.6-8.1H26.8c-2.1,0-4,0.9-5.3,2.4c-2.2,2.3-2.2,5.1-2.2,5.7c0,0.5,0,0.9,0.1,1.1
	c2.4,0,4.9-0.1,7.3-0.1c0.9,0.2,2.4,0.7,4,2c2.2,1.9,2.8,4.3,3,5.1c1.1,0,2.2,0,3.3,0c0.2,0,0.3,0.1,0.4,0.2L40,36l2.7-3.8
	c0.1-0.1,0.2-0.2,0.4-0.2C47,31.7,50.2,28.2,50.2,23.9z"/>
<path class="st1" d="M41.1,13.3H25.3c-4.7,0-8.6,4.1-8.6,9.1c0,0.6,0.1,1.1,0.1,1.6H9.4c-4.7,0-8.6,4.1-8.6,9.1
	c0,4.7,3.4,8.7,7.8,9.1l3,4.2c0.1,0.1,0.2,0.2,0.4,0.2s0.3-0.1,0.4-0.2l2.9-4.2h9.8c4.7,0,8.6-4.1,8.6-9.1c0-0.6-0.1-1.1-0.2-1.7
	h1.6l2.9,4.2c0.1,0.1,0.2,0.2,0.4,0.2s0.3-0.1,0.4-0.2l3-4.2c4.4-0.4,7.8-4.3,7.8-9C49.7,17.4,45.8,13.3,41.1,13.3z M41.2,30.7
	l-2.7,3.8l-2.7-3.8c-0.1-0.1-0.2-0.2-0.4-0.2h-2.1c-1-3.8-4.3-6.5-8.1-6.5H18c-0.1-0.5-0.2-1.1-0.2-1.6c0-4.5,3.4-8.1,7.6-8.1h15.8
	c4.2,0,7.6,3.6,7.6,8.1c0,4.3-3.1,7.8-7.1,8.1C41.4,30.5,41.3,30.5,41.2,30.7z M32.7,33.2c0,4.5-3.4,8.1-7.6,8.1h-10
	c-0.2,0-0.3,0.1-0.4,0.2L12,45.3l-2.7-3.8c-0.1-0.1-0.2-0.2-0.4-0.2c-4-0.3-7.1-3.8-7.1-8.1c0-4.5,3.4-8.1,7.6-8.1h15.8
	C29.3,25,32.7,28.7,32.7,33.2z"/>
</svg>
