<svg id="icon" data-name="Layer 1" xmlns="http://www.w3.org/2000/svg" viewBox="0 0 50 50"><title>scholarship</title><path d="M49.83,34.726a3.417,3.417,0,0,0-1.554-2.392,3.9,3.9,0,0,0-3.2-.5L33.718,34.115A3.024,3.024,0,0,0,31.2,30.671L19.6,27.633a.484.484,0,0,0-.126-.016H12.452v-.24a.5.5,0,0,0-.5-.5H6.61V25.293a.5.5,0,0,0-.5-.5H.646a.5.5,0,0,0-.5.5v16.04a.5.5,0,0,0,.5.5H6.11a.5.5,0,0,0,.5-.5V39.75h5.342a.5.5,0,0,0,.5-.5v-.891L30.076,41.9a.653.653,0,0,0,.218.037v.007a.424.424,0,0,0,.086.008.481.481,0,0,0,.247-.07l16.015-3.214A3.694,3.694,0,0,0,49.83,34.726ZM11.452,38.75H6.61V27.877h4.842ZM5.61,40.833H1.146V25.793H5.61v15.04ZM46.461,37.68,30.306,40.923,12.452,37.339V28.617H19.4L31,31.65a2.037,2.037,0,0,1,1.4.865,1.946,1.946,0,0,1-.627,2.834,2.082,2.082,0,0,1-1.67.185L18.439,32.6a.5.5,0,0,0-.532.2.512.512,0,0,0-.075.158.5.5,0,0,0,.363.607L29.833,36.5a3.008,3.008,0,0,0,.9.136,3.077,3.077,0,0,0,1.549-.419,3.017,3.017,0,0,0,1.018-.994l12-2.408.038-.009a2.89,2.89,0,0,1,2.391.366,2.422,2.422,0,0,1,1.114,1.682A2.724,2.724,0,0,1,46.461,37.68Z"/><path d="M31.667,25.764a8.856,8.856,0,1,0-8.857-8.856A8.866,8.866,0,0,0,31.667,25.764Zm7.856-8.856a7.857,7.857,0,1,1-7.856-7.856A7.865,7.865,0,0,1,39.523,16.908Z"/><path d="M31.637,19.159a1.324,1.324,0,0,1-.605-.118.949.949,0,0,1-.359-.3,2.3,2.3,0,0,1-.236-.457.913.913,0,0,0-.218-.347.44.44,0,0,0-.31-.119.509.509,0,0,0-.52.513,1.4,1.4,0,0,0,.244.749,1.853,1.853,0,0,0,.636.615,2.459,2.459,0,0,0,.9.27v.714a.5.5,0,0,0,1,0v-.706a2.63,2.63,0,0,0,.726-.191,1.774,1.774,0,0,0,.783-.65,1.688,1.688,0,0,0,.268-.934,1.6,1.6,0,0,0-.154-.733,1.376,1.376,0,0,0-.43-.495,2.65,2.65,0,0,0-.67-.331,8.293,8.293,0,0,0-.877-.251c-.259-.065-.443-.115-.556-.149a1.787,1.787,0,0,1-.332-.141.79.79,0,0,1-.258-.214.487.487,0,0,1-.093-.3.571.571,0,0,1,.275-.474,1.217,1.217,0,0,1,.725-.2,1.094,1.094,0,0,1,.7.182,1.455,1.455,0,0,1,.376.506,1.314,1.314,0,0,0,.224.326.42.42,0,0,0,.3.1.469.469,0,0,0,.366-.167.552.552,0,0,0,.147-.374,1.054,1.054,0,0,0-.118-.465,1.469,1.469,0,0,0-.371-.455,1.915,1.915,0,0,0-.64-.348,2.371,2.371,0,0,0-.4-.093v-.69a.5.5,0,0,0-1,0v.691a2.714,2.714,0,0,0-.664.158,1.636,1.636,0,0,0-.747.565,1.425,1.425,0,0,0-.257.84,1.371,1.371,0,0,0,.243.832,1.688,1.688,0,0,0,.662.528,5.5,5.5,0,0,0,1.034.338c.307.07.553.137.736.2a1.127,1.127,0,0,1,.451.272.633.633,0,0,1,.174.463.726.726,0,0,1-.323.6A1.366,1.366,0,0,1,31.637,19.159Z"/></svg>
