<svg id="logo" xmlns="http://www.w3.org/2000/svg"   width="100%" height="100%" viewBox="0 0 611 195">
  <g>
    <path d="M99,344.6H85.3v98.1H99v35.6H24.1v-35.6h13.7v-98.1H24.1v-35.2H99V344.6z"/>
    <path d="M199.7,478.3h-54.3c-19.7,0-32.6-12.9-32.6-34.1V343.5c0-21,13.1-34.1,32.6-34.1h54.3c19.7,0,32.6,13.1,32.6,34.1v100.7
      C232.3,465.2,219.2,478.3,199.7,478.3z M184.3,442.7v-98.1h-23.6v98.1H184.3z"/>
    <path d="M253.6,344.6h-12v-35.2h71.1v35.4h-13.5l12.2,81.2l25.3-116.6h35.9l27,116.6l9.7-81.2h-12.4v-35.4h70.2v35.4h-11.6
      l-21.1,133.6h-57.3L355,378.9l-22.6,99.4h-55L253.6,344.6z"/>
    <path d="M454.8,442.7h12.9l25.6-133.3h76.7l25.3,133.3h12v35.6H550l-5.4-41.2h-28.4l-5.1,41.2H455v-35.6H454.8z M541.6,406.2
      l-10.9-68.1l-11.2,68.1H541.6z"/>
  </g>
</svg>
