<svg id="logo" xmlns="http://www.w3.org/2000/svg"   width="100%" height="100%" viewBox="0 0 611 195">
  <path d="M90.9,347.1H77.3v97.3h13.6v35.3H16.6v-35.3h13.6v-97.3H16.6v-34.9h74.3V347.1z"/>
	<path d="M190.8,479.7H137c-19.5,0-32.3-12.8-32.3-33.8v-99.9c0-20.8,13-33.8,32.3-33.8h53.9c19.5,0,32.3,13,32.3,33.8v99.9
		C223.1,466.7,210.1,479.7,190.8,479.7z M175.6,444.4v-97.3h-23.4v97.3H175.6z"/>
	<path d="M244.3,347.1h-11.9v-34.9H303v35.1h-13.4l12.1,80.6l25.1-115.7h35.7l26.8,115.7l9.7-80.6h-12.3v-35.1h69.7v35.1h-11.5
		l-21,132.6h-56.8L345,381l-22.5,98.6h-54.6L244.3,347.1z"/>
	<path d="M444,444.4h12.8l25.4-132.3h76.2l25.1,132.3h11.9v35.3h-56.8l-5.4-40.9H505l-5,40.9h-55.7v-35.3H444z M530.2,408.2
		l-10.8-67.6l-11.1,67.6H530.2z"/>
</svg>
