<?xml version="1.0" encoding="utf-8"?>
<!-- Generator: Adobe Illustrator 24.0.1, SVG Export Plug-In . SVG Version: 6.00 Build 0)  -->
<svg version="1.1" id="Capa_1" xmlns="http://www.w3.org/2000/svg" xmlns:xlink="http://www.w3.org/1999/xlink" x="0px" y="0px"
	 width="49.5px" height="60.1px" viewBox="0 0 49.5 60.1" style="enable-background:new 0 0 49.5 60.1;" xml:space="preserve">
<style type="text/css">
	.st0{fill:#FFFFFF;}
	.st1{fill:#2F292B;}
	.st2{fill:none;}
</style>
<path class="st0" d="M38,47.9c-0.5,0.1-1.5,0.4-2.7,0.2c-2.3-0.3-4.8-2.1-5.9-4.6c-0.8-1.2-1.2-2.6-1.2-4.1c0-4.2,3.5-7.7,7.7-7.7
	c1.1,0,2.1,0.2,3.1,0.6c1.4,0.3,2.6,0.8,3.7,1.7c0-5.6,0-11.2,0-16.8c-3.3,0-6.6,0-9.8,0.1c0-0.3,0-0.6,0-1h-0.5V8.9H9.2v44.9h33.6
	c0-3,0.1-6.1,0.1-9.1C42.1,45.5,40.6,47.2,38,47.9z"/>
<g>
	<path class="st1" d="M44.6,39.5c0-2.3-0.9-4.4-2.4-6V16.8c0,0,0,0,0-0.1c0,0,0,0,0-0.1s-0.1-0.2-0.1-0.2l-9.9-9.9l0,0
		c-0.1-0.1-0.1-0.1-0.2-0.1c0,0,0,0-0.1,0c0,0,0,0-0.1,0H7.1C6.9,6.5,6.7,6.7,6.7,7v45.9c0,0.3,0.2,0.5,0.5,0.5h34.5
		c0.3,0,0.5-0.2,0.5-0.5v-7.4C43.7,43.9,44.6,41.8,44.6,39.5z M7.7,52.4V7.5h23.7v9.4c0,0.3,0.2,0.5,0.5,0.5h9.4v15.3
		c-1.5-1.1-3.3-1.8-5.3-1.8c-4.8,0-8.7,3.9-8.7,8.7s3.9,8.7,8.7,8.7c2,0,3.8-0.7,5.3-1.8v6.1L7.7,52.4z M35.9,47.2
		c-4.3,0-7.7-3.5-7.7-7.7s3.5-7.7,7.7-7.7s7.7,3.5,7.7,7.7S40.2,47.2,35.9,47.2z M40.5,16.3h-8.2V8.1L40.5,16.3z"/>
	<path class="st1" d="M39.6,35.2c-0.2-0.1-0.5-0.1-0.7,0.2l-4.2,7.1l-1.9-2.3c-0.2-0.2-0.5-0.2-0.7-0.1c-0.2,0.2-0.2,0.5-0.1,0.7
		l2.3,2.8c0.1,0.1,0.2,0.2,0.4,0.2l0,0c0.2,0,0.3-0.1,0.4-0.2l4.5-7.7C39.9,35.6,39.8,35.3,39.6,35.2z"/>
	<path class="st1" d="M12.8,22.9h23.1c0.3,0,0.5-0.2,0.5-0.5s-0.2-0.5-0.5-0.5H12.8c-0.3,0-0.5,0.2-0.5,0.5S12.5,22.9,12.8,22.9z"/>
	<path class="st1" d="M12.8,30.4h15.9c0.3,0,0.5-0.2,0.5-0.5s-0.2-0.5-0.5-0.5H12.8c-0.3,0-0.5,0.2-0.5,0.5
		C12.3,30.2,12.5,30.4,12.8,30.4z"/>
	<path class="st1" d="M12.8,37.9h10.7c0.3,0,0.5-0.2,0.5-0.5s-0.2-0.5-0.5-0.5H12.8c-0.3,0-0.5,0.2-0.5,0.5S12.5,37.9,12.8,37.9z"/>
	<path class="st1" d="M24.3,44.4H12.7c-0.3,0-0.5,0.2-0.5,0.5s0.2,0.5,0.5,0.5h11.6c0.3,0,0.5-0.2,0.5-0.5
		C24.8,44.7,24.6,44.4,24.3,44.4z"/>
	<path class="st1" d="M12.7,15.4h13.7c0.3,0,0.5-0.2,0.5-0.5s-0.2-0.5-0.5-0.5H12.7c-0.3,0-0.5,0.2-0.5,0.5S12.5,15.4,12.7,15.4z"/>
</g>
<path class="st2" d="M32.9,40.2c-0.2-0.2-0.5-0.2-0.7-0.1c-0.2,0.2-0.2,0.5-0.1,0.7l2.3,2.8c0.1,0.1,0.2,0.2,0.4,0.2l0,0
	c0.2,0,0.3-0.1,0.4-0.2l4.5-7.7c0.1-0.2,0.1-0.5-0.2-0.7c-0.2-0.1-0.5-0.1-0.7,0.2l-4.2,7.1L32.9,40.2z"/>
</svg>
