<?xml version="1.0" encoding="utf-8"?>
<!-- Generator: Adobe Illustrator 24.0.1, SVG Export Plug-In . SVG Version: 6.00 Build 0)  -->
<svg version="1.1" id="Capa_1" xmlns="http://www.w3.org/2000/svg" xmlns:xlink="http://www.w3.org/1999/xlink" x="0px" y="0px"
	 width="49.5px" height="60.1px" viewBox="0 0 49.5 60.1" style="enable-background:new 0 0 49.5 60.1;" xml:space="preserve">
<style type="text/css">
	.st0{fill:#FFFFFF;}
	.st1{fill:#231F20;}
</style>
<path class="st0" d="M38.2,28.5c-1.2,0-2.3,1-2.3,2.3c0,0.2-0.2,0.4-0.4,0.4l0,0c-0.2,0-0.4-0.2-0.4-0.4v-2.2c0-1.3-1-2.3-2.3-2.3
	s-2.3,1-2.3,2.3c0,0.2-0.2,0.4-0.4,0.4s-0.4-0.2-0.4-0.4v-2c0.1-0.9-0.3-1.8-1.1-2.2c-0.9-0.5-1.9-0.2-2.5,0.3s-0.8,1.2-0.9,1.5
	c0,0.2-0.2,0.3-0.4,0.3c-0.2,0-0.4-0.2-0.4-0.4l-0.1-7c0-1.3-1-2.3-2.3-2.3s-2.3,1-2.3,2.3v19.4c0,0.2-0.1,0.4-0.3,0.4
	c-0.2,0-0.4-0.1-0.4-0.3c-0.1-0.2-0.2-0.5-0.3-0.8c-0.2-0.4-0.6-1.5-1.6-2.6c-0.8-0.9-1.9-1.6-3.1-2c-0.8-0.4-1.6-0.2-2.2,0.4
	c-0.5,0.6-0.6,1.5-0.1,2.2l10.4,15.6c0,0.1,0.1,0.1,0.1,0.2V55h14.6v-5c0-0.1,0-0.2,0.1-0.2c0.9-1.4,1.6-2.9,2.1-4.5
	c0.9-2.5,1.4-5.2,1.5-7.9v-6.6C40.5,29.5,39.5,28.5,38.2,28.5z"/>
<g>
	<path class="st1" d="M36.6,26c-0.8,0-1.6,0.3-2.2,0.9c0-1.7-1.4-3.1-3.2-3.1c-0.9,0-1.6,0.3-2.2,0.9c-0.2-1.6-1.5-2.9-3.2-2.9
		c-0.8,0-1.6,0.3-2.2,0.9v-5.2c0-1.8-1.4-3.2-3.2-3.2s-3.2,1.4-3.2,3.2v17.2c-0.3-0.5-0.7-1-1.2-1.5c-0.9-1-2.1-1.8-3.4-2.2
		c-1.1-0.5-2.4-0.2-3.2,0.7S8.5,34,9.2,35l10.3,15.5V54c0,0.3,0.2,0.5,0.5,0.5h15.5c0.3,0,0.5-0.2,0.5-0.5v-5.3
		c0.9-1.4,1.6-3,2.1-4.5c0.9-2.6,1.5-5.4,1.5-8.3v-6.6C39.8,27.5,38.4,26,36.6,26z M38.8,35.8c-0.1,2.7-0.6,5.4-1.5,7.9
		c-0.6,1.6-1.3,3.1-2.1,4.5c0,0.1-0.1,0.2-0.1,0.3v5H20.7v-3.3c0-0.1,0-0.2-0.1-0.3L10.2,34.2c-0.4-0.6-0.4-1.5,0.1-2.1
		c0.5-0.6,1.3-0.8,2.1-0.4c1.2,0.4,2.2,1.1,3,2c1,1,1.5,2.2,1.6,2.5s0.2,0.6,0.3,0.8c0.1,0.2,0.3,0.4,0.6,0.3c0.2,0,0.4-0.2,0.4-0.5
		V17.4c0-1.2,1-2.2,2.2-2.2s2.2,1,2.2,2.2v15.3c0,0.3,0.2,0.5,0.5,0.5s0.5-0.2,0.5-0.5V25c0-1.2,1-2.2,2.2-2.2s2.2,1,2.2,2.2v2v5.9
		c0,0.3,0.2,0.5,0.5,0.5s0.5-0.2,0.5-0.5V27c0-1.2,1-2.2,2.2-2.2s2.2,1,2.2,2.2v2.3v3.6c0,0.3,0.2,0.5,0.5,0.5s0.5-0.2,0.5-0.5v-3.6
		c0-1.2,1-2.2,2.2-2.2s2.2,1,2.2,2.2v6.5H38.8z"/>
	<path class="st1" d="M26.4,15.8c0,0.3,0.2,0.5,0.5,0.5h4.7c0.3,0,0.5-0.2,0.5-0.5c0-0.3-0.2-0.5-0.5-0.5h-4.7
		C26.6,15.3,26.4,15.5,26.4,15.8z"/>
	<path class="st1" d="M20.3,10.7c0.3,0,0.5-0.2,0.5-0.5V5.5c0-0.3-0.2-0.5-0.5-0.5s-0.5,0.2-0.5,0.5v4.7
		C19.8,10.5,20,10.7,20.3,10.7z"/>
	<path class="st1" d="M9.4,16.3h4.7c0.3,0,0.5-0.2,0.5-0.5c0-0.3-0.2-0.5-0.5-0.5H9.4c-0.3,0-0.5,0.2-0.5,0.5
		C8.9,16.1,9.1,16.3,9.4,16.3z"/>
	<path class="st1" d="M25.1,12.5c0.1,0,0.3-0.1,0.4-0.2l2.9-3.7c0.2-0.2,0.1-0.5-0.1-0.7S27.8,7.8,27.6,8l-2.9,3.7
		c-0.2,0.2-0.1,0.5,0.1,0.7C24.8,12.5,24.9,12.5,25.1,12.5z"/>
	<path class="st1" d="M15.2,12.1c0.1,0.1,0.2,0.2,0.4,0.2c0.1,0,0.2,0,0.3-0.1c0.2-0.2,0.2-0.5,0.1-0.7l-3-3.7
		c-0.2-0.2-0.5-0.2-0.7-0.1c-0.2,0.2-0.2,0.5-0.1,0.7L15.2,12.1z"/>
</g>
</svg>
