<?xml version="1.0" encoding="utf-8"?>
<!-- Generator: Adobe Illustrator 24.3.0, SVG Export Plug-In . SVG Version: 6.00 Build 0)  -->
<svg version="1.1" id="Layer_1" xmlns:v="https://vecta.io/nano"
	 xmlns="http://www.w3.org/2000/svg" xmlns:xlink="http://www.w3.org/1999/xlink" x="0px" y="0px" width="599.8px"
	 height="1200.3px" viewBox="0 0 599.8 1200.3" style="enable-background:new 0 0 599.8 1200.3;" xml:space="preserve">
<style type="text/css">
	.st0{opacity:0.7;}
	.st1{fill:#FFFFFF;}
</style>
<g class="st0">
	<g>
		<path id="B" class="st1" d="M50.5,1185.7L50.5,1185.7l-50.4-22.3l-51,22.5v37.9h2v-36.6l49-21.6l49,21.6v36.6h2v-37.9L50.5,1185.7
			z"/>
	</g>
	<g>
		<path id="C" class="st1" d="M467.7,1173.8l-67.6-29.9l-67.6,29.9v50h2v-48.7l65.6-29l65.6,29v48.7h2V1173.8z"/>
	</g>
	<path class="st1" d="M640.3,1123.2l-22.4-9.8v-1l-0.1-102.1l-17.7-7.8l-17.7,7.8v103l-22.6,9.9h0.1l-59.8,26.4l-59.8-26.4
		l-22.4-9.8v-1l-0.1-102.1l-17.7-7.8l-17.7,7.8v103l-22.6,9.9h0.1l-59.8,26.4l-59.8-26.4l-22.4-9.8v-1l-0.1-102.1l-17.7-7.8
		l-17.7,7.8v103l-22.6,9.9h0.1l-59.8,26.4l-59.8-26.4l-22.4-9.8v-1l-0.1-102.1l-17.7-7.8l-17.7,7.8v103l-22.6,9.9h0.1l-56.7,25.1
		v2.2l61.6-27.3h-0.1l19.1-8.4l0.6-0.3v-102.9l15.7-6.9l15.7,6.9v19.9l0.1,83.2l19.5,8.5l63.7,28.2v72.4h2v-72.4l83.3-36.9v-102.9
		l15.7-6.9l15.7,6.9v19.9l0.1,83.2l19.5,8.5l63.7,28.2v72.4h2v-72.4l83.3-36.9v-102.9l15.7-6.9l15.7,6.9v19.9l0.1,83.2l19.5,8.5
		l63.7,28.2v72.4h2v-72.4l83.3-36.9v-102.9l15.7-6.9l15.7,6.9v19.9l0.1,83.2l19.5,8.5l59.8,26.5v-2.2L640.3,1123.2z M651.2,1089
		l-0.1-103.1l-0.6-0.2l-50.4-22.3l-51,22.5V1089l-49,21.6l-48.9-21.6l-0.1-103.1l-0.6-0.2l-50.4-22.3l-51,22.5V1089l-49,21.6
		l-48.9-21.6l-0.1-103.1l-0.6-0.2l-50.4-22.3l-51,22.5V1089l-49,21.6L51.2,1089l-0.1-103.1l-0.6-0.2L0.1,963.4l-51,22.5V1089
		l-45.9,20.3v2.2l47.9-21.2V987.2l49-21.6l49,21.6v61.1l0.1,42l50.9,22.5h0.1l50.9-22.5V987.2l49-21.6l49,21.6v61.1l0.1,42
		l50.9,22.5l51-22.5V987.2l49-21.6l49,21.6v61.1l0.1,42l50.9,22.5h0.1l50.9-22.5V987.2l49-21.6l49,21.6v61.1l0.1,42l46,20.3v-2.1
		L651.2,1089z M200.1,1182.9l-34.3,15.2v25.7h2v-24.4l32.3-14.3l32.4,14.3v24.4h2l-0.1-25.7L200.1,1182.9z"/>
	<g>
		<path id="C_1_" class="st1" d="M267.7,1173.8l-67.6-29.9l-67.6,29.9v50h2v-48.7l65.6-29l65.6,29v48.7h2V1173.8z"/>
	</g>
	<path class="st1" d="M0.1,1182.9l-34.3,15.2v25.7h2v-24.4l32.3-14.3l32.4,14.3v24.4h2v-25.7L0.1,1182.9z"/>
	<g>
		<path id="C_2_" class="st1" d="M67.7,1173.8l-67.6-29.9l-67.6,29.9v50h2v-48.7l65.6-29l65.6,29v48.7h2V1173.8z"/>
	</g>
	<g>
		<path id="D" class="st1" d="M684.5,1123.2l-1.5-0.6l-48.5-21.4v-61.9h-1h1v-41.2l-34.4-15.2l-34.3,15.2v103l-50.3,22.1h0.1
			l-15.5,6.9l-15.5-6.9h-0.1l-1.5-0.6l-48.5-21.4v-61.9h-1h1l-0.1-41.2l-34.3-15.2l-34.3,15.2v103l-50.3,22.1h0.1l-15.5,6.9
			l-15.5-6.9h-0.1l-1.5-0.6l-48.5-21.4v-61.9h-1h1l-0.1-41.2l-34.3-15.2l-34.3,15.2v103l-50.3,22.1h0.1l-15.5,6.9l-15.5-6.9h-0.1
			l-1.5-0.6l-48.5-21.4v-61.9h-1h1v-41.2L0.1,982.9l-34.3,15.2v103l-50.3,22.1h0.1l-12.4,5.5v2.2l17.4-7.7h-0.1l46.7-20.6l0.6-0.2
			v-103l32.3-14.3l32.4,14.3v103.1l47.1,20.7l20.1,8.9l0.4,0.2l20.5-9.1h-0.1l46.7-20.6l0.6-0.2v-103l32.3-14.3l32.4,14.3v103.1
			l47.1,20.7l20.1,8.9l0.4,0.2l20.5-9.1h-0.1l46.7-20.6l0.6-0.2v-103l32.3-14.3l32.4,14.3v103.1l47.1,20.7l20.1,8.9l0.4,0.2
			l20.5-9.1h-0.1l46.7-20.6l0.6-0.2v-103l32.3-14.3l32.4,14.3v103.1l47.1,20.7l15.6,6.9v-2.2l-10.6-4.7H684.5z"/>
	</g>
	<path class="st1" d="M651.2,689l-0.1-103.1l-0.6-0.2l-50.4-22.3l-51,22.5V689l-49,21.6L451.2,689l-0.1-103.1l-0.6-0.2l-50.4-22.3
		l-51,22.5V689l-49,21.6L251.2,689l-0.1-103.1l-0.6-0.2l-50.4-22.3l-51,22.5V689l-49,21.6L51.2,689l-0.1-103.1l-0.6-0.2L0.1,563.4
		l-51,22.5V689l-45.9,20.3v2.2l47.9-21.2V587.2l49-21.6l49,21.6v61.1l0.1,42l50.9,22.5h0.1l50.9-22.5V587.2l49-21.6l49,21.6v61.1
		l0.1,42l50.9,22.5l51-22.5V587.2l49-21.6l49,21.6v61.1l0.1,42l50.9,22.5h0.1l50.9-22.5V587.2l49-21.6l49,21.6v61.1l0.1,42l46,20.3
		v-2.1L651.2,689z M640.3,723.2l-22.4-9.8v-1l-0.1-102.1l-17.7-7.8l-17.7,7.8v103l-22.6,9.9h0.1l-59.8,26.4l-59.8-26.4l-22.4-9.8v-1
		l-0.1-102.1l-17.7-7.8l-17.7,7.8v103l-22.6,9.9h0.1l-59.8,26.4l-59.8-26.4l-22.4-9.8v-1l-0.1-102.1l-17.7-7.8l-17.7,7.8v103
		l-22.6,9.9h0.1l-59.8,26.4l-59.8-26.4l-22.4-9.8v-1l-0.1-102.1l-17.7-7.8l-17.7,7.8v103l-22.6,9.9h0.1l-56.7,25.1v2.2l61.6-27.3
		h-0.1l19.1-8.4l0.6-0.3V611.6l15.7-6.9l15.7,6.9v19.9l0.1,83.2l19.5,8.5l63.7,28.2v102.1h2V751.4l83.3-36.9V611.6l15.7-6.9
		l15.7,6.9v19.9l0.1,83.2l19.5,8.5l63.7,28.2v102.1h2V751.4l83.3-36.9V611.6l15.7-6.9l15.7,6.9v19.9l0.1,83.2l19.5,8.5l63.7,28.2
		v102.1h2V751.4l83.3-36.9V611.6l15.7-6.9l15.7,6.9v19.9l0.1,83.2l19.5,8.5l59.8,26.5v-2.2L640.3,723.2z M667.8,876.8l-0.1-40.2
		v-62.8l-67.6-29.9l-67.6,29.9v103l-32.3,14.3h-0.1l-32.3-14.3l-0.1-40.2v-62.8l-67.6-29.9l-67.6,29.9v103l-32.4,14.3l-32.3-14.3
		l-0.1-40.2v-62.8l-67.6-29.9l-67.6,29.9v103l-32.3,14.3h-0.1l-32.3-14.3l-0.1-40.2v-62.8L0.1,743.9l-67.6,29.9v103l-29.3,12.9v2.2
		l31.3-13.8v-103l65.6-29l65.6,29v61.1l0.1,41.9l34.3,15.1l0.1,0.1l34.3-15.2v-103l65.6-29l65.6,29v61.1l0.1,41.9l34.3,15.1v0.1
		l34.4-15.2v-103l65.6-29l65.6,29v61.1l0.1,41.9l34.3,15.1l0.1,0.1l34.3-15.2v-103l65.6-29l65.6,29v61.1l0.1,41.9l29.4,13v-2.2
		L667.8,876.8z M667.8,1076.8l-0.1-40.2v-62.8l-67.6-29.9l-67.6,29.9v103l-32.3,14.3h-0.1l-32.3-14.3l-0.1-40.2v-62.8l-67.6-29.9
		l-67.6,29.9v103l-32.4,14.3l-32.3-14.3l-0.1-40.2v-62.8l-67.6-29.9l-67.6,29.9v103l-32.3,14.3h-0.1l-32.3-14.3l-0.1-40.2v-62.8
		L0.1,943.9l-67.6,29.9v103l-29.3,12.9v2.2l31.3-13.8v-103l65.6-29l65.6,29v61.1l0.1,41.9l34.3,15.1l0.1,0.1l34.3-15.2v-103l65.6-29
		l65.6,29v61.1l0.1,41.9l34.3,15.1v0.1l34.4-15.2v-103l65.6-29l65.6,29v61.1l0.1,41.9l34.3,15.1l0.1,0.1l34.3-15.2v-103l65.6-29
		l65.6,29v61.1l0.1,41.9l29.4,13v-2.2L667.8,1076.8z"/>
	<g>
		<path id="D_1_" class="st1" d="M684.5,723.2l-1.5-0.6l-48.5-21.4v-61.9h-1h1v-41.2l-34.4-15.2l-34.3,15.2v103l-50.3,22.1h0.1
			l-15.5,6.9l-15.5-6.9h-0.1l-1.5-0.6l-48.5-21.4v-61.9h-1h1l-0.1-41.2l-34.3-15.2l-34.3,15.2v103l-50.3,22.1h0.1l-15.5,6.9
			l-15.5-6.9h-0.1l-1.5-0.6l-48.5-21.4v-61.9h-1h1l-0.1-41.2l-34.3-15.2l-34.3,15.2v103l-50.3,22.1h0.1l-15.5,6.9l-15.5-6.9h-0.1
			l-1.5-0.6l-48.5-21.4v-61.9h-1h1v-41.2L0.1,582.9l-34.3,15.2v103l-50.3,22.1h0.1l-12.4,5.5v2.2l17.4-7.7h-0.1l46.7-20.6l0.6-0.2
			v-103l32.3-14.3l32.4,14.3v103.1l47.1,20.7l20.1,8.9l0.4,0.2l20.5-9.1h-0.1l46.7-20.6l0.6-0.2v-103l32.3-14.3l32.4,14.3v103.1
			l47.1,20.7l20.1,8.9l0.4,0.2l20.5-9.1h-0.1l46.7-20.6l0.6-0.2v-103l32.3-14.3l32.4,14.3v103.1l47.1,20.7l20.1,8.9l0.4,0.2
			l20.5-9.1h-0.1l46.7-20.6l0.6-0.2v-103l32.3-14.3l32.4,14.3v103.1l47.1,20.7l15.6,6.9v-2.2l-10.6-4.7H684.5z"/>
	</g>
	<path class="st1" d="M651.2,889l-0.1-103.1l-0.6-0.2l-50.4-22.3l-51,22.5V889l-49,21.6L451.2,889l-0.1-103.1l-0.6-0.2l-50.4-22.3
		l-51,22.5V889l-49,21.6L251.2,889l-0.1-103.1l-0.6-0.2l-50.4-22.3l-51,22.5V889l-49,21.6L51.2,889l-0.1-103.1l-0.6-0.2L0.1,763.4
		l-51,22.5V889l-45.9,20.3v2.2l47.9-21.2V787.2l49-21.6l49,21.6v61.1l0.1,42l50.9,22.5h0.1l50.9-22.5V787.2l49-21.6l49,21.6v61.1
		l0.1,42l50.9,22.5l51-22.5V787.2l49-21.6l49,21.6v61.1l0.1,42l50.9,22.5h0.1l50.9-22.5V787.2l49-21.6l49,21.6v61.1l0.1,42l46,20.3
		v-2.1L651.2,889z M684.5,1064.7l-0.1-20v-83.2l-83.5-36.9V821.4h-2v103.2l-83.5,36.9l0.4,103.2l-15.7,6.9v-0.1l-15.6-6.8l-0.1-20
		l-0.1-83.2l-83.4-36.9V821.4h-2v103.2l-83.5,36.9l0.4,103.2l-15.7,6.9v-0.1l-15.6-6.8l-0.1-20l-0.1-83.2l-83.4-36.9V821.4h-2v103.2
		l-83.5,36.9l0.4,103.2l-15.7,6.9v-0.1l-15.6-6.8v-20l-0.2-83.2L0.9,924.6V821.4h-2v103.2l-83.5,36.9l0.4,103.2l-12.6,5.5v2.2
		l14.6-6.5v-1l-0.1-19.9l-0.3-82.2l82.5-36.4l82.4,36.4l0.2,83v20.2l17.6,7.7v0.1l17.7-7.9v-1l-0.1-19.9l-0.3-82.2l82.5-36.4
		l82.5,36.4V1066l17.7,7.7v0.1l17.7-7.9v-1l-0.1-19.9l-0.3-82.2l82.5-36.4l82.4,36.4l0.1,103.2l17.7,7.7v0.1l17.7-7.9v-1l-0.1-19.9
		l-0.3-82.2l82.5-36.4l82.5,36.4V1066l12.8,5.6v-2.2L684.5,1064.7z M640.3,923.2l-22.4-9.8v-1l-0.1-102.1l-17.7-7.8l-17.7,7.8v103
		l-22.6,9.9h0.1l-59.8,26.4l-59.8-26.4l-22.4-9.8v-1l-0.1-102.1l-17.7-7.8l-17.7,7.8v103l-22.6,9.9h0.1l-59.8,26.4l-59.8-26.4
		l-22.4-9.8v-1l-0.1-102.1l-17.7-7.8l-17.7,7.8v103l-22.6,9.9h0.1l-59.8,26.4l-59.8-26.4l-22.4-9.8v-1l-0.1-102.1l-17.7-7.8
		l-17.7,7.8v103l-22.6,9.9h0.1l-56.7,25.1v2.2l61.6-27.3h-0.1l19.1-8.4l0.6-0.3V811.6l15.7-6.9l15.7,6.9v19.9l0.1,83.2l19.5,8.5
		l63.7,28.2v102.1h2V951.4l83.3-36.9V811.6l15.7-6.9l15.7,6.9v19.9l0.1,83.2l19.5,8.5l63.7,28.2v102.1h2V951.4l83.3-36.9V811.6
		l15.7-6.9l15.7,6.9v19.9l0.1,83.2l19.5,8.5l63.7,28.2v102.1h2V951.4l83.3-36.9V811.6l15.7-6.9l15.7,6.9v19.9l0.1,83.2l19.5,8.5
		l59.8,26.5v-2.2L640.3,923.2z"/>
	<g>
		<path id="D_2_" class="st1" d="M684.5,923.2l-1.5-0.6l-48.5-21.4v-61.9h-1h1v-41.2l-34.4-15.2l-34.3,15.2v103l-50.3,22.1h0.1
			l-15.5,6.9l-15.5-6.9h-0.1l-1.5-0.6l-48.5-21.4v-61.9h-1h1l-0.1-41.2l-34.3-15.2l-34.3,15.2v103l-50.3,22.1h0.1l-15.5,6.9
			l-15.5-6.9h-0.1l-1.5-0.6l-48.5-21.4v-61.9h-1h1l-0.1-41.2l-34.3-15.2l-34.3,15.2v103l-50.3,22.1h0.1l-15.5,6.9l-15.5-6.9h-0.1
			l-1.5-0.6l-48.5-21.4v-61.9h-1h1v-41.2L0.1,782.9l-34.3,15.2v103l-50.3,22.1h0.1l-12.4,5.5v2.2l17.4-7.7h-0.1l46.7-20.6l0.6-0.2
			v-103l32.3-14.3l32.4,14.3v103.1l47.1,20.7l20.1,8.9l0.4,0.2l20.5-9.1h-0.1l46.7-20.6l0.6-0.2v-103l32.3-14.3l32.4,14.3v103.1
			l47.1,20.7l20.1,8.9l0.4,0.2l20.5-9.1h-0.1l46.7-20.6l0.6-0.2v-103l32.3-14.3l32.4,14.3v103.1l47.1,20.7l20.1,8.9l0.4,0.2
			l20.5-9.1h-0.1l46.7-20.6l0.6-0.2v-103l32.3-14.3l32.4,14.3v103.1l47.1,20.7l15.6,6.9v-2.2l-10.6-4.7H684.5z"/>
	</g>
	<path class="st1" d="M684.5,864.7l-0.1-20v-83.2l-83.5-36.9V621.4h-2v103.2l-83.5,36.9l0.4,103.2l-15.7,6.9v-0.1l-15.6-6.8l-0.1-20
		l-0.1-83.2l-83.4-36.9V621.4h-2v103.2l-83.5,36.9l0.4,103.2l-15.7,6.9v-0.1l-15.6-6.8l-0.1-20l-0.1-83.2l-83.4-36.9V621.4h-2v103.2
		l-83.5,36.9l0.4,103.2l-15.7,6.9v-0.1l-15.6-6.8v-20l-0.2-83.2L0.9,724.6V621.4h-2v103.2l-83.5,36.9l0.4,103.2l-12.6,5.5v2.2
		l14.6-6.5v-1l-0.1-19.9l-0.3-82.2l82.5-36.4l82.4,36.4l0.2,83V866l17.6,7.7v0.1l17.7-7.9v-1l-0.1-19.9l-0.3-82.2l82.5-36.4
		l82.5,36.4V866l17.7,7.7v0.1l17.7-7.9v-1l-0.1-19.9l-0.3-82.2l82.5-36.4l82.4,36.4l0.1,103.2l17.7,7.7v0.1l17.7-7.9v-1l-0.1-19.9
		l-0.3-82.2l82.5-36.4l82.5,36.4V866l12.8,5.6v-2.2L684.5,864.7z M198.9,1221.4h2v2.4h-2V1221.4z"/>
	<g>
		<path id="E" class="st1" d="M417.8,1210.9v-0.6l-17.7-7.8l-17.7,7.8v13.5h2v-12.2l15.7-6.9l15.7,6.9v12.2h2V1210.9z"/>
	</g>
	<g>
		<path id="E_1_" class="st1" d="M217.8,1210.9v-0.6l-17.7-7.8l-17.7,7.8v13.5h2v-12.2l15.7-6.9l15.7,6.9v12.2h2V1210.9z"/>
	</g>
	<path class="st1" d="M-1.1,1221.4h2v2.4h-2V1221.4z"/>
	<g>
		<path id="E_2_" class="st1" d="M17.8,1210.9v-0.6l-17.7-7.8l-17.7,7.8v13.5h2v-12.2l15.7-6.9l15.7,6.9v12.2h2V1210.9z"/>
	</g>
	<path class="st1" d="M398.9,1221.4h2v2.4h-2V1221.4z M598.9,1221.4h2v2.4h-2V1221.4z"/>
	<g>
		<path id="E_3_" class="st1" d="M617.8,1210.9v-0.6l-17.7-7.8l-17.7,7.8v13.5h2v-12.2l15.7-6.9l15.7,6.9v12.2h2V1210.9z"/>
	</g>
	<g>
		<path id="B_1_" class="st1" d="M250.5,1185.7L250.5,1185.7l-50.4-22.3l-51,22.5v37.9h2v-36.6l49-21.6l49,21.6v36.6h2v-37.9
			L250.5,1185.7z"/>
	</g>
	<path class="st1" d="M600.1,1182.9l-34.3,15.2v25.7h2v-24.4l32.3-14.3l32.4,14.3v24.4h2v-25.7L600.1,1182.9z"/>
	<g>
		<path id="B_2_" class="st1" d="M450.5,1185.7L450.5,1185.7l-50.4-22.3l-51,22.5v37.9h2v-36.6l49-21.6l49,21.6v36.6h2v-37.9
			L450.5,1185.7z"/>
	</g>
	<path class="st1" d="M400.1,1182.9l-34.3,15.2v25.7h2v-24.4l32.3-14.3l32.4,14.3v24.4h2l-0.1-25.7L400.1,1182.9z"/>
	<g>
		<path id="B_3_" class="st1" d="M650.5,1185.7L650.5,1185.7l-50.4-22.3l-51,22.5v37.9h2v-36.6l49-21.6l49,21.6v36.6h2v-37.9
			L650.5,1185.7z"/>
	</g>
	<path class="st1" d="M117.4,1162.8l82.5-36.5l82.5,36.5v61h2l-0.1-62.3l-83.4-36.9v-103.2h-2v103.2l-83.5,36.9l0.2,62.3h2
		L117.4,1162.8z M-82.6,1162.8l82.5-36.5l82.4,36.5l0.1,61h2l-0.1-62.3l-83.4-36.9v-103.2h-2v103.2l-83.5,36.9l0.2,62.3h2
		L-82.6,1162.8z M600.5,1144.1l-0.4-0.2l-67.6,29.9v50h2v-48.7l65.6-29l65.6,29v48.7h2v-50L600.5,1144.1z M517.4,1162.8l82.5-36.5
		l82.5,36.5v61h2v-62.3l-83.5-36.9v-103.2h-2v103.2l-83.5,36.9l0.2,62.3h2L517.4,1162.8z M317.4,1162.8l82.5-36.5l82.4,36.5l0.1,61
		h2l-0.1-62.3l-83.4-36.9v-103.2h-2v103.2l-83.5,36.9l0.2,62.3h2L317.4,1162.8z"/>
	<g>
		<path id="F" class="st1" d="M165.8-0.2v101.3l-50.3,22.2h0.1l-15.5,6.8l-15.5-6.8h-0.1l-1.5-0.7l-48.5-21.4V39.3h-1h1V-0.2h-2
			v102.7l47.1,20.8l20.1,8.8l0.4,0.2l20.5-9h-0.1l46.7-20.7l0.6-0.2V-0.2H165.8z"/>
	</g>
	<path class="st1" d="M249.1-0.2v48.5l0.1,42l50.9,22.5l51-22.5V-0.2h-2V89l-49,21.6L251.2,89l-0.1-89.2L249.1-0.2z"/>
	<g>
		<path id="G" class="st1" d="M532.5,76.8l-32.3,14.3h-0.1l-32.3-14.3l-0.1-40.2V-0.2h-2v36.4l0.1,41.9l34.3,15.2v-0.1l0.1,0.1
			l34.3-15.2V-0.2h-2v56.9V76.8z"/>
	</g>
	<path class="st1" d="M449.1-0.2v48.5l0.1,42l50.9,22.5h0.1l50.9-22.5V-0.2h-2V89l-49,21.6L451.2,89l-0.1-89.2L449.1-0.2z M49.1-0.2
		v48.5l0.1,42l50.9,22.5h0.1l50.9-22.5V-0.2h-2V89l-49,21.6L51.2,89L51.1-0.2L49.1-0.2z M500.1,53.5h1V-0.2h-2v53.7H500.1z"/>
	<g>
		<path id="H" class="st1" d="M482.4,45.8V66l17.7,7.7v0.1l17.7-7.9v-1L517.7,45l-0.2-45.2h-2l0.2,46.8l0.1,18.1l-15.7,6.9v-0.1
			l-15.6-6.8l-0.1-20V-0.2h-2L482.4,45.8z"/>
	</g>
	<g>
		<path id="F_1_" class="st1" d="M365.8-0.2v101.3l-50.3,22.2h0.1l-15.5,6.8l-15.5-6.8h-0.1l-1.5-0.7l-48.5-21.4V39.3h-1h1V-0.2h-2
			v102.7l47.1,20.8l20.1,8.8l0.4,0.2l20.5-9h-0.1l46.7-20.7l0.6-0.2V-0.2H365.8z"/>
	</g>
	<g>
		<path id="F_2_" class="st1" d="M565.8-0.2v101.3l-50.3,22.2h0.1l-15.5,6.8l-15.5-6.8h-0.1l-1.5-0.7l-48.5-21.4V39.3h-1h1V-0.2h-2
			v102.7l47.1,20.8l20.1,8.8l0.4,0.2l20.5-9h-0.1l46.7-20.7l0.6-0.2V-0.2H565.8z"/>
	</g>
	<g>
		<path id="G_1_" class="st1" d="M132.5,76.8l-32.3,14.3h-0.1L67.8,76.8l-0.1-40.2V-0.2h-2v36.4l0.1,41.9l34.3,15.2v-0.1l0.1,0.1
			l34.3-15.2V-0.2h-2v56.9V76.8z"/>
	</g>
	<path class="st1" d="M651.2,89l-0.1-89.2h-2v48.5l0.1,42l46,20.3v-2.1L651.2,89z M684.5,123.3l-1.5-0.7l-48.5-21.4V39.3h-1h1V-0.2
		h-2v102.7l47.1,20.8l15.6,6.8v-2.2L684.5,123.3L684.5,123.3z M667.8,76.8l-0.1-40.2V-0.2h-2v36.4l0.1,41.9l29.4,13v-2.2L667.8,76.8
		z M667.8,676.8l-0.1-40.2v-62.8l-67.6-29.9l-67.6,29.9v103l-32.3,14.3h-0.1l-32.3-14.3l-0.1-40.2v-62.8l-67.6-29.9l-67.6,29.9v103
		l-32.4,14.3l-32.3-14.3l-0.1-40.2v-62.8l-67.6-29.9l-67.6,29.9v103l-32.3,14.3h-0.1l-32.3-14.3l-0.1-40.2v-62.8L0.1,543.9
		l-67.6,29.9v103l-29.3,12.9v2.2l31.3-13.8v-103l65.6-29l65.6,29v61.1l0.1,41.9l34.3,15.1l0.1,0.1l34.3-15.2v-103l65.6-29l65.6,29
		v61.1l0.1,41.9l34.3,15.1v0.1l34.4-15.2v-103l65.6-29l65.6,29v61.1l0.1,41.9l34.3,15.1l0.1,0.1l34.3-15.2v-103l65.6-29l65.6,29
		v61.1l0.1,41.9l29.4,13v-2.2L667.8,676.8z M-48.9,90.3V-0.2h-2V89l-45.9,20.3v2.2L-48.9,90.3z"/>
	<g>
		<path id="H_1_" class="st1" d="M282.4,45.8V66l17.7,7.7v0.1l17.7-7.9v-1L317.7,45l-0.2-45.2h-2l0.2,46.8l0.1,18.1l-15.7,6.9v-0.1
			l-15.6-6.8l-0.1-20V-0.2h-2L282.4,45.8z"/>
	</g>
	<path class="st1" d="M332.5,76.8l-32.4,14.3l-32.3-14.3l-0.1-40.2V-0.2h-2v36.4l0.1,41.9l34.3,15.2v-0.1v0.1l34.4-15.2V-0.2h-2
		v56.9V76.8z M-96.8,130.9l17.4-7.6h-0.1l46.7-20.7l0.6-0.2V-0.2h-2v101.3l-50.3,22.2h0.1l-12.4,5.4V130.9z M684.5,64.7l-0.1-20
		V-0.2h-2V66l12.8,5.6v-2.2L684.5,64.7z M684.5,323.3l-1.5-0.7l-48.5-21.4v-61.9h-1h1v-41.2l-34.4-15.2l-34.3,15.2v103l-50.3,22.2
		h0.1l-15.5,6.8l-15.5-6.8h-0.1l-1.5-0.7l-48.5-21.4v-61.9h-1h1l-0.1-41.2l-34.3-15.2l-34.3,15.2v103l-50.3,22.2h0.1l-15.5,6.8
		l-15.5-6.8h-0.1l-1.5-0.7l-48.5-21.4v-61.9h-1h1l-0.1-41.2l-34.3-15.2l-34.3,15.2v103l-50.3,22.2h0.1l-15.5,6.8l-15.5-6.8h-0.1
		l-1.5-0.7l-48.5-21.4v-61.9h-1h1v-41.2L0.1,182.9l-34.3,15.2v103l-50.3,22.2h0.1l-12.4,5.4v2.2l17.4-7.6h-0.1l46.7-20.7l0.6-0.2
		v-103l32.3-14.3l32.4,14.3v103.1l47.1,20.8l20.1,8.8l0.4,0.2l20.5-9h-0.1l46.7-20.7l0.6-0.2v-103l32.3-14.3l32.4,14.3v103.1
		l47.1,20.8l20.1,8.8l0.4,0.2l20.5-9h-0.1l46.7-20.7l0.6-0.2v-103l32.3-14.3l32.4,14.3v103.1l47.1,20.8l20.1,8.8l0.4,0.2l20.5-9
		h-0.1l46.7-20.7l0.6-0.2v-103l32.3-14.3l32.4,14.3v103.1l47.1,20.8l15.6,6.8v-2.2l-10.6-4.6L684.5,323.3z M651.2,489l-0.1-103.1
		l-0.6-0.2l-50.4-22.3l-51,22.5V489l-49,21.6L451.2,489l-0.1-103.1l-0.6-0.2l-50.4-22.3l-51,22.5V489l-49,21.6L251.2,489l-0.1-103.1
		l-0.6-0.2l-50.4-22.3l-51,22.5V489l-49,21.6L51.2,489l-0.1-103.1l-0.6-0.2L0.1,363.4l-51,22.5V489l-45.9,20.3v2.2l47.9-21.2V387.2
		l49-21.6l49,21.6v61.1l0.1,42l50.9,22.5h0.1l50.9-22.5V387.2l49-21.6l49,21.6v61.1l0.1,42l50.9,22.5l51-22.5V387.2l49-21.6l49,21.6
		v61.1l0.1,42l50.9,22.5h0.1l50.9-22.5V387.2l49-21.6l49,21.6v61.1l0.1,42l46,20.3v-2.1L651.2,489z M667.8,476.8l-0.1-40.2v-62.8
		l-67.6-29.9l-67.6,29.9v103l-32.3,14.3h-0.1l-32.3-14.3l-0.1-40.2v-62.8l-67.6-29.9l-67.6,29.9v103l-32.4,14.3l-32.3-14.3
		l-0.1-40.2v-62.8l-67.6-29.9l-67.6,29.9v103l-32.3,14.3h-0.1l-32.3-14.3l-0.1-40.2v-62.8L0.1,343.9l-67.6,29.9v103l-29.3,12.9v2.2
		l31.3-13.8v-103l65.6-29l65.6,29v61.1l0.1,41.9l34.3,15.2v-0.1l0.1,0.1l34.3-15.2v-103l65.6-29l65.6,29v61.1l0.1,41.9l34.3,15.2
		v-0.1v0.1l34.4-15.2v-103l65.6-29l65.6,29v61.1l0.1,41.9l34.3,15.2v-0.1l0.1,0.1l34.3-15.2v-103l65.6-29l65.6,29v61.1l0.1,41.9
		l29.4,13v-2.2L667.8,476.8z M640.3,323.3l-22.4-9.9v-1l-0.1-102.1l-17.7-7.8l-17.7,7.8v103l-22.6,10h0.1l-59.8,26.3l-82.2-36.2v-1
		l-0.1-102.1l-17.7-7.8l-17.7,7.8v103l-22.6,10h0.1l-59.8,26.3l-82.2-36.2v-1l-0.1-102.1l-17.7-7.8l-17.7,7.8v103l-22.6,10h0.1
		l-59.8,26.3l-82.2-36.2v-1l-0.1-102.1l-17.7-7.8l-17.7,7.8v103l-22.6,10h0.1l-56.7,25v2.2l61.5-27.2l19.1-8.5l0.6-0.3V211.6
		l15.7-6.9l15.7,6.9v19.9l0.1,83.2l83.2,36.7v102.1h2V351.4l63.7-28.1h-0.1l19.1-8.5l0.6-0.3V211.6l15.7-6.9l15.7,6.9v19.9l0.1,83.2
		l83.2,36.7v102.1h2V351.4l63.7-28.1h-0.1l19.1-8.5l0.6-0.3V211.6l15.7-6.9l15.7,6.9v19.9l0.1,83.2l83.2,36.7v102.1h2V351.4
		l63.7-28.1h-0.1l19.1-8.5l0.6-0.3V211.6l15.7-6.9l15.7,6.9v19.9l0.1,83.2l19.5,8.6l59.8,26.4v-2.2L640.3,323.3z M684.5,464.7
		l-0.1-20v-83.2l-83.5-36.9V221.4h-2v103.2l-83.5,36.9l0.4,103.2l-15.7,6.9v-0.1l-15.6-6.8l-0.1-20l-0.1-83.2l-83.4-36.9V221.4h-2
		v103.2l-83.5,36.9l0.4,103.2l-15.7,6.9v-0.1l-15.6-6.8l-0.1-20l-0.1-83.2l-83.4-36.9V221.4h-2v103.2l-83.5,36.9l0.4,103.2
		l-15.7,6.9v-0.1l-15.6-6.8v-20l-0.2-83.2L0.9,324.6V221.4h-2v103.2l-83.5,36.9l0.4,103.2l-12.6,5.5v2.2l14.6-6.4v-1.1l-0.1-19.9
		l-0.3-82.2l82.5-36.4l82.4,36.4l0.2,83V466l17.6,7.7v0.1l17.7-7.8v-1.1l-0.1-19.9l-0.3-82.2l82.5-36.4l82.5,36.4V466l17.7,7.7v0.1
		l17.7-7.8v-1.1l-0.1-19.9l-0.3-82.2l82.5-36.4l82.4,36.4l0.1,103.2l17.7,7.7v0.1l17.7-7.8v-1.1l-0.1-19.9l-0.3-82.2l82.5-36.4
		l82.5,36.4V466l12.8,5.6v-2.2L684.5,464.7z M684.5,664.7l-0.1-20v-83.2l-83.5-36.9V421.4h-2v103.2l-83.5,36.9l0.4,103.2l-15.7,6.9
		v-0.1l-15.6-6.8l-0.1-20l-0.1-83.2l-83.4-36.9V421.4h-2v103.2l-83.5,36.9l0.4,103.2l-15.7,6.9v-0.1l-15.6-6.8l-0.1-20l-0.1-83.2
		l-83.4-36.9V421.4h-2v103.2l-83.5,36.9l0.4,103.2l-15.7,6.9v-0.1l-15.6-6.8v-20l-0.2-83.2L0.9,524.6V421.4h-2v103.2l-83.5,36.9
		l0.4,103.2l-12.6,5.5v2.2l14.6-6.5v-1l-0.1-19.9l-0.3-82.2l82.5-36.4l82.4,36.4l0.2,83V666l17.6,7.7v0.1l17.7-7.9v-1l-0.1-19.9
		l-0.3-82.2l82.5-36.4l82.5,36.4V666l17.7,7.7v0.1l17.7-7.9v-1l-0.1-19.9l-0.3-82.2l82.5-36.4l82.4,36.4l0.1,103.2l17.7,7.7v0.1
		l17.7-7.9v-1l-0.1-19.9l-0.3-82.2l82.5-36.4l82.5,36.4V666l12.8,5.6v-2.2L684.5,664.7z"/>
	<g>
		<path id="D_3_" class="st1" d="M684.5,523.2l-1.5-0.6l-48.5-21.4v-61.9h-1h1v-41.2l-34.4-15.2l-34.3,15.2v103l-50.3,22.1h0.1
			l-15.5,6.9l-15.5-6.9h-0.1l-1.5-0.6l-48.5-21.4v-61.9h-1h1l-0.1-41.2l-34.3-15.2l-34.3,15.2v103l-50.3,22.1h0.1l-15.5,6.9
			l-15.5-6.9h-0.1l-1.5-0.6l-48.5-21.4v-61.9h-1h1l-0.1-41.2l-34.3-15.2l-34.3,15.2v103l-50.3,22.1h0.1l-15.5,6.9l-15.5-6.9h-0.1
			l-1.5-0.6l-48.5-21.4v-61.9h-1h1v-41.2L0.1,382.9l-34.3,15.2v103l-50.3,22.1h0.1l-12.4,5.5v2.2l17.4-7.7h-0.1l46.7-20.6l0.6-0.2
			v-103l32.3-14.3l32.4,14.3v103.1l47.1,20.7l20.1,8.9l0.4,0.2l20.5-9.1h-0.1l46.7-20.6l0.6-0.2v-103l32.3-14.3l32.4,14.3v103.1
			l47.1,20.7l20.1,8.9l0.4,0.2l20.5-9.1h-0.1l46.7-20.6l0.6-0.2v-103l32.3-14.3l32.4,14.3v103.1l47.1,20.7l20.1,8.9l0.4,0.2
			l20.5-9.1h-0.1l46.7-20.6l0.6-0.2v-103l32.3-14.3l32.4,14.3v103.1l47.1,20.7l15.6,6.9v-2.2l-10.6-4.7H684.5z"/>
	</g>
	<path class="st1" d="M640.3,523.2l-22.4-9.8v-1l-0.1-102.1l-17.7-7.8l-17.7,7.8v103l-22.6,9.9h0.1l-59.8,26.4l-59.8-26.4l-22.4-9.8
		v-1l-0.1-102.1l-17.7-7.8l-17.7,7.8v103l-22.6,9.9h0.1l-59.8,26.4l-59.8-26.4l-22.4-9.8v-1l-0.1-102.1l-17.7-7.8l-17.7,7.8v103
		l-22.6,9.9h0.1l-59.8,26.4l-59.8-26.4l-22.4-9.8v-1l-0.1-102.1l-17.7-7.8l-17.7,7.8v103l-22.6,9.9h0.1l-56.7,25.1v2.2l61.6-27.3
		h-0.1l19.1-8.4l0.6-0.3V411.6l15.7-6.9l15.7,6.9v19.9l0.1,83.2l19.5,8.5l63.7,28.2v102.1h2V551.4l83.3-36.9V411.6l15.7-6.9
		l15.7,6.9v19.9l0.1,83.2l19.5,8.5l63.7,28.2v102.1h2V551.4l83.3-36.9V411.6l15.7-6.9l15.7,6.9v19.9l0.1,83.2l19.5,8.5l63.7,28.2
		v102.1h2V551.4l83.3-36.9V411.6l15.7-6.9l15.7,6.9v19.9l0.1,83.2l19.5,8.5l59.8,26.5v-2.2L640.3,523.2z M667.8,276.8l-0.1-40.2
		v-62.8l-67.6-29.9l-67.6,29.9v103l-32.3,14.3h-0.1l-32.3-14.3l-0.1-40.2v-62.8l-67.6-29.9l-67.6,29.9v103l-32.4,14.3l-32.3-14.3
		l-0.1-40.2v-62.8l-67.6-29.9l-67.6,29.9v103l-32.3,14.3h-0.1l-32.3-14.3l-0.1-40.2v-62.8L0.1,143.9l-67.6,29.9v103l-29.3,12.9v2.2
		l31.3-13.8v-103l65.6-29l65.6,29v61.1l0.1,41.9l34.3,15.2v-0.1l0.1,0.1l34.3-15.2v-103l65.6-29l65.6,29v61.1l0.1,41.9l34.3,15.2
		v-0.1v0.1l34.4-15.2v-103l65.6-29l65.6,29v61.1l0.1,41.9l34.3,15.2v-0.1l0.1,0.1l34.3-15.2v-103l65.6-29l65.6,29v61.1l0.1,41.9
		l29.4,13v-2.2L667.8,276.8z M100.1,53.5h1V-0.2h-2v53.7H100.1z M-82.2,65.9v-1L-82.3,45l-0.2-45.2h-2l0.2,46.8l0.1,18.1l-12.6,5.5
		v2.2L-82.2,65.9z M651.2,289l-0.1-103.1l-0.6-0.2l-50.4-22.3l-51,22.5V289l-49,21.6L451.2,289l-0.1-103.1l-0.6-0.2l-50.4-22.3
		l-51,22.5V289l-49,21.6L251.2,289l-0.1-103.1l-0.6-0.2l-50.4-22.3l-51,22.5V289l-49,21.6L51.2,289l-0.1-103.1l-0.6-0.2L0.1,163.4
		l-51,22.5V289l-45.9,20.3v2.2l47.9-21.2V187.2l49-21.6l49,21.6v61.1l0.1,42l50.9,22.5h0.1l50.9-22.5V187.2l49-21.6l49,21.6v61.1
		l0.1,42l50.9,22.5l51-22.5V187.2l49-21.6l49,21.6v61.1l0.1,42l50.9,22.5h0.1l50.9-22.5V187.2l49-21.6l49,21.6v61.1l0.1,42l46,20.3
		v-2.1L651.2,289z M82.5,45.8V66l17.6,7.7v0.1l17.7-7.9v-1L117.7,45l-0.2-45.2h-2l0.2,46.8l0.1,18.1l-15.7,6.9v-0.1l-15.6-6.8v-20
		L84.4-0.2h-2L82.5,45.8z M-65.5,78.1V-0.2h-2v77l-29.3,12.9v2.2L-65.5,78.1z M300.1,53.5h1V-0.2h-2v53.7H300.1z M684.5,264.7
		l-0.1-20v-83.2l-83.5-36.9V21.4h-2v103.2l-83.5,36.9l0.4,103.2l-15.7,6.9v-0.1l-15.6-6.8l-0.1-20l-0.1-83.2l-83.4-36.9V21.4h-2
		v103.2l-83.5,36.9l0.4,103.2l-15.7,6.9v-0.1l-15.6-6.8l-0.1-20l-0.1-83.2l-83.4-36.9V21.4h-2v103.2l-83.5,36.9l0.4,103.2l-15.7,6.9
		v-0.1l-15.6-6.8v-20l-0.2-83.2L0.9,124.6V21.4h-2v103.2l-83.5,36.9l0.4,103.2l-12.6,5.5v2.2l14.6-6.4v-1.1l-0.1-19.9l-0.3-82.2
		l82.5-36.4l82.4,36.4l0.2,83V266l17.6,7.7v0.1l17.7-7.8v-1.1l-0.1-19.9l-0.3-82.2l82.5-36.4l82.5,36.4V266l17.7,7.7v0.1l17.7-7.8
		v-1.1l-0.1-19.9l-0.3-82.2l82.5-36.4l82.4,36.4l0.1,103.2l17.7,7.7v0.1l17.7-7.8v-1.1l-0.1-19.9l-0.3-82.2l82.5-36.4l82.5,36.4V266
		l12.8,5.6v-2.2L684.5,264.7z M640.3,123.3l-22.4-9.9v-1l-0.1-102.1l-17.7-7.8l-17.7,7.8v103l-22.6,10h0.1l-59.8,26.3l-82.2-36.2v-1
		l-0.1-102.1l-17.7-7.8l-17.7,7.8v103l-22.6,10h0.1l-59.8,26.3l-82.2-36.2v-1l-0.1-102.1l-17.7-7.8l-17.7,7.8v103l-22.6,10h0.1
		l-59.8,26.3l-82.2-36.2v-1L17.8,10.3L0.1,2.5l-17.7,7.8v103l-22.6,10h0.1l-56.7,25v2.2l61.5-27.2l19.1-8.5l0.6-0.3V11.6L0.1,4.7
		l15.7,6.9v19.9l0.1,83.2l83.2,36.7v102.1h2V151.4l63.7-28.1h-0.1l19.1-8.5l0.6-0.3V11.6l15.7-6.9l15.7,6.9v19.9l0.1,83.2l83.2,36.7
		v102.1h2V151.4l63.7-28.1h-0.1l19.1-8.5l0.6-0.3V11.6l15.7-6.9l15.7,6.9v19.9l0.1,83.2l83.2,36.7v102.1h2V151.4l63.7-28.1h-0.1
		l19.1-8.5l0.6-0.3V11.6l15.7-6.9l15.7,6.9v19.9l0.1,83.2l19.5,8.6l59.8,26.4v-2.2L640.3,123.3z"/>
</g>
</svg>
