<?xml version="1.0" encoding="utf-8"?>
<!-- Generator: Adobe Illustrator 24.0.1, SVG Export Plug-In . SVG Version: 6.00 Build 0)  -->
<svg version="1.1" id="Capa_1" xmlns="http://www.w3.org/2000/svg" xmlns:xlink="http://www.w3.org/1999/xlink" x="0px" y="0px"
	 width="49.5px" height="60.1px" viewBox="0 0 49.5 60.1" style="enable-background:new 0 0 49.5 60.1;" xml:space="preserve">
<style type="text/css">
	.st0{fill:#FFFFFF;}
	.st1{fill:#232020;}
</style>
<title>location</title>
<path class="st0" d="M38.3,13.4c-5.6-6.5-15.5-7.2-22-1.6c-3.4,3-5.4,7.3-5.4,11.8c0,3.5,3.1,9.4,3.2,9.5l12.5,22l0.3-0.6L39,33.1
	c0,0,3.2-6,3.2-9.5C42.2,19.9,40.8,16.2,38.3,13.4z M25,33.3c-6.1-0.1-11.1-5-11.1-11.2C13.9,15.2,20.3,11,25,11
	c6.2,0,11.2,5,11.2,11.1C36.1,28.3,31.2,33.2,25,33.3z"/>
<path class="st1" d="M41.2,18.2C39,9.3,30.1,3.8,21.1,6C13.7,7.8,8.4,14.4,8.4,22.1c0,3.8,3.2,9.7,3.3,10l12.9,22.8
	c0.1,0.2,0.2,0.3,0.4,0.3c0.2,0,0.4-0.1,0.4-0.3l0.5-0.8l12.4-22c0.1-0.2,3.3-6.2,3.3-10C41.7,20.8,41.5,19.5,41.2,18.2z M37.5,31.6
	L25.4,53.1L25,53.7l-12.4-22c0-0.1-3.2-6-3.2-9.5c0-8.6,7-15.6,15.6-15.6c8.6,0,15.6,7,15.6,15.6C40.7,25.6,37.5,31.6,37.5,31.6z"/>
<path class="st1" d="M25,10c-6.7,0-12.2,5.4-12.2,12.2c0,6.7,5.4,12.2,12.2,12.2S37.2,29,37.2,22.2c0-2.9-1-5.7-2.9-7.9
	C32,11.6,28.6,10,25,10z M25,33.3c-6.2-0.1-11.1-5.1-11.1-11.2C13.9,15.2,20.3,11,25,11c6.2,0,11.2,5,11.2,11.1
	C36.1,28.3,31.2,33.2,25,33.3L25,33.3z"/>
</svg>
