<?xml version="1.0" encoding="utf-8"?>
<!-- Generator: Adobe Illustrator 24.1.0, SVG Export Plug-In . SVG Version: 6.00 Build 0)  -->
<svg version="1.1" id="logo" xmlns="http://www.w3.org/2000/svg" xmlns:xlink="http://www.w3.org/1999/xlink" width="100%" height="100%" viewBox="0 0 611 195" style="enable-background:new 0 0 612 195;" xml:space="preserve">
  <g>
    <path d="M98.5,44.6H85v97.3h13.5v35.3H24.1v-35.3h13.5V44.6H24.1v-35h74.4V44.6z"/>
    <path d="M198.5,177.2h-53.9c-19.6,0-32.4-12.8-32.4-33.8v-100c0-20.8,13-33.8,32.4-33.8h53.9c19.6,0,32.4,13,32.4,33.8v100
      C230.9,164.2,217.8,177.2,198.5,177.2z M183.3,141.9V44.6h-23.4v97.3H183.3z"/>
    <path d="M252,44.6h-11.8v-35h70.5v35h-13.3l12.1,80.7L334.6,9.6h35.8l26.8,115.7l9.7-80.7h-12.3v-35h69.6v35h-11.6l-21,132.6h-56.8
      l-22-98.8l-22.5,98.8h-54.6L252,44.6z"/>
    <path d="M451.8,141.9h12.8L490,9.5h76l25.1,132.4H603v35.3h-56.8l-5.3-40.8h-28.3l-5.1,40.8h-55.8L451.8,141.9L451.8,141.9z
      M538,105.7l-10.9-67.6L516,105.7H538z"/>
  </g>
  <g>
    <g>
      <defs>
        <polygon id="SVGID_1_" points="1,61.4 2,61.4 1,62.4 			"/>
      </defs>
      <clipPath id="SVGID_2_">
        <use xlink:href="#SVGID_1_"  style="overflow:visible;"/>
      </clipPath>
    </g>
  </g>
</svg>
