<svg id="icon" data-name="Layer 1" xmlns="http://www.w3.org/2000/svg" viewBox="0 0 50 50"><title>map-pin</title><path d="M25,.125A16.671,16.671,0,0,0,8.347,16.778c0,3.75,3.164,9.734,3.305,10L24.565,49.621a.5.5,0,0,0,.87,0L38.354,26.765c.135-.253,3.3-6.237,3.3-9.987A16.671,16.671,0,0,0,25,.125Zm0,48.234L12.529,26.3c-.032-.06-3.182-6.017-3.182-9.518a15.653,15.653,0,1,1,31.306,0c0,3.5-3.15,9.458-3.175,9.506Z"/><path d="M25,4.581a12.2,12.2,0,1,0,12.2,12.2A12.211,12.211,0,0,0,25,4.581Zm0,23.393a11.2,11.2,0,1,1,11.2-11.2A11.21,11.21,0,0,1,25,27.974Z"/></svg>
