<svg id="fd859de1-6597-4f6c-8960-fbeae9a1efbb" data-name="Layer 2" xmlns="http://www.w3.org/2000/svg" width="122" height="53" viewBox="0 0 122 53"><title>logo</title><g id="e21f4953-30f9-4d6e-9cb8-915fae0a795a" data-name="Layer 2"><g id="e668a86f-cdf5-4f3a-bb23-fe5e9d324bcd" data-name="Layer 1-2"><path d="M87.26,0C76.11,0,72,8.17,69.55,12.51H69.3C68.81,6.19,67.32,0,55.8,0,45.15,0,40.94,8.42,39,12.14h-.25V0L18.9,2.72V5.2c4.46,0,8.42,1,8.42,9V25c4-1.11,7.8-2.1,11.77-3,1-6.81,4.95-15.11,13-15.11,4.33,0,5.57,3.22,5.94,12.39a94.34,94.34,0,0,1,11.89,0,1.56,1.56,0,0,1,.74.12C72.52,13.37,76.73,6.93,82.8,6.93c5.57,0,6.07,3.6,6.07,15.24,3.84.86,7.67,1.73,11.39,2.72v-5.2C100.14,7.06,99.27,0,87.26,0Z"/><path d="M100.14,30.34C90,27.74,80.32,25.39,69.8,24.77l-6.32-.13C42.18,24.77,20.88,30-.17,38a252.05,252.05,0,0,1,27.49-5.58v8.3c0,7.8-2,9.78-8.42,9.78V53H46.27V50.52c-5.7,0-7.43-2-7.43-9.78V31.08c6.56-.62,13-1,19.32-1V40.74c0,7.8-1.74,9.78-7.43,9.78V53H77V50.52c-5.82,0-7.43-2-7.43-9.78V30.34a114.85,114.85,0,0,1,19.32,3.09v7.31c0,7.8-1.61,9.78-7.43,9.78V53H108.8V50.52c-6.68,0-8.42-2-8.42-9.78V36.16c4.71,1.11,9.54,2.35,14.74,3.47s7.3-1.74,6.81-3.72C117.1,34.92,100.14,30.34,100.14,30.34Z" /><polygon points="111.9 51.27 111.4 51.27 111.4 50.9 112.89 50.9 112.89 51.27 112.39 51.27 112.39 52.88 111.9 52.88 111.9 51.27" /><path d="M114.75,52.13v-.86c-.13.24-.13.49-.25.74l-.25.74h-.37l-.25-.74a1.56,1.56,0,0,1-.12-.74v1.61h-.37l.12-2h.62l.25.62a1.6,1.6,0,0,1,.12.75,1.8,1.8,0,0,1,.25-.75l.25-.62h.62l.12,2H115Z" /></g></g></svg>