<svg id="icon" data-name="Layer 1" xmlns="http://www.w3.org/2000/svg" viewBox="0 0 50 50"><title>map-pin-2</title><path d="M38.27,13.4a13.27,13.27,0,1,0-16.677,12.81L23.048,49.4a.5.5,0,0,0,.5.469h3.214a.5.5,0,0,0,.5-.475l1.172-23.187A13.281,13.281,0,0,0,38.27,13.4ZM24.017,48.868,22.609,26.445a12.744,12.744,0,0,0,4.81,0L26.285,48.868ZM25,25.672A12.27,12.27,0,1,1,37.27,13.4,12.284,12.284,0,0,1,25,25.672Z"/><path d="M20.222,5a10.106,10.106,0,0,0-4.405,5.745,9.991,9.991,0,0,0,.156,5.826.5.5,0,0,0,.474.341.486.486,0,0,0,.159-.026.5.5,0,0,0,.315-.633,8.987,8.987,0,0,1-.142-5.235,9.087,9.087,0,0,1,3.965-5.165A.5.5,0,1,0,20.222,5Z"/></svg>
